<?xml version="1.0" standalone="no"?>
<!DOCTYPE svg PUBLIC "-//W3C//DTD SVG 1.1//EN" "http://www.w3.org/Graphics/SVG/1.1/DTD/svg11.dtd" >
<svg xmlns="http://www.w3.org/2000/svg" xmlns:xlink="http://www.w3.org/1999/xlink" version="1.1">
<metadata></metadata>
<defs>
<font id="promptregular" horiz-adv-x="0" >
<font-face units-per-em="2048" ascent="1536" descent="-512" />
<missing-glyph horiz-adv-x="817" />
<glyph unicode="fi" horiz-adv-x="1319" d="M55 889v173h162v201q0 183 117 283t292 100q89 0 172 -27v-182q-61 25 -127 25q-113 0 -171.5 -54.5t-58.5 -157.5v-188h716v-1062h-224v889h-492v-889h-224v889h-162zM912 1400q0 55 38 92.5t94 37.5q55 0 94 -37t39 -93q0 -55 -39 -92.5t-94 -37.5q-58 0 -95 37.5 t-37 92.5z" />
<glyph unicode="fl" horiz-adv-x="1304" d="M55 889v173h162v208q0 182 116 279t293 97q89 0 172 -27v-182q-61 25 -125 25q-110 0 -171 -52t-61 -154v-194h494v482h226v-1544h-226v889h-494v-889h-224v889h-162z" />
<glyph unicode="&#xe24;&#xe45;" horiz-adv-x="1939" d="M99 916q118 148 268 224t357 76q190 0 318 -64q53 27 138 45.5t169 18.5q223 0 335 -120.5t112 -345.5v-1183h-226v1199q0 141 -57 206.5t-204 65.5q-55 0 -115 -12q78 -108 78 -268v-1191h-225v1174q0 152 -81 224.5t-242 72.5q-125 0 -215.5 -35.5t-168.5 -117.5 l95 -148v-439q0 -61 26 -85.5t85 -24.5h125v-188h-236q-110 0 -167 62t-57 170v505z" />
<glyph unicode="&#xe26;&#xe45;" horiz-adv-x="1978" d="M99 0v188h93q60 0 82 23t22 87v439l-155 179q113 146 265.5 223t361.5 77q188 0 316 -64q53 27 138 45.5t169 18.5q224 0 334.5 -120.5t110.5 -345.5v-1183h-226v1199q0 141 -57.5 206.5t-203.5 65.5q-53 0 -112 -12q77 -108 77 -268v-1191h-225v1174q0 152 -82.5 224.5 t-240.5 72.5q-122 0 -212 -34.5t-165 -112.5l133 -152v-507q0 -108 -58.5 -170t-169.5 -62h-195z" />
<glyph unicode=" "  horiz-adv-x="817" />
<glyph unicode="&#x09;" horiz-adv-x="817" />
<glyph unicode="&#xa0;" horiz-adv-x="817" />
<glyph unicode="!" horiz-adv-x="462" d="M99 97q0 55 38 93t93 38t94 -38t39 -93t-39 -92.5t-94 -37.5t-93 37.5t-38 92.5zM124 443v1104h216v-1104h-216z" />
<glyph unicode="&#x22;" horiz-adv-x="747" d="M99 1133v414h190v-414h-190zM458 1133v414h190v-414h-190z" />
<glyph unicode="#" horiz-adv-x="1686" d="M99 376v177h262l114 403h-285v177h334l118 414h198l-116 -414h466l117 414h202l-118 -414h197v-177h-246l-114 -403h269v-177h-318l-107 -376h-200l105 376h-466l-106 -376h-200l107 376h-213zM559 553h467l116 403h-467z" />
<glyph unicode="$" horiz-adv-x="1239" d="M99 53v202q199 -95 435 -101v549q-5 0 -8 2q-219 89 -316.5 194t-97.5 266q0 164 114 274t308 133v201h194v-196q179 -13 338 -82v-195q-171 78 -338 87v-540q148 -60 235.5 -117t133 -138t45.5 -203q0 -173 -104.5 -278t-309.5 -133v-206h-194v195q-125 2 -241 25 t-194 61zM348 1165q0 -80 42.5 -131.5t143.5 -102.5v441q-91 -25 -138.5 -77t-47.5 -130zM728 175q177 47 177 214q0 82 -41 132.5t-136 97.5v-444z" />
<glyph unicode="%" horiz-adv-x="1956" d="M106 1172q0 110 54.5 204.5t147.5 148.5t203 54t204.5 -54t148.5 -148t54 -205q0 -110 -54 -203t-148.5 -147t-204.5 -54t-203 54t-147.5 147t-54.5 203zM274 1167q0 -99 67.5 -167.5t169.5 -68.5q101 0 168.5 68.5t67.5 167.5q0 102 -67.5 171t-168.5 69 q-102 0 -169.5 -68.5t-67.5 -171.5zM445 0l855 1547h220l-857 -1547h-218zM1047 372q0 110 54 204.5t146.5 148.5t202.5 54q111 0 205.5 -54t148.5 -148.5t54 -204.5q0 -111 -54 -203.5t-148 -147t-206 -54.5q-110 0 -202.5 54.5t-146.5 147t-54 203.5zM1212 367 q0 -99 68.5 -167.5t167.5 -68.5q103 0 171.5 68.5t68.5 167.5q0 102 -68.5 170.5t-171.5 68.5q-99 0 -167.5 -68.5t-68.5 -170.5z" />
<glyph unicode="&#x26;" horiz-adv-x="1709" d="M99 384q0 148 83.5 254.5t266.5 210.5q-110 101 -161 184.5t-51 184.5q0 164 111.5 262.5t297.5 98.5q118 0 209.5 -47.5t142.5 -129t51 -184.5q0 -122 -65.5 -208t-225.5 -189l421 -399q40 64 54 151.5t14 213.5h197q0 -170 -26.5 -284t-92.5 -222l296 -281h-270 l-157 150q-99 -95 -232 -139t-305 -44q-248 0 -403 109.5t-155 307.5zM316 384q0 -122 96.5 -186.5t246.5 -64.5q126 0 227.5 39t170.5 109l-460 445q-148 -74 -214.5 -152t-66.5 -190zM438 1210q0 -72 42 -129t141 -150q124 76 177 136.5t53 142.5q0 90 -55 144.5 t-150 54.5q-97 0 -152.5 -53.5t-55.5 -145.5z" />
<glyph unicode="'" horiz-adv-x="388" d="M99 1133v414h190v-414h-190z" />
<glyph unicode="(" horiz-adv-x="729" d="M99 597q0 290 84.5 539t243.5 443h236q-168 -215 -252 -456t-84 -526t84.5 -526.5t251.5 -454.5h-236q-159 194 -243.5 442t-84.5 539z" />
<glyph unicode=")" horiz-adv-x="729" d="M66 -384q168 213 252.5 454.5t84.5 526.5t-84.5 526.5t-252.5 455.5h237q159 -194 243.5 -443t84.5 -539q0 -291 -84.5 -539t-243.5 -442h-237z" />
<glyph unicode="*" horiz-adv-x="963" d="M99 1272l53 126l251 -93v242h159v-242l248 93l55 -126l-272 -95l181 -248l-124 -80l-168 235l-168 -237l-124 80l179 247z" />
<glyph unicode="+" horiz-adv-x="903" d="M99 566v184h262v261h181v-261h263v-184h-263v-263h-181v263h-262z" />
<glyph unicode="," horiz-adv-x="612" d="M99 -327l180 445h234l-210 -445h-204z" />
<glyph unicode="-" horiz-adv-x="903" d="M99 566v184h706v-184h-706z" />
<glyph unicode="." horiz-adv-x="408" d="M99 104q0 44 30 75.5t74 31.5t75.5 -31.5t31.5 -75.5q0 -45 -31.5 -74.5t-75.5 -29.5t-74 29.5t-30 74.5z" />
<glyph unicode="/" horiz-adv-x="1054" d="M99 0l631 1579h226l-631 -1579h-226z" />
<glyph unicode="0" horiz-adv-x="1486" d="M99 772q0 248 76.5 430.5t221.5 279.5t346 97t346 -97t221.5 -279.5t76.5 -430.5q0 -247 -77.5 -428.5t-222.5 -279t-344 -97.5t-343.5 97.5t-222.5 278.5t-78 429zM323 770q0 -279 111.5 -441.5t308.5 -162.5t308.5 162.5t111.5 441.5t-110.5 442.5t-309.5 163.5 t-309.5 -163.5t-110.5 -442.5z" />
<glyph unicode="1" horiz-adv-x="802" d="M99 1062v215l365 270h195v-1547h-226v1302z" />
<glyph unicode="2" horiz-adv-x="1284" d="M99 0v148l334 321q44 44 124 115q127 115 193 185.5t108.5 151.5t42.5 174q0 137 -80 209t-232 72q-104 0 -213.5 -38t-204.5 -110v216q185 135 453 135q239 0 371.5 -127t132.5 -346q0 -106 -45 -203.5t-127 -191.5t-222 -229l-301 -294h753v-188h-1087z" />
<glyph unicode="3" horiz-adv-x="1269" d="M99 51v186q206 -93 443 -93q203 0 301.5 74t98.5 211q0 141 -101.5 202t-309.5 61h-181v182h176q166 0 267.5 67.5t101.5 197.5q0 129 -83.5 195t-243.5 66q-124 0 -223.5 -29t-205.5 -94v185q195 118 456 117q259 0 393.5 -115t134.5 -318q0 -124 -66 -217t-198 -144 q150 -35 230.5 -128t80.5 -235q0 -210 -144 -332.5t-456 -122.5q-135 0 -257.5 21t-213.5 63z" />
<glyph unicode="4" horiz-adv-x="1328" d="M55 380v144l750 1023h230v-990h239v-177h-239v-380h-227v380h-753zM310 557h524v720z" />
<glyph unicode="5" horiz-adv-x="1260" d="M99 62v202q91 -56 206 -86t219 -30q201 0 305 85.5t104 251.5q0 157 -96 240t-286 83q-80 0 -167.5 -15.5t-155.5 -42.5l-99 58l57 739h865v-192h-660l-32 -397q137 29 278 28q245 0 384.5 -137t139.5 -364q0 -250 -157 -384t-473 -134q-122 0 -237 25t-195 70z" />
<glyph unicode="6" horiz-adv-x="1346" d="M99 629q0 460 189 705t544 245q122 0 217 -26v-190q-78 33 -200 32q-473 0 -520 -568q66 85 176 128t240 43q150 0 263 -62t176 -177t63 -268q0 -150 -67.5 -269.5t-195.5 -187t-303 -67.5q-166 0 -297.5 76.5t-208 225.5t-76.5 360zM338 480q0 -91 43 -168.5t121 -124 t179 -46.5q155 0 249 94t94 250q0 154 -94 245t-249 91q-95 0 -173.5 -42t-124 -119.5t-45.5 -179.5z" />
<glyph unicode="7" horiz-adv-x="1205" d="M78 1355v192h1050v-167l-621 -1380h-222l612 1355h-819z" />
<glyph unicode="8" horiz-adv-x="1330" d="M99 422q0 148 78 249t205 137q-106 44 -168 135.5t-62 213.5q0 194 139.5 308t373.5 114q232 0 372 -114t140 -308q0 -122 -62 -214t-168 -135q129 -36 207 -137t78 -249q0 -219 -152.5 -337t-414.5 -118q-260 0 -413 118t-153 337zM323 438q0 -143 92 -225t250 -82 q160 0 251 81.5t91 225.5q0 138 -94 217t-248 79q-152 0 -247 -79.5t-95 -216.5zM372 1137q0 -117 82 -189t211 -72q131 0 213 72t82 189q0 120 -81 195t-214 75t-213 -75.5t-80 -194.5z" />
<glyph unicode="9" horiz-adv-x="1346" d="M99 1055q0 150 67.5 269.5t196 187t302.5 67.5q169 0 300.5 -75t206.5 -224t75 -362q0 -460 -189 -705.5t-543 -245.5q-122 0 -217 27v187q86 -33 200 -33q475 0 522 569q-66 -84 -173.5 -126t-240.5 -42q-148 0 -263 62t-179.5 177t-64.5 267zM323 1062 q0 -155 94 -245.5t248 -90.5q147 0 245.5 93t98.5 245q0 91 -43.5 168t-120.5 123.5t-180 46.5q-154 0 -248 -93t-94 -247z" />
<glyph unicode=":" horiz-adv-x="441" d="M99 166q0 51 36 87t86 36q51 0 86 -36t35 -87q0 -48 -35 -85t-86 -37q-50 0 -86 35t-36 87zM99 942q0 51 36 87.5t86 36.5q51 0 86 -36t35 -88q0 -49 -35 -85t-86 -36q-50 0 -86 35t-36 86z" />
<glyph unicode=";" horiz-adv-x="612" d="M99 -327l180 445h234l-210 -445h-204zM261 942q0 51 35.5 87.5t85.5 36.5q51 0 86.5 -36t35.5 -88q0 -49 -35.5 -85t-86.5 -36q-50 0 -85.5 35t-35.5 86z" />
<glyph unicode="&#x3c;" horiz-adv-x="1203" d="M99 635v161l1005 494v-226l-728 -349l728 -350v-224z" />
<glyph unicode="=" horiz-adv-x="1158" d="M99 391v179h960v-179h-960zM99 823v181h960v-181h-960z" />
<glyph unicode="&#x3e;" horiz-adv-x="1203" d="M99 141v224l726 350l-726 349v226l1005 -494v-161z" />
<glyph unicode="?" horiz-adv-x="1138" d="M99 1300v195q89 38 194.5 61t215.5 23q243 0 387 -108t144 -297q0 -115 -60 -197t-188 -175q-93 -65 -133 -104t-57.5 -86.5t-17.5 -126.5v-44h-217v46q0 135 51 225t173 175q88 61 132.5 98t70 82t25.5 107q0 99 -80 157t-230 58q-222 0 -410 -89zM342 97q0 55 38 93 t93 38t94 -38t39 -93t-39 -92.5t-94 -37.5t-93 37.5t-38 92.5z" />
<glyph unicode="@" horiz-adv-x="2012" d="M99 624q0 279 118.5 496.5t339 338t509.5 120.5q401 0 624.5 -197.5t223.5 -560.5q0 -250 -103.5 -415t-290.5 -165q-83 0 -152.5 43t-90.5 117q-51 -78 -136.5 -119t-191.5 -41q-170 0 -275.5 101t-105.5 291q0 148 61 267.5t174 189t263 69.5q89 0 180.5 -19t160.5 -51 l-29 -514q-4 -85 33 -129.5t104 -44.5q106 0 150.5 109t44.5 311q0 294 -159.5 438.5t-484.5 144.5q-230 0 -402.5 -94t-266.5 -270.5t-94 -415.5q0 -303 177 -462.5t516 -159.5q230 0 420 64v-163q-184 -71 -420 -71q-270 0 -471.5 90.5t-313.5 268.5t-112 433zM772 648 q0 -120 51 -181.5t148 -61.5q108 0 168 60.5t64 146.5l23 355q-66 29 -164 29q-131 0 -210.5 -98t-79.5 -250z" />
<glyph unicode="A" horiz-adv-x="1649" d="M99 0l618 1547h216l618 -1547h-230l-156 384h-683l-150 -384h-233zM546 572h558l-279 724z" />
<glyph unicode="B" horiz-adv-x="1435" d="M144 0v1547h710q205 0 318 -106.5t113 -309.5q0 -115 -54 -203t-142 -130q247 -73 247 -360q0 -135 -59 -233.5t-160.5 -151.5t-225.5 -53h-747zM369 184h471q131 0 199.5 57t68.5 197t-72 199.5t-215 59.5h-452v-513zM369 882h456q108 0 170 60t62 177q0 135 -61 189.5 t-186 54.5h-441v-481z" />
<glyph unicode="C" horiz-adv-x="1570" d="M99 772q0 241 104.5 424.5t290 283t424.5 99.5q319 0 532 -161v-217q-192 171 -513 171q-179 0 -317 -73t-215.5 -209t-77.5 -318q0 -181 79 -318.5t217 -210t314 -72.5q165 0 294.5 43t239.5 138v-219q-199 -166 -553 -166q-239 0 -424.5 99.5t-290 282t-104.5 423.5z " />
<glyph unicode="D" horiz-adv-x="1554" d="M144 0v1547h498q249 0 432.5 -93t282.5 -266t99 -407q0 -385 -222.5 -583t-623.5 -198h-466zM369 188h239q310 0 465 153t155 440q0 266 -152 420t-432 154h-275v-1167z" />
<glyph unicode="E" horiz-adv-x="1251" d="M144 0v1547h1019v-192h-794v-488h593v-188h-593v-491h794v-188h-1019z" />
<glyph unicode="F" horiz-adv-x="1218" d="M144 0v1547h1019v-192h-794v-492h593v-179h-593v-684h-225z" />
<glyph unicode="G" horiz-adv-x="1583" d="M99 772q0 241 104.5 424.5t290 283t424.5 99.5q321 0 532 -159v-217q-192 169 -513 169q-175 0 -313.5 -73t-217.5 -209t-79 -318q0 -181 77.5 -318.5t214.5 -210t310 -72.5q201 0 329 81v405h-294v183h520v-707q-104 -87 -244.5 -126.5t-321.5 -39.5q-239 0 -424.5 99.5 t-290 282t-104.5 423.5z" />
<glyph unicode="H" horiz-adv-x="1545" d="M144 0v1547h225v-665h808v665h225v-1547h-225v692h-808v-692h-225z" />
<glyph unicode="I" horiz-adv-x="515" d="M144 0v1547h228v-1547h-228z" />
<glyph unicode="J" horiz-adv-x="824" d="M55 4v193q34 -13 85.5 -22t98.5 -9q228 0 228 221v1160h225v-1175q0 -191 -108.5 -298t-294.5 -107q-61 0 -129.5 11t-104.5 26z" />
<glyph unicode="K" horiz-adv-x="1481" d="M144 0v1547h225v-1547h-225zM380 787l706 760h275l-707 -760l750 -787h-273z" />
<glyph unicode="L" horiz-adv-x="1207" d="M144 0v1547h225v-1359h783v-188h-1008z" />
<glyph unicode="M" horiz-adv-x="1839" d="M144 0v1547h225l551 -1207l551 1207h226v-1547h-220v1099l-502 -1099h-110l-504 1099v-1099h-217z" />
<glyph unicode="N" horiz-adv-x="1516" d="M144 0v1547h215l787 -1167v1167h228v-1547h-217l-788 1165v-1165h-225z" />
<glyph unicode="O" horiz-adv-x="1826" d="M99 772q0 237 106.5 420.5t292.5 285t416 101.5t415.5 -101.5t291.5 -285t106 -420.5q0 -236 -106 -420t-291.5 -284.5t-415.5 -100.5t-416 100.5t-292.5 284.5t-106.5 420zM327 772q0 -181 77.5 -317t211.5 -210t298 -74q163 0 297 74t211.5 210t77.5 317 q0 179 -76.5 315.5t-209.5 210.5t-296 74q-166 0 -299.5 -73t-212.5 -210.5t-79 -316.5z" />
<glyph unicode="P" horiz-adv-x="1332" d="M144 0v1547h595q249 0 394.5 -125.5t145.5 -355.5q0 -234 -144 -354.5t-396 -120.5h-370v-591h-225zM369 779h346q154 0 245 64t91 223t-91 224t-245 65h-346v-576z" />
<glyph unicode="Q" horiz-adv-x="1806" d="M99 777q0 236 106.5 418.5t292.5 283t416 100.5t415.5 -100.5t291.5 -283t106 -418.5q0 -188 -85 -344.5t-224 -238.5h334v-194h-798q-253 0 -446.5 95t-301 271t-107.5 411zM327 777q0 -182 74 -310.5t207 -195t306 -66.5q170 0 302.5 66.5t206.5 196t74 309.5 q0 177 -77.5 313t-210 209t-295.5 73q-164 0 -298 -73t-211.5 -208t-77.5 -314z" />
<glyph unicode="R" horiz-adv-x="1377" d="M144 0v1547h622q247 0 380 -120t133 -350q0 -171 -91 -288.5t-257 -159.5l341 -629h-234l-331 610h-338v-610h-225zM369 800h359q148 0 235.5 70t87.5 207q0 150 -85.5 214t-237.5 64h-359v-555z" />
<glyph unicode="S" horiz-adv-x="1239" d="M99 53v204q213 -99 458 -100q345 0 346 232q0 80 -38 128.5t-108.5 85t-230.5 100.5q-219 89 -316.5 195t-97.5 267q0 122 66.5 216t186.5 146t274 52q127 0 228.5 -20t198.5 -64v-195q-192 87 -389 87q-159 0 -243 -57.5t-84 -164.5q0 -73 36 -122t108 -88t213 -96 q157 -64 248.5 -122t139 -141t47.5 -207q0 -201 -144 -311.5t-426 -110.5q-131 0 -261 23t-212 63z" />
<glyph unicode="T" horiz-adv-x="1298" d="M55 1355v192h1188v-192h-479v-1355h-228v1355h-481z" />
<glyph unicode="U" horiz-adv-x="1541" d="M133 578v969h226v-979q0 -196 110.5 -296.5t302.5 -100.5q190 0 301 100.5t111 296.5v979h225v-969q0 -283 -161.5 -447t-475.5 -164q-316 0 -477.5 162.5t-161.5 448.5z" />
<glyph unicode="V" horiz-adv-x="1649" d="M99 1547h239l487 -1239l486 1239h240l-618 -1547h-216z" />
<glyph unicode="W" horiz-adv-x="2214" d="M99 1547h235l345 -1175l341 1175h177l338 -1175l345 1175h235l-452 -1547h-215l-342 1167l-340 -1167h-215z" />
<glyph unicode="X" horiz-adv-x="1618" d="M102 0l577 785l-557 762h258l430 -585l429 585h258l-560 -762l580 -785h-259l-448 610l-449 -610h-259z" />
<glyph unicode="Y" horiz-adv-x="1547" d="M99 1547h241l432 -747l438 747h238l-568 -961v-586h-219v586z" />
<glyph unicode="Z" horiz-adv-x="1366" d="M99 0v152l857 1203h-836v192h1110v-156l-854 -1203h892v-188h-1169z" />
<glyph unicode="[" horiz-adv-x="673" d="M99 -213v1954h498v-190h-272v-1576h272v-188h-498z" />
<glyph unicode="\" horiz-adv-x="1047" d="M99 1579h220l630 -1579h-219z" />
<glyph unicode="]" horiz-adv-x="673" d="M78 -25h270v1576h-270v190h497v-1954h-497v188z" />
<glyph unicode="^" horiz-adv-x="1211" d="M99 863l418 728h177l418 -728h-217l-289 513l-292 -513h-215z" />
<glyph unicode="_" horiz-adv-x="1076" d="M99 0h878v-194h-878v194z" />
<glyph unicode="`" horiz-adv-x="585" d="M99 1642h237l151 -382h-204z" />
<glyph unicode="a" horiz-adv-x="1258" d="M99 332q0 177 112 273t317 96q219 0 373 -89v55q0 127 -77 188t-240 61q-97 0 -189 -19t-165 -52v181q66 31 172.5 50t205.5 19q264 0 390.5 -116t126.5 -322v-657h-209v120q-68 -76 -162.5 -114.5t-229.5 -38.5q-192 0 -308.5 98.5t-116.5 266.5zM325 332 q0 -195 255 -195q106 0 192.5 42t128.5 117v145q-144 93 -321 93q-129 0 -192 -50.5t-63 -151.5z" />
<glyph unicode="b" horiz-adv-x="1459" d="M144 0v1634h223v-714q74 87 189 131t246 44q159 0 286.5 -72t200 -200.5t72.5 -294.5q0 -168 -72.5 -295t-199.5 -196.5t-287 -69.5q-143 0 -248 45t-193 142v-154h-217zM367 409q42 -122 145 -193.5t240 -71.5q109 0 196 47.5t137 136t50 200.5t-50 201.5t-137 138 t-196 48.5q-135 0 -241 -73t-144 -195v-239z" />
<glyph unicode="c" horiz-adv-x="1209" d="M99 528q0 175 76.5 302.5t214.5 196t317 68.5q243 0 390 -95v-184q-143 100 -367 100q-181 0 -293 -98.5t-112 -289.5q0 -190 110.5 -287t290.5 -97q223 0 384 105v-181q-78 -53 -176 -77t-231 -24q-177 0 -314 66t-213.5 193.5t-76.5 301.5z" />
<glyph unicode="d" horiz-adv-x="1459" d="M99 528q0 166 72 294.5t199.5 200.5t286.5 72q287 0 436 -175v714h224v-1634h-218v154q-88 -97 -193.5 -142t-248.5 -45q-159 0 -286.5 69.5t-199.5 197t-72 294.5zM325 528q0 -112 49.5 -200.5t137 -136t195.5 -47.5q138 0 241 71.5t145 193.5v239q-38 122 -143 195 t-243 73q-108 0 -195.5 -48.5t-137 -137t-49.5 -202.5z" />
<glyph unicode="e" horiz-adv-x="1344" d="M99 528q0 261 150 414t426 153q184 0 312 -69.5t193 -192.5t65 -280v-110h-933q11 -150 127 -224.5t315 -74.5q101 0 205.5 18.5t184.5 50.5v-180q-72 -29 -188 -47.5t-228 -18.5q-295 0 -462 147t-167 414zM312 599h723q-5 151 -99 234t-265 83q-169 0 -262 -86.5 t-97 -230.5z" />
<glyph unicode="f" horiz-adv-x="779" d="M55 889v173h162v208q0 184 103.5 280t278.5 96q91 0 171 -27v-186q-62 29 -128 29q-104 0 -152.5 -49.5t-48.5 -156.5v-194h264v-173h-264v-889h-224v889h-162z" />
<glyph unicode="g" horiz-adv-x="1459" d="M99 531q0 169 72 296t199.5 197.5t286.5 70.5q148 0 251 -43t191 -143v153h218v-1009q0 -272 -152 -417t-466 -145q-108 0 -211.5 18t-173.5 50v184q165 -75 379 -75h6q205 0 299.5 90t94.5 271v112q-146 -174 -430 -174q-162 0 -290 70.5t-201 199t-73 294.5zM325 531 q0 -114 49.5 -202t137 -136.5t195.5 -48.5q138 0 243 72.5t143 194.5v239q-42 124 -145 195t-241 71q-108 0 -195.5 -47.5t-137 -136t-49.5 -201.5z" />
<glyph unicode="h" horiz-adv-x="1326" d="M144 0v1634h223v-718q152 179 407 179q213 0 316.5 -113t103.5 -303v-679h-223v657q0 259 -247 259q-106 0 -198.5 -50t-158.5 -151v-715h-223z" />
<glyph unicode="i" horiz-adv-x="552" d="M144 1400q0 55 37.5 92.5t92.5 37.5q58 0 96.5 -37t38.5 -93q0 -55 -38.5 -92.5t-96.5 -37.5q-55 0 -92.5 37.5t-37.5 92.5zM162 0v1062h227v-1062h-227z" />
<glyph unicode="j" horiz-adv-x="552" d="M-154 -303q55 -26 127 -26h5q100 0 143 47.5t43 152.5v1191h225v-1206q0 -183 -101.5 -275t-274.5 -92h-8q-94 0 -159 24v184zM144 1400q0 55 38.5 92.5t93.5 37.5q56 0 94.5 -37t38.5 -93q0 -55 -38.5 -92.5t-94.5 -37.5q-57 0 -94.5 37.5t-37.5 92.5z" />
<glyph unicode="k" horiz-adv-x="1258" d="M144 0v1634h223v-1634h-223zM369 538l490 524h272l-492 -524l543 -538h-273z" />
<glyph unicode="l" horiz-adv-x="510" d="M144 0v1634h223v-1634h-223z" />
<glyph unicode="m" horiz-adv-x="1917" d="M144 0v1062h212v-153q76 93 170.5 139.5t197.5 46.5q128 0 203 -43t111 -132q71 87 173.5 131t206.5 44q194 0 280.5 -99t86.5 -291v-705h-217v677q0 131 -48.5 185t-166.5 54q-168 0 -274 -146q4 -33 5 -109v-661h-217v677q0 131 -44 185t-160 54q-168 0 -300 -190v-726 h-219z" />
<glyph unicode="n" horiz-adv-x="1326" d="M144 0v1062h217v-153q75 95 184 140.5t229 45.5q213 0 316.5 -113t103.5 -303v-679h-223v657q0 259 -247 259q-106 0 -198.5 -50t-158.5 -151v-715h-223z" />
<glyph unicode="o" horiz-adv-x="1408" d="M99 528q0 171 75 299.5t212.5 198t316.5 69.5t316.5 -69.5t213.5 -198t76 -299.5q0 -173 -76 -299.5t-213.5 -194t-316.5 -67.5t-315 67.5t-212.5 194.5t-76.5 299zM327 528q0 -173 102 -278.5t274 -105.5q173 0 274.5 106t101.5 278q0 179 -101.5 283.5t-274.5 104.5 t-274.5 -104.5t-101.5 -283.5z" />
<glyph unicode="p" horiz-adv-x="1459" d="M144 -485v1547h217v-157q164 190 441 190q159 0 286.5 -70.5t200 -198t72.5 -295.5q0 -166 -72.5 -294.5t-198.5 -199t-288 -70.5q-132 0 -246.5 44t-188.5 130v-626h-223zM367 411q38 -122 144 -194.5t241 -72.5q109 0 196 47.5t137 136t50 203.5t-50 202.5t-137 135 t-196 47.5q-135 0 -238 -71t-147 -195v-239z" />
<glyph unicode="q" horiz-adv-x="1459" d="M99 531q0 169 72 296t199.5 197.5t286.5 70.5q278 0 442 -190v157h218v-1547h-224v626q-73 -86 -188.5 -130t-247.5 -44q-162 0 -288 70.5t-198 199t-72 294.5zM325 531q0 -114 49.5 -203t137 -136.5t195.5 -47.5q135 0 241.5 72.5t144.5 194.5v239q-44 124 -147.5 195 t-238.5 71q-108 0 -195.5 -47.5t-137 -135t-49.5 -202.5z" />
<glyph unicode="r" horiz-adv-x="882" d="M144 0v1062h217v-190q66 97 186 143.5t280 46.5v-175q-170 0 -291.5 -55t-168.5 -175v-657h-223z" />
<glyph unicode="s" horiz-adv-x="1081" d="M99 785q0 152 120.5 231t324.5 79q106 0 208 -20t164 -55v-186q-64 38 -158.5 60t-191.5 22q-118 0 -179.5 -28.5t-61.5 -102.5q0 -46 26.5 -75t85.5 -50t187 -54q201 -55 279.5 -130t78.5 -208q0 -137 -113 -219t-333 -82q-112 0 -235.5 27.5t-194.5 73.5v191 q86 -51 199 -83t219 -32q120 0 175 28.5t55 93.5q0 48 -25.5 78t-86 54t-182.5 58q-131 38 -207 76t-115 98t-39 155z" />
<glyph unicode="t" horiz-adv-x="826" d="M55 889v173h162v318h226v-318h260v-173h-260v-551q0 -106 40.5 -150t149.5 -44q64 0 128 29v-177q-84 -29 -208 -29q-162 0 -249 92.5t-87 263.5v566h-162z" />
<glyph unicode="u" horiz-adv-x="1326" d="M133 389v673h223v-663q0 -255 254 -255q224 0 350 201v717h224v-1062h-217v150q-76 -95 -178.5 -139t-222.5 -44q-214 0 -323.5 115t-109.5 307z" />
<glyph unicode="v" horiz-adv-x="1296" d="M99 1062h237l312 -764l312 764h237l-452 -1062h-194z" />
<glyph unicode="w" horiz-adv-x="1809" d="M99 1062h228l239 -788l236 788h202l237 -788l239 788h230l-345 -1062h-215l-245 792l-246 -792h-216z" />
<glyph unicode="x" horiz-adv-x="1364" d="M99 0l456 555l-416 507h255l287 -352l290 352h255l-416 -507l455 -555h-252l-332 401l-329 -401h-253z" />
<glyph unicode="y" horiz-adv-x="1298" d="M99 1062h230l355 -817l329 817h230l-477 -1182q-66 -166 -158.5 -242t-238.5 -76q-118 0 -198 24v175q57 -21 141 -22q78 0 121.5 38.5t79.5 125.5l51 124z" />
<glyph unicode="z" horiz-adv-x="1102" d="M99 0v144l604 745h-591v173h870v-146l-604 -743h626v-173h-905z" />
<glyph unicode="{" horiz-adv-x="758" d="M78 665v196h44q146 0 146 167v500q0 106 47.5 159.5t135.5 53.5h208v-190h-81q-47 0 -65.5 -23.5t-18.5 -77.5v-450q0 -188 -146 -234v-5q146 -42 146 -235v-450q0 -53 18.5 -77t65.5 -24h81v-190h-208q-88 0 -135.5 53.5t-47.5 159.5v500q0 168 -146 167h-44z" />
<glyph unicode="|" horiz-adv-x="424" d="M99 -319v2115h226v-2115h-226z" />
<glyph unicode="}" horiz-adv-x="758" d="M99 -25h82q47 0 66 23.5t19 77.5v450q0 192 145 235v5q-145 46 -145 234v450q0 53 -19 77t-66 24h-82v190h209q88 0 135.5 -53.5t47.5 -159.5v-500q0 -168 146 -167h44v-196h-44q-146 0 -146 -167v-500q0 -106 -47.5 -159.5t-135.5 -53.5h-209v190z" />
<glyph unicode="~" horiz-adv-x="1216" d="M99 610v211q32 55 98.5 84.5t150.5 29.5q66 0 126 -17t145 -53q91 -36 141 -50.5t107 -14.5q78 0 139.5 31.5t110.5 101.5v-209q-34 -55 -100 -85.5t-150 -30.5q-65 0 -124 18t-139 51q-80 34 -138.5 50t-117.5 16q-78 0 -139 -31t-110 -102z" />
<glyph unicode="&#xa1;" horiz-adv-x="462" d="M99 1086q0 56 38 93t93 37t94 -37t39 -93q0 -55 -39 -92.5t-94 -37.5t-93 37t-38 93zM124 -369v1103h216v-1103h-216z" />
<glyph unicode="&#xa2;" horiz-adv-x="1209" d="M99 528q0 234 137.5 382.5t369.5 178.5v194h196v-192q175 -13 295 -91v-184q-122 85 -295 98v-768q175 15 308 103v-181q-124 -84 -308 -97v-195h-196v197q-232 25 -369.5 170.5t-137.5 384.5zM325 528q0 -154 75 -249t206 -125v749q-131 -31 -206 -125t-75 -250z" />
<glyph unicode="&#xa3;" horiz-adv-x="1085" d="M99 0v181h177v562h-164v181h164v253q0 190 124 296t310 106q88 0 172 -26v-184q-55 25 -126 24q-122 0 -185.5 -57t-63.5 -171v-241h386v-181h-386v-562h479v-181h-887z" />
<glyph unicode="&#xa4;" horiz-adv-x="1304" d="M99 237l188 139q-73 99 -72 228q0 130 72 230l-188 139l98 122l192 -155q110 90 263 90q150 0 262 -90l194 155l97 -122l-188 -139q74 -104 74 -230q0 -124 -74 -228l188 -139l-97 -123l-194 152q-113 -89 -262 -89q-148 0 -261 89l-194 -152zM396 604q0 -108 74 -183.5 t182 -75.5q109 0 183 75.5t74 183.5t-75.5 184.5t-181.5 76.5q-108 0 -182 -75t-74 -186z" />
<glyph unicode="&#xa5;" horiz-adv-x="1549" d="M99 1547h241l432 -747l438 747h238l-501 -850h243v-151h-308v-162h308v-152h-308v-232h-221v232h-305v152h305v162h-305v151h239z" />
<glyph unicode="&#xa6;" horiz-adv-x="426" d="M99 -319v845h228v-845h-228zM99 949v847h228v-847h-228z" />
<glyph unicode="&#xa7;" horiz-adv-x="1239" d="M99 -86q213 -100 458 -100q171 0 255.5 60t84.5 172q0 80 -35 131t-109 88.5t-227 97.5q-217 84 -315.5 191t-98.5 269q0 95 45 165q-45 74 -45 177q0 122 66.5 216t186.5 146t274 52q127 0 228.5 -20t198.5 -64v-197q-97 47 -192 68t-203 21q-146 0 -231.5 -62 t-85.5 -164q0 -66 35 -114.5t109 -93t209 -102.5q169 -71 255.5 -123.5t133 -131.5t46.5 -207q0 -89 -40 -168q40 -80 40 -175q0 -200 -144 -311t-426 -111q-131 0 -261 23.5t-212 63.5v203zM306 796q0 -93 77 -158.5t252 -133.5q122 -50 198 -90t116 -85q9 45 9 78 q0 74 -38 124.5t-109.5 89t-202.5 89.5q-93 35 -173.5 79.5t-115.5 86.5q-13 -36 -13 -80z" />
<glyph unicode="&#xa8;" horiz-adv-x="956" d="M99 1422q0 53 39 91t90 38t89.5 -38t38.5 -91t-38.5 -90.5t-89.5 -37.5t-90 37.5t-39 90.5zM602 1422q0 53 38.5 91t89.5 38t90 -38t39 -91t-39 -90.5t-90 -37.5t-89.5 37.5t-38.5 90.5z" />
<glyph unicode="&#xa9;" horiz-adv-x="1819" d="M99 772q0 237 107.5 420.5t293.5 285t412 101.5q225 0 410 -101.5t291.5 -285t106.5 -420.5q0 -236 -106.5 -418.5t-291.5 -284.5t-410 -102q-226 0 -412 102t-293.5 284.5t-107.5 418.5zM303 772q0 -188 79.5 -327t218 -212.5t311.5 -73.5q169 0 307.5 73.5t218 212.5 t79.5 327q0 186 -79.5 325.5t-216.5 213.5t-309 74q-175 0 -313.5 -74t-217 -212.5t-78.5 -326.5zM396 770q0 157 66 272t182.5 176t264.5 61q224 0 351 -87v-168q-128 91 -329 91q-162 0 -252 -87.5t-90 -257.5q0 -171 89.5 -257t245.5 -86q206 0 350 97v-168 q-141 -95 -369 -95q-147 0 -263 60.5t-181 175.5t-65 273z" />
<glyph unicode="&#xaa;" horiz-adv-x="935" d="M99 1030q0 125 83.5 194.5t226.5 69.5q150 0 262 -62v45q0 88 -53.5 127.5t-172.5 39.5q-144 0 -253 -49v133q47 22 123 36.5t149 14.5q188 0 280 -82.5t92 -228.5v-472h-155v78q-97 -102 -278 -102q-135 0 -219.5 70t-84.5 188zM268 1030q0 -133 173 -133q76 0 137 29.5 t93 82.5v95q-95 63 -228 63q-89 0 -132 -32.5t-43 -104.5z" />
<glyph unicode="&#xab;" horiz-adv-x="1324" d="M99 681v66l513 437l112 -142l-390 -327l390 -326l-112 -142zM602 681v66l513 437l111 -142l-390 -327l390 -326l-111 -142z" />
<glyph unicode="&#xac;" horiz-adv-x="973" d="M99 570v177h775v-451h-211v274h-564z" />
<glyph unicode="&#xad;" horiz-adv-x="903" d="M99 566v184h706v-184h-706z" />
<glyph unicode="&#xae;" horiz-adv-x="1819" d="M99 772q0 237 107.5 420.5t293.5 285t412 101.5q225 0 410 -101.5t291.5 -285t106.5 -420.5q0 -236 -106.5 -418.5t-291.5 -284.5t-410 -102q-226 0 -412 102t-293.5 284.5t-107.5 418.5zM303 772q0 -188 79.5 -327t218 -212.5t311.5 -73.5q169 0 307.5 73.5t218 212.5 t79.5 327q0 186 -79.5 325.5t-216.5 213.5t-309 74q-175 0 -313.5 -74t-217 -212.5t-78.5 -326.5zM572 283v989h392q162 0 252.5 -74.5t90.5 -220.5q0 -110 -65 -186t-185 -99l208 -409h-179l-206 403h-133v-403h-175zM747 825h202q100 0 147.5 35t47.5 117 q0 93 -45.5 123.5t-149.5 30.5h-202v-306z" />
<glyph unicode="&#xaf;" horiz-adv-x="886" d="M99 1336v152h688v-152h-688z" />
<glyph unicode="&#xb0;" horiz-adv-x="835" d="M99 1290q0 86 43.5 159t116.5 116t159 43t159 -43t116.5 -116t43.5 -159q0 -87 -43.5 -160t-116.5 -116t-159 -43t-159 43t-116.5 116t-43.5 160zM247 1290q0 -69 50.5 -120t118.5 -51q71 0 120.5 49.5t49.5 121.5q0 68 -49.5 118t-120.5 50q-68 0 -118.5 -50t-50.5 -118 z" />
<glyph unicode="&#xb1;" horiz-adv-x="903" d="M99 0v181h706v-181h-706zM99 589v183h262v260h181v-260h263v-183h-263v-264h-181v264h-262z" />
<glyph unicode="&#xb2;" horiz-adv-x="753" d="M99 819v110l162 139q11 11 33 29q106 89 144.5 134.5t38.5 97.5q0 96 -118 96q-53 0 -118.5 -19t-107.5 -48v149q42 27 109.5 44t124.5 17q137 0 209 -65.5t72 -164.5q0 -57 -21 -99t-55 -78t-112 -99l-131 -111h325v-132h-555z" />
<glyph unicode="&#xb3;" horiz-adv-x="762" d="M99 836v133q45 -22 108 -34.5t118 -12.5q162 0 162 100q0 53 -36.5 76t-125.5 23h-101v126h99q144 0 144 95t-148 95q-108 0 -205 -57v131q98 57 251 57q133 0 206 -55t73 -152q0 -127 -125 -175q144 -29 144 -175q0 -99 -80.5 -157t-223.5 -58q-167 0 -260 40z" />
<glyph unicode="&#xb4;" horiz-adv-x="585" d="M99 1285l153 380h235l-184 -380h-204z" />
<glyph unicode="&#xb6;" horiz-adv-x="1638" d="M99 1131q0 270 156 412.5t418 142.5h866v-1982h-228v1791h-307v-1791h-225v885h-135q-157 0 -280 61.5t-194 183.5t-71 297z" />
<glyph unicode="&#xb7;" horiz-adv-x="408" d="M99 652q0 45 31.5 75.5t72.5 30.5q44 0 75.5 -30.5t31.5 -75.5q0 -44 -31.5 -75t-75.5 -31t-74 31t-30 75z" />
<glyph unicode="&#xb8;" horiz-adv-x="676" d="M99 -396q25 -11 60 -17.5t69 -6.5q139 0 139 101q0 122 -223 122l75 197h203l-48 -124q99 -13 151.5 -67t52.5 -143q0 -97 -81 -156t-216 -59q-127 0 -182 25v128z" />
<glyph unicode="&#xb9;" horiz-adv-x="515" d="M99 1234v159l204 154h157v-728h-171v553z" />
<glyph unicode="&#xba;" horiz-adv-x="1065" d="M99 1174q0 181 119.5 293t315.5 112q192 0 312.5 -112t120.5 -293q0 -186 -119.5 -295t-313.5 -109q-198 0 -316.5 108t-118.5 296zM276 1174q0 -120 71 -192.5t187 -72.5q114 0 184.5 73t70.5 192q0 122 -69.5 192.5t-185.5 70.5q-118 0 -188 -70.5t-70 -192.5z" />
<glyph unicode="&#xbb;" horiz-adv-x="1324" d="M99 389l390 326l-390 327l112 142l513 -437v-66l-513 -434zM602 389l389 326l-389 327l110 142l514 -437v-66l-514 -434z" />
<glyph unicode="&#xbc;" horiz-adv-x="1581" d="M99 1234v159l204 154h157v-728h-171v553zM234 0l857 1547h230l-857 -1547h-230zM859 159v120l333 449h186v-443h104v-126h-104v-159h-171v159h-348zM1020 285h212v279z" />
<glyph unicode="&#xbd;" horiz-adv-x="1631" d="M99 1234v159l204 154h157v-728h-171v553zM234 0l857 1547h230l-857 -1547h-230zM973 0v110l164 139q127 108 170.5 157.5t43.5 106.5q0 95 -119 95q-50 0 -116.5 -19t-108.5 -47v148q42 27 109.5 44.5t126.5 17.5q137 0 208 -65.5t71 -164.5q0 -58 -21 -100t-55 -76 t-112 -103l-129 -110h328v-133h-560z" />
<glyph unicode="&#xbe;" horiz-adv-x="1625" d="M99 836v133q45 -22 108 -34.5t118 -12.5q162 0 162 100q0 53 -36.5 76t-125.5 23h-101v126h99q144 0 144 95t-148 95q-108 0 -205 -57v131q98 57 251 57q133 0 206 -55t73 -152q0 -127 -125 -175q144 -29 144 -175q0 -99 -80.5 -157t-223.5 -58q-167 0 -260 40zM279 0 l856 1547h230l-856 -1547h-230zM903 159v120l334 449h185v-443h104v-126h-104v-159h-170v159h-349zM1064 285h213v279z" />
<glyph unicode="&#xbf;" horiz-adv-x="1138" d="M99 9q0 114 60 196t189 173q90 66 130.5 105t57.5 86.5t17 127.5v44h217v-47q0 -135 -51.5 -224.5t-169.5 -173.5q-91 -64 -134 -100.5t-68.5 -80.5t-25.5 -106q0 -102 78 -159.5t230 -57.5q223 0 411 88v-194q-190 -82 -411 -82q-242 0 -386 108.5t-144 296.5zM531 1086 q0 56 38.5 93t93.5 37t94 -37t39 -93q0 -55 -37.5 -92.5t-95.5 -37.5q-55 0 -93.5 37t-38.5 93z" />
<glyph unicode="&#xc0;" horiz-adv-x="1649" d="M99 0l618 1547h216l618 -1547h-230l-156 384h-683l-150 -384h-233zM531 2020h237l152 -381h-205zM546 572h558l-279 724z" />
<glyph unicode="&#xc1;" horiz-adv-x="1649" d="M99 0l618 1547h216l618 -1547h-230l-156 384h-683l-150 -384h-233zM546 572h558l-279 724zM734 1639l151 381h236l-184 -381h-203z" />
<glyph unicode="&#xc2;" horiz-adv-x="1649" d="M99 0l618 1547h216l618 -1547h-230l-156 384h-683l-150 -384h-233zM414 1639l314 368h196l315 -368h-226l-186 237l-185 -237h-228zM546 572h558l-279 724z" />
<glyph unicode="&#xc3;" horiz-adv-x="1649" d="M99 0l618 1547h216l618 -1547h-230l-156 384h-683l-150 -384h-233zM405 1642v190q68 95 216 95q49 0 94.5 -13.5t116.5 -41.5q59 -27 104.5 -42t93.5 -15q66 0 119.5 26t95.5 88v-190q-66 -93 -215 -93q-55 0 -104.5 14t-113.5 43q-64 27 -104.5 40t-86.5 13 q-64 0 -117 -25.5t-99 -88.5zM546 572h558l-279 724z" />
<glyph unicode="&#xc4;" horiz-adv-x="1649" d="M99 0l618 1547h216l618 -1547h-230l-156 384h-683l-150 -384h-233zM445 1767q0 53 38.5 90.5t91.5 37.5q50 0 88 -37t38 -91q0 -53 -37.5 -90.5t-88.5 -37.5q-53 0 -91.5 37.5t-38.5 90.5zM546 572h558l-279 724zM947 1767q0 53 38.5 90.5t91.5 37.5q51 0 88.5 -37 t37.5 -91q0 -53 -37.5 -90.5t-88.5 -37.5q-53 0 -91.5 37.5t-38.5 90.5z" />
<glyph unicode="&#xc5;" horiz-adv-x="1649" d="M99 0l591 1482q-55 33 -88.5 90.5t-33.5 128.5q0 106 74.5 181t182.5 75q106 0 181 -75t75 -181q0 -68 -33 -127t-88 -92l591 -1482h-230l-156 384h-683l-150 -384h-233zM546 572h558l-279 724zM705 1701q0 -51 36 -86.5t84 -35.5q49 0 84 36.5t35 85.5t-35 84.5 t-84 35.5q-48 0 -84 -35.5t-36 -84.5z" />
<glyph unicode="&#xc6;" horiz-adv-x="2039" d="M99 0l760 1547h1081v-192h-708v-488h507v-188h-507v-491h708v-188h-933v396h-476l-193 -396h-239zM621 572h386v770h-19z" />
<glyph unicode="&#xc7;" horiz-adv-x="1570" d="M99 772q0 241 104.5 424.5t290 283t424.5 99.5q319 0 532 -161v-217q-192 171 -513 171q-179 0 -317 -73t-215.5 -209t-77.5 -318q0 -181 79 -318.5t217 -210t314 -72.5q165 0 294.5 43t239.5 138v-219q-165 -137 -433 -162l-38 -95q99 -13 150 -67t51 -143 q0 -97 -79.5 -156t-216.5 -59q-122 0 -181 25l2 128q21 -11 58 -17.5t67 -6.5q142 0 143 101q0 122 -224 122l64 168q-217 15 -384 118t-259 279t-92 404z" />
<glyph unicode="&#xc8;" horiz-adv-x="1262" d="M144 0v1547h1019v-192h-794v-488h593v-188h-593v-491h794v-188h-1019zM363 2048h236l153 -380h-206z" />
<glyph unicode="&#xc9;" horiz-adv-x="1251" d="M144 0v1547h1019v-192h-794v-488h593v-188h-593v-491h794v-188h-1019zM515 1639l150 381h238l-184 -381h-204z" />
<glyph unicode="&#xca;" horiz-adv-x="1262" d="M144 0v1547h1019v-192h-794v-488h593v-188h-593v-491h794v-188h-1019zM208 1652l314 368h197l313 -368h-224l-187 237l-186 -237h-227z" />
<glyph unicode="&#xcb;" horiz-adv-x="1262" d="M144 0v1547h1019v-192h-794v-488h593v-188h-593v-491h794v-188h-1019zM249 1790q0 52 39 90t92 38q51 0 89 -38t38 -90q0 -53 -38 -91t-89 -38q-53 0 -92 38t-39 91zM752 1790q0 52 38.5 90t91.5 38q51 0 89 -38t38 -90q0 -53 -38 -91t-89 -38q-53 0 -91.5 38t-38.5 91z " />
<glyph unicode="&#xcc;" horiz-adv-x="521" d="M-27 2020h238l152 -381h-206zM146 0v1547h228v-1547h-228z" />
<glyph unicode="&#xcd;" horiz-adv-x="521" d="M146 0v1547h228v-1547h-228zM159 1639l151 381h236l-183 -381h-204z" />
<glyph unicode="&#xce;" horiz-adv-x="521" d="M-152 1639l314 368h197l314 -368h-226l-186 237l-185 -237h-228zM146 0v1547h228v-1547h-228z" />
<glyph unicode="&#xcf;" horiz-adv-x="521" d="M-122 1767q0 53 39 90.5t92 37.5q50 0 88 -37t38 -91q0 -53 -38 -90.5t-88 -37.5q-53 0 -92 37.5t-39 90.5zM146 0v1547h228v-1547h-228zM380 1767q0 53 39 90.5t92 37.5q51 0 88.5 -37t37.5 -91q0 -53 -37.5 -90.5t-88.5 -37.5q-53 0 -92 37.5t-39 90.5z" />
<glyph unicode="&#xd0;" horiz-adv-x="1607" d="M55 686v173h142v688h497q250 0 433.5 -93t282.5 -266t99 -407q0 -385 -222.5 -583t-623.5 -198h-466v686h-142zM424 194h237q306 0 463 152t157 435q0 263 -155 416.5t-429 153.5h-273v-492h408v-173h-408v-492z" />
<glyph unicode="&#xd1;" horiz-adv-x="1516" d="M144 0v1547h215l787 -1167v1167h228v-1547h-217l-788 1165v-1165h-225zM363 1642v190q68 95 217 95q49 0 94 -13.5t115 -41.5q60 -27 105.5 -42t93.5 -15q66 0 119.5 26t95.5 88v-190q-66 -93 -215 -93q-55 0 -104.5 14t-113.5 43q-64 27 -104 40t-86 13 q-64 0 -117.5 -25.5t-99.5 -88.5z" />
<glyph unicode="&#xd2;" horiz-adv-x="1826" d="M99 772q0 237 106.5 420.5t292.5 285t416 101.5t415.5 -101.5t291.5 -285t106 -420.5q0 -236 -106 -420t-291.5 -284.5t-415.5 -100.5t-416 100.5t-292.5 284.5t-106.5 420zM327 772q0 -181 77.5 -317t211.5 -210t298 -74q163 0 297 74t211.5 210t77.5 317 q0 179 -76.5 315.5t-209.5 210.5t-296 74q-166 0 -299.5 -73t-212.5 -210.5t-79 -316.5zM650 2020h237l153 -381h-206z" />
<glyph unicode="&#xd3;" horiz-adv-x="1826" d="M99 772q0 237 106.5 420.5t292.5 285t416 101.5t415.5 -101.5t291.5 -285t106 -420.5q0 -236 -106 -420t-291.5 -284.5t-415.5 -100.5t-416 100.5t-292.5 284.5t-106.5 420zM327 772q0 -181 77.5 -317t211.5 -210t298 -74q163 0 297 74t211.5 210t77.5 317 q0 179 -76.5 315.5t-209.5 210.5t-296 74q-166 0 -299.5 -73t-212.5 -210.5t-79 -316.5zM810 1639l150 381h237l-184 -381h-203z" />
<glyph unicode="&#xd4;" horiz-adv-x="1826" d="M99 772q0 237 106.5 420.5t292.5 285t416 101.5t415.5 -101.5t291.5 -285t106 -420.5q0 -236 -106 -420t-291.5 -284.5t-415.5 -100.5t-416 100.5t-292.5 284.5t-106.5 420zM327 772q0 -181 77.5 -317t211.5 -210t298 -74q163 0 297 74t211.5 210t77.5 317 q0 179 -76.5 315.5t-209.5 210.5t-296 74q-166 0 -299.5 -73t-212.5 -210.5t-79 -316.5zM502 1639l314 368h197l314 -368h-225l-186 237l-186 -237h-228z" />
<glyph unicode="&#xd5;" horiz-adv-x="1826" d="M99 772q0 237 106.5 420.5t292.5 285t416 101.5t415.5 -101.5t291.5 -285t106 -420.5q0 -236 -106 -420t-291.5 -284.5t-415.5 -100.5t-416 100.5t-292.5 284.5t-106.5 420zM327 772q0 -181 77.5 -317t211.5 -210t298 -74q163 0 297 74t211.5 210t77.5 317 q0 179 -76.5 315.5t-209.5 210.5t-296 74q-166 0 -299.5 -73t-212.5 -210.5t-79 -316.5zM494 1642v190q68 95 216 95q48 0 93.5 -13.5t116.5 -41.5q60 -27 105 -42t94 -15q66 0 119.5 26t95.5 88v-190q-66 -93 -215 -93q-55 0 -105 14t-113 43q-64 27 -104.5 40t-86.5 13 q-64 0 -117 -25.5t-99 -88.5z" />
<glyph unicode="&#xd6;" horiz-adv-x="1826" d="M99 772q0 237 106.5 420.5t292.5 285t416 101.5t415.5 -101.5t291.5 -285t106 -420.5q0 -236 -106 -420t-291.5 -284.5t-415.5 -100.5t-416 100.5t-292.5 284.5t-106.5 420zM327 772q0 -181 77.5 -317t211.5 -210t298 -74q163 0 297 74t211.5 210t77.5 317 q0 179 -76.5 315.5t-209.5 210.5t-296 74q-166 0 -299.5 -73t-212.5 -210.5t-79 -316.5zM534 1767q0 53 38 90.5t91 37.5q51 0 88.5 -37t37.5 -91q0 -53 -37 -90.5t-89 -37.5q-53 0 -91 37.5t-38 90.5zM1035 1767q0 53 38.5 90.5t91.5 37.5q51 0 89 -37t38 -91 q0 -53 -38 -90.5t-89 -37.5q-53 0 -91.5 37.5t-38.5 90.5z" />
<glyph unicode="&#xd7;" horiz-adv-x="826" d="M99 851l129 129l183 -186l188 188l129 -131l-188 -188l186 -183l-127 -128l-185 186l-184 -184l-128 126l183 185z" />
<glyph unicode="&#xd8;" horiz-adv-x="1826" d="M99 772q0 237 106.5 420.5t292.5 285t416 101.5q106 0 209 -24l74 179h221l-101 -250q192 -99 301 -285t109 -427q0 -236 -106 -420t-291.5 -284.5t-415.5 -100.5q-93 0 -199 22l-71 -179h-222l100 245q-195 99 -309 286t-114 431zM327 772q0 -175 73 -309t199 -211 l445 1106q-63 13 -130 14q-167 0 -299.5 -74t-210 -210.5t-77.5 -315.5zM792 181q48 -10 122 -10q163 0 297 74t211.5 210t77.5 317q0 171 -71 302t-192 209z" />
<glyph unicode="&#xd9;" horiz-adv-x="1541" d="M133 578v969h226v-979q0 -196 110.5 -296.5t302.5 -100.5q190 0 301 100.5t111 296.5v979h225v-969q0 -283 -161.5 -447t-475.5 -164q-316 0 -477.5 162.5t-161.5 448.5zM496 2020h236l153 -381h-206z" />
<glyph unicode="&#xda;" horiz-adv-x="1541" d="M133 578v969h226v-979q0 -196 110.5 -296.5t302.5 -100.5q190 0 301 100.5t111 296.5v979h225v-969q0 -283 -161.5 -447t-475.5 -164q-316 0 -477.5 162.5t-161.5 448.5zM652 1639l150 381h238l-184 -381h-204z" />
<glyph unicode="&#xdb;" horiz-adv-x="1541" d="M133 578v969h226v-979q0 -196 110.5 -296.5t302.5 -100.5q190 0 301 100.5t111 296.5v979h225v-969q0 -283 -161.5 -447t-475.5 -164q-316 0 -477.5 162.5t-161.5 448.5zM359 1639l314 368h196l315 -368h-226l-186 237l-186 -237h-227z" />
<glyph unicode="&#xdc;" horiz-adv-x="1541" d="M133 578v969h226v-979q0 -196 110.5 -296.5t302.5 -100.5q190 0 301 100.5t111 296.5v979h225v-969q0 -283 -161.5 -447t-475.5 -164q-316 0 -477.5 162.5t-161.5 448.5zM389 1767q0 53 39 90.5t91 37.5q51 0 89 -37t38 -91q0 -53 -38 -90.5t-89 -37.5q-52 0 -91 37.5 t-39 90.5zM891 1767q0 53 39 90.5t92 37.5q50 0 88 -37t38 -91q0 -53 -38 -90.5t-88 -37.5q-53 0 -92 37.5t-39 90.5z" />
<glyph unicode="&#xdd;" horiz-adv-x="1547" d="M99 1547h241l432 -747l438 747h238l-568 -961v-586h-219v586zM635 1668l150 380h237l-184 -380h-203z" />
<glyph unicode="&#xde;" horiz-adv-x="1332" d="M144 0v1547h225v-306h383q251 0 389 -115t138 -352q0 -234 -137.5 -348t-389.5 -114h-383v-312h-225zM369 500h346q157 0 246.5 58.5t89.5 215.5q0 159 -88.5 218t-247.5 59h-346v-551z" />
<glyph unicode="&#xdf;" horiz-adv-x="1399" d="M133 0v1115q0 254 137 392.5t393 138.5q171 0 286 -64.5t171.5 -169.5t56.5 -224q0 -112 -49 -202.5t-137 -131.5q151 -35 230 -139.5t79 -267.5q0 -217 -126.5 -348.5t-365.5 -131.5q-193 0 -293 42v208q100 -46 257 -46q140 0 220 83.5t80 222.5q0 268 -335 268h-111 v190h95q113 0 170.5 66.5t57.5 186.5q0 112 -76.5 180.5t-207.5 68.5q-308 0 -306 -309v-1128h-226z" />
<glyph unicode="&#xe0;" horiz-adv-x="1258" d="M99 332q0 177 112 273t317 96q219 0 373 -89v55q0 127 -77 188t-240 61q-97 0 -189 -19t-165 -52v181q66 31 172.5 50t205.5 19q264 0 390.5 -116t126.5 -322v-657h-209v120q-68 -76 -162.5 -114.5t-229.5 -38.5q-192 0 -308.5 98.5t-116.5 266.5zM325 332 q0 -195 255 -195q106 0 192.5 42t128.5 117v145q-144 93 -321 93q-129 0 -192 -50.5t-63 -151.5zM378 1562h237l153 -380h-206z" />
<glyph unicode="&#xe1;" horiz-adv-x="1258" d="M99 332q0 177 112 273t317 96q219 0 373 -89v55q0 127 -77 188t-240 61q-97 0 -189 -19t-165 -52v181q66 31 172.5 50t205.5 19q264 0 390.5 -116t126.5 -322v-657h-209v120q-68 -76 -162.5 -114.5t-229.5 -38.5q-192 0 -308.5 98.5t-116.5 266.5zM325 332 q0 -195 255 -195q106 0 192.5 42t128.5 117v145q-144 93 -321 93q-129 0 -192 -50.5t-63 -151.5zM524 1182l151 380h237l-184 -380h-204z" />
<glyph unicode="&#xe2;" horiz-adv-x="1258" d="M99 332q0 177 112 273t317 96q219 0 373 -89v55q0 127 -77 188t-240 61q-97 0 -189 -19t-165 -52v181q66 31 172.5 50t205.5 19q264 0 390.5 -116t126.5 -322v-657h-209v120q-68 -76 -162.5 -114.5t-229.5 -38.5q-192 0 -308.5 98.5t-116.5 266.5zM237 1182l314 367h196 l315 -367h-226l-186 236l-186 -236h-227zM325 332q0 -195 255 -195q106 0 192.5 42t128.5 117v145q-144 93 -321 93q-129 0 -192 -50.5t-63 -151.5z" />
<glyph unicode="&#xe3;" horiz-adv-x="1258" d="M99 332q0 177 112 273t317 96q219 0 373 -89v55q0 127 -77 188t-240 61q-97 0 -189 -19t-165 -52v181q66 31 172.5 50t205.5 19q264 0 390.5 -116t126.5 -322v-657h-209v120q-68 -76 -162.5 -114.5t-229.5 -38.5q-192 0 -308.5 98.5t-116.5 266.5zM243 1182v190 q68 95 217 95q49 0 94 -13.5t117 -41.5q59 -27 104.5 -42t93.5 -15q66 0 119.5 26t95.5 88v-190q-66 -93 -215 -93q-55 0 -104.5 14t-114.5 43q-64 27 -103.5 40t-86.5 13q-64 0 -117.5 -25.5t-99.5 -88.5zM325 332q0 -195 255 -195q106 0 192.5 42t128.5 117v145 q-144 93 -321 93q-129 0 -192 -50.5t-63 -151.5z" />
<glyph unicode="&#xe4;" horiz-adv-x="1258" d="M99 332q0 177 112 273t317 96q219 0 373 -89v55q0 127 -77 188t-240 61q-97 0 -189 -19t-165 -52v181q66 31 172.5 50t205.5 19q264 0 390.5 -116t126.5 -322v-657h-209v120q-68 -76 -162.5 -114.5t-229.5 -38.5q-192 0 -308.5 98.5t-116.5 266.5zM257 1300q0 53 38.5 91 t91.5 38q50 0 88 -38t38 -91t-37.5 -90.5t-88.5 -37.5q-53 0 -91.5 37.5t-38.5 90.5zM325 332q0 -195 255 -195q106 0 192.5 42t128.5 117v145q-144 93 -321 93q-129 0 -192 -50.5t-63 -151.5zM758 1300q0 53 39 91t92 38q51 0 88.5 -38t37.5 -91t-37.5 -90.5t-88.5 -37.5 q-53 0 -92 37.5t-39 90.5z" />
<glyph unicode="&#xe5;" horiz-adv-x="1258" d="M99 332q0 177 112 273t317 96q219 0 373 -89v55q0 127 -77 188t-240 61q-97 0 -189 -19t-165 -52v181q66 31 172.5 50t205.5 19q264 0 390.5 -116t126.5 -322v-657h-209v120q-68 -76 -162.5 -114.5t-229.5 -38.5q-192 0 -308.5 98.5t-116.5 266.5zM325 332 q0 -195 255 -195q106 0 192.5 42t128.5 117v145q-144 93 -321 93q-129 0 -192 -50.5t-63 -151.5zM409 1440q0 105 74 181t182 76q106 0 181.5 -75t75.5 -182q0 -108 -75 -182t-182 -74q-108 0 -182 74t-74 182zM546 1440q0 -51 35.5 -86t83.5 -35q50 0 85 36t35 85 q0 48 -35 84t-85 36q-48 0 -83.5 -36t-35.5 -84z" />
<glyph unicode="&#xe6;" horiz-adv-x="2149" d="M99 332q0 177 112 273t317 96q219 0 373 -89v55q0 127 -77 188t-240 61q-97 0 -189 -19t-165 -52v181q66 31 172.5 50t205.5 19q292 0 424 -177q76 84 189 130.5t256 46.5q184 0 313.5 -69.5t194.5 -192.5t65 -280v-110h-929q11 -152 125.5 -225.5t310.5 -73.5 q104 0 207 18.5t182 50.5v-180q-71 -29 -186.5 -47.5t-229.5 -18.5q-327 0 -502 197q-86 -95 -205.5 -146t-288.5 -51q-202 0 -318.5 97.5t-116.5 267.5zM325 332q0 -195 255 -195q106 0 191 41t130 116v147q-144 93 -321 93q-129 0 -192 -50.5t-63 -151.5zM1121 599h717 q-4 151 -97 234t-266 83q-168 0 -259 -86.5t-95 -230.5z" />
<glyph unicode="&#xe7;" horiz-adv-x="1209" d="M99 528q0 175 76.5 302.5t214.5 196t317 68.5q243 0 390 -95v-184q-143 100 -367 100q-181 0 -293 -98.5t-112 -289.5q0 -190 110.5 -287t290.5 -97q223 0 384 105v-181q-124 -84 -308 -97l-36 -95q99 -13 150 -67t51 -143q0 -97 -79.5 -156t-216.5 -59q-122 0 -182 25 l2 128q22 -11 58.5 -17.5t67.5 -6.5q141 0 141 101q0 122 -222 122l63 170q-230 27 -365 173t-135 382z" />
<glyph unicode="&#xe8;" horiz-adv-x="1344" d="M99 528q0 261 150 414t426 153q184 0 312 -69.5t193 -192.5t65 -280v-110h-933q11 -150 127 -224.5t315 -74.5q101 0 205.5 18.5t184.5 50.5v-180q-72 -29 -188 -47.5t-228 -18.5q-295 0 -462 147t-167 414zM312 599h723q-5 151 -99 234t-265 83q-169 0 -262 -86.5 t-97 -230.5zM416 1562h236l153 -380h-206z" />
<glyph unicode="&#xe9;" horiz-adv-x="1344" d="M99 528q0 261 150 414t426 153q184 0 312 -69.5t193 -192.5t65 -280v-110h-933q11 -150 127 -224.5t315 -74.5q101 0 205.5 18.5t184.5 50.5v-180q-72 -29 -188 -47.5t-228 -18.5q-295 0 -462 147t-167 414zM312 599h723q-5 151 -99 234t-265 83q-169 0 -262 -86.5 t-97 -230.5zM555 1182l150 380h237l-184 -380h-203z" />
<glyph unicode="&#xea;" horiz-adv-x="1344" d="M99 528q0 261 150 414t426 153q184 0 312 -69.5t193 -192.5t65 -280v-110h-933q11 -150 127 -224.5t315 -74.5q101 0 205.5 18.5t184.5 50.5v-180q-72 -29 -188 -47.5t-228 -18.5q-295 0 -462 147t-167 414zM276 1182l315 367h196l315 -367h-226l-186 236l-186 -236h-228 zM312 599h723q-5 151 -99 234t-265 83q-169 0 -262 -86.5t-97 -230.5z" />
<glyph unicode="&#xeb;" horiz-adv-x="1344" d="M99 528q0 261 150 414t426 153q184 0 312 -69.5t193 -192.5t65 -280v-110h-933q11 -150 127 -224.5t315 -74.5q101 0 205.5 18.5t184.5 50.5v-180q-72 -29 -188 -47.5t-228 -18.5q-295 0 -462 147t-167 414zM303 1309q0 53 38.5 90.5t91.5 37.5q51 0 88.5 -37t37.5 -91 q0 -53 -37 -90t-89 -37q-53 0 -91.5 37t-38.5 90zM312 599h723q-5 151 -99 234t-265 83q-169 0 -262 -86.5t-97 -230.5zM805 1309q0 53 38.5 90.5t91.5 37.5q51 0 89 -37t38 -91q0 -53 -38 -90t-89 -37q-53 0 -91.5 37t-38.5 90z" />
<glyph unicode="&#xec;" horiz-adv-x="513" d="M-29 1562h237l153 -380h-207zM144 0v1062h225v-1062h-225z" />
<glyph unicode="&#xed;" horiz-adv-x="513" d="M144 0v1062h225v-1062h-225zM152 1182l151 380h237l-184 -380h-204z" />
<glyph unicode="&#xee;" horiz-adv-x="513" d="M-154 1182l313 367h197l315 -367h-226l-186 236l-186 -236h-227zM144 0v1062h225v-1062h-225z" />
<glyph unicode="&#xef;" horiz-adv-x="513" d="M-124 1309q0 53 39 90.5t91 37.5q51 0 89 -37t38 -91q0 -53 -38 -90t-89 -37q-52 0 -91 37t-39 90zM144 0v1062h225v-1062h-225zM378 1309q0 53 39 90.5t92 37.5q50 0 88 -37t38 -91q0 -53 -38 -90t-88 -37q-53 0 -92 37t-39 90z" />
<glyph unicode="&#xf0;" horiz-adv-x="1382" d="M99 482q0 234 147.5 371.5t405.5 137.5q120 0 224 -44t168 -128q-10 274 -107 420l-322 -153v148l227 106q-88 62 -207 62q-59 0 -133.5 -10t-114.5 -25v184q46 11 117 19.5t127 8.5q255 0 401 -148l251 120v-149l-168 -79q132 -221 132 -644q0 -232 -75 -391t-209 -240 t-304 -81q-174 0 -300.5 65t-193 182.5t-66.5 267.5zM321 477q0 -152 96 -246t248 -94q101 0 176 47.5t117 125t42 167.5q0 98 -44 175.5t-121 120.5t-170 43q-152 0 -248 -92.5t-96 -246.5z" />
<glyph unicode="&#xf1;" horiz-adv-x="1326" d="M144 0v1062h217v-153q75 95 184 140.5t229 45.5q213 0 316.5 -113t103.5 -303v-679h-223v657q0 259 -247 259q-106 0 -198.5 -50t-158.5 -151v-715h-223zM230 1184v190q68 95 217 95q49 0 94 -13.5t116 -41.5q59 -27 105 -41.5t94 -14.5q66 0 119 25.5t95 87.5v-190 q-66 -93 -214 -93q-55 0 -105 14t-114 43q-64 27 -103.5 40t-86.5 13q-64 0 -117.5 -25.5t-99.5 -88.5z" />
<glyph unicode="&#xf2;" horiz-adv-x="1408" d="M99 528q0 171 75 299.5t212.5 198t316.5 69.5t316.5 -69.5t213.5 -198t76 -299.5q0 -173 -76 -299.5t-213.5 -194t-316.5 -67.5t-315 67.5t-212.5 194.5t-76.5 299zM327 528q0 -173 102 -278.5t274 -105.5q173 0 274.5 106t101.5 278q0 179 -101.5 283.5t-274.5 104.5 t-274.5 -104.5t-101.5 -283.5zM443 1562h236l153 -380h-206z" />
<glyph unicode="&#xf3;" horiz-adv-x="1408" d="M99 528q0 171 75 299.5t212.5 198t316.5 69.5t316.5 -69.5t213.5 -198t76 -299.5q0 -173 -76 -299.5t-213.5 -194t-316.5 -67.5t-315 67.5t-212.5 194.5t-76.5 299zM327 528q0 -173 102 -278.5t274 -105.5q173 0 274.5 106t101.5 278q0 179 -101.5 283.5t-274.5 104.5 t-274.5 -104.5t-101.5 -283.5zM580 1182l150 380h237l-184 -380h-203z" />
<glyph unicode="&#xf4;" horiz-adv-x="1448" d="M139 528q0 171 75 299.5t212.5 198t316.5 69.5t316.5 -69.5t213.5 -198t76 -299.5q0 -173 -76 -299.5t-213.5 -194t-316.5 -67.5t-315 67.5t-212.5 194.5t-76.5 299zM332 1182l314 367h196l315 -367h-226l-186 236l-186 -236h-227zM367 528q0 -173 101.5 -278.5 t274.5 -105.5t274.5 106t101.5 278q0 179 -101.5 283.5t-274.5 104.5t-274.5 -104.5t-101.5 -283.5z" />
<glyph unicode="&#xf5;" horiz-adv-x="1439" d="M131 528q0 171 75 299.5t212 198t316 69.5q180 0 317 -69.5t213 -198t76 -299.5q0 -173 -76 -299.5t-213 -194t-317 -67.5q-179 0 -315 67.5t-212 194.5t-76 299zM314 1197v190q68 95 217 95q49 0 94.5 -13t115.5 -42q59 -27 104.5 -41t94.5 -14q65 0 118.5 25t96.5 87 v-190q-66 -93 -215 -93q-55 0 -105 14.5t-114 42.5q-63 27 -103 40t-87 13q-63 0 -116.5 -25.5t-100.5 -88.5zM359 528q0 -173 101.5 -278.5t273.5 -105.5q173 0 274.5 106t101.5 278q0 179 -101.5 283.5t-274.5 104.5q-172 0 -273.5 -104.5t-101.5 -283.5z" />
<glyph unicode="&#xf6;" horiz-adv-x="1428" d="M120 528q0 171 75 299.5t212 198t317 69.5q179 0 316 -69.5t213 -198t76 -299.5q0 -173 -76 -299.5t-213 -194t-316 -67.5q-180 0 -316 67.5t-212 194.5t-76 299zM342 1309q0 53 39 90.5t92 37.5q51 0 88.5 -37t37.5 -91q0 -53 -37.5 -90t-88.5 -37q-53 0 -92 37t-39 90z M348 528q0 -173 101.5 -278.5t274.5 -105.5q171 0 273 106t102 278q0 179 -102 283.5t-273 104.5q-173 0 -274.5 -104.5t-101.5 -283.5zM845 1309q0 53 38.5 90.5t91.5 37.5q51 0 89 -37t38 -91q0 -53 -38 -90t-89 -37q-53 0 -91.5 37t-38.5 90z" />
<glyph unicode="&#xf7;" horiz-adv-x="903" d="M99 568v179h706v-179h-706zM340 352q0 49 32.5 80.5t78.5 31.5q47 0 79 -31.5t32 -80.5q0 -46 -32 -77.5t-79 -31.5q-46 0 -78.5 31.5t-32.5 77.5zM340 960q0 49 32.5 80.5t78.5 31.5q47 0 79 -31.5t32 -80.5q0 -46 -32 -77.5t-79 -31.5q-46 0 -78.5 31.5t-32.5 77.5z " />
<glyph unicode="&#xf8;" horiz-adv-x="1408" d="M99 528q0 171 75 299.5t212.5 198t316.5 69.5q40 0 111 -9l66 166h222l-91 -224q141 -68 219.5 -197.5t78.5 -302.5t-76 -299.5t-213.5 -194t-316.5 -67.5q-68 0 -114 8l-67 -165h-221l88 223q-137 69 -213.5 196t-76.5 299zM327 528q0 -101 36 -180.5t101 -130.5 l279 697q-13 2 -40 2q-173 0 -274.5 -104.5t-101.5 -283.5zM657 146q15 -2 46 -2q173 0 274.5 106t101.5 278q0 106 -36 187t-106 132z" />
<glyph unicode="&#xf9;" horiz-adv-x="1326" d="M133 389v673h223v-663q0 -255 254 -255q224 0 350 201v717h224v-1062h-217v150q-76 -95 -178.5 -139t-222.5 -44q-214 0 -323.5 115t-109.5 307zM384 1562h237l153 -380h-206z" />
<glyph unicode="&#xfa;" horiz-adv-x="1326" d="M133 389v673h223v-663q0 -255 254 -255q224 0 350 201v717h224v-1062h-217v150q-76 -95 -178.5 -139t-222.5 -44q-214 0 -323.5 115t-109.5 307zM544 1182l150 380h237l-184 -380h-203z" />
<glyph unicode="&#xfb;" horiz-adv-x="1326" d="M133 389v673h223v-663q0 -255 254 -255q224 0 350 201v717h224v-1062h-217v150q-76 -95 -178.5 -139t-222.5 -44q-214 0 -323.5 115t-109.5 307zM234 1182l315 367h196l314 -367h-225l-186 236l-186 -236h-228z" />
<glyph unicode="&#xfc;" horiz-adv-x="1326" d="M133 389v673h223v-663q0 -255 254 -255q224 0 350 201v717h224v-1062h-217v150q-76 -95 -178.5 -139t-222.5 -44q-214 0 -323.5 115t-109.5 307zM274 1309q0 53 39 90.5t92 37.5q51 0 88.5 -37t37.5 -91q0 -53 -37.5 -90t-88.5 -37q-53 0 -92 37t-39 90zM777 1309 q0 53 38.5 90.5t91.5 37.5q51 0 88 -37t37 -91q0 -53 -37 -90t-88 -37q-53 0 -91.5 37t-38.5 90z" />
<glyph unicode="&#xfd;" horiz-adv-x="1298" d="M99 1062h230l355 -817l329 817h230l-477 -1182q-66 -166 -158.5 -242t-238.5 -76q-118 0 -198 24v175q57 -21 141 -22q78 0 121.5 38.5t79.5 125.5l51 124zM534 1186l150 380h236l-183 -380h-203z" />
<glyph unicode="&#xfe;" horiz-adv-x="1459" d="M144 -485v2032h223v-627q76 84 190 129.5t245 45.5q159 0 286.5 -69.5t200 -197t72.5 -294.5t-72.5 -296.5t-199.5 -200t-287 -70.5q-132 0 -246.5 44t-188.5 130v-626h-223zM367 411q38 -122 144 -194.5t241 -72.5q109 0 196 48.5t137 137t50 204.5q0 112 -50 199.5 t-137 135t-196 47.5q-137 0 -240 -71t-145 -195v-239z" />
<glyph unicode="&#xff;" horiz-adv-x="1298" d="M99 1062h230l355 -817l329 817h230l-477 -1182q-66 -166 -158.5 -242t-238.5 -76q-118 0 -198 24v175q57 -21 141 -22q78 0 121.5 38.5t79.5 125.5l51 124zM303 1309q0 53 38.5 90.5t91.5 37.5q51 0 88.5 -37t37.5 -91q0 -53 -37 -90t-89 -37q-53 0 -91.5 37t-38.5 90z M805 1309q0 53 38.5 90.5t91.5 37.5q51 0 89 -37t38 -91q0 -53 -38 -90t-89 -37q-53 0 -91.5 37t-38.5 90z" />
<glyph unicode="&#x100;" horiz-adv-x="1649" d="M99 0l618 1547h216l618 -1547h-230l-156 384h-683l-150 -384h-233zM480 1663v152h690v-152h-690zM546 572h558l-279 724z" />
<glyph unicode="&#x101;" horiz-adv-x="1258" d="M99 332q0 177 112 273t317 96q219 0 373 -89v55q0 127 -77 188t-240 61q-97 0 -189 -19t-165 -52v181q66 31 172.5 50t205.5 19q264 0 390.5 -116t126.5 -322v-657h-209v120q-68 -76 -162.5 -114.5t-229.5 -38.5q-192 0 -308.5 98.5t-116.5 266.5zM325 332 q0 -195 255 -195q106 0 192.5 42t128.5 117v145q-144 93 -321 93q-129 0 -192 -50.5t-63 -151.5zM325 1205v153h690v-153h-690z" />
<glyph unicode="&#x102;" horiz-adv-x="1649" d="M99 0l618 1547h216l618 -1547h-230l-156 384h-683l-150 -384h-233zM491 1950h172q0 -75 42 -115.5t120 -40.5t119.5 41t41.5 115h171q0 -137 -90 -222.5t-242 -85.5q-154 0 -244 85.5t-90 222.5zM546 572h558l-279 724z" />
<glyph unicode="&#x103;" horiz-adv-x="1258" d="M99 332q0 177 112 273t317 96q219 0 373 -89v55q0 127 -77 188t-240 61q-97 0 -189 -19t-165 -52v181q66 31 172.5 50t205.5 19q264 0 390.5 -116t126.5 -322v-657h-209v120q-68 -76 -162.5 -114.5t-229.5 -38.5q-192 0 -308.5 98.5t-116.5 266.5zM325 332 q0 -195 255 -195q106 0 192.5 42t128.5 117v145q-144 93 -321 93q-129 0 -192 -50.5t-63 -151.5zM334 1493h173q0 -76 42 -116.5t118 -40.5q78 0 120 41t42 116h171q0 -138 -89.5 -223.5t-243.5 -85.5t-243.5 85.5t-89.5 223.5z" />
<glyph unicode="&#x104;" horiz-adv-x="1649" d="M99 0l618 1547h216l618 -1547h-31q-89 -57 -132 -112.5t-43 -121.5q0 -95 97 -95q55 0 107 21v-135q-74 -27 -171 -26q-101 0 -165.5 51t-64.5 148q0 82 45.5 153t117.5 117h10l-156 384h-683l-150 -384h-233zM546 572h558l-279 724z" />
<glyph unicode="&#x105;" horiz-adv-x="1258" d="M99 332q0 177 112 273t317 96q219 0 373 -89v55q0 127 -77 188t-240 61q-97 0 -189 -19t-165 -52v181q66 31 172.5 50t205.5 19q264 0 390.5 -116t126.5 -322v-657h-2q-88 -57 -131 -112.5t-43 -121.5q0 -95 98 -95q55 0 105 21v-135q-73 -27 -170 -26q-102 0 -166 51 t-64 148q0 82 45 153t119 117v120q-68 -76 -162.5 -114.5t-229.5 -38.5q-192 0 -308.5 98.5t-116.5 266.5zM325 332q0 -195 255 -195q106 0 192.5 42t128.5 117v145q-144 93 -321 93q-129 0 -192 -50.5t-63 -151.5z" />
<glyph unicode="&#x106;" horiz-adv-x="1570" d="M99 772q0 241 104.5 424.5t290 283t424.5 99.5q319 0 532 -161v-217q-192 171 -513 171q-179 0 -317 -73t-215.5 -209t-77.5 -318q0 -181 79 -318.5t217 -210t314 -72.5q165 0 294.5 43t239.5 138v-219q-199 -166 -553 -166q-239 0 -424.5 99.5t-290 282t-104.5 423.5z M812 1639l150 381h237l-184 -381h-203z" />
<glyph unicode="&#x107;" horiz-adv-x="1209" d="M99 528q0 175 76.5 302.5t214.5 196t317 68.5q243 0 390 -95v-184q-143 100 -367 100q-181 0 -293 -98.5t-112 -289.5q0 -190 110.5 -287t290.5 -97q223 0 384 105v-181q-78 -53 -176 -77t-231 -24q-177 0 -314 66t-213.5 193.5t-76.5 301.5zM586 1182l151 380h236 l-184 -380h-203z" />
<glyph unicode="&#x108;" horiz-adv-x="1570" d="M99 772q0 241 104.5 424.5t290 283t424.5 99.5q319 0 532 -161v-217q-192 171 -513 171q-179 0 -317 -73t-215.5 -209t-77.5 -318q0 -181 79 -318.5t217 -210t314 -72.5q165 0 294.5 43t239.5 138v-219q-199 -166 -553 -166q-239 0 -424.5 99.5t-290 282t-104.5 423.5z M487 1639l313 368h198l313 -368h-225l-185 237l-186 -237h-228z" />
<glyph unicode="&#x109;" horiz-adv-x="1209" d="M99 528q0 175 76.5 302.5t214.5 196t317 68.5q243 0 390 -95v-184q-143 100 -367 100q-181 0 -293 -98.5t-112 -289.5q0 -190 110.5 -287t290.5 -97q223 0 384 105v-181q-78 -53 -176 -77t-231 -24q-177 0 -314 66t-213.5 193.5t-76.5 301.5zM268 1182l314 367h197 l314 -367h-226l-186 236l-185 -236h-228z" />
<glyph unicode="&#x10a;" horiz-adv-x="1570" d="M99 772q0 241 104.5 424.5t290 283t424.5 99.5q319 0 532 -161v-217q-192 171 -513 171q-179 0 -317 -73t-215.5 -209t-77.5 -318q0 -181 79 -318.5t217 -210t314 -72.5q165 0 294.5 43t239.5 138v-219q-199 -166 -553 -166q-239 0 -424.5 99.5t-290 282t-104.5 423.5z M770 1767q0 53 38.5 90.5t92.5 37.5q50 0 87.5 -37t37.5 -91q0 -53 -37.5 -90.5t-87.5 -37.5q-54 0 -92.5 37.5t-38.5 90.5z" />
<glyph unicode="&#x10b;" horiz-adv-x="1209" d="M99 528q0 175 76.5 302.5t214.5 196t317 68.5q243 0 390 -95v-184q-143 100 -367 100q-181 0 -293 -98.5t-112 -289.5q0 -190 110.5 -287t290.5 -97q223 0 384 105v-181q-78 -53 -176 -77t-231 -24q-177 0 -314 66t-213.5 193.5t-76.5 301.5zM557 1309q0 53 39 90.5 t92 37.5q51 0 88.5 -37t37.5 -91q0 -53 -37.5 -90t-88.5 -37q-53 0 -92 37t-39 90z" />
<glyph unicode="&#x10c;" horiz-adv-x="1570" d="M99 772q0 241 104.5 424.5t290 283t424.5 99.5q319 0 532 -161v-217q-192 171 -513 171q-179 0 -317 -73t-215.5 -209t-77.5 -318q0 -181 79 -318.5t217 -210t314 -72.5q165 0 294.5 43t239.5 138v-219q-199 -166 -553 -166q-239 0 -424.5 99.5t-290 282t-104.5 423.5z M498 2009h228l186 -238l185 238h226l-314 -367h-197z" />
<glyph unicode="&#x10d;" horiz-adv-x="1209" d="M99 528q0 175 76.5 302.5t214.5 196t317 68.5q243 0 390 -95v-184q-143 100 -367 100q-181 0 -293 -98.5t-112 -289.5q0 -190 110.5 -287t290.5 -97q223 0 384 105v-181q-78 -53 -176 -77t-231 -24q-177 0 -314 66t-213.5 193.5t-76.5 301.5zM264 1551h227l186 -237 l186 237h226l-315 -367h-196z" />
<glyph unicode="&#x10e;" horiz-adv-x="1554" d="M144 0v1547h498q249 0 432.5 -93t282.5 -266t99 -407q0 -385 -222.5 -583t-623.5 -198h-466zM292 2009h227l186 -238l186 238h226l-315 -367h-196zM369 188h239q310 0 465 153t155 440q0 266 -152 420t-432 154h-275v-1167z" />
<glyph unicode="&#x10f;" horiz-adv-x="1802" d="M99 502q0 169 72 297t198.5 197.5t287.5 69.5q137 0 257.5 -56t180.5 -159v755h224v-1635h-217v191q-72 -106 -187 -165t-258 -59q-159 0 -286.5 70t-199.5 197t-72 297zM329 500q0 -118 50 -203.5t136.5 -132t191.5 -46.5q138 0 242 67t146 189v257q-40 122 -145 190 t-243 68q-105 0 -191.5 -47.5t-136.5 -135t-50 -206.5zM1409 1298l170 403h190l-192 -403h-168z" />
<glyph unicode="&#x110;" horiz-adv-x="1607" d="M55 686v173h142v688h497q250 0 433.5 -93t282.5 -266t99 -407q0 -385 -222.5 -583t-623.5 -198h-466v686h-142zM424 194h237q306 0 463 152t157 435q0 263 -155 416.5t-429 153.5h-273v-492h408v-173h-408v-492z" />
<glyph unicode="&#x111;" horiz-adv-x="1492" d="M99 528q0 166 72 294.5t199.5 200.5t286.5 72q287 0 436 -175v312h-434v172h434v230h224v-230h120v-172h-120v-1232h-218v154q-88 -97 -193.5 -142t-248.5 -45q-159 0 -286.5 69.5t-199.5 197t-72 294.5zM325 528q0 -112 49.5 -200.5t137 -136t195.5 -47.5 q138 0 241 71.5t145 193.5v239q-38 122 -143 195t-243 73q-108 0 -195.5 -48.5t-137 -137t-49.5 -202.5z" />
<glyph unicode="&#x112;" horiz-adv-x="1262" d="M144 0v1547h1019v-192h-794v-488h593v-188h-593v-491h794v-188h-1019zM316 1686v152h691v-152h-691z" />
<glyph unicode="&#x113;" horiz-adv-x="1344" d="M99 528q0 261 150 414t426 153q184 0 312 -69.5t193 -192.5t65 -280v-110h-933q11 -150 127 -224.5t315 -74.5q101 0 205.5 18.5t184.5 50.5v-180q-72 -29 -188 -47.5t-228 -18.5q-295 0 -462 147t-167 414zM312 599h723q-5 151 -99 234t-265 83q-169 0 -262 -86.5 t-97 -230.5zM338 1205v153h690v-153h-690z" />
<glyph unicode="&#x114;" horiz-adv-x="1262" d="M144 0v1547h1019v-192h-794v-488h593v-188h-593v-491h794v-188h-1019zM336 1950h173q0 -75 42 -115.5t120 -40.5q77 0 119 41t42 115h170q0 -137 -89.5 -222.5t-241.5 -85.5q-156 0 -245.5 85.5t-89.5 222.5z" />
<glyph unicode="&#x115;" horiz-adv-x="1344" d="M99 528q0 261 150 414t426 153q184 0 312 -69.5t193 -192.5t65 -280v-110h-933q11 -150 127 -224.5t315 -74.5q101 0 205.5 18.5t184.5 50.5v-180q-72 -29 -188 -47.5t-228 -18.5q-295 0 -462 147t-167 414zM312 599h723q-5 151 -99 234t-265 83q-169 0 -262 -86.5 t-97 -230.5zM350 1493h172q0 -76 42 -116.5t120 -40.5q77 0 119 41t42 116h170q0 -138 -89.5 -223.5t-241.5 -85.5q-156 0 -245 85.5t-89 223.5z" />
<glyph unicode="&#x116;" horiz-adv-x="1262" d="M144 0v1547h1019v-192h-794v-488h593v-188h-593v-491h794v-188h-1019zM531 1765q0 53 38.5 90.5t91.5 37.5q51 0 88.5 -37.5t37.5 -90.5t-37.5 -90.5t-88.5 -37.5q-53 0 -91.5 37.5t-38.5 90.5z" />
<glyph unicode="&#x117;" horiz-adv-x="1344" d="M99 528q0 261 150 414t426 153q184 0 312 -69.5t193 -192.5t65 -280v-110h-933q11 -150 127 -224.5t315 -74.5q101 0 205.5 18.5t184.5 50.5v-180q-72 -29 -188 -47.5t-228 -18.5q-295 0 -462 147t-167 414zM312 599h723q-5 151 -99 234t-265 83q-169 0 -262 -86.5 t-97 -230.5zM555 1307q0 53 39 90.5t92 37.5q51 0 88.5 -37t37.5 -91q0 -53 -37.5 -90.5t-88.5 -37.5q-53 0 -92 37.5t-39 90.5z" />
<glyph unicode="&#x118;" horiz-adv-x="1262" d="M144 0v1547h1019v-192h-794v-488h593v-188h-593v-491h794v-188h-42q-89 -57 -131.5 -112.5t-42.5 -121.5q0 -95 97 -95q55 0 106 21v-135q-73 -27 -170 -26q-102 0 -166 51t-64 148q0 82 45 153t119 117h-770z" />
<glyph unicode="&#x119;" horiz-adv-x="1344" d="M99 528q0 261 150 414t426 153q184 0 312 -69.5t193 -192.5t65 -280v-110h-933q11 -150 127 -224.5t315 -74.5q101 0 205.5 18.5t184.5 50.5v-180q-62 -24 -177 -46q-78 -53 -116.5 -106.5t-38.5 -114.5q0 -95 97 -95q55 0 106 21v-135q-73 -27 -170 -26q-102 0 -166 51 t-64 148q0 68 32 129t87 108h-6q-294 0 -461.5 147t-167.5 414zM312 599h723q-5 151 -99 234t-265 83q-169 0 -262 -86.5t-97 -230.5z" />
<glyph unicode="&#x11a;" horiz-adv-x="1262" d="M144 0v1547h1019v-192h-794v-488h593v-188h-593v-491h794v-188h-1019zM259 2009h228l186 -238l186 238h225l-314 -367h-198z" />
<glyph unicode="&#x11b;" horiz-adv-x="1344" d="M99 528q0 261 150 414t426 153q184 0 312 -69.5t193 -192.5t65 -280v-110h-933q11 -150 127 -224.5t315 -74.5q101 0 205.5 18.5t184.5 50.5v-180q-72 -29 -188 -47.5t-228 -18.5q-295 0 -462 147t-167 414zM274 1551h228l186 -237l186 237h225l-314 -367h-196zM312 599 h723q-5 151 -99 234t-265 83q-169 0 -262 -86.5t-97 -230.5z" />
<glyph unicode="&#x11c;" horiz-adv-x="1583" d="M99 772q0 241 104.5 424.5t290 283t424.5 99.5q321 0 532 -159v-217q-192 169 -513 169q-175 0 -313.5 -73t-217.5 -209t-79 -318q0 -181 77.5 -318.5t214.5 -210t310 -72.5q201 0 329 81v405h-294v183h520v-707q-104 -87 -244.5 -126.5t-321.5 -39.5q-239 0 -424.5 99.5 t-290 282t-104.5 423.5zM496 1639l314 368h197l314 -368h-226l-186 237l-185 -237h-228z" />
<glyph unicode="&#x11d;" horiz-adv-x="1459" d="M99 531q0 169 72 296t199.5 197.5t286.5 70.5q148 0 251 -43t191 -143v153h218v-1009q0 -272 -152 -417t-466 -145q-108 0 -211.5 18t-173.5 50v184q167 -76 385 -75q205 0 299.5 90t94.5 271v112q-146 -174 -430 -174q-162 0 -290 70.5t-201 199t-73 294.5zM325 531 q0 -114 49.5 -202t137 -136.5t195.5 -48.5q138 0 243 72.5t143 194.5v239q-42 124 -145 195t-241 71q-108 0 -195.5 -47.5t-137 -136t-49.5 -201.5zM342 1182l315 367h197l313 -367h-225l-186 236l-186 -236h-228z" />
<glyph unicode="&#x11e;" horiz-adv-x="1583" d="M99 772q0 241 104.5 424.5t290 283t424.5 99.5q321 0 532 -159v-217q-192 169 -513 169q-175 0 -313.5 -73t-217.5 -209t-79 -318q0 -181 77.5 -318.5t214.5 -210t310 -72.5q201 0 329 81v405h-294v183h520v-707q-104 -87 -244.5 -126.5t-321.5 -39.5q-239 0 -424.5 99.5 t-290 282t-104.5 423.5zM593 1950h173q0 -75 41.5 -115.5t119.5 -40.5q77 0 119.5 41t42.5 115h169q0 -137 -89.5 -222.5t-241.5 -85.5q-155 0 -244.5 85.5t-89.5 222.5z" />
<glyph unicode="&#x11f;" horiz-adv-x="1459" d="M99 531q0 169 72 296t199.5 197.5t286.5 70.5q148 0 251 -43t191 -143v153h218v-1009q0 -272 -152 -417t-466 -145q-108 0 -211.5 18t-173.5 50v184q167 -76 385 -75q205 0 299.5 90t94.5 271v112q-146 -174 -430 -174q-162 0 -290 70.5t-201 199t-73 294.5zM325 531 q0 -114 49.5 -202t137 -136.5t195.5 -48.5q138 0 243 72.5t143 194.5v239q-42 124 -145 195t-241 71q-108 0 -195.5 -47.5t-137 -136t-49.5 -201.5zM405 1493h173q0 -76 41.5 -116.5t119.5 -40.5q77 0 119.5 41t42.5 116h169q0 -138 -89.5 -223.5t-241.5 -85.5 q-155 0 -244.5 85.5t-89.5 223.5z" />
<glyph unicode="&#x120;" horiz-adv-x="1583" d="M99 772q0 241 104.5 424.5t290 283t424.5 99.5q321 0 532 -159v-217q-192 169 -513 169q-175 0 -313.5 -73t-217.5 -209t-79 -318q0 -181 77.5 -318.5t214.5 -210t310 -72.5q201 0 329 81v405h-294v183h520v-707q-104 -87 -244.5 -126.5t-321.5 -39.5q-239 0 -424.5 99.5 t-290 282t-104.5 423.5zM787 1767q0 53 39 90.5t92 37.5q51 0 88.5 -37t37.5 -91q0 -53 -37.5 -90.5t-88.5 -37.5q-53 0 -92 37.5t-39 90.5z" />
<glyph unicode="&#x121;" horiz-adv-x="1459" d="M99 531q0 169 72 296t199.5 197.5t286.5 70.5q148 0 251 -43t191 -143v153h218v-1009q0 -272 -152 -417t-466 -145q-108 0 -211.5 18t-173.5 50v184q167 -76 385 -75q205 0 299.5 90t94.5 271v112q-146 -174 -430 -174q-162 0 -290 70.5t-201 199t-73 294.5zM325 531 q0 -114 49.5 -202t137 -136.5t195.5 -48.5q138 0 243 72.5t143 194.5v239q-42 124 -145 195t-241 71q-108 0 -195.5 -47.5t-137 -136t-49.5 -201.5zM621 1309q0 53 39 90.5t92 37.5q50 0 88 -37t38 -91q0 -53 -38 -90t-88 -37q-53 0 -92 37t-39 90z" />
<glyph unicode="&#x122;" horiz-adv-x="1583" d="M99 772q0 241 104.5 424.5t290 283t424.5 99.5q321 0 532 -159v-217q-192 169 -513 169q-175 0 -313.5 -73t-217.5 -209t-79 -318q0 -181 77.5 -318.5t214.5 -210t310 -72.5q201 0 329 81v405h-294v183h520v-707q-104 -87 -244.5 -126.5t-321.5 -39.5q-239 0 -424.5 99.5 t-290 282t-104.5 423.5zM642 -575l179 442h234l-210 -442h-203z" />
<glyph unicode="&#x123;" horiz-adv-x="1459" d="M99 531q0 169 72 296t199.5 197.5t286.5 70.5q148 0 251 -43t191 -143v153h218v-1009q0 -272 -152 -417t-466 -145q-108 0 -211.5 18t-173.5 50v184q167 -76 385 -75q205 0 299.5 90t94.5 271v112q-146 -174 -430 -174q-162 0 -290 70.5t-201 199t-73 294.5zM325 531 q0 -114 49.5 -202t137 -136.5t195.5 -48.5q138 0 243 72.5t143 194.5v239q-42 124 -145 195t-241 71q-108 0 -195.5 -47.5t-137 -136t-49.5 -201.5zM631 1184l209 441h204l-179 -441h-234z" />
<glyph unicode="&#x124;" horiz-adv-x="1545" d="M144 0v1547h225v-665h808v665h225v-1547h-225v692h-808v-692h-225zM361 1639l314 368h197l314 -368h-226l-186 237l-185 -237h-228z" />
<glyph unicode="&#x125;" horiz-adv-x="1326" d="M144 0v1634h223v-718q152 179 407 179q213 0 316.5 -113t103.5 -303v-679h-223v657q0 259 -247 259q-106 0 -198.5 -50t-158.5 -151v-715h-223zM152 1714l315 367h196l314 -367h-225l-186 236l-186 -236h-228z" />
<glyph unicode="&#x126;" horiz-adv-x="1591" d="M55 1117v183h102v247h225v-247h808v247h226v-247h121v-183h-121v-1117h-226v690h-808v-690h-225v1117h-102zM382 885h808v232h-808v-232z" />
<glyph unicode="&#x127;" horiz-adv-x="1340" d="M55 1258v167h102v209h223v-209h367v-167h-367v-344q155 181 407 181q215 0 317.5 -110.5t102.5 -300.5v-684h-223v657q0 126 -59.5 192.5t-192.5 66.5q-223 0 -352 -201v-715h-223v1258h-102z" />
<glyph unicode="&#x128;" horiz-adv-x="521" d="M-162 1642v190q68 95 217 95q49 0 94 -13.5t117 -41.5q59 -27 104.5 -42t93.5 -15q66 0 119.5 26t95.5 88v-190q-66 -93 -215 -93q-55 0 -104.5 14t-114.5 43q-64 27 -103.5 40t-86.5 13q-64 0 -116.5 -25.5t-100.5 -88.5zM146 0v1547h228v-1547h-228z" />
<glyph unicode="&#x129;" horiz-adv-x="513" d="M-164 1182v190q68 95 217 95q49 0 94 -13.5t117 -41.5q59 -27 104.5 -42t93.5 -15q66 0 119.5 26t95.5 88v-190q-66 -93 -215 -93q-55 0 -104.5 14t-114.5 43q-64 27 -104 40t-86 13q-64 0 -117.5 -25.5t-99.5 -88.5zM144 0v1062h225v-1062h-225z" />
<glyph unicode="&#x12a;" horiz-adv-x="521" d="M-93 1686v154h705v-154h-705zM146 0v1547h228v-1547h-228z" />
<glyph unicode="&#x12b;" horiz-adv-x="513" d="M-97 1228v154h705v-154h-705zM144 0v1062h225v-1062h-225z" />
<glyph unicode="&#x12c;" horiz-adv-x="521" d="M-73 1950h172q0 -75 42.5 -115.5t119.5 -40.5q78 0 119.5 41t41.5 115h171q0 -137 -89.5 -222.5t-242.5 -85.5q-155 0 -244.5 85.5t-89.5 222.5zM146 0v1547h228v-1547h-228z" />
<glyph unicode="&#x12d;" horiz-adv-x="513" d="M-78 1493h173q0 -76 42 -116.5t120 -40.5t119.5 41t41.5 116h171q0 -138 -90 -223.5t-242 -85.5q-155 0 -245 85.5t-90 223.5zM144 0v1062h225v-1062h-225z" />
<glyph unicode="&#x12e;" horiz-adv-x="521" d="M-4 -270q0 82 45 153t118 117h-13v1547h228v-1547h-7q-88 -57 -131.5 -112.5t-43.5 -121.5q0 -95 97 -95q57 0 107 21v-135q-73 -27 -170 -26q-102 0 -166 51t-64 148z" />
<glyph unicode="&#x12f;" horiz-adv-x="552" d="M9 -270q0 82 45 153t119 117h-11v1062h227v-1062h-9q-88 -57 -131.5 -112.5t-43.5 -121.5q1 -95 98 -95q56 0 106 21v-135q-73 -27 -170 -26q-102 0 -166 51t-64 148zM144 1400q0 55 37.5 92.5t92.5 37.5q58 0 96.5 -37t38.5 -93q0 -55 -38.5 -92.5t-96.5 -37.5 q-55 0 -92.5 37.5t-37.5 92.5z" />
<glyph unicode="&#x130;" horiz-adv-x="521" d="M133 1767q0 53 39 90.5t92 37.5q50 0 87.5 -37t37.5 -91q0 -53 -37.5 -90.5t-87.5 -37.5q-53 0 -92 37.5t-39 90.5zM146 0v1547h228v-1547h-228z" />
<glyph unicode="&#x131;" horiz-adv-x="513" d="M144 0v1062h225v-1062h-225z" />
<glyph unicode="&#x132;" horiz-adv-x="1355" d="M146 0v1547h228v-1547h-228zM582 4v193q34 -13 85.5 -22t98.5 -9q228 0 228 221v1160h224v-1175q0 -191 -108 -298t-294 -107q-62 0 -130.5 11t-103.5 26z" />
<glyph unicode="&#x133;" horiz-adv-x="986" d="M144 1400q0 55 37.5 92.5t92.5 37.5q58 0 96.5 -37t38.5 -93q0 -55 -38.5 -92.5t-96.5 -37.5q-55 0 -92.5 37.5t-37.5 92.5zM162 0v1062h227v-1062h-227zM279 -303q57 -27 132 -26q100 0 143 47.5t43 152.5v1191h226v-1206q0 -183 -102 -275t-274 -92q-100 -1 -168 24 v184zM578 1400q0 55 38 92.5t94 37.5q55 0 93.5 -37t38.5 -93q0 -55 -38 -92.5t-94 -37.5q-58 0 -95 37.5t-37 92.5z" />
<glyph unicode="&#x134;" horiz-adv-x="829" d="M55 4v193q34 -13 85.5 -22t98.5 -9q228 0 228 221v1160h225v-1175q0 -191 -108.5 -298t-294.5 -107q-61 0 -129.5 11t-104.5 26zM166 1639l314 368h197l314 -368h-225l-186 237l-186 -237h-228z" />
<glyph unicode="&#x135;" horiz-adv-x="521" d="M-166 -303q57 -27 133 -26q99 0 142 47.5t43 152.5v1191h226v-1206q0 -183 -101.5 -275t-274.5 -92q-100 -1 -168 24v184zM-148 1182l314 367h197l314 -367h-226l-185 236l-186 -236h-228z" />
<glyph unicode="&#x136;" horiz-adv-x="1481" d="M144 0v1547h225v-1547h-225zM380 787l706 760h275l-707 -760l750 -787h-273zM403 -575l179 442h234l-210 -442h-203z" />
<glyph unicode="&#x137;" horiz-adv-x="1258" d="M144 0v1634h223v-1634h-223zM312 -575l179 442h235l-211 -442h-203zM369 538l490 524h272l-492 -524l543 -538h-273z" />
<glyph unicode="&#x138;" horiz-adv-x="1253" d="M144 0v1062h217v-1062h-217zM369 531l496 531h258l-497 -531l551 -531h-259z" />
<glyph unicode="&#x139;" horiz-adv-x="1207" d="M144 0v1547h225v-1359h783v-188h-1008zM154 1674l152 381h236l-183 -381h-205z" />
<glyph unicode="&#x13a;" horiz-adv-x="510" d="M144 0v1634h223v-1634h-223zM154 1692l156 383h234l-183 -383h-207z" />
<glyph unicode="&#x13b;" horiz-adv-x="1207" d="M144 0v1547h225v-1359h783v-188h-1008zM365 -575l179 442h235l-211 -442h-203z" />
<glyph unicode="&#x13c;" horiz-adv-x="547" d="M-2 -575l179 442h234l-210 -442h-203zM181 0v1634h224v-1634h-224z" />
<glyph unicode="&#x13d;" horiz-adv-x="1207" d="M144 0v1547h225v-1359h783v-188h-1008zM604 1110l179 443h234l-209 -443h-204z" />
<glyph unicode="&#x13e;" horiz-adv-x="961" d="M144 0v1634h223v-1634h-223zM475 1205l179 443h235l-210 -443h-204z" />
<glyph unicode="&#x13f;" horiz-adv-x="1207" d="M144 0v1547h225v-1359h783v-188h-1008zM675 847q0 53 38.5 90.5t88.5 37.5q51 0 90 -37t39 -91q0 -53 -38.5 -90.5t-90.5 -37.5q-50 0 -88.5 37.5t-38.5 90.5z" />
<glyph unicode="&#x140;" horiz-adv-x="787" d="M144 0v1634h223v-1634h-223zM498 845q0 52 38.5 90t89.5 38t89.5 -38t38.5 -90q0 -53 -38.5 -90.5t-89.5 -37.5t-89.5 37.5t-38.5 90.5z" />
<glyph unicode="&#x141;" horiz-adv-x="1321" d="M33 555v213l226 99v680h226v-578l357 162v-213l-357 -162v-568h783v-188h-1009v654z" />
<glyph unicode="&#x142;" horiz-adv-x="698" d="M-55 531v212l279 124v767h225v-667l305 137v-213l-305 -137v-754h-225v654z" />
<glyph unicode="&#x143;" horiz-adv-x="1516" d="M144 0v1547h215l787 -1167v1167h228v-1547h-217l-788 1165v-1165h-225zM642 1639l150 381h236l-183 -381h-203z" />
<glyph unicode="&#x144;" horiz-adv-x="1326" d="M144 0v1062h217v-153q75 95 184 140.5t229 45.5q213 0 316.5 -113t103.5 -303v-679h-223v657q0 259 -247 259q-106 0 -198.5 -50t-158.5 -151v-715h-223zM524 1207l151 381h237l-184 -381h-204z" />
<glyph unicode="&#x145;" horiz-adv-x="1516" d="M144 0v1547h215l787 -1167v1167h228v-1547h-217l-788 1165v-1165h-225zM491 -575l180 442h234l-211 -442h-203z" />
<glyph unicode="&#x146;" horiz-adv-x="1326" d="M144 0v1062h217v-153q75 95 184 140.5t229 45.5q213 0 316.5 -113t103.5 -303v-679h-223v657q0 259 -247 259q-106 0 -198.5 -50t-158.5 -151v-715h-223zM401 -575l179 442h234l-210 -442h-203z" />
<glyph unicode="&#x147;" horiz-adv-x="1516" d="M144 0v1547h215l787 -1167v1167h228v-1547h-217l-788 1165v-1165h-225zM350 2009h228l186 -238l185 238h225l-313 -367h-198z" />
<glyph unicode="&#x148;" horiz-adv-x="1326" d="M144 0v1062h217v-153q75 95 184 140.5t229 45.5q213 0 316.5 -113t103.5 -303v-679h-223v657q0 259 -247 259q-106 0 -198.5 -50t-158.5 -151v-715h-223zM266 1551h228l185 -237l186 237h226l-314 -367h-197z" />
<glyph unicode="&#x149;" horiz-adv-x="1560" d="M66 1112l179 443h235l-210 -443h-204zM378 0v1062h217v-153q76 95 185 140.5t229 45.5q212 0 316 -113t104 -303v-679h-224v657q0 259 -247 259q-106 0 -198.5 -50t-157.5 -151v-715h-224z" />
<glyph unicode="&#x14a;" horiz-adv-x="1516" d="M144 0v1547h215l787 -1167v1167h228v-1688q0 -184 -102 -277t-274 -93q-101 -1 -169 24v186q62 -29 133 -28q100 0 143 47.5t43 152.5v142l-779 1152v-1165h-225z" />
<glyph unicode="&#x14b;" horiz-adv-x="1326" d="M144 0v1062h217v-153q75 95 184 140.5t229 45.5q213 0 316.5 -113t103.5 -303v-820q0 -184 -100 -277t-273 -93q-103 -1 -171 24v186q62 -29 133 -28q99 0 143.5 48.5t44.5 151.5v786q0 259 -247 259q-106 0 -198.5 -50t-158.5 -151v-715h-223z" />
<glyph unicode="&#x14c;" horiz-adv-x="1826" d="M99 772q0 237 106.5 420.5t292.5 285t416 101.5t415.5 -101.5t291.5 -285t106 -420.5q0 -236 -106 -420t-291.5 -284.5t-415.5 -100.5t-416 100.5t-292.5 284.5t-106.5 420zM327 772q0 -181 77.5 -317t211.5 -210t298 -74q163 0 297 74t211.5 210t77.5 317 q0 179 -76.5 315.5t-209.5 210.5t-296 74q-166 0 -299.5 -73t-212.5 -210.5t-79 -316.5zM568 1686v152h690v-152h-690z" />
<glyph unicode="&#x14d;" horiz-adv-x="1408" d="M99 528q0 171 75 299.5t212.5 198t316.5 69.5t316.5 -69.5t213.5 -198t76 -299.5q0 -173 -76 -299.5t-213.5 -194t-316.5 -67.5t-315 67.5t-212.5 194.5t-76.5 299zM327 528q0 -173 102 -278.5t274 -105.5q173 0 274.5 106t101.5 278q0 179 -101.5 283.5t-274.5 104.5 t-274.5 -104.5t-101.5 -283.5zM359 1228v152h690v-152h-690z" />
<glyph unicode="&#x14e;" horiz-adv-x="1826" d="M99 772q0 237 106.5 420.5t292.5 285t416 101.5t415.5 -101.5t291.5 -285t106 -420.5q0 -236 -106 -420t-291.5 -284.5t-415.5 -100.5t-416 100.5t-292.5 284.5t-106.5 420zM327 772q0 -181 77.5 -317t211.5 -210t298 -74q163 0 297 74t211.5 210t77.5 317 q0 179 -76.5 315.5t-209.5 210.5t-296 74q-166 0 -299.5 -73t-212.5 -210.5t-79 -316.5zM580 1950h172q0 -75 42 -115.5t120 -40.5q77 0 119 41t42 115h170q0 -137 -89.5 -222.5t-241.5 -85.5q-156 0 -245 85.5t-89 222.5z" />
<glyph unicode="&#x14f;" horiz-adv-x="1408" d="M99 528q0 171 75 299.5t212.5 198t316.5 69.5t316.5 -69.5t213.5 -198t76 -299.5q0 -173 -76 -299.5t-213.5 -194t-316.5 -67.5t-315 67.5t-212.5 194.5t-76.5 299zM327 528q0 -173 102 -278.5t274 -105.5q173 0 274.5 106t101.5 278q0 179 -101.5 283.5t-274.5 104.5 t-274.5 -104.5t-101.5 -283.5zM372 1473h172q0 -75 42.5 -115.5t118.5 -40.5q78 0 120 40.5t42 115.5h171q0 -137 -89.5 -223.5t-243.5 -86.5t-243.5 86.5t-89.5 223.5z" />
<glyph unicode="&#x150;" horiz-adv-x="1826" d="M99 772q0 237 106.5 420.5t292.5 285t416 101.5t415.5 -101.5t291.5 -285t106 -420.5q0 -236 -106 -420t-291.5 -284.5t-415.5 -100.5t-416 100.5t-292.5 284.5t-106.5 420zM327 772q0 -181 77.5 -317t211.5 -210t298 -74q163 0 297 74t211.5 210t77.5 317 q0 179 -76.5 315.5t-209.5 210.5t-296 74q-166 0 -299.5 -73t-212.5 -210.5t-79 -316.5zM566 1639l151 381h225l-184 -381h-192zM1022 1639l152 381h226l-184 -381h-194z" />
<glyph unicode="&#x151;" horiz-adv-x="1428" d="M120 528q0 171 75 299.5t212 198t317 69.5q179 0 316 -69.5t213 -198t76 -299.5q0 -173 -76 -299.5t-213 -194t-316 -67.5q-180 0 -316 67.5t-212 194.5t-76 299zM348 528q0 -173 101.5 -278.5t274.5 -105.5q171 0 273 106t102 278q0 179 -102 283.5t-273 104.5 q-173 0 -274.5 -104.5t-101.5 -283.5zM380 1182l151 380h225l-184 -380h-192zM836 1182l152 380h226l-184 -380h-194z" />
<glyph unicode="&#x152;" horiz-adv-x="1969" d="M99 772q0 237 108.5 413t297.5 269t428 93h939v-192h-684v-488h484v-188h-484v-491h684v-188h-939q-239 0 -428 93t-297.5 268t-108.5 411zM327 772q0 -179 77.5 -312t211.5 -202.5t302 -69.5h44v1167h-44q-168 0 -302 -69.5t-211.5 -202t-77.5 -311.5z" />
<glyph unicode="&#x153;" horiz-adv-x="2315" d="M99 528q0 171 75 299.5t212.5 198t316.5 69.5q152 0 275.5 -50.5t203.5 -147.5q73 96 189.5 147t274.5 51q184 0 311.5 -69.5t193 -192.5t65.5 -280v-110h-911l-11 -63q31 -120 143 -178t288 -58q101 0 205.5 18.5t184.5 50.5v-180q-72 -29 -188 -47.5t-228 -18.5 q-171 0 -300 50.5t-211 148.5q-80 -97 -204.5 -148t-280.5 -51q-179 0 -315 67.5t-212.5 194.5t-76.5 299zM327 528q0 -173 102 -278.5t274 -105.5q153 0 251.5 84t120.5 228q-5 44 -5 72q0 25 5 78q-22 146 -120.5 228t-251.5 82q-173 0 -274.5 -104.5t-101.5 -283.5z M1292 677q8 -35 13 -78h702q-5 151 -99.5 234t-265.5 83q-145 0 -234 -64.5t-116 -174.5z" />
<glyph unicode="&#x154;" horiz-adv-x="1377" d="M144 0v1547h622q247 0 380 -120t133 -350q0 -171 -91 -288.5t-257 -159.5l341 -629h-234l-331 610h-338v-610h-225zM369 800h359q148 0 235.5 70t87.5 207q0 150 -85.5 214t-237.5 64h-359v-555zM502 1639l150 381h237l-184 -381h-203z" />
<glyph unicode="&#x155;" horiz-adv-x="882" d="M144 0v1062h217v-190q66 97 186 143.5t280 46.5v-175q-170 0 -291.5 -55t-168.5 -175v-657h-223zM226 1182l150 380h236l-183 -380h-203z" />
<glyph unicode="&#x156;" horiz-adv-x="1377" d="M144 0v1547h622q247 0 380 -120t133 -350q0 -171 -91 -288.5t-257 -159.5l341 -629h-234l-331 610h-338v-610h-225zM369 800h359q148 0 235.5 70t87.5 207q0 150 -85.5 214t-237.5 64h-359v-555zM374 -575l179 442h234l-209 -442h-204z" />
<glyph unicode="&#x157;" horiz-adv-x="882" d="M-42 -575l179 442h235l-210 -442h-204zM144 0v1062h217v-190q66 97 186 143.5t280 46.5v-175q-170 0 -291.5 -55t-168.5 -175v-657h-223z" />
<glyph unicode="&#x158;" horiz-adv-x="1377" d="M144 0v1547h622q247 0 380 -120t133 -350q0 -171 -91 -288.5t-257 -159.5l341 -629h-234l-331 610h-338v-610h-225zM201 2009h228l186 -238l185 238h226l-314 -367h-197zM369 800h359q148 0 235.5 70t87.5 207q0 150 -85.5 214t-237.5 64h-359v-555z" />
<glyph unicode="&#x159;" horiz-adv-x="975" d="M27 1551h228l186 -237l185 237h225l-313 -367h-198zM234 0v1062h217v-190q66 97 186.5 143.5t280.5 46.5v-175q-171 0 -292.5 -55t-167.5 -175v-657h-224z" />
<glyph unicode="&#x15a;" horiz-adv-x="1239" d="M99 53v204q213 -99 458 -100q345 0 346 232q0 80 -38 128.5t-108.5 85t-230.5 100.5q-219 89 -316.5 195t-97.5 267q0 122 66.5 216t186.5 146t274 52q127 0 228.5 -20t198.5 -64v-195q-192 87 -389 87q-159 0 -243 -57.5t-84 -164.5q0 -73 36 -122t108 -88t213 -96 q157 -64 248.5 -122t139 -141t47.5 -207q0 -201 -144 -311.5t-426 -110.5q-131 0 -261 23t-212 63zM511 1639l150 381h236l-182 -381h-204z" />
<glyph unicode="&#x15b;" horiz-adv-x="1081" d="M99 785q0 152 120.5 231t324.5 79q106 0 208 -20t164 -55v-186q-64 38 -158.5 60t-191.5 22q-118 0 -179.5 -28.5t-61.5 -102.5q0 -46 26.5 -75t85.5 -50t187 -54q201 -55 279.5 -130t78.5 -208q0 -137 -113 -219t-333 -82q-112 0 -235.5 27.5t-194.5 73.5v191 q86 -51 199 -83t219 -32q120 0 175 28.5t55 93.5q0 48 -25.5 78t-86 54t-182.5 58q-131 38 -207 76t-115 98t-39 155zM391 1182l151 380h237l-184 -380h-204z" />
<glyph unicode="&#x15c;" horiz-adv-x="1239" d="M99 53v204q213 -99 458 -100q345 0 346 232q0 80 -38 128.5t-108.5 85t-230.5 100.5q-219 89 -316.5 195t-97.5 267q0 122 66.5 216t186.5 146t274 52q127 0 228.5 -20t198.5 -64v-195q-192 87 -389 87q-159 0 -243 -57.5t-84 -164.5q0 -73 36 -122t108 -88t213 -96 q157 -64 248.5 -122t139 -141t47.5 -207q0 -201 -144 -311.5t-426 -110.5q-131 0 -261 23t-212 63zM211 1639l313 368h197l314 -368h-225l-186 237l-186 -237h-227z" />
<glyph unicode="&#x15d;" horiz-adv-x="1081" d="M99 785q0 152 120.5 231t324.5 79q106 0 208 -20t164 -55v-186q-64 38 -158.5 60t-191.5 22q-118 0 -179.5 -28.5t-61.5 -102.5q0 -46 26.5 -75t85.5 -50t187 -54q201 -55 279.5 -130t78.5 -208q0 -137 -113 -219t-333 -82q-112 0 -235.5 27.5t-194.5 73.5v191 q86 -51 199 -83t219 -32q120 0 175 28.5t55 93.5q0 48 -25.5 78t-86 54t-182.5 58q-131 38 -207 76t-115 98t-39 155zM131 1182l314 367h197l314 -367h-226l-186 236l-185 -236h-228z" />
<glyph unicode="&#x15e;" horiz-adv-x="1239" d="M99 53v204q213 -99 458 -100q345 0 346 232q0 80 -38 128.5t-108.5 85t-230.5 100.5q-219 89 -316.5 195t-97.5 267q0 122 66.5 216t186.5 146t274 52q127 0 228.5 -20t198.5 -64v-195q-192 87 -389 87q-159 0 -243 -57.5t-84 -164.5q0 -73 36 -122t108 -88t213 -96 q157 -64 248.5 -122t139 -141t47.5 -207q0 -178 -116.5 -286.5t-341.5 -131.5l-38 -95q99 -13 150 -67t51 -143q0 -97 -79.5 -156t-216.5 -59q-122 0 -182 25l3 128q21 -11 58 -17.5t68 -6.5q141 0 141 101q0 122 -223 122l64 166q-113 8 -213.5 29t-167.5 55z" />
<glyph unicode="&#x15f;" horiz-adv-x="1081" d="M99 785q0 152 120.5 231t324.5 79q106 0 208 -20t164 -55v-186q-64 38 -158.5 60t-191.5 22q-118 0 -179.5 -28.5t-61.5 -102.5q0 -46 26.5 -75t85.5 -50t187 -54q201 -55 279.5 -130t78.5 -208q0 -127 -94 -205t-278 -94l-38 -93q100 -13 151 -67t51 -143 q0 -97 -79.5 -156t-217.5 -59q-122 0 -181 25l2 128q22 -11 59 -17.5t67 -6.5q142 0 142 101q0 122 -224 122l67 172q-88 11 -170 36t-133 57v191q86 -51 199 -83t219 -32q120 0 175 28.5t55 93.5q0 48 -25.5 78t-86 54t-182.5 58q-131 38 -207 76t-115 98t-39 155z" />
<glyph unicode="&#x160;" horiz-adv-x="1239" d="M99 53v204q213 -99 458 -100q345 0 346 232q0 80 -38 128.5t-108.5 85t-230.5 100.5q-219 89 -316.5 195t-97.5 267q0 122 66.5 216t186.5 146t274 52q127 0 228.5 -20t198.5 -64v-195q-192 87 -389 87q-159 0 -243 -57.5t-84 -164.5q0 -73 36 -122t108 -88t213 -96 q157 -64 248.5 -122t139 -141t47.5 -207q0 -201 -144 -311.5t-426 -110.5q-131 0 -261 23t-212 63zM237 2009h227l186 -238l186 238h226l-315 -367h-196z" />
<glyph unicode="&#x161;" horiz-adv-x="1081" d="M99 785q0 152 120.5 231t324.5 79q106 0 208 -20t164 -55v-186q-64 38 -158.5 60t-191.5 22q-118 0 -179.5 -28.5t-61.5 -102.5q0 -46 26.5 -75t85.5 -50t187 -54q201 -55 279.5 -130t78.5 -208q0 -137 -113 -219t-333 -82q-112 0 -235.5 27.5t-194.5 73.5v191 q86 -51 199 -83t219 -32q120 0 175 28.5t55 93.5q0 48 -25.5 78t-86 54t-182.5 58q-131 38 -207 76t-115 98t-39 155zM124 1551h228l186 -237l186 237h225l-314 -367h-197z" />
<glyph unicode="&#x162;" horiz-adv-x="1298" d="M55 1355v192h1188v-192h-479v-1355h-12l-49 -124q99 -13 150.5 -67t51.5 -143q0 -97 -80 -156t-217 -59q-122 0 -181 25l2 128q21 -11 58 -17.5t68 -6.5q142 0 142 101q0 122 -224 122l76 197h-13v1355h-481z" />
<glyph unicode="&#x163;" horiz-adv-x="833" d="M55 889v173h162v318h226v-318h260v-173h-260v-551q0 -106 40.5 -150t149.5 -44q64 0 128 29v-177q-65 -25 -149 -27l-34 -93q99 -13 150 -67t51 -143q0 -97 -80 -156t-217 -59q-122 0 -181 25l2 128q22 -11 59 -17.5t67 -6.5q141 0 141 101q0 122 -222 122l70 184 q-97 34 -149 119.5t-52 216.5v566h-162z" />
<glyph unicode="&#x164;" horiz-adv-x="1298" d="M55 1355v192h1188v-192h-479v-1355h-228v1355h-481zM237 2009h227l186 -238l186 238h226l-315 -367h-196z" />
<glyph unicode="&#x165;" horiz-adv-x="968" d="M55 889v173h162v318h226v-318h260v-173h-260v-551q0 -106 40.5 -150t149.5 -44q64 0 128 29v-177q-84 -29 -208 -29q-162 0 -249 92.5t-87 263.5v566h-162zM559 1292l180 442h234l-209 -442h-205z" />
<glyph unicode="&#x166;" horiz-adv-x="1298" d="M55 1349v198h1188v-198h-477v-513h276v-190h-276v-646h-232v646h-277v190h277v513h-479z" />
<glyph unicode="&#x167;" horiz-adv-x="829" d="M55 509v133h164v263h-162v157h162v318h226v-318h262v-157h-262v-263h260v-133h-260v-164q0 -106 45.5 -153.5t144.5 -47.5q68 0 129 27v-173q-89 -31 -209 -31q-161 0 -248.5 90.5t-87.5 261.5v190h-164z" />
<glyph unicode="&#x168;" horiz-adv-x="1541" d="M133 578v969h226v-979q0 -196 110.5 -296.5t302.5 -100.5q190 0 301 100.5t111 296.5v979h225v-969q0 -283 -161.5 -447t-475.5 -164q-316 0 -477.5 162.5t-161.5 448.5zM356 1642v190q68 95 216 95q49 0 94.5 -13.5t116.5 -41.5q59 -27 104.5 -42t94.5 -15 q66 0 119.5 26t95.5 88v-190q-66 -93 -215 -93q-55 0 -105 14t-113 43q-64 27 -104.5 40t-87.5 13q-63 0 -116 -25.5t-100 -88.5z" />
<glyph unicode="&#x169;" horiz-adv-x="1326" d="M133 389v673h223v-663q0 -255 254 -255q224 0 350 201v717h224v-1062h-217v150q-76 -95 -178.5 -139t-222.5 -44q-214 0 -323.5 115t-109.5 307zM249 1184v190q69 95 218 95q48 0 93.5 -13.5t116.5 -41.5q60 -27 105 -41.5t94 -14.5q66 0 119.5 25.5t95.5 87.5v-190 q-66 -93 -215 -93q-55 0 -105 14t-114 43q-64 27 -104 40t-86 13q-64 0 -117.5 -25.5t-100.5 -88.5z" />
<glyph unicode="&#x16a;" horiz-adv-x="1541" d="M133 578v969h226v-979q0 -196 110.5 -296.5t302.5 -100.5q190 0 301 100.5t111 296.5v979h225v-969q0 -283 -161.5 -447t-475.5 -164q-316 0 -477.5 162.5t-161.5 448.5zM424 1686v152h691v-152h-691z" />
<glyph unicode="&#x16b;" horiz-adv-x="1326" d="M133 389v673h223v-663q0 -255 254 -255q224 0 350 201v717h224v-1062h-217v150q-76 -95 -178.5 -139t-222.5 -44q-214 0 -323.5 115t-109.5 307zM312 1228v152h690v-152h-690z" />
<glyph unicode="&#x16c;" horiz-adv-x="1541" d="M133 578v969h226v-979q0 -196 110.5 -296.5t302.5 -100.5q190 0 301 100.5t111 296.5v979h225v-969q0 -283 -161.5 -447t-475.5 -164q-316 0 -477.5 162.5t-161.5 448.5zM438 1950h172q0 -75 42 -115.5t120 -40.5t119.5 41t41.5 115h171q0 -137 -90 -222.5t-242 -85.5 q-155 0 -244.5 85.5t-89.5 222.5z" />
<glyph unicode="&#x16d;" horiz-adv-x="1326" d="M133 389v673h223v-663q0 -255 254 -255q224 0 350 201v717h224v-1062h-217v150q-76 -95 -178.5 -139t-222.5 -44q-214 0 -323.5 115t-109.5 307zM321 1493h173q0 -76 42 -116.5t118 -40.5q78 0 120 41t42 116h170q0 -138 -89 -223.5t-243 -85.5t-243.5 85.5t-89.5 223.5z " />
<glyph unicode="&#x16e;" horiz-adv-x="1541" d="M133 578v969h226v-979q0 -196 110.5 -296.5t302.5 -100.5q190 0 301 100.5t111 296.5v979h225v-969q0 -283 -161.5 -447t-475.5 -164q-316 0 -477.5 162.5t-161.5 448.5zM513 1898q0 105 74 181t183 76q106 0 181 -76t75 -181q0 -108 -75 -182t-181 -74q-109 0 -183 74 t-74 182zM650 1898q0 -51 35.5 -86t84.5 -35t84 36t35 85q0 48 -35 83.5t-84 35.5t-84.5 -35.5t-35.5 -83.5z" />
<glyph unicode="&#x16f;" horiz-adv-x="1326" d="M133 389v673h223v-663q0 -255 254 -255q224 0 350 201v717h224v-1062h-217v150q-76 -95 -178.5 -139t-222.5 -44q-214 0 -323.5 115t-109.5 307zM401 1440q0 105 74 181t182 76q105 0 181 -75t76 -182q0 -108 -75 -182t-182 -74q-108 0 -182 74t-74 182zM538 1440 q0 -51 35 -86t84 -35q48 0 84 36t36 85q0 48 -36 84t-84 36q-49 0 -84 -36t-35 -84z" />
<glyph unicode="&#x170;" horiz-adv-x="1541" d="M133 578v969h226v-979q0 -196 110.5 -296.5t302.5 -100.5q190 0 301 100.5t111 296.5v979h225v-969q0 -283 -161.5 -447t-475.5 -164q-316 0 -477.5 162.5t-161.5 448.5zM438 1639l151 381h225l-183 -381h-193zM893 1639l154 381h225l-183 -381h-196z" />
<glyph unicode="&#x171;" horiz-adv-x="1328" d="M133 389v673h223v-663q0 -255 254 -255q224 0 350 201v717h224v-1062h-217v150q-76 -95 -178.5 -139t-222.5 -44q-214 0 -323.5 115t-109.5 307zM323 1182l150 380h226l-184 -380h-192zM779 1182l152 380h226l-184 -380h-194z" />
<glyph unicode="&#x172;" horiz-adv-x="1541" d="M133 578v969h226v-979q0 -196 110.5 -296.5t302.5 -100.5q190 0 301 100.5t111 296.5v979h225v-969q0 -262 -136 -421t-401 -186q-66 -49 -99.5 -98.5t-33.5 -106.5q0 -95 97 -95q55 0 106 21v-135q-74 -27 -170 -26q-101 0 -165.5 51t-64.5 148q0 71 33 132.5t90 108.5 q-263 27 -397.5 187.5t-134.5 419.5z" />
<glyph unicode="&#x173;" horiz-adv-x="1293" d="M133 389v673h223v-663q0 -255 254 -255q224 0 350 201v717h224v-1062h-7q-88 -57 -131.5 -112.5t-43.5 -121.5q0 -95 97 -95q56 0 106 21v-135q-73 -27 -170 -26q-102 0 -166 51t-64 148q0 82 45 153t119 117h-2v150q-76 -95 -178.5 -139t-222.5 -44q-215 0 -324 115 t-109 307z" />
<glyph unicode="&#x174;" horiz-adv-x="2226" d="M106 1547h234l346 -1175l340 1175h177l338 -1175l346 1175h234l-451 -1547h-214l-344 1167l-340 -1167h-215zM701 1639l314 368h197l314 -368h-226l-185 237l-186 -237h-228z" />
<glyph unicode="&#x175;" horiz-adv-x="1809" d="M99 1062h228l239 -788l236 788h202l237 -788l239 788h230l-345 -1062h-215l-245 792l-246 -792h-216zM494 1182l314 367h196l315 -367h-226l-186 236l-186 -236h-227z" />
<glyph unicode="&#x176;" horiz-adv-x="1560" d="M106 1547h242l431 -747l437 747h240l-569 -961v-586h-220v586zM367 1639l314 368h197l314 -368h-225l-186 237l-186 -237h-228z" />
<glyph unicode="&#x177;" horiz-adv-x="1298" d="M99 1062h230l355 -817l329 817h230l-477 -1182q-66 -166 -158.5 -242t-238.5 -76q-118 0 -198 24v175q57 -21 141 -22q78 0 121.5 38.5t79.5 125.5l51 124zM274 1182l315 367h196l314 -367h-225l-186 236l-186 -236h-228z" />
<glyph unicode="&#x178;" horiz-adv-x="1547" d="M99 1547h241l432 -747l438 747h238l-568 -961v-586h-219v586zM365 1792q0 53 39 90.5t92 37.5q50 0 87.5 -37.5t37.5 -90.5t-37.5 -91t-87.5 -38q-53 0 -92 38t-39 91zM867 1792q0 53 38.5 90.5t92.5 37.5q51 0 88 -37.5t37 -90.5t-37 -91t-88 -38q-54 0 -92.5 38 t-38.5 91z" />
<glyph unicode="&#x179;" horiz-adv-x="1366" d="M99 0v152l857 1203h-836v192h1110v-156l-854 -1203h892v-188h-1169zM531 1639l150 381h237l-184 -381h-203z" />
<glyph unicode="&#x17a;" horiz-adv-x="1102" d="M99 0v144l604 745h-591v173h870v-146l-604 -743h626v-173h-905zM416 1182l150 380h236l-183 -380h-203z" />
<glyph unicode="&#x17b;" horiz-adv-x="1366" d="M99 0v152l857 1203h-836v192h1110v-156l-854 -1203h892v-188h-1169zM531 1767q0 53 38.5 90.5t91.5 37.5q51 0 88.5 -37t37.5 -91q0 -53 -37.5 -90.5t-88.5 -37.5q-53 0 -91.5 37.5t-38.5 90.5z" />
<glyph unicode="&#x17c;" horiz-adv-x="1102" d="M99 0v144l604 745h-591v173h870v-146l-604 -743h626v-173h-905zM418 1309q0 53 39 90.5t92 37.5q50 0 88 -37t38 -91q0 -53 -38 -90t-88 -37q-53 0 -92 37t-39 90z" />
<glyph unicode="&#x17d;" horiz-adv-x="1366" d="M99 0v152l857 1203h-836v192h1110v-156l-854 -1203h892v-188h-1169zM268 2009h228l185 -238l186 238h226l-314 -367h-197z" />
<glyph unicode="&#x17e;" horiz-adv-x="1102" d="M99 0v144l604 745h-591v173h870v-146l-604 -743h626v-173h-905zM146 1551h228l185 -237l186 237h226l-314 -367h-197z" />
<glyph unicode="&#x18f;" horiz-adv-x="1819" d="M99 737v114h1381q-18 257 -194 395.5t-486 138.5q-146 0 -295 -26.5t-258 -71.5v193q102 42 264 70.5t318 28.5q281 0 481.5 -95t305 -275.5t104.5 -434.5q0 -245 -93.5 -426.5t-276.5 -281t-443 -99.5q-261 0 -443.5 99.5t-273.5 274t-91 396.5zM319 679 q8 -238 153 -380t431 -142q281 0 424.5 142t154.5 380h-1163z" />
<glyph unicode="&#x192;" horiz-adv-x="1161" d="M-199 -482l31 184q52 -27 128 -27q108 0 164.5 48.5t80.5 154.5l215 1023h-177l27 161h186l44 208q80 376 456 376q46 0 93.5 -8t78.5 -21l-31 -180q-55 25 -133 25q-103 0 -160 -46.5t-80 -159.5l-43 -194h294l-26 -161h-303l-219 -1036q-40 -194 -152.5 -284 t-303.5 -90q-104 0 -170 27z" />
<glyph unicode="&#x1a0;" horiz-adv-x="1906" d="M99 772q0 237 106.5 420.5t292.5 285t416 101.5q162 0 304.5 -52t250.5 -147q101 2 146.5 47.5t45.5 144.5v80h208v-90q0 -125 -71 -221t-190 -127q120 -197 119 -442q0 -236 -106 -420t-291.5 -284.5t-415.5 -100.5t-416 100.5t-292.5 284.5t-106.5 420zM334 772 q0 -179 77.5 -314t209 -208t293.5 -73q161 0 292.5 73t209 208t77.5 314q0 177 -75.5 311.5t-207 208t-292.5 73.5q-164 0 -296.5 -73.5t-210 -208t-77.5 -311.5z" />
<glyph unicode="&#x1a1;" horiz-adv-x="1496" d="M99 528q0 171 75 299.5t212.5 198t316.5 69.5q122 0 227 -33.5t182 -97.5q82 16 123.5 64.5t41.5 126.5v79h183v-90q0 -108 -62 -193.5t-168 -121.5q80 -130 79 -301q0 -173 -76 -299.5t-213.5 -194t-316.5 -67.5t-315 67.5t-212.5 194.5t-76.5 299zM327 528 q0 -173 102 -278.5t274 -105.5q173 0 274.5 106t101.5 278q0 179 -101.5 283.5t-274.5 104.5t-274.5 -104.5t-101.5 -283.5z" />
<glyph unicode="&#x1af;" horiz-adv-x="1853" d="M133 578v969h232v-979q0 -196 107.5 -293.5t299.5 -97.5q190 0 297.5 97.5t107.5 293.5v979h232v-167q108 0 152.5 44.5t44.5 147.5v80h207v-90q0 -157 -103.5 -259t-300.5 -102v-623q0 -283 -161.5 -447t-475.5 -164q-316 0 -477.5 162.5t-161.5 448.5z" />
<glyph unicode="&#x1b0;" horiz-adv-x="1587" d="M133 384v678h223v-657q0 -261 254 -261q106 0 195.5 49.5t154.5 151.5v717h224v-102q88 4 135.5 54t47.5 134v86h184v-90q0 -142 -99 -236t-268 -98v-810h-217v157q-78 -100 -184 -145t-224 -45q-214 0 -320 113.5t-106 303.5z" />
<glyph unicode="&#x1cd;" horiz-adv-x="1649" d="M99 0l618 1547h216l618 -1547h-230l-156 384h-683l-150 -384h-233zM414 2009h228l185 -238l186 238h226l-315 -367h-196zM546 572h558l-279 724z" />
<glyph unicode="&#x1ce;" horiz-adv-x="1258" d="M99 332q0 177 112 273t317 96q219 0 373 -89v55q0 127 -77 188t-240 61q-97 0 -189 -19t-165 -52v181q66 31 172.5 50t205.5 19q264 0 390.5 -116t126.5 -322v-657h-209v120q-68 -76 -162.5 -114.5t-229.5 -38.5q-192 0 -308.5 98.5t-116.5 266.5zM252 1551h228l185 -237 l186 237h226l-313 -367h-198zM325 332q0 -195 255 -195q106 0 192.5 42t128.5 117v145q-144 93 -321 93q-129 0 -192 -50.5t-63 -151.5z" />
<glyph unicode="&#x1cf;" horiz-adv-x="545" d="M-139 2033h228l185 -237l186 237h226l-314 -368h-197zM186 0v1547h228v-1547h-228z" />
<glyph unicode="&#x1d0;" horiz-adv-x="543" d="M-141 1557h227l186 -236l186 236h226l-315 -367h-196zM186 0v1062h225v-1062h-225z" />
<glyph unicode="&#x1d1;" horiz-adv-x="1826" d="M99 772q0 237 106.5 420.5t292.5 285t416 101.5t415.5 -101.5t291.5 -285t106 -420.5q0 -236 -106 -420t-291.5 -284.5t-415.5 -100.5t-416 100.5t-292.5 284.5t-106.5 420zM327 772q0 -181 77.5 -317t211.5 -210t298 -74q163 0 297 74t211.5 210t77.5 317 q0 179 -76.5 315.5t-209.5 210.5t-296 74q-166 0 -299.5 -73t-212.5 -210.5t-79 -316.5zM502 2009h228l186 -238l186 238h225l-314 -367h-197z" />
<glyph unicode="&#x1d2;" horiz-adv-x="1448" d="M139 528q0 171 75 299.5t212.5 198t316.5 69.5t316.5 -69.5t213.5 -198t76 -299.5q0 -173 -76 -299.5t-213.5 -194t-316.5 -67.5t-315 67.5t-212.5 194.5t-76.5 299zM332 1551h227l186 -237l186 237h226l-315 -367h-196zM367 528q0 -173 101.5 -278.5t274.5 -105.5 t274.5 106t101.5 278q0 179 -101.5 283.5t-274.5 104.5t-274.5 -104.5t-101.5 -283.5z" />
<glyph unicode="&#x1d3;" horiz-adv-x="1541" d="M133 578v969h226v-979q0 -196 110.5 -296.5t302.5 -100.5q190 0 301 100.5t111 296.5v979h225v-969q0 -283 -161.5 -447t-475.5 -164q-316 0 -477.5 162.5t-161.5 448.5zM359 2009h227l186 -238l186 238h226l-315 -367h-196z" />
<glyph unicode="&#x1d4;" horiz-adv-x="1326" d="M133 389v673h223v-663q0 -255 254 -255q224 0 350 201v717h224v-1062h-217v150q-76 -95 -178.5 -139t-222.5 -44q-214 0 -323.5 115t-109.5 307zM245 1551h228l186 -237l186 237h225l-314 -367h-197z" />
<glyph unicode="&#x1d5;" horiz-adv-x="1541" d="M133 578v969h226v-979q0 -196 110.5 -296.5t302.5 -100.5q190 0 301 100.5t111 296.5v979h225v-969q0 -283 -161.5 -447t-475.5 -164q-316 0 -477.5 162.5t-161.5 448.5zM389 1767q0 53 39 90.5t91 37.5q51 0 89 -37t38 -91q0 -53 -38 -90.5t-89 -37.5q-52 0 -91 37.5 t-39 90.5zM424 2037v153h691v-153h-691zM891 1767q0 53 39 90.5t92 37.5q50 0 88 -37t38 -91q0 -53 -38 -90.5t-88 -37.5q-53 0 -92 37.5t-39 90.5z" />
<glyph unicode="&#x1d6;" horiz-adv-x="1326" d="M133 389v673h223v-663q0 -255 254 -255q224 0 350 201v717h224v-1062h-217v150q-76 -95 -178.5 -139t-222.5 -44q-214 0 -323.5 115t-109.5 307zM279 1309q0 53 38.5 90.5t91.5 37.5q51 0 89 -37t38 -91q0 -53 -38 -90t-89 -37q-53 0 -91.5 37t-38.5 90zM312 1570v153 h690v-153h-690zM781 1309q0 53 39 90.5t92 37.5q50 0 88 -37t38 -91q0 -53 -38 -90t-88 -37q-53 0 -92 37t-39 90z" />
<glyph unicode="&#x1d7;" horiz-adv-x="1541" d="M133 578v969h226v-979q0 -196 110.5 -296.5t302.5 -100.5q190 0 301 100.5t111 296.5v979h225v-969q0 -283 -161.5 -447t-475.5 -164q-316 0 -477.5 162.5t-161.5 448.5zM384 1785q0 53 39 91t90 38t90 -38t39 -91t-39 -90.5t-90 -37.5t-90 37.5t-39 90.5zM681 1872 l127 276h199l-156 -276h-170zM909 1785q0 53 38.5 91t90.5 38q51 0 89 -38t38 -91t-38 -90.5t-89 -37.5q-52 0 -90.5 37.5t-38.5 90.5z" />
<glyph unicode="&#x1d8;" horiz-adv-x="1326" d="M133 389v673h223v-663q0 -255 254 -255q224 0 350 201v717h224v-1062h-217v150q-76 -95 -178.5 -139t-222.5 -44q-214 0 -323.5 115t-109.5 307zM257 1311q0 53 38.5 91t88.5 38q51 0 90 -37.5t39 -91.5q0 -53 -39 -90t-90 -37q-50 0 -88.5 37t-38.5 90zM553 1398 l126 276h199l-154 -276h-171zM781 1311q0 53 39 91t89 38q51 0 90 -37.5t39 -91.5q0 -53 -39 -90t-90 -37q-50 0 -89 37t-39 90z" />
<glyph unicode="&#x1d9;" horiz-adv-x="1541" d="M133 578v969h226v-979q0 -196 110.5 -296.5t302.5 -100.5q190 0 301 100.5t111 296.5v979h225v-969q0 -283 -161.5 -447t-475.5 -164q-316 0 -477.5 162.5t-161.5 448.5zM378 1767q0 53 39 90.5t90 37.5q50 0 89 -37t39 -91q0 -53 -39 -90.5t-89 -37.5q-51 0 -90 37.5 t-39 90.5zM427 2141h188l157 -172l157 172h188l-263 -277h-164zM903 1767q0 53 38.5 90.5t88.5 37.5q51 0 90 -37t39 -91q0 -53 -39 -90.5t-90 -37.5q-50 0 -88.5 37.5t-38.5 90.5z" />
<glyph unicode="&#x1da;" horiz-adv-x="1326" d="M133 389v673h223v-663q0 -255 254 -255q224 0 350 201v717h224v-1062h-217v150q-76 -95 -178.5 -139t-222.5 -44q-214 0 -323.5 115t-109.5 307zM249 1309q0 53 39 90.5t90 37.5t90 -37t39 -91q0 -53 -39 -90t-90 -37t-90 37t-39 90zM298 1684h189l157 -173l156 173h188 l-262 -277h-164zM774 1309q0 53 38.5 90.5t90.5 37.5q51 0 89 -37t38 -91q0 -53 -38 -90t-89 -37q-52 0 -90.5 37t-38.5 90z" />
<glyph unicode="&#x1db;" horiz-adv-x="1541" d="M133 578v969h226v-979q0 -196 110.5 -296.5t302.5 -100.5q190 0 301 100.5t111 296.5v979h225v-969q0 -283 -161.5 -447t-475.5 -164q-316 0 -477.5 162.5t-161.5 448.5zM384 1767q0 53 39 90.5t90 37.5t90 -37t39 -91q0 -53 -39 -90.5t-90 -37.5t-90 37.5t-39 90.5z M544 2130h199l126 -277h-170zM909 1767q0 53 38.5 90.5t90.5 37.5q51 0 89 -37t38 -91q0 -53 -38 -90.5t-89 -37.5q-52 0 -90.5 37.5t-38.5 90.5z" />
<glyph unicode="&#x1dc;" horiz-adv-x="1326" d="M133 389v673h223v-663q0 -255 254 -255q224 0 350 201v717h224v-1062h-217v150q-76 -95 -178.5 -139t-222.5 -44q-214 0 -323.5 115t-109.5 307zM261 1309q0 53 38.5 90.5t89.5 37.5t89.5 -37t38.5 -91q0 -53 -38 -90t-90 -37q-51 0 -89.5 37t-38.5 90zM420 1672h199 l126 -277h-170zM785 1309q0 53 39 90.5t90 37.5q50 0 89 -37t39 -91q0 -53 -39 -90t-89 -37q-51 0 -90 37t-39 90z" />
<glyph unicode="&#x1e6;" horiz-adv-x="1583" d="M99 772q0 241 104.5 424.5t290 283t424.5 99.5q321 0 532 -159v-217q-192 169 -513 169q-175 0 -313.5 -73t-217.5 -209t-79 -318q0 -181 77.5 -318.5t214.5 -210t310 -72.5q201 0 329 81v405h-294v183h520v-707q-104 -87 -244.5 -126.5t-321.5 -39.5q-239 0 -424.5 99.5 t-290 282t-104.5 423.5zM420 2033h228l186 -237l186 237h225l-314 -368h-197z" />
<glyph unicode="&#x1e7;" horiz-adv-x="1459" d="M99 531q0 169 72 296t199.5 197.5t286.5 70.5q148 0 251 -43t191 -143v153h218v-1009q0 -272 -152 -417t-466 -145q-108 0 -211.5 18t-173.5 50v184q167 -76 385 -75q205 0 299.5 90t94.5 271v112q-146 -174 -430 -174q-162 0 -290 70.5t-201 199t-73 294.5zM243 1564 h228l186 -237l185 237h226l-314 -367h-197zM325 531q0 -114 49.5 -202t137 -136.5t195.5 -48.5q138 0 243 72.5t143 194.5v239q-42 124 -145 195t-241 71q-108 0 -195.5 -47.5t-137 -136t-49.5 -201.5z" />
<glyph unicode="&#x1fa;" horiz-adv-x="1649" d="M99 0l595 1493q-57 31 -91.5 91t-34.5 130q0 106 74.5 181.5t182.5 75.5q106 0 181 -75t75 -182q0 -71 -34 -129.5t-91 -91.5l595 -1493h-230l-156 384h-683l-150 -384h-233zM546 572h558l-279 724zM705 1714q0 -51 36 -86t84 -35q49 0 84 36t35 85t-35 84.5t-84 35.5 q-48 0 -84 -35.5t-36 -84.5zM721 2017l151 305h236l-184 -305h-203z" />
<glyph unicode="&#x1fb;" horiz-adv-x="1258" d="M99 332q0 177 112 273t317 96q219 0 373 -89v55q0 127 -77 188t-240 61q-97 0 -189 -19t-165 -52v181q66 31 172.5 50t205.5 19q264 0 390.5 -116t126.5 -322v-657h-209v120q-68 -76 -162.5 -114.5t-229.5 -38.5q-192 0 -308.5 98.5t-116.5 266.5zM325 332 q0 -195 255 -195q106 0 192.5 42t128.5 117v145q-144 93 -321 93q-129 0 -192 -50.5t-63 -151.5zM401 1440q0 105 74 181t182 76q105 0 181 -75t76 -182q0 -108 -75 -182t-182 -74q-108 0 -182 74t-74 182zM538 1440q0 -51 35 -86t84 -35q48 0 84 36t36 85q0 48 -36 84 t-84 36q-49 0 -84 -36t-35 -84zM555 1767l150 306h237l-184 -306h-203z" />
<glyph unicode="&#x1fc;" horiz-adv-x="2039" d="M99 0l760 1547h1081v-192h-708v-488h507v-188h-507v-491h708v-188h-933v396h-476l-193 -396h-239zM621 572h386v770h-19zM1131 1639l150 381h236l-183 -381h-203z" />
<glyph unicode="&#x1fd;" horiz-adv-x="2149" d="M99 332q0 177 112 273t317 96q219 0 373 -89v55q0 127 -77 188t-240 61q-97 0 -189 -19t-165 -52v181q66 31 172.5 50t205.5 19q292 0 424 -177q76 84 189 130.5t256 46.5q184 0 313.5 -69.5t194.5 -192.5t65 -280v-110h-929q11 -152 125.5 -225.5t310.5 -73.5 q104 0 207 18.5t182 50.5v-180q-71 -29 -186.5 -47.5t-229.5 -18.5q-327 0 -502 197q-86 -95 -205.5 -146t-288.5 -51q-202 0 -318.5 97.5t-116.5 267.5zM325 332q0 -195 255 -195q106 0 191 41t130 116v147q-144 93 -321 93q-129 0 -192 -50.5t-63 -151.5zM944 1182 l151 380h237l-184 -380h-204zM1121 599h717q-4 151 -97 234t-266 83q-168 0 -259 -86.5t-95 -230.5z" />
<glyph unicode="&#x1fe;" horiz-adv-x="1826" d="M99 772q0 237 106.5 420.5t292.5 285t416 101.5q106 0 209 -24l74 179h221l-101 -250q192 -99 301 -285t109 -427q0 -236 -106 -420t-291.5 -284.5t-415.5 -100.5q-93 0 -199 22l-71 -179h-222l100 245q-195 99 -309 286t-114 431zM327 772q0 -175 73 -309t199 -211 l445 1106q-63 13 -130 14q-167 0 -299.5 -74t-210 -210.5t-77.5 -315.5zM792 181q48 -10 122 -10q163 0 297 74t211.5 210t77.5 317q0 171 -71 302t-192 209zM800 1655l154 380h236l-183 -380h-207z" />
<glyph unicode="&#x1ff;" horiz-adv-x="1408" d="M99 528q0 171 75 299.5t212.5 198t316.5 69.5q40 0 111 -9l66 166h222l-91 -224q141 -68 219.5 -197.5t78.5 -302.5t-76 -299.5t-213.5 -194t-316.5 -67.5q-68 0 -114 8l-67 -165h-221l88 223q-137 69 -213.5 196t-76.5 299zM327 528q0 -101 36 -180.5t101 -130.5 l279 697q-13 2 -40 2q-173 0 -274.5 -104.5t-101.5 -283.5zM538 1182l150 380h236l-183 -380h-203zM657 146q15 -2 46 -2q173 0 274.5 106t101.5 278q0 106 -36 187t-106 132z" />
<glyph unicode="&#x218;" horiz-adv-x="1239" d="M99 53v204q213 -99 458 -100q345 0 346 232q0 80 -38 128.5t-108.5 85t-230.5 100.5q-219 89 -316.5 195t-97.5 267q0 122 66.5 216t186.5 146t274 52q127 0 228.5 -20t198.5 -64v-195q-192 87 -389 87q-159 0 -243 -57.5t-84 -164.5q0 -73 36 -122t108 -88t213 -96 q157 -64 248.5 -122t139 -141t47.5 -207q0 -201 -144 -311.5t-426 -110.5q-131 0 -261 23t-212 63zM310 -572l181 439h235l-211 -439h-205z" />
<glyph unicode="&#x219;" horiz-adv-x="1081" d="M99 785q0 152 120.5 231t324.5 79q106 0 208 -20t164 -55v-186q-64 38 -158.5 60t-191.5 22q-118 0 -179.5 -28.5t-61.5 -102.5q0 -46 26.5 -75t85.5 -50t187 -54q201 -55 279.5 -130t78.5 -208q0 -137 -113 -219t-333 -82q-112 0 -235.5 27.5t-194.5 73.5v191 q86 -51 199 -83t219 -32q120 0 175 28.5t55 93.5q0 48 -25.5 78t-86 54t-182.5 58q-131 38 -207 76t-115 98t-39 155zM249 -572l182 439h234l-209 -439h-207z" />
<glyph unicode="&#x21a;" horiz-adv-x="1298" d="M55 1355v192h1188v-192h-479v-1355h-228v1355h-481zM348 -575l178 442h235l-210 -442h-203z" />
<glyph unicode="&#x21b;" horiz-adv-x="826" d="M55 889v173h162v318h226v-318h260v-173h-260v-551q0 -106 40.5 -150t149.5 -44q64 0 128 29v-177q-84 -29 -208 -29q-162 0 -249 92.5t-87 263.5v566h-162zM232 -575l179 442h235l-211 -442h-203z" />
<glyph unicode="&#x237;" horiz-adv-x="532" d="M-154 -303q57 -27 132 -26q100 0 143 47.5t43 152.5v1191h225v-1206q0 -183 -101.5 -275t-274.5 -92q-99 -1 -167 24v184z" />
<glyph unicode="&#x251;" horiz-adv-x="1459" d="M99 528q0 166 72 294.5t199.5 200.5t286.5 72q287 0 436 -175v142h224v-1062h-218v154q-88 -97 -193.5 -142t-248.5 -45q-159 0 -286.5 69.5t-199.5 197t-72 294.5zM325 528q0 -112 49.5 -200.5t137 -136t195.5 -47.5q138 0 241 71.5t145 193.5v239q-38 122 -143 195 t-243 73q-108 0 -195.5 -48.5t-137 -137t-49.5 -202.5z" />
<glyph unicode="&#x259;" horiz-adv-x="1344" d="M99 507v110h933q-10 152 -126.5 226.5t-314.5 74.5q-102 0 -206 -19t-184 -50v179q71 29 187 48t229 19q293 0 460.5 -148.5t167.5 -412.5q0 -262 -149 -414.5t-425 -152.5q-184 0 -312.5 69.5t-194 192.5t-65.5 278zM310 462q4 -150 98 -234t267 -84q167 0 260 87.5 t97 230.5h-722z" />
<glyph unicode="&#x2bb;" horiz-adv-x="565" d="M99 1148l173 431h195l-148 -431h-220z" />
<glyph unicode="&#x2bc;" horiz-adv-x="565" d="M99 1148l146 431h222l-175 -431h-193z" />
<glyph unicode="&#x2be;" d="M-157 1184v161q78 0 117.5 32t39.5 105t-40 105t-117 32v162q144 0 231.5 -75.5t87.5 -223.5t-87.5 -223t-231.5 -75z" />
<glyph unicode="&#x2bf;" d="M-157 1482q0 148 87 223.5t232 75.5v-162q-78 0 -118 -32t-40 -105q0 -74 40 -105.5t118 -31.5v-161q-145 0 -232 75t-87 223z" />
<glyph unicode="&#x2c6;" horiz-adv-x="1023" d="M99 1317l315 367h196l314 -367h-225l-186 234l-186 -234h-228z" />
<glyph unicode="&#x2c7;" horiz-adv-x="1023" d="M99 1690h228l186 -236l186 236h225l-314 -367h-196z" />
<glyph unicode="&#x2c8;" d="M-93 1287v385h182v-385h-182z" />
<glyph unicode="&#x2c9;" horiz-adv-x="1302" d="M298 1336v154h706v-154h-706z" />
<glyph unicode="&#x2ca;" d="M-197 1300l153 380h236l-183 -380h-206z" />
<glyph unicode="&#x2cb;" d="M-197 1300l184 380h203l-150 -380h-237z" />
<glyph unicode="&#x2cc;" d="M-93 -141h182v-383h-182v383z" />
<glyph unicode="&#x2d8;" horiz-adv-x="861" d="M99 1577h171q0 -76 42 -116.5t119 -40.5q78 0 120 41t42 116h171q0 -137 -90 -223t-243 -86q-152 0 -242 86t-90 223z" />
<glyph unicode="&#x2d9;" horiz-adv-x="454" d="M99 1422q0 53 39 91t90 38t89.5 -38t38.5 -91t-38.5 -90.5t-89.5 -37.5t-90 37.5t-39 90.5z" />
<glyph unicode="&#x2da;" horiz-adv-x="711" d="M99 1462q0 106 74 181t183 75q106 0 181 -75t75 -181q0 -108 -75 -182.5t-181 -74.5q-109 0 -183 74t-74 183zM237 1462q0 -50 35.5 -86t83.5 -36q49 0 84 37t35 85q0 49 -35 84t-84 35q-48 0 -83.5 -35t-35.5 -84z" />
<glyph unicode="&#x2db;" horiz-adv-x="599" d="M99 -270q0 82 45.5 153t119.5 117h207q-89 -57 -132 -112.5t-43 -121.5q0 -95 100 -95q53 0 104 21v-135q-73 -27 -171 -26q-99 0 -164.5 51t-65.5 148z" />
<glyph unicode="&#x2dc;" horiz-adv-x="1038" d="M99 1325v190q68 95 215 95q49 0 94.5 -13.5t115.5 -41.5q59 -27 105 -41t95 -14q65 0 118 25.5t98 86.5v-190q-66 -93 -216 -93q-55 0 -105.5 14.5t-114.5 43.5q-63 27 -103 40t-87 13q-63 0 -115.5 -26.5t-99.5 -88.5z" />
<glyph unicode="&#x2dd;" horiz-adv-x="1032" d="M99 1285l153 380h223l-183 -380h-193zM557 1285l150 380h226l-183 -380h-193z" />
<glyph unicode="&#x300;" d="M-1024 1680h237l152 -380h-205z" />
<glyph unicode="&#x301;" d="M-770 1300l151 380h237l-184 -380h-204z" />
<glyph unicode="&#x302;" d="M-414 1309l315 367h196l314 -367h-225l-186 238l-186 -238h-228z" />
<glyph unicode="&#x303;" d="M-1104 1325v190q68 95 217 95q49 0 94.5 -13.5t115.5 -41.5q59 -27 105 -41t95 -14q66 0 118.5 25.5t94.5 86.5v-190q-65 -93 -213 -93q-55 0 -105.5 14.5t-114.5 43.5q-63 27 -103 40t-87 13q-63 0 -116.5 -25.5t-100.5 -89.5z" />
<glyph unicode="&#x304;" d="M-334 1336v152h690v-152h-690z" />
<glyph unicode="&#x306;" d="M-334 1577h172q0 -76 42 -116.5t120 -40.5t120 41t42 116h170q0 -137 -90 -223t-242 -86q-154 0 -244 86t-90 223z" />
<glyph unicode="&#x307;" d="M-131 1422q0 53 39 91t92 38q51 0 88.5 -38t37.5 -91t-37.5 -90.5t-88.5 -37.5q-53 0 -92 37.5t-39 90.5z" />
<glyph unicode="&#x308;" d="M-382 1422q0 53 38 91t92 38q51 0 88.5 -38t37.5 -91t-37.5 -90.5t-88.5 -37.5q-54 0 -92 37.5t-38 90.5zM120 1422q0 53 38.5 91t90.5 38q51 0 89 -38t38 -91t-37.5 -90.5t-89.5 -37.5t-90.5 37.5t-38.5 90.5z" />
<glyph unicode="&#x309;" d="M-960 1599v121q36 11 88.5 20.5t103.5 9.5q142 0 216.5 -59t74.5 -156q0 -82 -53.5 -138.5t-150.5 -69.5v-75h-197v157q104 0 153.5 27.5t49.5 89.5q0 51 -34 74t-112 23q-29 0 -74 -7.5t-65 -16.5z" />
<glyph unicode="&#x30a;" d="M-257 1462q0 106 74.5 181t182.5 75q106 0 181.5 -75t75.5 -181q0 -108 -75.5 -182.5t-181.5 -74.5q-108 0 -182.5 74t-74.5 183zM-120 1462q0 -50 35.5 -86t84.5 -36t84.5 37t35.5 85q0 49 -35.5 84t-84.5 35t-84.5 -35t-35.5 -84z" />
<glyph unicode="&#x30b;" d="M-438 1300l151 380h225l-183 -380h-193zM17 1300l154 380h225l-183 -380h-196z" />
<glyph unicode="&#x30c;" d="M-414 1676h228l186 -236l186 236h225l-314 -367h-196z" />
<glyph unicode="&#x31b;" d="M-186 1228v157q100 0 152.5 50.5t52.5 136.5v80h180v-90q0 -144 -102.5 -239t-282.5 -95z" />
<glyph unicode="&#x323;" d="M-131 -239q0 53 39 91t92 38q51 0 88.5 -38t37.5 -91t-37.5 -90.5t-88.5 -37.5q-53 0 -92 37.5t-39 90.5z" />
<glyph unicode="&#x324;" d="M-369 -239q0 53 38.5 91t89.5 38t90 -38t39 -91t-39 -90.5t-90 -37.5t-89.5 37.5t-38.5 90.5zM108 -239q0 53 39 91t90 38q50 0 89 -38t39 -91t-39 -90.5t-89 -37.5q-51 0 -90 37.5t-39 90.5z" />
<glyph unicode="&#x326;" d="M-513 -575l179 442h235l-211 -442h-203z" />
<glyph unicode="&#x327;" d="M-228 -524l2 128q22 -11 58.5 -17.5t68.5 -6.5q141 0 141 101q0 122 -223 122l75 197h203l-48 -124q99 -13 149.5 -67t50.5 -143q0 -97 -79 -156t-216 -59q-122 0 -182 25z" />
<glyph unicode="&#x328;" d="M-192 -270q0 82 45 153t118 117h208q-88 -57 -131.5 -112.5t-43.5 -121.5q0 -95 98 -95q55 0 106 21v-135q-73 -27 -170 -26q-102 0 -166 51t-64 148z" />
<glyph unicode="&#x32e;" d="M-334 -135h172q0 -76 43 -117.5t119 -41.5t119 41.5t43 117.5h170q0 -139 -90 -225.5t-242 -86.5q-154 0 -244 86.5t-90 225.5z" />
<glyph unicode="&#x331;" d="M-336 -157h695v-155h-695v155z" />
<glyph unicode="&#x394;" horiz-adv-x="1518" d="M99 0v162l558 1417h206l557 -1417v-162h-1321zM312 186h893l-447 1143z" />
<glyph unicode="&#x3a9;" horiz-adv-x="1813" d="M99 0v188h308q-139 99 -222 255t-83 349q0 228 99.5 407t281.5 279.5t424 100.5q239 0 421.5 -100.5t283 -279.5t100.5 -407q0 -193 -82.5 -348t-222.5 -256h307v-188h-628v177q206 115 302 262t96 353q0 170 -74 302t-206 205t-297 73q-166 0 -298 -73t-206 -205 t-74 -302q0 -206 95 -353t302 -262v-177h-627z" />
<glyph unicode="&#x3bc;" horiz-adv-x="1338" d="M144 -485v1547h223v-671q0 -247 254 -247q224 0 350 201v717h223v-1062h-217v150q-75 -95 -177.5 -139t-221.5 -44q-127 0 -211 48v-500h-223z" />
<glyph unicode="&#x3c0;" horiz-adv-x="1541" d="M78 872v190h1294v-190h-209v-527q0 -104 38 -150.5t133 -46.5q80 0 130 25v-182q-73 -24 -172 -24q-357 0 -357 371v534h-422v-872h-228v872h-207z" />
<glyph unicode="&#xe01;" horiz-adv-x="1414" d="M99 916q118 148 268 224t357 76q265 0 406.5 -120.5t141.5 -337.5v-758h-225v741q0 152 -81 224.5t-242 72.5q-122 0 -215 -37t-169 -116l95 -148v-737h-224v737z" />
<glyph unicode="&#xe02;" horiz-adv-x="1286" d="M99 1004v180h233q97 0 153.5 -57t56.5 -150q0 -63 -26.5 -117.5t-80.5 -131.5q-53 -80 -76 -128.5t-23 -105.5v-83q0 -128 74.5 -197.5t220.5 -69.5t216.5 71.5t70.5 202.5v766h226v-728q0 -228 -135 -358.5t-378 -130.5q-160 0 -277 55.5t-180.5 156t-63.5 230.5v76 q0 76 31.5 137.5t90.5 143.5q42 55 62 91t20 70q0 42 -21 59.5t-69 17.5h-125z" />
<glyph unicode="&#xe03;" horiz-adv-x="1302" d="M99 1077v107h162v-78q0 -36 16.5 -52t54.5 -16q44 0 73 28v118h175v-202q0 -72 -33.5 -135.5t-92.5 -143.5q-53 -73 -77.5 -120t-24.5 -94v-80q0 -126 73 -195.5t219 -69.5q148 0 218.5 71.5t70.5 202.5v766h226v-728q0 -228 -135 -358.5t-380 -130.5q-159 0 -277 54.5 t-179.5 153.5t-61.5 230v86q0 72 37.5 133.5t108.5 149.5q47 55 69 88t22 62v7q-44 -25 -106 -24q-76 0 -117 43.5t-41 126.5z" />
<glyph unicode="&#xe04;" horiz-adv-x="1412" d="M144 0v732q0 230 150.5 357t412.5 127t412.5 -126t150.5 -358v-732h-226v739q0 150 -88.5 224.5t-248.5 74.5q-162 0 -250 -74.5t-88 -224.5v-226q30 53 91.5 85.5t145.5 32.5h177v-186h-194q-93 0 -156.5 -65.5t-63.5 -149.5v-230h-225z" />
<glyph unicode="&#xe05;" horiz-adv-x="1412" d="M144 0v812q0 190 72.5 297t245.5 107q89 0 151 -35t92 -100q34 66 97 100.5t149 34.5q173 0 246 -107t73 -297v-812h-226v842q0 102 -28 149t-104 47q-60 0 -91.5 -32.5t-48.5 -104.5h-133q-15 73 -45 105t-92 32q-75 0 -104 -47t-29 -146v-332q30 53 91.5 85.5 t145.5 32.5h177v-186h-194q-93 0 -156.5 -64.5t-63.5 -150.5v-230h-225z" />
<glyph unicode="&#xe06;" horiz-adv-x="1370" d="M99 1077v107h162v-78q0 -36 16.5 -52t54.5 -16q44 0 73 28v118h175v-207q0 -68 -32.5 -130t-91.5 -148q-55 -80 -79.5 -127.5t-24.5 -98.5v-125q131 -203 358 -204q291 0 292 267v773h226v-781q0 -192 -122 -314t-336 -122q-118 0 -229.5 47.5t-198.5 144.5v-159h-216 v469q0 75 37.5 141.5t110.5 161.5q45 53 67 89t22 63v7q-44 -25 -106 -24q-76 0 -117 43.5t-41 126.5z" />
<glyph unicode="&#xe07;" horiz-adv-x="1368" d="M99 1035h226l281 -858q208 0 321 115t113 325q0 208 -77.5 314.5t-247.5 106.5q-80 0 -156 -21v175q89 25 193 24q251 0 384.5 -159.5t133.5 -439.5q0 -193 -83 -332t-224.5 -212t-314.5 -73h-213z" />
<glyph unicode="&#xe08;" horiz-adv-x="1298" d="M99 960v177q82 38 200.5 58.5t242.5 20.5q314 0 485.5 -150t171.5 -451q0 -175 -88.5 -315.5t-240 -220t-332.5 -79.5h-219l-160 650h223l116 -473q215 0 344 116t129 322q0 223 -106.5 323t-349.5 100q-110 0 -224 -21t-192 -57z" />
<glyph unicode="&#xe09;" horiz-adv-x="1344" d="M99 960v177q82 36 214 57.5t257 21.5q327 0 479 -142.5t152 -425.5v-648h-217v159q-74 -97 -183 -144.5t-235 -47.5q-212 0 -323.5 113.5t-111.5 313.5v283h225v-270q0 -133 67.5 -198t207.5 -65q225 0 344 204v291q0 206 -95 302.5t-329 96.5q-120 0 -246 -21t-206 -57z " />
<glyph unicode="&#xe0a;" horiz-adv-x="1291" d="M99 1004v180h233q97 0 153.5 -57t56.5 -150q0 -63 -26.5 -117.5t-80.5 -131.5q-53 -80 -76 -128.5t-23 -105.5v-83q0 -126 80 -196.5t221 -70.5q150 0 234.5 82t84.5 241q0 158 -66.5 238t-195.5 80v122l237 309h243l-250 -329q135 -51 196.5 -156t61.5 -264 q0 -153 -67.5 -265.5t-192 -173.5t-285.5 -61q-157 0 -276.5 55.5t-185 156t-65.5 230.5v76q0 76 33.5 140.5t90.5 142.5q42 57 61 92t19 67q0 42 -21 59.5t-69 17.5h-125z" />
<glyph unicode="&#xe0b;" horiz-adv-x="1306" d="M99 1077v107h162v-78q0 -36 16.5 -52t54.5 -16q44 0 73 28v118h175v-202q0 -72 -33.5 -135.5t-92.5 -143.5q-53 -73 -77.5 -120t-24.5 -94v-80q0 -124 79.5 -194.5t220.5 -70.5q148 0 233.5 82t85.5 241q0 158 -66.5 238t-194.5 80v122l234 309h246l-253 -329 q135 -51 197.5 -156t62.5 -264q0 -151 -69 -264.5t-191.5 -174.5t-284.5 -61q-156 0 -275.5 55.5t-185 154.5t-65.5 228v86q0 72 37.5 133.5t108.5 149.5q47 55 69 88t22 62v7q-44 -25 -106 -24q-76 0 -117 43.5t-41 126.5z" />
<glyph unicode="&#xe0c;" horiz-adv-x="2202" d="M99 916q118 148 261.5 224t340.5 76q257 0 391 -120.5t134 -337.5v-410q130 -203 338 -204q139 0 204.5 66t65.5 201v773h226v-781q0 -195 -115 -315.5t-322 -120.5q-112 0 -217.5 45t-187.5 142v-154h-216v741q0 152 -74 224.5t-227 72.5q-115 0 -200 -35.5t-161 -117.5 l95 -148v-439q0 -61 26 -85.5t85 -24.5h125v-188h-236q-110 0 -167 62t-57 170v505z" />
<glyph unicode="&#xe0d;" horiz-adv-x="2222" d="M99 916q118 148 261.5 224t340.5 76q257 0 391 -120.5t134 -337.5v-110q0 -152 70.5 -233t231.5 -81q162 0 242.5 85t80.5 233v532h226v-545q0 -166 -82 -280q55 -49 81 -104.5t26 -125.5q0 -167 -152 -256.5t-395 -89.5q-118 0 -235 25.5t-185 67.5v188 q186 -104 420 -104q157 0 247.5 42t90.5 127q0 65 -42 110q-59 -38 -144.5 -60t-178.5 -22q-255 0 -390.5 130.5t-135.5 351.5v102q0 152 -74 224.5t-227 72.5q-115 0 -200 -35.5t-161 -117.5l95 -148v-439q0 -61 26 -85.5t85 -24.5h125v-188h-236q-110 0 -167 62t-57 170 v505z" />
<glyph unicode="&#xe0e;" horiz-adv-x="1456" d="M99 0v188h93q60 0 82 23t22 87v439l-155 179q113 146 265.5 223t361.5 77q263 0 404.5 -120.5t141.5 -337.5v-1247h-202q-86 66 -168.5 94t-185.5 28q-99 0 -194 -35.5t-161 -99.5v190q55 55 154.5 88.5t200.5 33.5q201 0 331 -86v1017q0 152 -82.5 224.5t-240.5 72.5 q-122 0 -212 -34.5t-165 -112.5l133 -152v-507q0 -108 -58.5 -170t-169.5 -62h-195z" />
<glyph unicode="&#xe0f;" horiz-adv-x="1456" d="M99 0v188h93q60 0 82 23t22 87v439l-155 179q113 146 265.5 223t361.5 77q263 0 404.5 -120.5t141.5 -337.5v-1247h-215l-285 166q-84 -173 -316 -173q-67 0 -128.5 18t-103.5 47v174q97 -62 219 -62q192 0 227 171h133l244 -144v1033q0 152 -82.5 224.5t-240.5 72.5 q-122 0 -212 -34.5t-165 -112.5l133 -152v-507q0 -108 -58.5 -170t-169.5 -62h-195z" />
<glyph unicode="&#xe10;" horiz-adv-x="1338" d="M99 960v177q82 38 200.5 58.5t242.5 20.5q213 0 359 -68l110 124h249l-205 -234q144 -150 144 -423q0 -175 -88.5 -315.5t-240 -220t-332.5 -79.5h-219l-160 650h223l116 -473q215 0 344 116t129 322q0 223 -106.5 323t-349.5 100q-110 0 -224 -21t-192 -57zM114 -268 q93 -59 220 -59q97 0 151.5 41t76.5 132h119l256 -156v206h226v-385h-209l-289 173q-44 -98 -119 -139t-192 -41q-67 0 -132 18t-108 47v163z" />
<glyph unicode="&#xe11;" horiz-adv-x="1384" d="M99 1077v107h162v-78q0 -36 16.5 -52t54.5 -16q44 0 73 28v118h175v-91q53 59 139 91t176 32q345 0 346 -393v-823h-226v847q0 95 -41 143t-132 48q-181 0 -283 -143q-13 -48 -32.5 -85.5t-59.5 -99.5q-45 -68 -66 -114.5t-21 -106.5v-489h-226v491q0 72 32.5 133.5 t94.5 149.5q40 53 59 87t19 63v7q-40 -25 -104 -24q-155 0 -156 170z" />
<glyph unicode="&#xe12;" horiz-adv-x="2295" d="M99 559q0 201 52 349.5t147.5 228t216.5 79.5q162 0 235 -135q37 68 108 101.5t164 33.5q152 0 225.5 -96t73.5 -261v-511q131 -203 336 -204q139 0 205.5 66t66.5 201v773h223v-781q0 -195 -113.5 -315.5t-322.5 -120.5q-112 0 -216.5 45t-185.5 142v-154h-217v842 q0 102 -28.5 149t-104.5 47q-61 0 -96.5 -34.5t-51.5 -102.5h-132q-25 137 -129 137q-118 0 -173 -137t-55 -342q0 -415 378 -415q82 0 156 22v-175q-78 -24 -194 -24q-260 0 -414 151.5t-154 440.5z" />
<glyph unicode="&#xe13;" horiz-adv-x="2202" d="M99 916q118 148 261.5 224t340.5 76q257 0 391 -120.5t134 -337.5v-347q0 -267 271 -267q106 0 193 50.5t144 153.5v836h226v-1184h-218v154q-147 -187 -405 -187q-205 0 -320 120.5t-115 315.5v338q0 152 -74 224.5t-227 72.5q-115 0 -200 -35.5t-161 -117.5l95 -148 v-376q0 -102 20 -137.5t91 -35.5h125v-188h-236q-110 0 -167 62t-57 170v505z" />
<glyph unicode="&#xe14;" horiz-adv-x="1492" d="M99 559q0 203 79 351.5t225 227t347 78.5q312 0 455.5 -147t143.5 -375v-694h-226v697q0 340 -373 341q-197 0 -310 -124.5t-113 -354.5q0 -212 95 -313.5t283 -101.5q84 0 156 22v-175q-78 -24 -194 -24q-264 0 -416 150.5t-152 441.5z" />
<glyph unicode="&#xe15;" horiz-adv-x="1492" d="M99 559q0 201 56 349.5t152 228t219 79.5q168 0 238 -135q37 68 112 101.5t168 33.5q153 0 229 -97t76 -260v-859h-226v842q0 100 -30.5 148t-106.5 48q-126 0 -157 -137h-132q-11 68 -43.5 102.5t-91.5 34.5q-104 0 -169.5 -124.5t-65.5 -354.5q0 -212 93 -313.5 t285 -101.5q84 0 156 22v-175q-78 -24 -194 -24q-264 0 -416 150.5t-152 441.5z" />
<glyph unicode="&#xe16;" horiz-adv-x="1414" d="M99 916q118 148 268 224t357 76q265 0 406.5 -120.5t141.5 -337.5v-758h-225v741q0 152 -81 224.5t-242 72.5q-125 0 -215.5 -35.5t-168.5 -117.5l95 -148v-439q0 -61 26 -85.5t85 -24.5h125v-188h-236q-110 0 -167 62t-57 170v505z" />
<glyph unicode="&#xe17;" horiz-adv-x="1388" d="M144 0v1184h217v-160q86 97 202 144.5t235 47.5q217 0 332 -119.5t115 -307.5v-789h-225v779q0 124 -69 191.5t-212 67.5q-241 0 -370 -202v-836h-225z" />
<glyph unicode="&#xe18;" horiz-adv-x="1233" d="M99 903q0 162 140.5 237.5t364.5 75.5q128 0 256 -27.5t204 -69.5v-186q-82 49 -199.5 77t-235.5 28q-151 0 -227.5 -27t-76.5 -108q0 -49 35.5 -80t95 -52t179.5 -52l80 -22q154 -43 243 -86t133 -112.5t44 -179.5q0 -159 -133 -255.5t-376 -96.5q-235 0 -378.5 93.5 t-143.5 260.5v148h223v-135q0 -100 81 -147.5t218 -47.5q138 0 212 44.5t74 135.5q0 73 -33.5 112.5t-103.5 65t-226 62.5q-150 36 -244 75t-150 102.5t-56 166.5z" />
<glyph unicode="&#xe19;" horiz-adv-x="1388" d="M144 403v781h225v-773q0 -132 74 -199.5t218 -67.5q228 0 359 204v836h225v-1184h-219v159q-166 -192 -424 -192q-218 0 -338 122t-120 314z" />
<glyph unicode="&#xe1a;" horiz-adv-x="1421" d="M144 458v726h225v-722q0 -148 87.5 -233t255.5 -85q166 0 253.5 85t87.5 233v722h226v-726q0 -144 -70 -255.5t-198.5 -173.5t-298.5 -62q-172 0 -300.5 62t-198 173.5t-69.5 255.5z" />
<glyph unicode="&#xe1b;" horiz-adv-x="1421" d="M144 458v726h225v-722q0 -148 87.5 -233t255.5 -85q166 0 253.5 85t87.5 233v1117h226v-1121q0 -144 -70 -255.5t-198.5 -173.5t-298.5 -62q-172 0 -300.5 62t-198 173.5t-69.5 255.5z" />
<glyph unicode="&#xe1c;" horiz-adv-x="1423" d="M144 0v942q0 117 62 179.5t176 62.5h175v-190h-80q-59 0 -84.5 -26t-25.5 -88v-551l296 483h98l296 -483v855h224v-1184h-204l-365 595l-364 -595h-204z" />
<glyph unicode="&#xe1d;" horiz-adv-x="1423" d="M144 0v942q0 117 62 179.5t176 62.5h175v-190h-80q-59 0 -84.5 -26t-25.5 -88v-551l296 483h98l296 -483v1250h224v-1579h-204l-365 595l-364 -595h-204z" />
<glyph unicode="&#xe1e;" horiz-adv-x="1720" d="M78 1184h225l214 -868l257 868h173l254 -868l217 868h226l-330 -1184h-191l-262 889l-266 -889h-190z" />
<glyph unicode="&#xe1f;" horiz-adv-x="1674" d="M78 1184h225l214 -868l257 868h173l254 -868l285 1263h221l-393 -1579h-191l-262 889l-266 -889h-190z" />
<glyph unicode="&#xe20;" horiz-adv-x="1456" d="M99 0v188h93q60 0 82 23t22 87v439l-155 179q113 146 265.5 223t361.5 77q263 0 404.5 -120.5t141.5 -337.5v-758h-225v741q0 152 -82.5 224.5t-240.5 72.5q-122 0 -212 -34.5t-165 -112.5l133 -152v-507q0 -108 -58.5 -170t-169.5 -62h-195z" />
<glyph unicode="&#xe21;" horiz-adv-x="1388" d="M144 0v1184h225v-836q131 -203 359 -204q144 0 218 67.5t74 199.5v773h225v-781q0 -192 -121.5 -314t-336.5 -122q-122 0 -231 48.5t-195 143.5v-159h-217z" />
<glyph unicode="&#xe22;" horiz-adv-x="1395" d="M99 348q0 97 54.5 171t144.5 102q-86 38 -138 108.5t-52 163.5q0 146 97.5 234.5t285.5 88.5q53 0 108 -7.5t89 -16.5v-177q-29 11 -74.5 17t-82.5 6q-95 0 -145 -41t-50 -117q0 -80 53.5 -121.5t156.5 -41.5h142v-186h-139q-106 0 -164 -45t-58 -138q0 -97 90 -150.5 t244 -53.5q365 0 365 310v730h226v-726q0 -124 -57.5 -236t-189 -183.5t-344.5 -71.5q-256 0 -409 97.5t-153 283.5z" />
<glyph unicode="&#xe23;" horiz-adv-x="1129" d="M99 878q0 164 126.5 251t344.5 87q113 0 218 -25.5t174 -67.5v-186q-75 47 -172.5 74t-198.5 27q-266 0 -266 -160q0 -59 37 -95t97 -59t204 -65q142 -42 221.5 -91t112.5 -115t33 -164q0 -145 -119 -233.5t-360 -88.5q-122 0 -248 27.5t-197 81.5v181q95 -57 209 -87.5 t219 -30.5q145 0 209.5 34.5t64.5 118.5q0 57 -31.5 92.5t-94.5 62t-197 66.5q-194 59 -290 140t-96 225z" />
<glyph unicode="&#xe24;" horiz-adv-x="1414" d="M99 916q118 148 268 224t357 76q265 0 406.5 -120.5t141.5 -337.5v-1191h-225v1174q0 152 -81 224.5t-242 72.5q-125 0 -215.5 -35.5t-168.5 -117.5l95 -148v-439q0 -61 26 -85.5t85 -24.5h125v-188h-236q-110 0 -167 62t-57 170v505z" />
<glyph unicode="&#xe25;" horiz-adv-x="1342" d="M99 345q0 179 130 285.5t351 106.5q219 0 393 -83v91q0 152 -82.5 222.5t-275.5 70.5q-106 0 -207.5 -20t-177.5 -56v177q68 34 187 55.5t231 21.5q276 0 413.5 -126t137.5 -340v-750h-226v475q-162 82 -369 82q-144 0 -211.5 -53t-67.5 -159q0 -201 259 -201 q80 0 140 22v-175q-80 -24 -196 -24q-196 0 -312.5 98.5t-116.5 279.5z" />
<glyph unicode="&#xe26;" horiz-adv-x="1456" d="M99 0v188h93q60 0 82 23t22 87v439l-155 179q113 146 265.5 223t361.5 77q263 0 404.5 -120.5t141.5 -337.5v-1191h-225v1174q0 152 -82.5 224.5t-240.5 72.5q-122 0 -212 -34.5t-165 -112.5l133 -152v-507q0 -108 -58.5 -170t-169.5 -62h-195z" />
<glyph unicode="&#xe27;" horiz-adv-x="1273" d="M99 66v181q148 -103 388 -103q217 0 337 112.5t120 334.5q0 221 -120.5 334t-336.5 113q-232 0 -383 -105v184q154 99 427 99q298 0 470.5 -164.5t172.5 -460.5t-172.5 -460t-470.5 -164q-279 0 -432 99z" />
<glyph unicode="&#xe28;" horiz-adv-x="1421" d="M144 0v732q0 230 150.5 357t412.5 127q171 0 293 -53l95 109h250l-190 -217q114 -126 115 -323v-732h-226v739q0 150 -88.5 224.5t-248.5 74.5q-162 0 -250 -74.5t-88 -224.5v-226q30 53 91.5 85.5t145.5 32.5h177v-186h-194q-93 0 -156.5 -65.5t-63.5 -149.5v-230h-225z " />
<glyph unicode="&#xe29;" horiz-adv-x="1450" d="M144 458v726h225v-722q0 -148 87.5 -233t255.5 -85q166 0 253.5 85t87.5 233v135h-281v186h281v401h226v-401h128v-186h-128v-139q0 -144 -70 -255.5t-198.5 -173.5t-298.5 -62q-172 0 -300.5 62t-198 173.5t-69.5 255.5z" />
<glyph unicode="&#xe2a;" horiz-adv-x="1374" d="M99 345q0 179 130 285.5t351 106.5q219 0 393 -83v91q0 152 -82.5 222.5t-275.5 70.5q-106 0 -207.5 -20t-177.5 -56v177q68 34 187 55.5t231 21.5q199 0 332 -72l113 128h249l-223 -250q80 -113 80 -272v-750h-226v475q-162 82 -369 82q-144 0 -211.5 -53t-67.5 -159 q0 -201 259 -201q80 0 140 22v-175q-80 -24 -196 -24q-196 0 -312.5 98.5t-116.5 279.5z" />
<glyph unicode="&#xe2b;" horiz-adv-x="1351" d="M144 0v1184h225v-523l573 523h263l-323 -295q182 -47 253.5 -148.5t71.5 -271.5v-469h-225v456q0 133 -54 201.5t-187 96.5l-372 -338v-416h-225z" />
<glyph unicode="&#xe2c;" horiz-adv-x="1448" d="M144 0v1184h223v-844l306 523h95l304 -523v547q0 126 -51.5 180t-191.5 54v126l248 332h250l-257 -345q129 -35 178.5 -120.5t49.5 -224.5v-889h-205l-372 637l-373 -637h-204z" />
<glyph unicode="&#xe2d;" horiz-adv-x="1346" d="M99 89v588h492v-181h-266v-295q95 -57 257 -57q213 0 324 117t111 341q0 223 -114 329.5t-372 106.5q-117 0 -230 -23.5t-191 -74.5v179q87 48 204 72.5t252 24.5q331 0 506 -161.5t175 -452.5q0 -294 -173 -464.5t-492 -170.5q-137 0 -265.5 32t-217.5 90z" />
<glyph unicode="&#xe2e;" horiz-adv-x="1366" d="M99 89v588h492v-181h-266v-295q95 -57 257 -57q213 0 324 117t111 341q0 225 -116 330.5t-370 105.5q-117 0 -230 -23.5t-191 -74.5v179q87 48 204 72.5t252 24.5q226 0 381 -85l125 141h251l-226 -257q150 -168 150 -413q0 -294 -173 -464.5t-492 -170.5 q-137 0 -265.5 32t-217.5 90z" />
<glyph unicode="&#xe2f;" horiz-adv-x="1167" d="M55 851q0 173 104.5 269t269.5 96q124 0 197 -28v-171q-63 20 -137 21q-95 0 -150.5 -45.5t-55.5 -141.5q0 -184 230 -184q166 0 285 87v430h226v-1184h-226v570q-128 -80 -336 -79q-179 0 -293 94t-114 266z" />
<glyph unicode="&#xe30;" horiz-adv-x="731" d="M99 294v126h204v-84q0 -36 15.5 -50t55.5 -14h259v-158h-357q-97 0 -137 44.5t-40 135.5zM99 897v127h204v-84q0 -36 15.5 -50t55.5 -14h259v-157h-357q-97 0 -137 44.5t-40 133.5z" />
<glyph unicode="&#xe31;" d="M-741 1549v114h203v-88q0 -38 14.5 -51t54.5 -13h522v-153h-612q-95 0 -138.5 48t-43.5 143z" />
<glyph unicode="&#xe32;" horiz-adv-x="928" d="M33 975v177q53 27 138.5 45.5t168.5 18.5q224 0 334.5 -120.5t110.5 -345.5v-750h-226v766q0 141 -57 206.5t-204 65.5q-141 0 -265 -63z" />
<glyph unicode="&#xe33;" horiz-adv-x="937" d="M-528 1535q0 101 72 173.5t171 72.5t171 -72t72 -174q0 -100 -72 -170.5t-171 -70.5t-171 70.5t-72 170.5zM-384 1535q0 -40 29.5 -72t69.5 -32t69.5 32t29.5 72t-29.5 71t-69.5 31t-69.5 -31t-29.5 -71zM40 975v177q53 27 138.5 45.5t169.5 18.5q223 0 334.5 -120.5 t111.5 -345.5v-750h-226v766q0 141 -57 206.5t-203 65.5q-144 0 -268 -63z" />
<glyph unicode="&#xe34;" d="M-1102 1358v153h956v-153h-956z" />
<glyph unicode="&#xe35;" d="M-1102 1358v153h750v236h206v-389h-956z" />
<glyph unicode="&#xe36;" d="M-1099 1358v149h580q-18 40 -15 95q9 80 69 128.5t146 48.5q104 0 160.5 -60t56.5 -147q0 -92 -65 -153t-171 -61h-761zM-418 1572q0 -44 28.5 -72.5t70.5 -28.5q43 0 72.5 29.5t29.5 71.5q0 43 -29.5 72.5t-72.5 29.5q-42 0 -70.5 -29.5t-28.5 -72.5z" />
<glyph unicode="&#xe37;" d="M-1099 1358v149h445v240h165v-240h179v240h164v-389h-953z" />
<glyph unicode="&#xe38;" d="M-494 -126h182q99 0 133.5 -39.5t34.5 -142.5v-274h-206v226q0 40 -14 54.5t-56 14.5h-74v161z" />
<glyph unicode="&#xe39;" d="M-829 -126h194q59 0 81.5 -26.5t22.5 -86.5v-126q0 -97 107 -97q103 0 103 97v239h177v-254q0 -97 -71.5 -158t-202.5 -61q-137 0 -213 57t-76 155v60q0 31 -9.5 41t-37.5 10h-75v150z" />
<glyph unicode="&#xe3a;" d="M-380 -241q0 51 37 89t88 38t88.5 -38t37.5 -89t-37 -87.5t-89 -36.5q-51 0 -88 36.5t-37 87.5z" />
<glyph unicode="&#xe3f;" horiz-adv-x="1435" d="M144 0v1547h434v226h196v-226h80q205 0 318 -106.5t113 -309.5q0 -115 -54 -203t-142 -130q247 -73 247 -360q0 -135 -59 -233.5t-160.5 -151.5t-225.5 -53h-117v-228h-196v228h-434zM369 184h209v513h-209v-513zM369 882h209v481h-209v-481zM774 184h66q131 0 199.5 57 t68.5 197t-72 199.5t-215 59.5h-47v-513zM774 882h51q108 0 170 60t62 177q0 135 -61 189.5t-186 54.5h-36v-481z" />
<glyph unicode="&#xe40;" horiz-adv-x="656" d="M144 232v952h225v-890q0 -60 24.5 -83t83.5 -23h80v-188h-192q-108 0 -164.5 61t-56.5 171z" />
<glyph unicode="&#xe41;" horiz-adv-x="1226" d="M144 232v952h225v-890q0 -60 24.5 -83t83.5 -23h80v-188h-192q-108 0 -164.5 61t-56.5 171zM712 232v952h225v-890q0 -60 25.5 -83t86.5 -23h79v-188h-195q-106 0 -163.5 62t-57.5 170z" />
<glyph unicode="&#xe42;" horiz-adv-x="729" d="M0 1480v183h697v-190h-396q91 -59 133.5 -159t42.5 -239v-781q0 -60 24.5 -83t84.5 -23h79v-188h-192q-108 0 -164.5 61t-56.5 171v849q0 162 -59.5 253t-192.5 146z" />
<glyph unicode="&#xe43;" horiz-adv-x="667" d="M-11 1431v177q64 38 145 58t167 20q169 0 251.5 -82t82.5 -213q0 -71 -30 -125t-90 -124q-68 -83 -102.5 -147t-34.5 -157v-544q0 -60 24.5 -83t84.5 -23h79v-188h-192q-108 0 -165 61t-57 171v600q0 112 40 188.5t116 165.5q51 57 74 97t23 84q0 74 -39 107t-134 33 q-135 0 -243 -76z" />
<glyph unicode="&#xe44;" horiz-adv-x="729" d="M0 1473v190h697v-181q-133 -57 -192.5 -148t-59.5 -253v-783q0 -59 24.5 -82.5t83.5 -23.5h80v-190h-192q-109 0 -165.5 61t-56.5 171v838q0 148 42 244t142 157h-403z" />
<glyph unicode="&#xe45;" horiz-adv-x="928" d="M33 975v177q53 27 138.5 45.5t168.5 18.5q224 0 334.5 -120.5t110.5 -345.5v-1183h-226v1199q0 141 -57 206.5t-204 65.5q-141 0 -265 -63z" />
<glyph unicode="&#xe46;" horiz-adv-x="1321" d="M55 802q0 186 84.5 300t249.5 114q162 0 228 -135q66 135 242 135q175 0 247.5 -99.5t72.5 -278.5v-838h-225v859q0 95 -29.5 137t-101.5 42q-64 0 -97.5 -34.5t-44.5 -102.5h-135q-10 73 -33.5 105t-83.5 32q-68 0 -107 -59t-39 -177q0 -203 211 -203q88 0 154 22v-174 q-89 -25 -192 -25q-175 0 -288 93t-113 287z" />
<glyph unicode="&#xe47;" d="M-1032 1588q0 135 77 203.5t212 68.5h524v-128h-509q-76 0 -112 -31t-36 -97q0 -60 31 -91t87 -31q61 0 93 33.5t32 88.5h129q0 -113 124 -114h123v-132h-121q-73 0 -126 30t-66 74q-18 -44 -75.5 -78.5t-133.5 -34.5q-116 0 -184.5 66.5t-68.5 172.5z" />
<glyph unicode="&#xe48;" d="M-363 1358v369h224v-369h-224z" />
<glyph unicode="&#xe49;" d="M-766 1547v158h167q71 0 103 -34t32 -86v-76h453v-151h-608v139q0 27 -10 38.5t-36 11.5h-101z" />
<glyph unicode="&#xe4a;" d="M-1064 1553q0 118 57.5 184t150.5 66q63 0 101 -23.5t58 -67.5q43 88 157 88q175 0 175 -192v-122h33q36 0 50 15.5t14 55.5v237h131v-232q0 -203 -208 -204h-142v189q0 55 -15 81.5t-57 26.5q-49 0 -66 -25.5t-17 -76.5v-38h-108v36q0 104 -77 104q-47 0 -68 -29 t-21 -93q0 -93 57 -175h-150q-55 85 -55 195z" />
<glyph unicode="&#xe4b;" d="M-597 1469v173h141v112h219v-112h144v-173h-144v-111h-219v111h-141z" />
<glyph unicode="&#xe4c;" d="M-673 1358v126q0 173 188 173h489v-148h-400q-40 0 -55.5 -16t-15.5 -56v-79h-206z" />
<glyph unicode="&#xe4d;" d="M-528 1579q0 101 72 173.5t171 72.5t171 -72.5t72 -173.5q0 -99 -72 -170t-171 -71t-171 71t-72 170zM-384 1579q0 -40 29.5 -72t69.5 -32t69.5 32t29.5 72t-29.5 70.5t-69.5 30.5t-69.5 -30.5t-29.5 -70.5z" />
<glyph unicode="&#xe4e;" d="M-659 1539q0 84 50 132.5t134 55.5q-36 36 -36 91q0 66 52 106.5t132 40.5t130 -30v-101q-44 31 -106 30q-78 0 -77 -57q0 -57 86 -77v-98q-51 13 -93 14q-66 0 -97 -23.5t-31 -75.5q0 -43 30.5 -65t85.5 -22q78 0 129 37v-104q-59 -35 -163 -35q-107 0 -166.5 49 t-59.5 132z" />
<glyph unicode="&#xe4f;" horiz-adv-x="1319" d="M99 531q0 162 74 290t202.5 201t283.5 73q156 0 284.5 -73t202.5 -201.5t74 -289.5q0 -162 -74 -291.5t-202 -201t-285 -71.5q-155 0 -283.5 72.5t-202.5 201t-74 290.5zM264 531q0 -120 51.5 -211.5t141 -142.5t202.5 -51t204 51t142.5 142.5t51.5 211.5 q0 118 -51.5 208t-142.5 141t-204 51t-202.5 -51t-141 -141.5t-51.5 -207.5zM338 531q0 142 93 232.5t230 90.5t230 -90.5t93 -232.5q0 -143 -93 -234.5t-230 -91.5t-230 91t-93 235zM485 531q0 -82 49.5 -131.5t126.5 -49.5q78 0 126.5 49.5t48.5 131.5q0 80 -48.5 129.5 t-126.5 49.5t-127 -50t-49 -129z" />
<glyph unicode="&#xe50;" horiz-adv-x="1416" d="M99 531q0 169 76.5 296t214.5 197.5t317 70.5q180 0 318 -70.5t216 -198t78 -295.5t-78 -295.5t-216 -198t-318 -70.5q-179 0 -317 70.5t-214.5 198t-76.5 295.5zM325 531q0 -177 108.5 -282t273.5 -105q169 0 276.5 105t107.5 282q0 175 -107.5 280t-276.5 105 q-108 0 -195.5 -47.5t-137 -135t-49.5 -202.5z" />
<glyph unicode="&#xe51;" horiz-adv-x="1393" d="M99 595q0 232 155 366t423 134q301 0 459 -156t158 -420q0 -270 -175 -450.5t-524 -260.5v192q250 57 360.5 177.5t110.5 337.5q0 197 -93 299t-296 102q-166 0 -259 -86.5t-93 -234.5q0 -131 73 -199.5t208 -68.5q112 0 188 45v-169q-42 -25 -102.5 -39t-132.5 -14 q-208 0 -334 120.5t-126 324.5z" />
<glyph unicode="&#xe52;" horiz-adv-x="1594" d="M144 540v676h201v-685q0 -388 457 -390q199 0 323.5 86.5t124.5 266.5v293q0 64 -24.5 94.5t-79.5 30.5q-99 0 -137 -140h-140q-13 74 -37 109t-78 35q-57 0 -90 -52t-33 -163q0 -108 54 -163.5t147 -55.5q95 0 148 20v-173q-38 -10 -73 -14.5t-93 -4.5 q-172 0 -274 100.5t-102 290.5q0 166 76.5 280t215.5 114q157 0 210 -141q29 63 89 102t141 39q139 0 209.5 -75.5t70.5 -209.5v-321q0 -164 -84.5 -281t-232 -179t-331.5 -62q-306 0 -482 139t-176 434z" />
<glyph unicode="&#xe53;" horiz-adv-x="1469" d="M99 511q0 283 112 433.5t304 150.5q157 0 228 -118q40 55 108.5 86.5t146.5 31.5q146 0 237.5 -84t91.5 -222v-789h-210v770q0 78 -36.5 112t-109.5 34q-62 0 -99.5 -34.5t-37.5 -98.5v-394h-188v394q0 133 -122 133q-100 0 -149.5 -104.5t-49.5 -304.5q0 -184 63 -273.5 t171 -89.5q47 0 95.5 6.5t77.5 17.5v-179q-84 -21 -194 -22q-127 0 -226 63t-156 185.5t-57 295.5z" />
<glyph unicode="&#xe54;" horiz-adv-x="1391" d="M99 517q0 169 73 303t218.5 211t354.5 77q144 0 210.5 6.5t106.5 37t57 95.5h217q-44 -166 -160.5 -241t-343.5 -75q-262 0 -384.5 -98.5t-122.5 -317.5q0 -179 84.5 -256.5t247.5 -77.5h120q-47 34 -75.5 92.5t-28.5 125.5q0 135 96 216.5t253 81.5q150 0 232 -43v-177 q-31 18 -78.5 29t-96.5 11q-184 0 -184 -163q0 -173 217 -173h193v-181h-634q-266 0 -419 132t-153 385z" />
<glyph unicode="&#xe55;" horiz-adv-x="1391" d="M99 517q0 239 134 387.5t364 179.5q-33 51 -33 102q0 97 60 152t157 55t155 -51.5t58 -142.5q0 -49 -25 -84q73 4 111.5 34t54.5 98h201q-44 -166 -162.5 -240t-341.5 -74q-262 0 -384.5 -98t-122.5 -320q0 -179 84.5 -256.5t247.5 -77.5h120q-47 34 -75.5 92.5 t-28.5 125.5q0 135 96 216.5t253 81.5q150 0 232 -43v-177q-31 18 -78.5 29t-96.5 11q-184 0 -184 -163q0 -173 217 -173h193v-181h-634q-266 0 -419 132t-153 385zM690 1186q0 -40 26.5 -67.5t64.5 -27.5q40 0 66.5 27.5t26.5 67.5t-25.5 66.5t-67.5 26.5 q-38 0 -64.5 -26.5t-26.5 -66.5z" />
<glyph unicode="&#xe56;" horiz-adv-x="1441" d="M55 1218h188l84 -355q62 110 180.5 171t275.5 61q281 0 420 -157t139 -414q0 -162 -75 -288t-215 -197.5t-328 -71.5q-135 0 -260.5 34.5t-199.5 100.5v190q95 -76 212 -112t241 -36q184 0 291 98t107 282q0 186 -87.5 289t-273.5 103q-139 0 -245 -71t-153 -212h-159z " />
<glyph unicode="&#xe57;" horiz-adv-x="1844" d="M99 511q0 283 110 433.5t302 150.5q156 0 228 -118q40 55 107.5 86.5t147.5 31.5q143 0 231.5 -83t88.5 -223v-610q95 0 142.5 40t47.5 142v855h197v-817q0 -222 -118.5 -310.5t-324.5 -88.5h-150v770q0 78 -35 112t-109 34q-61 0 -99 -33.5t-38 -97.5v-396h-183v396 q0 131 -122 131q-197 0 -197 -409q0 -184 63 -273.5t171 -89.5q47 0 95.5 6.5t77.5 17.5v-179q-84 -21 -194 -22q-127 0 -226 63t-156 185.5t-57 295.5z" />
<glyph unicode="&#xe58;" horiz-adv-x="1459" d="M99 502q0 175 72 312t217.5 215.5t352.5 78.5q141 0 210 7.5t110 37t58 94.5h217q-44 -166 -162.5 -241t-346.5 -75q-255 0 -379.5 -103.5t-124.5 -325.5q0 -192 43 -276.5t138 -84.5q68 0 104 35t36 100v123h210v-123q0 -63 38.5 -99t103.5 -36q78 0 119.5 57t41.5 167 q0 89 -41 138.5t-112 49.5q-90 0 -139 -31v179q74 31 182 31q135 0 224.5 -96t89.5 -271q0 -190 -95.5 -294t-252.5 -104q-76 0 -151 29t-115 82q-35 -53 -102 -82t-151 -29q-182 0 -288.5 132.5t-106.5 402.5z" />
<glyph unicode="&#xe59;" horiz-adv-x="1594" d="M99 507q0 282 114 435t311 153q82 0 141 -32.5t91 -80.5q36 50 94.5 81.5t133.5 31.5q192 0 255 -153l110 274h190l-247 -621h-177l42 106q4 36 4 51q0 75 -37.5 119.5t-110.5 44.5q-71 0 -107.5 -32.5t-36.5 -87.5q0 -36 13 -75l217 -721h-190l-228 761 q-24 82 -56 118.5t-106 36.5q-99 0 -147.5 -105.5t-48.5 -303.5q0 -186 64 -274.5t181 -88.5q78 0 137 22v-179q-80 -19 -177 -20q-119 0 -216 63t-155 184.5t-58 292.5z" />
<glyph unicode="&#xe5a;" horiz-adv-x="1855" d="M55 851q0 173 104.5 269t269.5 96q124 0 197 -28v-171q-63 20 -137 21q-95 0 -150.5 -45.5t-55.5 -141.5q0 -184 230 -184q166 0 285 87v430h226v-460q68 -55 181 -57q162 0 281 87v430h226v-1184h-226v570q-128 -80 -334 -79q-77 0 -128 28v-519h-226v570 q-128 -80 -336 -79q-179 0 -293 94t-114 266z" />
<glyph unicode="&#xe5b;" horiz-adv-x="2509" d="M99 526q0 162 65.5 291.5t184 203.5t275.5 74q232 0 352.5 -116t120.5 -318q0 -203 -108.5 -301.5t-271.5 -98.5q-118 0 -202 49v184q36 -27 84.5 -43t101.5 -16q101 0 157 50.5t56 175.5q-5 259 -290 259q-159 0 -250 -104t-91 -290q0 -385 416 -385q263 0 383.5 130 t120.5 400v216h215l99 -353h5l55 322h179l86 -320h5l51 276h139l95 -268h4l42 115h233v-150h-164l-55 -164h-115l-87 230h-4l-75 -286h-128l-109 319h-4l-82 -365h-132l-98 365h-5q9 -190 -69.5 -336t-229.5 -225.5t-355 -79.5q-281 0 -440.5 144t-159.5 415z" />
<glyph unicode="&#x1e0c;" horiz-adv-x="1554" d="M144 0v1547h498q249 0 432.5 -93t282.5 -266t99 -407q0 -385 -222.5 -583t-623.5 -198h-466zM369 188h239q310 0 465 153t155 440q0 266 -152 420t-432 154h-275v-1167zM480 -239q0 53 38.5 91t91.5 38q51 0 89 -38t38 -91t-38 -90.5t-89 -37.5q-53 0 -91.5 37.5 t-38.5 90.5z" />
<glyph unicode="&#x1e0d;" horiz-adv-x="1459" d="M99 528q0 166 72 294.5t199.5 200.5t286.5 72q287 0 436 -175v714h224v-1634h-218v154q-88 -97 -193.5 -142t-248.5 -45q-159 0 -286.5 69.5t-199.5 197t-72 294.5zM325 528q0 -112 49.5 -200.5t137 -136t195.5 -47.5q138 0 241 71.5t145 193.5v239q-38 122 -143 195 t-243 73q-108 0 -195.5 -48.5t-137 -137t-49.5 -202.5zM586 -239q0 53 38.5 91t92.5 38q51 0 88 -38t37 -91t-37 -90.5t-88 -37.5q-54 0 -92.5 37.5t-38.5 90.5z" />
<glyph unicode="&#x1e0e;" horiz-adv-x="1554" d="M144 0v1547h498q249 0 432.5 -93t282.5 -266t99 -407q0 -385 -222.5 -583t-623.5 -198h-466zM279 -157h694v-155h-694v155zM369 188h239q310 0 465 153t155 440q0 266 -152 420t-432 154h-275v-1167z" />
<glyph unicode="&#x1e0f;" horiz-adv-x="1459" d="M99 528q0 166 72 294.5t199.5 200.5t286.5 72q287 0 436 -175v714h224v-1634h-218v154q-88 -97 -193.5 -142t-248.5 -45q-159 0 -286.5 69.5t-199.5 197t-72 294.5zM325 528q0 -112 49.5 -200.5t137 -136t195.5 -47.5q138 0 241 71.5t145 193.5v239q-38 122 -143 195 t-243 73q-108 0 -195.5 -48.5t-137 -137t-49.5 -202.5zM403 -157h694v-155h-694v155z" />
<glyph unicode="&#x1e20;" horiz-adv-x="1583" d="M99 772q0 241 104.5 424.5t290 283t424.5 99.5q321 0 532 -159v-217q-192 169 -513 169q-175 0 -313.5 -73t-217.5 -209t-79 -318q0 -181 77.5 -318.5t214.5 -210t310 -72.5q201 0 329 81v405h-294v183h520v-707q-104 -87 -244.5 -126.5t-321.5 -39.5q-239 0 -424.5 99.5 t-290 282t-104.5 423.5zM575 1686v152h690v-152h-690z" />
<glyph unicode="&#x1e21;" horiz-adv-x="1459" d="M99 531q0 169 72 296t199.5 197.5t286.5 70.5q148 0 251 -43t191 -143v153h218v-1009q0 -272 -152 -417t-466 -145q-108 0 -211.5 18t-173.5 50v184q167 -76 385 -75q205 0 299.5 90t94.5 271v112q-146 -174 -430 -174q-162 0 -290 70.5t-201 199t-73 294.5zM325 531 q0 -114 49.5 -202t137 -136.5t195.5 -48.5q138 0 243 72.5t143 194.5v239q-42 124 -145 195t-241 71q-108 0 -195.5 -47.5t-137 -136t-49.5 -201.5zM372 1228v152h690v-152h-690z" />
<glyph unicode="&#x1e24;" horiz-adv-x="1545" d="M144 0v1547h225v-665h808v665h225v-1547h-225v692h-808v-692h-225zM644 -239q0 53 38.5 91t91.5 38q51 0 89 -38t38 -91t-38 -90.5t-89 -37.5q-53 0 -91.5 37.5t-38.5 90.5z" />
<glyph unicode="&#x1e25;" horiz-adv-x="1326" d="M144 0v1634h223v-718q152 179 407 179q213 0 316.5 -113t103.5 -303v-679h-223v657q0 259 -247 259q-106 0 -198.5 -50t-158.5 -151v-715h-223zM544 -239q0 53 38.5 91t92.5 38q51 0 88 -38t37 -91t-37 -90.5t-88 -37.5q-54 0 -92.5 37.5t-38.5 90.5z" />
<glyph unicode="&#x1e2a;" horiz-adv-x="1545" d="M144 0v1547h225v-665h808v665h225v-1547h-225v692h-808v-692h-225zM441 -135h171q0 -76 43.5 -117.5t118.5 -41.5q76 0 118.5 41.5t42.5 117.5h171q0 -139 -89.5 -225.5t-242.5 -86.5q-155 0 -244 86.5t-89 225.5z" />
<glyph unicode="&#x1e2b;" horiz-adv-x="1326" d="M144 0v1634h223v-718q152 179 407 179q213 0 316.5 -113t103.5 -303v-679h-223v657q0 259 -247 259q-106 0 -198.5 -50t-158.5 -151v-715h-223zM345 -135h172q0 -76 43.5 -117.5t118.5 -41.5q76 0 118.5 41.5t42.5 117.5h171q0 -139 -89.5 -225.5t-242.5 -86.5 q-155 0 -244.5 86.5t-89.5 225.5z" />
<glyph unicode="&#x1e36;" horiz-adv-x="1207" d="M144 0v1547h225v-1359h783v-188h-1008zM473 -239q0 53 39 91t92 38q50 0 88 -38t38 -91t-38 -90.5t-88 -37.5q-53 0 -92 37.5t-39 90.5z" />
<glyph unicode="&#x1e37;" horiz-adv-x="521" d="M133 -239q0 53 39 91t92 38q50 0 87.5 -38t37.5 -91t-37.5 -90.5t-87.5 -37.5q-53 0 -92 37.5t-39 90.5zM150 0v1634h224v-1634h-224z" />
<glyph unicode="&#x1e38;" horiz-adv-x="1224" d="M154 1710v152h691v-152h-691zM162 0v1547h225v-1359h783v-188h-1008zM524 -239q0 53 39 91t91 38q51 0 89 -38t38 -91t-38 -90.5t-89 -37.5q-52 0 -91 37.5t-39 90.5z" />
<glyph unicode="&#x1e39;" horiz-adv-x="513" d="M-89 1737v152h691v-152h-691zM129 -239q0 53 38 91t92 38q51 0 88 -38t37 -91t-37 -90.5t-88 -37.5q-54 0 -92 37.5t-38 90.5zM146 0v1634h223v-1634h-223z" />
<glyph unicode="&#x1e3a;" horiz-adv-x="1207" d="M144 0v1547h225v-1359h783v-188h-1008zM292 -157h694v-155h-694v155z" />
<glyph unicode="&#x1e3b;" horiz-adv-x="517" d="M-89 -157h695v-155h-695v155zM148 0v1634h224v-1634h-224z" />
<glyph unicode="&#x1e42;" horiz-adv-x="1839" d="M144 0v1547h225l551 -1207l551 1207h226v-1547h-220v1099l-502 -1099h-110l-504 1099v-1099h-217zM792 -239q0 53 38.5 91t91.5 38q51 0 89 -38t38 -91t-38 -90.5t-89 -37.5q-53 0 -91.5 37.5t-38.5 90.5z" />
<glyph unicode="&#x1e43;" horiz-adv-x="1917" d="M144 0v1062h212v-153q76 93 170.5 139.5t197.5 46.5q128 0 203 -43t111 -132q71 87 173.5 131t206.5 44q194 0 280.5 -99t86.5 -291v-705h-217v677q0 131 -48.5 185t-166.5 54q-168 0 -274 -146q4 -33 5 -109v-661h-217v677q0 131 -44 185t-160 54q-168 0 -300 -190v-726 h-219zM851 -239q0 53 39 91t92 38q50 0 88 -38t38 -91t-38 -90.5t-88 -37.5q-53 0 -92 37.5t-39 90.5z" />
<glyph unicode="&#x1e44;" horiz-adv-x="1516" d="M144 0v1547h215l787 -1167v1167h228v-1547h-217l-788 1165v-1165h-225zM644 1767q0 53 38.5 90.5t91.5 37.5q51 0 89 -37t38 -91q0 -53 -38 -90.5t-89 -37.5q-53 0 -91.5 37.5t-38.5 90.5z" />
<glyph unicode="&#x1e45;" horiz-adv-x="1326" d="M144 0v1062h217v-153q75 95 184 140.5t229 45.5q213 0 316.5 -113t103.5 -303v-679h-223v657q0 259 -247 259q-106 0 -198.5 -50t-158.5 -151v-715h-223zM538 1309q0 53 38.5 90.5t90.5 37.5q51 0 89 -37t38 -91q0 -53 -37.5 -90t-89.5 -37t-90.5 37t-38.5 90z" />
<glyph unicode="&#x1e46;" horiz-adv-x="1516" d="M144 0v1547h215l787 -1167v1167h228v-1547h-217l-788 1165v-1165h-225zM637 -239q0 53 39 91t92 38q51 0 88 -38t37 -91t-37 -90.5t-88 -37.5q-53 0 -92 37.5t-39 90.5z" />
<glyph unicode="&#x1e47;" horiz-adv-x="1326" d="M144 0v1062h217v-153q75 95 184 140.5t229 45.5q213 0 316.5 -113t103.5 -303v-679h-223v657q0 259 -247 259q-106 0 -198.5 -50t-158.5 -151v-715h-223zM540 -239q0 53 38.5 91t92.5 38q50 0 87.5 -38t37.5 -91t-37.5 -90.5t-87.5 -37.5q-54 0 -92.5 37.5t-38.5 90.5z " />
<glyph unicode="&#x1e48;" horiz-adv-x="1516" d="M144 0v1547h215l787 -1167v1167h228v-1547h-217l-788 1165v-1165h-225zM431 -157h694v-155h-694v155z" />
<glyph unicode="&#x1e49;" horiz-adv-x="1326" d="M144 0v1062h217v-153q75 95 184 140.5t229 45.5q213 0 316.5 -113t103.5 -303v-679h-223v657q0 259 -247 259q-106 0 -198.5 -50t-158.5 -151v-715h-223zM336 -157h694v-155h-694v155z" />
<glyph unicode="&#x1e5a;" horiz-adv-x="1377" d="M144 0v1547h622q247 0 380 -120t133 -350q0 -171 -91 -288.5t-257 -159.5l341 -629h-234l-331 610h-338v-610h-225zM369 800h359q148 0 235.5 70t87.5 207q0 150 -85.5 214t-237.5 64h-359v-555zM536 -239q0 53 38 91t91 38q51 0 89 -38t38 -91t-37.5 -90.5t-89.5 -37.5 q-53 0 -91 37.5t-38 90.5z" />
<glyph unicode="&#x1e5b;" horiz-adv-x="910" d="M144 -239q0 53 38.5 91t91.5 38q51 0 89 -38t38 -91t-38 -90.5t-89 -37.5q-53 0 -91.5 37.5t-38.5 90.5zM173 0v1062h216v-190q66 97 187 143.5t280 46.5v-175q-170 0 -291.5 -55t-168.5 -175v-657h-223z" />
<glyph unicode="&#x1e5c;" horiz-adv-x="1377" d="M144 0v1547h622q247 0 380 -120t133 -350q0 -171 -91 -288.5t-257 -159.5l341 -629h-234l-331 610h-338v-610h-225zM272 1712v152h690v-152h-690zM369 800h359q148 0 235.5 70t87.5 207q0 150 -85.5 214t-237.5 64h-359v-555zM489 -239q0 53 38.5 91t91.5 38 q51 0 88.5 -38t37.5 -91t-37 -90.5t-89 -37.5q-53 0 -91.5 37.5t-38.5 90.5z" />
<glyph unicode="&#x1e5d;" horiz-adv-x="908" d="M144 1270v152h690v-152h-690zM146 -239q0 53 39 91t91 38q51 0 89 -38t38 -91t-38 -90.5t-89 -37.5q-52 0 -91 37.5t-39 90.5zM171 0v1062h216v-190q66 97 186.5 143.5t280.5 46.5v-175q-170 0 -291.5 -55t-168.5 -175v-657h-223z" />
<glyph unicode="&#x1e5e;" horiz-adv-x="1377" d="M144 0v1547h622q247 0 380 -120t133 -350q0 -171 -91 -288.5t-257 -159.5l341 -629h-234l-331 610h-338v-610h-225zM306 -157h694v-155h-694v155zM369 800h359q148 0 235.5 70t87.5 207q0 150 -85.5 214t-237.5 64h-359v-555z" />
<glyph unicode="&#x1e5f;" horiz-adv-x="924" d="M110 -157h695v-155h-695v155zM186 0v1062h217v-190q66 97 186.5 143.5t279.5 46.5v-175q-170 0 -291.5 -55t-168.5 -175v-657h-223z" />
<glyph unicode="&#x1e60;" horiz-adv-x="1239" d="M99 53v204q213 -99 458 -100q345 0 346 232q0 80 -38 128.5t-108.5 85t-230.5 100.5q-219 89 -316.5 195t-97.5 267q0 122 66.5 216t186.5 146t274 52q127 0 228.5 -20t198.5 -64v-195q-192 87 -389 87q-159 0 -243 -57.5t-84 -164.5q0 -73 36 -122t108 -88t213 -96 q157 -64 248.5 -122t139 -141t47.5 -207q0 -201 -144 -311.5t-426 -110.5q-131 0 -261 23t-212 63zM513 1767q0 53 39 90.5t92 37.5q50 0 88 -37t38 -91q0 -53 -38 -90.5t-88 -37.5q-53 0 -92 37.5t-39 90.5z" />
<glyph unicode="&#x1e61;" horiz-adv-x="1081" d="M99 785q0 152 120.5 231t324.5 79q106 0 208 -20t164 -55v-186q-64 38 -158.5 60t-191.5 22q-118 0 -179.5 -28.5t-61.5 -102.5q0 -46 26.5 -75t85.5 -50t187 -54q201 -55 279.5 -130t78.5 -208q0 -137 -113 -219t-333 -82q-112 0 -235.5 27.5t-194.5 73.5v191 q86 -51 199 -83t219 -32q120 0 175 28.5t55 93.5q0 48 -25.5 78t-86 54t-182.5 58q-131 38 -207 76t-115 98t-39 155zM407 1309q0 53 39 90.5t92 37.5q51 0 88 -37t37 -91q0 -53 -37 -90t-88 -37q-53 0 -92 37t-39 90z" />
<glyph unicode="&#x1e62;" horiz-adv-x="1239" d="M99 53v204q213 -99 458 -100q345 0 346 232q0 80 -38 128.5t-108.5 85t-230.5 100.5q-219 89 -316.5 195t-97.5 267q0 122 66.5 216t186.5 146t274 52q127 0 228.5 -20t198.5 -64v-195q-192 87 -389 87q-159 0 -243 -57.5t-84 -164.5q0 -73 36 -122t108 -88t213 -96 q157 -64 248.5 -122t139 -141t47.5 -207q0 -201 -144 -311.5t-426 -110.5q-131 0 -261 23t-212 63zM464 -239q0 53 39 91t92 38q51 0 88.5 -38t37.5 -91t-37.5 -90.5t-88.5 -37.5q-53 0 -92 37.5t-39 90.5z" />
<glyph unicode="&#x1e63;" horiz-adv-x="1081" d="M99 785q0 152 120.5 231t324.5 79q106 0 208 -20t164 -55v-186q-64 38 -158.5 60t-191.5 22q-118 0 -179.5 -28.5t-61.5 -102.5q0 -46 26.5 -75t85.5 -50t187 -54q201 -55 279.5 -130t78.5 -208q0 -137 -113 -219t-333 -82q-112 0 -235.5 27.5t-194.5 73.5v191 q86 -51 199 -83t219 -32q120 0 175 28.5t55 93.5q0 48 -25.5 78t-86 54t-182.5 58q-131 38 -207 76t-115 98t-39 155zM401 -239q0 53 38 91t92 38q51 0 88.5 -38t37.5 -91t-37.5 -90.5t-88.5 -37.5q-54 0 -92 37.5t-38 90.5z" />
<glyph unicode="&#x1e6c;" horiz-adv-x="1298" d="M55 1355v192h1188v-192h-479v-1355h-228v1355h-481zM519 -239q0 53 39 91t92 38q51 0 89 -38t38 -91t-38 -90.5t-89 -37.5q-53 0 -92 37.5t-39 90.5z" />
<glyph unicode="&#x1e6d;" horiz-adv-x="826" d="M55 889v173h162v318h226v-318h260v-173h-260v-551q0 -106 40.5 -150t149.5 -44q64 0 128 29v-177q-84 -29 -208 -29q-162 0 -249 92.5t-87 263.5v566h-162zM380 -239q0 53 39 91t92 38q51 0 88.5 -38t37.5 -91t-37.5 -90.5t-88.5 -37.5q-53 0 -92 37.5t-39 90.5z" />
<glyph unicode="&#x1e6e;" horiz-adv-x="1298" d="M55 1355v192h1188v-192h-479v-1355h-228v1355h-481zM301 -157h695v-155h-695v155z" />
<glyph unicode="&#x1e6f;" horiz-adv-x="833" d="M55 889v173h162v318h226v-318h260v-173h-260v-551q0 -106 40.5 -150t149.5 -44q64 0 128 29v-177q-84 -29 -208 -29q-162 0 -249 92.5t-87 263.5v566h-162zM110 -157h695v-155h-695v155z" />
<glyph unicode="&#x1e80;" horiz-adv-x="2214" d="M99 1547h235l345 -1175l341 1175h177l338 -1175l345 1175h235l-452 -1547h-215l-342 1167l-340 -1167h-215zM808 2020h236l153 -381h-206z" />
<glyph unicode="&#x1e81;" horiz-adv-x="1809" d="M99 1062h228l239 -788l236 788h202l237 -788l239 788h230l-345 -1062h-215l-245 792l-246 -792h-216zM608 1562h237l153 -380h-206z" />
<glyph unicode="&#x1e82;" horiz-adv-x="2214" d="M99 1547h235l345 -1175l341 1175h177l338 -1175l345 1175h235l-452 -1547h-215l-342 1167l-340 -1167h-215zM1028 1639l151 381h237l-184 -381h-204z" />
<glyph unicode="&#x1e83;" horiz-adv-x="1809" d="M99 1062h228l239 -788l236 788h202l237 -788l239 788h230l-345 -1062h-215l-245 792l-246 -792h-216zM819 1182l150 380h236l-183 -380h-203z" />
<glyph unicode="&#x1e84;" horiz-adv-x="2214" d="M99 1547h235l345 -1175l341 1175h177l338 -1175l345 1175h235l-452 -1547h-215l-342 1167l-340 -1167h-215zM726 1767q0 53 38 90.5t92 37.5q51 0 88.5 -37t37.5 -91q0 -53 -37.5 -90.5t-88.5 -37.5q-54 0 -92 37.5t-38 90.5zM1228 1767q0 53 38.5 90.5t91.5 37.5 q50 0 88 -37t38 -91q0 -53 -37.5 -90.5t-88.5 -37.5q-53 0 -91.5 37.5t-38.5 90.5z" />
<glyph unicode="&#x1e85;" horiz-adv-x="1809" d="M99 1062h228l239 -788l236 788h202l237 -788l239 788h230l-345 -1062h-215l-245 792l-246 -792h-216zM524 1309q0 53 39 90.5t91 37.5q51 0 89 -37t38 -91q0 -53 -38 -90t-89 -37q-52 0 -91 37t-39 90zM1026 1309q0 53 39 90.5t92 37.5q50 0 88 -37t38 -91q0 -53 -38 -90 t-88 -37q-53 0 -92 37t-39 90z" />
<glyph unicode="&#x1e8e;" horiz-adv-x="1547" d="M99 1547h241l432 -747l438 747h238l-568 -961v-586h-219v586zM644 1767q0 53 38.5 90.5t91.5 37.5q51 0 89 -37t38 -91q0 -53 -38 -90.5t-89 -37.5q-53 0 -91.5 37.5t-38.5 90.5z" />
<glyph unicode="&#x1e8f;" horiz-adv-x="1298" d="M99 1062h230l355 -817l329 817h230l-477 -1182q-66 -166 -158.5 -242t-238.5 -76q-118 0 -198 24v175q57 -21 141 -22q78 0 121.5 38.5t79.5 125.5l51 124zM555 1309q0 53 39 90.5t92 37.5q51 0 88.5 -37t37.5 -91q0 -53 -37.5 -90t-88.5 -37q-53 0 -92 37t-39 90z" />
<glyph unicode="&#x1e92;" horiz-adv-x="1366" d="M99 0v152l857 1203h-836v192h1110v-156l-854 -1203h892v-188h-1169zM575 -239q0 53 38.5 91t91.5 38q51 0 89 -38t38 -91t-38 -90.5t-89 -37.5q-53 0 -91.5 37.5t-38.5 90.5z" />
<glyph unicode="&#x1e93;" horiz-adv-x="1102" d="M99 0v144l604 745h-591v173h870v-146l-604 -743h626v-173h-905zM420 -239q0 53 39 91t92 38q51 0 88.5 -38t37.5 -91t-37.5 -90.5t-88.5 -37.5q-53 0 -92 37.5t-39 90.5z" />
<glyph unicode="&#x1e97;" horiz-adv-x="916" d="M44 1604q0 53 39 90.5t92 37.5q51 0 88.5 -37.5t37.5 -90.5t-37.5 -91t-88.5 -38q-53 0 -92 38t-39 91zM146 889v173h162v318h226v-318h260v-173h-260v-551q0 -106 40.5 -150t149.5 -44q63 0 127 29v-177q-84 -29 -207 -29q-162 0 -249 92.5t-87 263.5v566h-162z M546 1604q0 53 39 90.5t92 37.5q51 0 88 -37.5t37 -90.5t-37 -91t-88 -38q-53 0 -92 38t-39 91z" />
<glyph unicode="&#x1e9e;" horiz-adv-x="1384" d="M133 0v1038q0 263 134 402t385 139q159 0 273.5 -59.5t173 -161.5t64.5 -227l-270 -268q199 -22 295.5 -128t96.5 -297q0 -212 -128.5 -341.5t-367.5 -129.5q-190 0 -291 42v208q101 -46 245 -46q314 0 314 274q0 148 -98 211t-258 63h-91v135l312 313q-13 91 -84.5 148 t-185.5 57q-133 0 -213 -81t-80 -244v-1047h-226z" />
<glyph unicode="&#x1ea0;" horiz-adv-x="1649" d="M99 0l618 1547h216l618 -1547h-230l-156 384h-683l-150 -384h-233zM546 572h558l-279 724zM694 -239q0 53 39 91t92 38q51 0 88.5 -38t37.5 -91t-37.5 -90.5t-88.5 -37.5q-53 0 -92 37.5t-39 90.5z" />
<glyph unicode="&#x1ea1;" horiz-adv-x="1258" d="M99 332q0 177 112 273t317 96q219 0 373 -89v55q0 127 -77 188t-240 61q-97 0 -189 -19t-165 -52v181q66 31 172.5 50t205.5 19q264 0 390.5 -116t126.5 -322v-657h-209v120q-68 -76 -162.5 -114.5t-229.5 -38.5q-192 0 -308.5 98.5t-116.5 266.5zM325 332 q0 -195 255 -195q106 0 192.5 42t128.5 117v145q-144 93 -321 93q-129 0 -192 -50.5t-63 -151.5zM489 -239q0 53 38.5 91t91.5 38q51 0 88.5 -38t37.5 -91t-37 -90.5t-89 -37.5q-53 0 -91.5 37.5t-38.5 90.5z" />
<glyph unicode="&#x1ea2;" horiz-adv-x="1649" d="M99 0l618 1547h216l618 -1547h-230l-156 384h-683l-150 -384h-233zM546 572h558l-279 724zM644 1988v122q35 11 88 19.5t104 8.5q141 0 215 -58t74 -155q0 -83 -52.5 -139t-150.5 -70v-74h-196v156q103 0 153 27.5t50 90.5q0 51 -34 74t-112 23q-29 0 -74.5 -8t-64.5 -17 z" />
<glyph unicode="&#x1ea3;" horiz-adv-x="1258" d="M99 332q0 177 112 273t317 96q219 0 373 -89v55q0 127 -77 188t-240 61q-97 0 -189 -19t-165 -52v181q66 31 172.5 50t205.5 19q264 0 390.5 -116t126.5 -322v-657h-209v120q-68 -76 -162.5 -114.5t-229.5 -38.5q-192 0 -308.5 98.5t-116.5 266.5zM325 332 q0 -195 255 -195q106 0 192.5 42t128.5 117v145q-144 93 -321 93q-129 0 -192 -50.5t-63 -151.5zM469 1530v122q35 11 88 19.5t104 8.5q141 0 215.5 -58t74.5 -155q0 -82 -53 -138.5t-151 -70.5v-74h-196v156q103 0 153 27.5t50 90.5q0 51 -34 74t-112 23q-29 0 -74 -8 t-65 -17z" />
<glyph unicode="&#x1ea4;" horiz-adv-x="1649" d="M99 0l618 1547h216l618 -1547h-230l-156 384h-683l-150 -384h-233zM418 1652l306 321h190l304 -321h-218l-181 199l-182 -199h-219zM546 572h558l-279 724zM1064 1876l146 274h202l-175 -274h-173z" />
<glyph unicode="&#x1ea5;" horiz-adv-x="1256" d="M99 332q0 177 112 273t317 96q219 0 373 -89v55q0 127 -77 188t-240 61q-97 0 -189 -19t-165 -52v181q66 31 172.5 50t205.5 19q264 0 390.5 -116t126.5 -322v-657h-209v120q-68 -76 -162.5 -114.5t-229.5 -38.5q-192 0 -308.5 98.5t-116.5 266.5zM264 1182l304 320h190 l306 -320h-219l-182 198l-181 -198h-218zM325 332q0 -195 255 -195q106 0 192.5 42t128.5 117v145q-144 93 -321 93q-129 0 -192 -50.5t-63 -151.5zM909 1404l146 274h201l-175 -274h-172z" />
<glyph unicode="&#x1ea6;" horiz-adv-x="1649" d="M99 0l618 1547h216l618 -1547h-230l-156 384h-683l-150 -384h-233zM245 2136h202l146 -274h-173zM438 1639l305 321h190l306 -321h-219l-182 199l-181 -199h-219zM546 572h558l-279 724z" />
<glyph unicode="&#x1ea7;" horiz-adv-x="1258" d="M66 1678h202l146 -274h-173zM99 332q0 177 112 273t317 96q219 0 373 -89v55q0 127 -77 188t-240 61q-97 0 -189 -19t-165 -52v181q66 31 172.5 50t205.5 19q264 0 390.5 -116t126.5 -322v-657h-209v120q-68 -76 -162.5 -114.5t-229.5 -38.5q-192 0 -308.5 98.5 t-116.5 266.5zM259 1182l305 320h190l305 -320h-219l-181 198l-182 -198h-218zM325 332q0 -195 255 -195q106 0 192.5 42t128.5 117v145q-144 93 -321 93q-129 0 -192 -50.5t-63 -151.5z" />
<glyph unicode="&#x1ea8;" horiz-adv-x="1649" d="M99 0l618 1547h216l618 -1547h-230l-156 384h-683l-150 -384h-233zM424 1652l306 321h190l306 -321h-219l-182 199l-181 -199h-220zM546 572h558l-279 724zM1017 2088v95q72 21 146 22q95 0 148.5 -41t53.5 -109q0 -55 -39 -95t-108 -49v-56h-141v112q66 0 98 17t32 57 q0 34 -23 49.5t-72 15.5q-59 0 -95 -18z" />
<glyph unicode="&#x1ea9;" horiz-adv-x="1249" d="M99 332q0 177 112 273t317 96q219 0 373 -89v55q0 127 -77 188t-240 61q-97 0 -189 -19t-165 -52v181q66 31 172.5 50t205.5 19q264 0 390.5 -116t126.5 -322v-657h-209v120q-68 -76 -162.5 -114.5t-229.5 -38.5q-192 0 -308.5 98.5t-116.5 266.5zM243 1182l306 320h190 l305 -320h-219l-181 198l-182 -198h-219zM325 332q0 -195 255 -195q106 0 192.5 42t128.5 117v145q-144 93 -321 93q-129 0 -192 -50.5t-63 -151.5zM836 1617v95q71 21 146 22q95 0 148.5 -41t53.5 -110q0 -55 -39 -95t-107 -48v-55h-143v110q66 0 98.5 17.5t32.5 57.5 q0 34 -23 49t-72 15q-59 0 -95 -17z" />
<glyph unicode="&#x1eaa;" horiz-adv-x="1649" d="M99 0l618 1547h216l618 -1547h-230l-156 384h-683l-150 -384h-233zM401 1639l304 321h190l306 -321h-219l-182 199l-181 -199h-218zM458 1977v167q55 80 179 79q42 0 80.5 -12t96.5 -37q55 -25 92.5 -37t75.5 -12q110 0 179 98v-166q-53 -77 -179 -77q-45 0 -84 11.5 t-102 38.5q-55 22 -88 33.5t-71 11.5q-53 0 -96 -22.5t-83 -75.5zM546 572h558l-279 724z" />
<glyph unicode="&#x1eab;" horiz-adv-x="1258" d="M99 332q0 177 112 273t317 96q219 0 373 -89v55q0 127 -77 188t-240 61q-97 0 -189 -19t-165 -52v181q66 31 172.5 50t205.5 19q264 0 390.5 -116t126.5 -322v-657h-209v120q-68 -76 -162.5 -114.5t-229.5 -38.5q-192 0 -308.5 98.5t-116.5 266.5zM252 1182l305 320h190 l306 -320h-219l-182 198l-181 -198h-219zM310 1520v166q55 80 179 79q42 0 80.5 -12t95.5 -37q55 -25 93 -36.5t76 -11.5q110 0 179 97v-166q-53 -77 -179 -77q-45 0 -84.5 12.5t-101.5 37.5q-55 22 -88.5 33.5t-70.5 11.5q-53 0 -96 -22.5t-83 -74.5zM325 332 q0 -195 255 -195q106 0 192.5 42t128.5 117v145q-144 93 -321 93q-129 0 -192 -50.5t-63 -151.5z" />
<glyph unicode="&#x1eac;" horiz-adv-x="1649" d="M99 0l618 1547h216l618 -1547h-230l-156 384h-683l-150 -384h-233zM414 1639l314 368h196l315 -368h-226l-186 237l-185 -237h-228zM546 572h558l-279 724zM697 -239q0 53 38.5 91t91.5 38q51 0 89 -38t38 -91t-38 -90.5t-89 -37.5q-53 0 -91.5 37.5t-38.5 90.5z" />
<glyph unicode="&#x1ead;" horiz-adv-x="1258" d="M99 332q0 177 112 273t317 96q219 0 373 -89v55q0 127 -77 188t-240 61q-97 0 -189 -19t-165 -52v181q66 31 172.5 50t205.5 19q264 0 390.5 -116t126.5 -322v-657h-209v120q-68 -76 -162.5 -114.5t-229.5 -38.5q-192 0 -308.5 98.5t-116.5 266.5zM219 1182l315 367h196 l314 -367h-225l-186 236l-186 -236h-228zM325 332q0 -195 255 -195q106 0 192.5 42t128.5 117v145q-144 93 -321 93q-129 0 -192 -50.5t-63 -151.5zM496 -239q0 53 38 91t92 38q51 0 88.5 -38t37.5 -91t-37.5 -90.5t-88.5 -37.5q-54 0 -92 37.5t-38 90.5z" />
<glyph unicode="&#x1eae;" horiz-adv-x="1649" d="M99 0l618 1547h216l618 -1547h-230l-156 384h-683l-150 -384h-233zM500 1944h165q0 -73 41 -113.5t117 -40.5t117.5 41t41.5 113h166q0 -135 -87.5 -218.5t-237.5 -83.5q-148 0 -235.5 82.5t-87.5 219.5zM546 572h558l-279 724zM737 1933l114 275h184l-144 -275h-154z " />
<glyph unicode="&#x1eaf;" horiz-adv-x="1258" d="M99 332q0 177 112 273t317 96q219 0 373 -89v55q0 127 -77 188t-240 61q-97 0 -189 -19t-165 -52v181q66 31 172.5 50t205.5 19q264 0 390.5 -116t126.5 -322v-657h-209v120q-68 -76 -162.5 -114.5t-229.5 -38.5q-192 0 -308.5 98.5t-116.5 266.5zM325 332 q0 -195 255 -195q106 0 192.5 42t128.5 117v145q-144 93 -321 93q-129 0 -192 -50.5t-63 -151.5zM327 1486h167q0 -73 40.5 -113.5t115.5 -40.5q76 0 118 41t42 113h165q0 -135 -87.5 -218.5t-237.5 -83.5q-148 0 -235.5 82.5t-87.5 219.5zM564 1475l115 275h184l-144 -275 h-155z" />
<glyph unicode="&#x1eb0;" horiz-adv-x="1649" d="M99 0l618 1547h216l618 -1547h-230l-156 384h-683l-150 -384h-233zM500 1944h165q0 -73 41 -113.5t117 -40.5t117.5 41t41.5 113h166q0 -135 -87.5 -218.5t-237.5 -83.5q-148 0 -235.5 82.5t-87.5 219.5zM546 572h558l-279 724zM612 2208h184l116 -275h-156z" />
<glyph unicode="&#x1eb1;" horiz-adv-x="1258" d="M99 332q0 177 112 273t317 96q219 0 373 -89v55q0 127 -77 188t-240 61q-97 0 -189 -19t-165 -52v181q66 31 172.5 50t205.5 19q264 0 390.5 -116t126.5 -322v-657h-209v120q-68 -76 -162.5 -114.5t-229.5 -38.5q-192 0 -308.5 98.5t-116.5 266.5zM325 332 q0 -195 255 -195q106 0 192.5 42t128.5 117v145q-144 93 -321 93q-129 0 -192 -50.5t-63 -151.5zM325 1480h166q0 -74 40.5 -114.5t116.5 -40.5t118 41t42 114h165q0 -135 -87.5 -219t-237.5 -84q-148 0 -235.5 82.5t-87.5 220.5zM438 1743h183l116 -274h-155z" />
<glyph unicode="&#x1eb2;" horiz-adv-x="1649" d="M99 0l618 1547h216l618 -1547h-230l-156 384h-683l-150 -384h-233zM500 1944h163q0 -73 43.5 -115t118.5 -42q76 0 118.5 42.5t42.5 114.5h162q0 -137 -87.5 -219.5t-235.5 -82.5q-150 0 -237.5 83.5t-87.5 218.5zM546 572h558l-279 724zM692 2138v93q27 9 67.5 16 t78.5 7q95 0 148.5 -41t53.5 -109q0 -55 -39 -94t-108 -50v-54h-141v111q68 0 99 16.5t31 56.5q0 35 -23 51t-72 16q-59 0 -95 -19z" />
<glyph unicode="&#x1eb3;" horiz-adv-x="1258" d="M99 332q0 177 112 273t317 96q219 0 373 -89v55q0 127 -77 188t-240 61q-97 0 -189 -19t-165 -52v181q66 31 172.5 50t205.5 19q264 0 390.5 -116t126.5 -322v-657h-209v120q-68 -76 -162.5 -114.5t-229.5 -38.5q-192 0 -308.5 98.5t-116.5 266.5zM323 1480h164 q0 -74 42.5 -115.5t118.5 -41.5t119 42t43 115h161q0 -138 -87.5 -220.5t-235.5 -82.5q-150 0 -237.5 84t-87.5 219zM325 332q0 -195 255 -195q106 0 192.5 42t128.5 117v145q-144 93 -321 93q-129 0 -192 -50.5t-63 -151.5zM515 1674v93q27 9 68 16t78 7q95 0 148.5 -41.5 t53.5 -109.5q0 -55 -39 -93.5t-107 -50.5v-53h-142v111q68 0 99 16t31 56q0 36 -23 51.5t-72 15.5q-59 0 -95 -18z" />
<glyph unicode="&#x1eb4;" horiz-adv-x="1649" d="M99 0l618 1547h216l618 -1547h-230l-156 384h-683l-150 -384h-233zM473 2003v167q55 80 179 80q42 0 81 -12.5t96 -36.5q56 -25 93.5 -37t75.5 -12q110 0 179 98v-167q-53 -77 -179 -76q-44 0 -84 11.5t-102 38.5q-55 22 -88.5 33.5t-71.5 11.5q-53 0 -96 -22.5 t-83 -76.5zM507 1944h164q0 -73 41.5 -113.5t116.5 -40.5q76 0 117.5 41t41.5 113h167q0 -135 -87.5 -218.5t-238.5 -83.5q-148 0 -235 82.5t-87 219.5zM546 572h558l-279 724z" />
<glyph unicode="&#x1eb5;" horiz-adv-x="1258" d="M99 332q0 177 112 273t317 96q219 0 373 -89v55q0 127 -77 188t-240 61q-97 0 -189 -19t-165 -52v181q66 31 172.5 50t205.5 19q264 0 390.5 -116t126.5 -322v-657h-209v120q-68 -76 -162.5 -114.5t-229.5 -38.5q-192 0 -308.5 98.5t-116.5 266.5zM325 332 q0 -195 255 -195q106 0 192.5 42t128.5 117v145q-144 93 -321 93q-129 0 -192 -50.5t-63 -151.5zM325 1547v165q55 80 179 80q42 0 81 -12.5t96 -36.5q56 -25 93.5 -36.5t74.5 -11.5q110 0 179 97v-167q-53 -77 -179 -76q-44 0 -83.5 11.5t-102.5 38.5q-55 22 -88 33.5 t-71 11.5q-53 0 -96 -22.5t-83 -74.5zM359 1486h163q0 -73 42 -113.5t117 -40.5q76 0 117.5 41t41.5 113h167q0 -135 -87.5 -218.5t-238.5 -83.5q-147 0 -234.5 82.5t-87.5 219.5z" />
<glyph unicode="&#x1eb6;" horiz-adv-x="1649" d="M99 0l618 1547h216l618 -1547h-230l-156 384h-683l-150 -384h-233zM491 1950h172q0 -75 42 -115.5t120 -40.5t119.5 41t41.5 115h171q0 -137 -90 -222.5t-242 -85.5q-154 0 -244 85.5t-90 222.5zM546 572h558l-279 724zM697 -239q0 53 38.5 91t91.5 38q51 0 89 -38 t38 -91t-38 -90.5t-89 -37.5q-53 0 -91.5 37.5t-38.5 90.5z" />
<glyph unicode="&#x1eb7;" horiz-adv-x="1258" d="M99 332q0 177 112 273t317 96q219 0 373 -89v55q0 127 -77 188t-240 61q-97 0 -189 -19t-165 -52v181q66 31 172.5 50t205.5 19q264 0 390.5 -116t126.5 -322v-657h-209v120q-68 -76 -162.5 -114.5t-229.5 -38.5q-192 0 -308.5 98.5t-116.5 266.5zM285 1493h173 q0 -76 42 -116.5t119 -40.5q78 0 120 41t42 116h170q0 -138 -89.5 -223.5t-242.5 -85.5q-155 0 -244.5 85.5t-89.5 223.5zM325 332q0 -195 255 -195q106 0 192.5 42t128.5 117v145q-144 93 -321 93q-129 0 -192 -50.5t-63 -151.5zM491 -239q0 53 38.5 91t91.5 38 q51 0 88.5 -38t37.5 -91t-37 -90.5t-89 -37.5q-53 0 -91.5 37.5t-38.5 90.5z" />
<glyph unicode="&#x1eb8;" horiz-adv-x="1262" d="M144 0v1547h1019v-192h-794v-488h593v-188h-593v-491h794v-188h-1019zM502 -239q0 53 39 91t92 38q51 0 88 -38t37 -91t-37 -90.5t-88 -37.5q-53 0 -92 37.5t-39 90.5z" />
<glyph unicode="&#x1eb9;" horiz-adv-x="1344" d="M99 528q0 261 150 414t426 153q184 0 312 -69.5t193 -192.5t65 -280v-110h-933q11 -150 127 -224.5t315 -74.5q101 0 205.5 18.5t184.5 50.5v-180q-72 -29 -188 -47.5t-228 -18.5q-295 0 -462 147t-167 414zM312 599h723q-5 151 -99 234t-265 83q-169 0 -262 -86.5 t-97 -230.5zM570 -239q0 53 39 91t92 38q51 0 88.5 -38t37.5 -91t-37.5 -90.5t-88.5 -37.5q-53 0 -92 37.5t-39 90.5z" />
<glyph unicode="&#x1eba;" horiz-adv-x="1262" d="M144 0v1547h1019v-192h-794v-488h593v-188h-593v-491h794v-188h-1019zM443 1988v122q35 11 88 19.5t104 8.5q142 0 215.5 -58t73.5 -155q0 -83 -52.5 -139t-150.5 -70v-74h-197v156q103 0 153.5 27.5t50.5 90.5q0 51 -34.5 74t-111.5 23q-29 0 -74.5 -8t-64.5 -17z" />
<glyph unicode="&#x1ebb;" horiz-adv-x="1344" d="M99 528q0 261 150 414t426 153q184 0 312 -69.5t193 -192.5t65 -280v-110h-933q11 -150 127 -224.5t315 -74.5q101 0 205.5 18.5t184.5 50.5v-180q-72 -29 -188 -47.5t-228 -18.5q-295 0 -462 147t-167 414zM312 599h723q-5 151 -99 234t-265 83q-169 0 -262 -86.5 t-97 -230.5zM502 1547v121q36 10 89 19.5t103 9.5q142 0 216 -59t74 -156q0 -82 -53 -138.5t-150 -69.5v-75h-197v156q104 0 153.5 28.5t49.5 89.5q0 51 -34 74t-111 23q-30 0 -75 -7.5t-65 -15.5z" />
<glyph unicode="&#x1ebc;" horiz-adv-x="1262" d="M144 0v1547h1019v-192h-794v-488h593v-188h-593v-491h794v-188h-1019zM217 1672v190q68 95 216 95q49 0 94 -13t117 -42q59 -27 104.5 -41t93.5 -14q66 0 119.5 25.5t95.5 87.5v-191q-66 -93 -215 -93q-55 0 -104.5 14.5t-113.5 43.5q-63 27 -103.5 40t-87.5 13 q-64 0 -116.5 -25t-99.5 -90z" />
<glyph unicode="&#x1ebd;" horiz-adv-x="1344" d="M99 528q0 261 150 414t426 153q184 0 312 -69.5t193 -192.5t65 -280v-110h-933q11 -150 127 -224.5t315 -74.5q101 0 205.5 18.5t184.5 50.5v-180q-72 -29 -188 -47.5t-228 -18.5q-295 0 -462 147t-167 414zM274 1207v191q68 95 217 95q49 0 94.5 -13t115.5 -43 q59 -27 104.5 -41t95.5 -14q66 0 118.5 25.5t95.5 87.5v-190q-66 -93 -214 -93q-55 0 -105.5 14.5t-114.5 43.5q-63 27 -103 40t-87 13q-63 0 -116.5 -25.5t-100.5 -90.5zM312 599h723q-5 151 -99 234t-265 83q-169 0 -262 -86.5t-97 -230.5z" />
<glyph unicode="&#x1ebe;" horiz-adv-x="1256" d="M144 0v1547h1019v-192h-794v-488h593v-188h-593v-491h794v-188h-1019zM208 1639l305 321h190l306 -321h-220l-181 199l-181 -199h-219zM854 1862l146 274h201l-175 -274h-172z" />
<glyph unicode="&#x1ebf;" horiz-adv-x="1342" d="M99 528q0 261 150 414t426 153q184 0 312 -69.5t193 -192.5t65 -280v-110h-933q11 -150 127 -224.5t315 -74.5q101 0 205.5 18.5t184.5 50.5v-180q-72 -29 -188 -47.5t-228 -18.5q-295 0 -462 147t-167 414zM294 1192l305 321h190l306 -321h-219l-182 199l-181 -199h-219 zM312 599h723q-5 151 -99 234t-265 83q-169 0 -262 -86.5t-97 -230.5zM940 1416l146 274h201l-175 -274h-172z" />
<glyph unicode="&#x1ec0;" horiz-adv-x="1284" d="M66 2136h202l146 -274h-173zM177 0v1547h1020v-192h-794v-488h593v-188h-593v-491h794v-188h-1020zM259 1639l305 321h190l305 -321h-219l-181 199l-182 -199h-218z" />
<glyph unicode="&#x1ec1;" horiz-adv-x="1344" d="M78 1690h201l145 -274h-172zM99 528q0 261 150 414t426 153q184 0 312 -69.5t193 -192.5t65 -280v-110h-933q11 -150 127 -224.5t315 -74.5q101 0 205.5 18.5t184.5 50.5v-180q-72 -29 -188 -47.5t-228 -18.5q-295 0 -462 147t-167 414zM270 1192l305 321h191l304 -321 h-219l-180 199l-182 -199h-219zM312 599h723q-5 151 -99 234t-265 83q-169 0 -262 -86.5t-97 -230.5z" />
<glyph unicode="&#x1ec2;" horiz-adv-x="1269" d="M144 0v1547h1019v-192h-794v-488h593v-188h-593v-491h794v-188h-1019zM274 1639l306 321h190l305 -321h-219l-181 199l-181 -199h-220zM867 2075v95q72 21 146 22q95 0 148 -41t53 -110q0 -55 -38.5 -95t-107.5 -48v-56h-141v111q66 0 98 17.5t32 57.5q0 34 -23 49 t-72 15q-59 0 -95 -17z" />
<glyph unicode="&#x1ec3;" horiz-adv-x="1338" d="M99 528q0 261 150 414t426 153q184 0 312 -69.5t193 -192.5t65 -280v-110h-933q11 -150 127 -224.5t315 -74.5q101 0 205.5 18.5t184.5 50.5v-180q-72 -29 -188 -47.5t-228 -18.5q-295 0 -462 147t-167 414zM310 1192l305 321h190l305 -321h-219l-181 199l-182 -199h-218 zM312 599h723q-5 151 -99 234t-265 83q-169 0 -262 -86.5t-97 -230.5zM903 1628v95q71 21 146 22q95 0 148 -41t53 -109q0 -55 -39 -95t-107 -50v-55h-142v112q66 0 98.5 17t32.5 57q0 34 -23 49.5t-72 15.5q-59 0 -95 -18z" />
<glyph unicode="&#x1ec4;" horiz-adv-x="1262" d="M144 0v1547h1019v-192h-794v-488h593v-188h-593v-491h794v-188h-1019zM279 1639l305 321h190l305 -321h-218l-182 199l-181 -199h-219zM336 1977v167q55 80 179 79q42 0 81 -12t96 -37q55 -25 93 -37t76 -12q110 0 179 98v-166q-53 -77 -179 -77q-45 0 -84.5 11.5 t-101.5 38.5q-55 22 -88.5 33.5t-71.5 11.5q-53 0 -96 -22.5t-83 -75.5z" />
<glyph unicode="&#x1ec5;" horiz-adv-x="1344" d="M99 528q0 261 150 414t426 153q184 0 312 -69.5t193 -192.5t65 -280v-110h-933q11 -150 127 -224.5t315 -74.5q101 0 205.5 18.5t184.5 50.5v-180q-72 -29 -188 -47.5t-228 -18.5q-295 0 -462 147t-167 414zM298 1192l306 321h190l305 -321h-219l-181 199l-182 -199h-219 zM312 599h723q-5 151 -99 234t-265 83q-169 0 -262 -86.5t-97 -230.5zM356 1530v167q55 80 180 80q42 0 80 -12.5t96 -37.5q55 -25 92.5 -37t75.5 -12q110 0 179 99v-167q-52 -77 -179 -77q-44 0 -84 12t-102 38q-55 22 -88.5 33.5t-69.5 11.5q-53 0 -96.5 -22.5 t-83.5 -75.5z" />
<glyph unicode="&#x1ec6;" horiz-adv-x="1262" d="M144 0v1547h1019v-192h-794v-488h593v-188h-593v-491h794v-188h-1019zM215 1663l313 367h198l314 -367h-226l-185 237l-186 -237h-228zM498 -239q0 53 38.5 91t92.5 38q50 0 87.5 -38t37.5 -91t-37.5 -90.5t-87.5 -37.5q-54 0 -92.5 37.5t-38.5 90.5z" />
<glyph unicode="&#x1ec7;" horiz-adv-x="1344" d="M99 528q0 261 150 414t426 153q184 0 312 -69.5t193 -192.5t65 -280v-110h-933q11 -150 127 -224.5t315 -74.5q101 0 205.5 18.5t184.5 50.5v-180q-72 -29 -188 -47.5t-228 -18.5q-295 0 -462 147t-167 414zM274 1190l315 367h196l314 -367h-225l-186 237l-186 -237h-228 zM312 599h723q-5 151 -99 234t-265 83q-169 0 -262 -86.5t-97 -230.5zM557 -239q0 53 39 91t92 38q51 0 88.5 -38t37.5 -91t-37.5 -90.5t-88.5 -37.5q-53 0 -92 37.5t-39 90.5z" />
<glyph unicode="&#x1ec8;" horiz-adv-x="521" d="M78 1988v122q35 11 88 19.5t104 8.5q141 0 215 -58t74 -155q0 -83 -52.5 -139t-150.5 -70v-74h-197v156q103 0 153.5 27.5t50.5 90.5q0 51 -34.5 74t-111.5 23q-29 0 -74.5 -8t-64.5 -17zM146 0v1547h228v-1547h-228z" />
<glyph unicode="&#x1ec9;" horiz-adv-x="513" d="M76 1530v122q35 11 88 19.5t104 8.5q141 0 215 -58t74 -155q0 -82 -53 -138.5t-150 -70.5v-74h-197v156q103 0 153.5 27.5t50.5 90.5q0 51 -34.5 74t-111.5 23q-29 0 -74.5 -8t-64.5 -17zM144 0v1062h225v-1062h-225z" />
<glyph unicode="&#x1eca;" horiz-adv-x="521" d="M133 -239q0 53 39 91t92 38q50 0 87.5 -38t37.5 -91t-37.5 -90.5t-87.5 -37.5q-53 0 -92 37.5t-39 90.5zM146 0v1547h228v-1547h-228z" />
<glyph unicode="&#x1ecb;" horiz-adv-x="555" d="M144 1400q0 55 37.5 92.5t92.5 37.5q58 0 96.5 -37t38.5 -93q0 -55 -38.5 -92.5t-96.5 -37.5q-55 0 -92.5 37.5t-37.5 92.5zM148 -239q0 53 39 91t92 38q50 0 88 -38t38 -91t-38 -90.5t-88 -37.5q-53 0 -92 37.5t-39 90.5zM162 0v1062h227v-1062h-227z" />
<glyph unicode="&#x1ecc;" horiz-adv-x="1826" d="M99 772q0 237 106.5 420.5t292.5 285t416 101.5t415.5 -101.5t291.5 -285t106 -420.5q0 -236 -106 -420t-291.5 -284.5t-415.5 -100.5t-416 100.5t-292.5 284.5t-106.5 420zM327 772q0 -181 77.5 -317t211.5 -210t298 -74q163 0 297 74t211.5 210t77.5 317 q0 179 -76.5 315.5t-209.5 210.5t-296 74q-166 0 -299.5 -73t-212.5 -210.5t-79 -316.5zM785 -239q0 53 39 91t92 38q51 0 88.5 -38t37.5 -91t-37.5 -90.5t-88.5 -37.5q-53 0 -92 37.5t-39 90.5z" />
<glyph unicode="&#x1ecd;" horiz-adv-x="1408" d="M99 528q0 171 75 299.5t212.5 198t316.5 69.5t316.5 -69.5t213.5 -198t76 -299.5q0 -173 -76 -299.5t-213.5 -194t-316.5 -67.5t-315 67.5t-212.5 194.5t-76.5 299zM327 528q0 -173 102 -278.5t274 -105.5q173 0 274.5 106t101.5 278q0 179 -101.5 283.5t-274.5 104.5 t-274.5 -104.5t-101.5 -283.5zM575 -239q0 53 38.5 91t91.5 38q51 0 89 -38t38 -91t-38 -90.5t-89 -37.5q-53 0 -91.5 37.5t-38.5 90.5z" />
<glyph unicode="&#x1ece;" horiz-adv-x="1826" d="M99 772q0 237 106.5 420.5t292.5 285t416 101.5t415.5 -101.5t291.5 -285t106 -420.5q0 -236 -106 -420t-291.5 -284.5t-415.5 -100.5t-416 100.5t-292.5 284.5t-106.5 420zM327 772q0 -181 77.5 -317t211.5 -210t298 -74q163 0 297 74t211.5 210t77.5 317 q0 179 -76.5 315.5t-209.5 210.5t-296 74q-166 0 -299.5 -73t-212.5 -210.5t-79 -316.5zM730 1988v122q36 11 89 19.5t103 8.5q142 0 216 -58t74 -155q0 -83 -53 -139t-150 -70v-74h-197v156q104 0 153.5 27.5t49.5 90.5q0 51 -34 74t-112 23q-29 0 -74 -8t-65 -17z" />
<glyph unicode="&#x1ecf;" horiz-adv-x="1408" d="M99 528q0 171 75 299.5t212.5 198t316.5 69.5t316.5 -69.5t213.5 -198t76 -299.5q0 -173 -76 -299.5t-213.5 -194t-316.5 -67.5t-315 67.5t-212.5 194.5t-76.5 299zM327 528q0 -173 102 -278.5t274 -105.5q173 0 274.5 106t101.5 278q0 179 -101.5 283.5t-274.5 104.5 t-274.5 -104.5t-101.5 -283.5zM524 1530v122q35 11 88 19.5t105 8.5q142 0 216 -58t74 -155q0 -82 -53 -138.5t-152 -70.5v-74h-196v156q104 0 154 27.5t50 90.5q0 51 -34.5 74t-112.5 23q-29 0 -74 -8t-65 -17z" />
<glyph unicode="&#x1ed0;" horiz-adv-x="1826" d="M99 772q0 237 106.5 420.5t292.5 285t416 101.5t415.5 -101.5t291.5 -285t106 -420.5q0 -236 -106 -420t-291.5 -284.5t-415.5 -100.5t-416 100.5t-292.5 284.5t-106.5 420zM327 772q0 -181 77.5 -317t211.5 -210t298 -74q163 0 297 74t211.5 210t77.5 317 q0 179 -76.5 315.5t-209.5 210.5t-296 74q-166 0 -299.5 -73t-212.5 -210.5t-79 -316.5zM538 1639l304 321h190l306 -321h-219l-182 199l-181 -199h-218zM1184 1862l145 274h201l-175 -274h-171z" />
<glyph unicode="&#x1ed1;" horiz-adv-x="1408" d="M99 528q0 171 75 299.5t212.5 198t316.5 69.5t316.5 -69.5t213.5 -198t76 -299.5q0 -173 -76 -299.5t-213.5 -194t-316.5 -67.5t-315 67.5t-212.5 194.5t-76.5 299zM310 1182l305 320h190l305 -320h-219l-181 198l-182 -198h-218zM327 528q0 -173 102 -278.5t274 -105.5 q173 0 274.5 106t101.5 278q0 179 -101.5 283.5t-274.5 104.5t-274.5 -104.5t-101.5 -283.5zM956 1404l146 274h200l-174 -274h-172z" />
<glyph unicode="&#x1ed2;" horiz-adv-x="1826" d="M99 772q0 237 106.5 420.5t292.5 285t416 101.5t415.5 -101.5t291.5 -285t106 -420.5q0 -236 -106 -420t-291.5 -284.5t-415.5 -100.5t-416 100.5t-292.5 284.5t-106.5 420zM325 2136h201l147 -274h-173zM327 772q0 -181 77.5 -317t211.5 -210t298 -74q163 0 297 74 t211.5 210t77.5 317q0 179 -76.5 315.5t-209.5 210.5t-296 74q-166 0 -299.5 -73t-212.5 -210.5t-79 -316.5zM517 1639l306 321h190l306 -321h-220l-181 199l-181 -199h-220z" />
<glyph unicode="&#x1ed3;" horiz-adv-x="1408" d="M99 528q0 171 75 299.5t212.5 198t316.5 69.5t316.5 -69.5t213.5 -198t76 -299.5q0 -173 -76 -299.5t-213.5 -194t-316.5 -67.5t-315 67.5t-212.5 194.5t-76.5 299zM126 1678h201l146 -274h-172zM319 1182l305 320h190l305 -320h-218l-182 198l-181 -198h-219zM327 528 q0 -173 102 -278.5t274 -105.5q173 0 274.5 106t101.5 278q0 179 -101.5 283.5t-274.5 104.5t-274.5 -104.5t-101.5 -283.5z" />
<glyph unicode="&#x1ed4;" horiz-adv-x="1826" d="M99 772q0 237 106.5 420.5t292.5 285t416 101.5t415.5 -101.5t291.5 -285t106 -420.5q0 -236 -106 -420t-291.5 -284.5t-415.5 -100.5t-416 100.5t-292.5 284.5t-106.5 420zM327 772q0 -181 77.5 -317t211.5 -210t298 -74q163 0 297 74t211.5 210t77.5 317 q0 179 -76.5 315.5t-209.5 210.5t-296 74q-166 0 -299.5 -73t-212.5 -210.5t-79 -316.5zM524 1639l305 321h191l305 -321h-219l-182 199l-181 -199h-219zM1117 2075v95q71 21 146 22q95 0 148 -41t53 -110q0 -55 -38.5 -95t-106.5 -48v-56h-142v111q66 0 98 17.5t32 57.5 q0 34 -23.5 49t-71.5 15q-60 0 -95 -17z" />
<glyph unicode="&#x1ed5;" horiz-adv-x="1408" d="M99 528q0 171 75 299.5t212.5 198t316.5 69.5t316.5 -69.5t213.5 -198t76 -299.5q0 -173 -76 -299.5t-213.5 -194t-316.5 -67.5t-315 67.5t-212.5 194.5t-76.5 299zM310 1182l305 320h190l305 -320h-219l-181 198l-182 -198h-218zM327 528q0 -173 102 -278.5t274 -105.5 q173 0 274.5 106t101.5 278q0 179 -101.5 283.5t-274.5 104.5t-274.5 -104.5t-101.5 -283.5zM903 1617v95q71 21 146 22q95 0 148 -41t53 -110q0 -55 -39 -95t-107 -48v-55h-142v110q66 0 98.5 17.5t32.5 57.5q0 34 -23 49t-72 15q-59 0 -95 -17z" />
<glyph unicode="&#x1ed6;" horiz-adv-x="1826" d="M99 772q0 237 106.5 420.5t292.5 285t416 101.5t415.5 -101.5t291.5 -285t106 -420.5q0 -236 -106 -420t-291.5 -284.5t-415.5 -100.5t-416 100.5t-292.5 284.5t-106.5 420zM327 772q0 -181 77.5 -317t211.5 -210t298 -74q163 0 297 74t211.5 210t77.5 317 q0 179 -76.5 315.5t-209.5 210.5t-296 74q-166 0 -299.5 -73t-212.5 -210.5t-79 -316.5zM562 2003v167q55 80 179 80q42 0 81 -12.5t96 -36.5q55 -25 93 -37t75 -12q111 0 179 98v-167q-53 -77 -179 -76q-44 0 -84 11.5t-101 38.5q-55 22 -88.5 33.5t-71.5 11.5 q-53 0 -96 -22.5t-83 -76.5zM595 1944h163q0 -73 42 -113.5t118 -40.5t117.5 41t41.5 113h166q0 -135 -87.5 -218.5t-237.5 -83.5q-148 0 -235.5 82.5t-87.5 219.5z" />
<glyph unicode="&#x1ed7;" horiz-adv-x="1408" d="M99 528q0 171 75 299.5t212.5 198t316.5 69.5t316.5 -69.5t213.5 -198t76 -299.5q0 -173 -76 -299.5t-213.5 -194t-316.5 -67.5t-315 67.5t-212.5 194.5t-76.5 299zM327 528q0 -173 102 -278.5t274 -105.5q173 0 274.5 106t101.5 278q0 179 -101.5 283.5t-274.5 104.5 t-274.5 -104.5t-101.5 -283.5zM354 1547v165q55 80 180 80q42 0 80 -12.5t96 -36.5q55 -25 92.5 -36.5t75.5 -11.5q110 0 179 97v-167q-53 -77 -179 -76q-44 0 -84 11.5t-102 38.5q-55 22 -88.5 33.5t-69.5 11.5q-53 0 -96.5 -22.5t-83.5 -74.5zM387 1486h164 q0 -73 42 -113.5t117 -40.5t117 41t42 113h166q0 -135 -87 -218.5t-238 -83.5q-148 0 -235.5 82.5t-87.5 219.5z" />
<glyph unicode="&#x1ed8;" horiz-adv-x="1826" d="M99 772q0 237 106.5 420.5t292.5 285t416 101.5t415.5 -101.5t291.5 -285t106 -420.5q0 -236 -106 -420t-291.5 -284.5t-415.5 -100.5t-416 100.5t-292.5 284.5t-106.5 420zM327 772q0 -181 77.5 -317t211.5 -210t298 -74q163 0 297 74t211.5 210t77.5 317 q0 179 -76.5 315.5t-209.5 210.5t-296 74q-166 0 -299.5 -73t-212.5 -210.5t-79 -316.5zM500 1639l314 368h197l314 -368h-226l-185 237l-186 -237h-228zM785 -239q0 53 39 91t92 38q51 0 88.5 -38t37.5 -91t-37.5 -90.5t-88.5 -37.5q-53 0 -92 37.5t-39 90.5z" />
<glyph unicode="&#x1ed9;" horiz-adv-x="1408" d="M99 528q0 171 75 299.5t212.5 198t316.5 69.5t316.5 -69.5t213.5 -198t76 -299.5q0 -173 -76 -299.5t-213.5 -194t-316.5 -67.5t-315 67.5t-212.5 194.5t-76.5 299zM292 1182l314 367h196l315 -367h-226l-186 236l-186 -236h-227zM327 528q0 -173 102 -278.5t274 -105.5 q173 0 274.5 106t101.5 278q0 179 -101.5 283.5t-274.5 104.5t-274.5 -104.5t-101.5 -283.5zM575 -239q0 53 38.5 91t91.5 38q51 0 89 -38t38 -91t-38 -90.5t-89 -37.5q-53 0 -91.5 37.5t-38.5 90.5z" />
<glyph unicode="&#x1eda;" horiz-adv-x="1912" d="M99 772q0 237 106.5 420.5t292.5 285t416 101.5q162 0 304.5 -52t250.5 -147q101 2 146.5 47.5t45.5 144.5v80h208v-90q0 -125 -71 -221t-190 -127q120 -197 119 -442q0 -236 -106 -420t-291.5 -284.5t-415.5 -100.5t-416 100.5t-292.5 284.5t-106.5 420zM334 772 q0 -179 77.5 -314t209 -208t293.5 -73q161 0 292.5 73t209 208t77.5 314q0 177 -75.5 311.5t-207 208t-292.5 73.5q-164 0 -296.5 -73.5t-210 -208t-77.5 -311.5zM821 1639l150 381h236l-183 -381h-203z" />
<glyph unicode="&#x1edb;" horiz-adv-x="1503" d="M99 528q0 171 75 299.5t212.5 198t316.5 69.5q122 0 227 -33.5t182 -97.5q82 16 123.5 64.5t41.5 126.5v79h183v-90q0 -108 -62 -193.5t-168 -121.5q80 -130 79 -301q0 -173 -76 -299.5t-213.5 -194t-316.5 -67.5t-315 67.5t-212.5 194.5t-76.5 299zM327 528 q0 -173 102 -278.5t274 -105.5q173 0 274.5 106t101.5 278q0 179 -101.5 283.5t-274.5 104.5t-274.5 -104.5t-101.5 -283.5zM582 1182l150 380h237l-184 -380h-203z" />
<glyph unicode="&#x1edc;" horiz-adv-x="1912" d="M99 772q0 237 106.5 420.5t292.5 285t416 101.5q162 0 304.5 -52t250.5 -147q101 2 146.5 47.5t45.5 144.5v80h208v-90q0 -125 -71 -221t-190 -127q120 -197 119 -442q0 -236 -106 -420t-291.5 -284.5t-415.5 -100.5t-416 100.5t-292.5 284.5t-106.5 420zM334 772 q0 -179 77.5 -314t209 -208t293.5 -73q161 0 292.5 73t209 208t77.5 314q0 177 -75.5 311.5t-207 208t-292.5 73.5q-164 0 -296.5 -73.5t-210 -208t-77.5 -311.5zM617 2020h237l153 -381h-207z" />
<glyph unicode="&#x1edd;" horiz-adv-x="1503" d="M99 528q0 171 75 299.5t212.5 198t316.5 69.5q122 0 227 -33.5t182 -97.5q82 16 123.5 64.5t41.5 126.5v79h183v-90q0 -108 -62 -193.5t-168 -121.5q80 -130 79 -301q0 -173 -76 -299.5t-213.5 -194t-316.5 -67.5t-315 67.5t-212.5 194.5t-76.5 299zM327 528 q0 -173 102 -278.5t274 -105.5q173 0 274.5 106t101.5 278q0 179 -101.5 283.5t-274.5 104.5t-274.5 -104.5t-101.5 -283.5zM414 1562h236l152 -380h-205z" />
<glyph unicode="&#x1ede;" horiz-adv-x="1912" d="M99 772q0 237 106.5 420.5t292.5 285t416 101.5q162 0 304.5 -52t250.5 -147q101 2 146.5 47.5t45.5 144.5v80h208v-90q0 -125 -71 -221t-190 -127q120 -197 119 -442q0 -236 -106 -420t-291.5 -284.5t-415.5 -100.5t-416 100.5t-292.5 284.5t-106.5 420zM334 772 q0 -179 77.5 -314t209 -208t293.5 -73q161 0 292.5 73t209 208t77.5 314q0 177 -75.5 311.5t-207 208t-292.5 73.5q-164 0 -296.5 -73.5t-210 -208t-77.5 -311.5zM734 1988v122q36 11 89 19.5t104 8.5q141 0 215 -58t74 -155q0 -83 -53 -139t-150 -70v-74h-197v156 q104 0 154 27.5t50 90.5q0 51 -34.5 74t-111.5 23q-29 0 -74.5 -8t-65.5 -17z" />
<glyph unicode="&#x1edf;" horiz-adv-x="1503" d="M99 528q0 171 75 299.5t212.5 198t316.5 69.5q122 0 227 -33.5t182 -97.5q82 16 123.5 64.5t41.5 126.5v79h183v-90q0 -108 -62 -193.5t-168 -121.5q80 -130 79 -301q0 -173 -76 -299.5t-213.5 -194t-316.5 -67.5t-315 67.5t-212.5 194.5t-76.5 299zM327 528 q0 -173 102 -278.5t274 -105.5q173 0 274.5 106t101.5 278q0 179 -101.5 283.5t-274.5 104.5t-274.5 -104.5t-101.5 -283.5zM509 1530v122q35 11 88 19.5t104 8.5q141 0 215.5 -58t74.5 -155q0 -82 -53 -138.5t-151 -70.5v-74h-196v156q103 0 153 27.5t50 90.5q0 51 -34 74 t-112 23q-29 0 -74.5 -8t-64.5 -17z" />
<glyph unicode="&#x1ee0;" horiz-adv-x="1912" d="M99 772q0 237 106.5 420.5t292.5 285t416 101.5q162 0 304.5 -52t250.5 -147q101 2 146.5 47.5t45.5 144.5v80h208v-90q0 -125 -71 -221t-190 -127q120 -197 119 -442q0 -236 -106 -420t-291.5 -284.5t-415.5 -100.5t-416 100.5t-292.5 284.5t-106.5 420zM334 772 q0 -179 77.5 -314t209 -208t293.5 -73q161 0 292.5 73t209 208t77.5 314q0 177 -75.5 311.5t-207 208t-292.5 73.5q-164 0 -296.5 -73.5t-210 -208t-77.5 -311.5zM534 1642v190q68 95 216 95q48 0 93.5 -13.5t116.5 -41.5q60 -27 105 -42t94 -15q66 0 119.5 26t95.5 88v-190 q-66 -93 -215 -93q-55 0 -105 14t-114 43q-64 27 -104 40t-86 13q-64 0 -117 -25.5t-99 -88.5z" />
<glyph unicode="&#x1ee1;" horiz-adv-x="1503" d="M99 528q0 171 75 299.5t212.5 198t316.5 69.5q122 0 227 -33.5t182 -97.5q82 16 123.5 64.5t41.5 126.5v79h183v-90q0 -108 -62 -193.5t-168 -121.5q80 -130 79 -301q0 -173 -76 -299.5t-213.5 -194t-316.5 -67.5t-315 67.5t-212.5 194.5t-76.5 299zM279 1197v190 q68 95 217 95q48 0 93.5 -13t115.5 -42q60 -27 105.5 -41t94.5 -14q66 0 119 25t95 87v-190q-66 -93 -214 -93q-55 0 -105 14.5t-114 42.5q-64 27 -104 40t-86 13q-64 0 -117.5 -25.5t-99.5 -88.5zM327 528q0 -173 102 -278.5t274 -105.5q173 0 274.5 106t101.5 278 q0 179 -101.5 283.5t-274.5 104.5t-274.5 -104.5t-101.5 -283.5z" />
<glyph unicode="&#x1ee2;" horiz-adv-x="1912" d="M99 772q0 237 106.5 420.5t292.5 285t416 101.5q162 0 304.5 -52t250.5 -147q101 2 146.5 47.5t45.5 144.5v80h208v-90q0 -125 -71 -221t-190 -127q120 -197 119 -442q0 -236 -106 -420t-291.5 -284.5t-415.5 -100.5t-416 100.5t-292.5 284.5t-106.5 420zM334 772 q0 -179 77.5 -314t209 -208t293.5 -73q161 0 292.5 73t209 208t77.5 314q0 177 -75.5 311.5t-207 208t-292.5 73.5q-164 0 -296.5 -73.5t-210 -208t-77.5 -311.5zM779 -239q0 53 38.5 91t91.5 38q51 0 88.5 -38t37.5 -91t-37.5 -90.5t-88.5 -37.5q-53 0 -91.5 37.5 t-38.5 90.5z" />
<glyph unicode="&#x1ee3;" horiz-adv-x="1503" d="M99 528q0 171 75 299.5t212.5 198t316.5 69.5q122 0 227 -33.5t182 -97.5q82 16 123.5 64.5t41.5 126.5v79h183v-90q0 -108 -62 -193.5t-168 -121.5q80 -130 79 -301q0 -173 -76 -299.5t-213.5 -194t-316.5 -67.5t-315 67.5t-212.5 194.5t-76.5 299zM327 528 q0 -173 102 -278.5t274 -105.5q173 0 274.5 106t101.5 278q0 179 -101.5 283.5t-274.5 104.5t-274.5 -104.5t-101.5 -283.5zM566 -239q0 53 39 91t92 38q50 0 88 -38t38 -91t-38 -90.5t-88 -37.5q-53 0 -92 37.5t-39 90.5z" />
<glyph unicode="&#x1ee4;" horiz-adv-x="1541" d="M133 578v969h226v-979q0 -196 110.5 -296.5t302.5 -100.5q190 0 301 100.5t111 296.5v979h225v-969q0 -283 -161.5 -447t-475.5 -164q-316 0 -477.5 162.5t-161.5 448.5zM642 -239q0 53 38.5 91t91.5 38q51 0 88 -38t37 -91t-37 -90.5t-88 -37.5q-53 0 -91.5 37.5 t-38.5 90.5z" />
<glyph unicode="&#x1ee5;" horiz-adv-x="1326" d="M133 389v673h223v-663q0 -255 254 -255q224 0 350 201v717h224v-1062h-217v150q-76 -95 -178.5 -139t-222.5 -44q-214 0 -323.5 115t-109.5 307zM513 -239q0 53 39 91t92 38q50 0 88 -38t38 -91t-38 -90.5t-88 -37.5q-53 0 -92 37.5t-39 90.5z" />
<glyph unicode="&#x1ee6;" horiz-adv-x="1541" d="M133 578v969h226v-979q0 -196 110.5 -296.5t302.5 -100.5q190 0 301 100.5t111 296.5v979h225v-969q0 -283 -161.5 -447t-475.5 -164q-316 0 -477.5 162.5t-161.5 448.5zM568 1988v122q36 11 89 19.5t104 8.5q142 0 216 -58t74 -155q0 -83 -53.5 -139t-150.5 -70v-74 h-197v156q104 0 154 27.5t50 90.5q0 51 -34.5 74t-112.5 23q-29 0 -73.5 -8t-65.5 -17z" />
<glyph unicode="&#x1ee7;" horiz-adv-x="1326" d="M133 389v673h223v-663q0 -255 254 -255q224 0 350 201v717h224v-1062h-217v150q-76 -95 -178.5 -139t-222.5 -44q-214 0 -323.5 115t-109.5 307zM454 1530v122q35 11 88 19.5t104 8.5q141 0 215 -58t74 -155q0 -82 -53 -138.5t-150 -70.5v-74h-196v156q103 0 153 27.5 t50 90.5q0 51 -34 74t-112 23q-29 0 -74.5 -8t-64.5 -17z" />
<glyph unicode="&#x1ee8;" horiz-adv-x="1857" d="M133 578v969h232v-979q0 -196 107.5 -293.5t299.5 -97.5q190 0 297.5 97.5t107.5 293.5v979h232v-167q108 0 152.5 44.5t44.5 147.5v80h207v-90q0 -157 -103.5 -259t-300.5 -102v-623q0 -283 -161.5 -447t-475.5 -164q-316 0 -477.5 162.5t-161.5 448.5zM657 1639 l151 381h236l-183 -381h-204z" />
<glyph unicode="&#x1ee9;" horiz-adv-x="1594" d="M133 384v678h223v-657q0 -261 254 -261q106 0 195.5 49.5t154.5 151.5v717h224v-102q88 4 135.5 54t47.5 134v86h184v-90q0 -142 -99 -236t-268 -98v-810h-217v157q-78 -100 -184 -145t-224 -45q-214 0 -320 113.5t-106 303.5zM536 1182l150 380h236l-183 -380h-203z" />
<glyph unicode="&#x1eea;" horiz-adv-x="1857" d="M133 578v969h232v-979q0 -196 107.5 -293.5t299.5 -97.5q190 0 297.5 97.5t107.5 293.5v979h232v-167q108 0 152.5 44.5t44.5 147.5v80h207v-90q0 -157 -103.5 -259t-300.5 -102v-623q0 -283 -161.5 -447t-475.5 -164q-316 0 -477.5 162.5t-161.5 448.5zM502 2020h237 l152 -381h-205z" />
<glyph unicode="&#x1eeb;" horiz-adv-x="1594" d="M133 384v678h223v-657q0 -261 254 -261q106 0 195.5 49.5t154.5 151.5v717h224v-102q88 4 135.5 54t47.5 134v86h184v-90q0 -142 -99 -236t-268 -98v-810h-217v157q-78 -100 -184 -145t-224 -45q-214 0 -320 113.5t-106 303.5zM376 1562h236l154 -380h-207z" />
<glyph unicode="&#x1eec;" horiz-adv-x="1857" d="M133 578v969h232v-979q0 -196 107.5 -293.5t299.5 -97.5q190 0 297.5 97.5t107.5 293.5v979h232v-167q108 0 152.5 44.5t44.5 147.5v80h207v-90q0 -157 -103.5 -259t-300.5 -102v-623q0 -283 -161.5 -447t-475.5 -164q-316 0 -477.5 162.5t-161.5 448.5zM578 1988v122 q35 11 88 19.5t104 8.5q142 0 215.5 -58t73.5 -155q0 -83 -52.5 -139t-150.5 -70v-74h-197v156q103 0 153.5 27.5t50.5 90.5q0 51 -34.5 74t-111.5 23q-29 0 -74.5 -8t-64.5 -17z" />
<glyph unicode="&#x1eed;" horiz-adv-x="1594" d="M133 384v678h223v-657q0 -261 254 -261q106 0 195.5 49.5t154.5 151.5v717h224v-102q88 4 135.5 54t47.5 134v86h184v-90q0 -142 -99 -236t-268 -98v-810h-217v157q-78 -100 -184 -145t-224 -45q-214 0 -320 113.5t-106 303.5zM462 1530v122q36 11 89 19.5t103 8.5 q142 0 216 -58t74 -155q0 -82 -53 -138.5t-150 -70.5v-74h-197v156q104 0 153.5 27.5t49.5 90.5q0 51 -34 74t-111 23q-30 0 -75 -8t-65 -17z" />
<glyph unicode="&#x1eee;" horiz-adv-x="1857" d="M133 578v969h232v-979q0 -196 107.5 -293.5t299.5 -97.5q190 0 297.5 97.5t107.5 293.5v979h232v-167q108 0 152.5 44.5t44.5 147.5v80h207v-90q0 -157 -103.5 -259t-300.5 -102v-623q0 -283 -161.5 -447t-475.5 -164q-316 0 -477.5 162.5t-161.5 448.5zM367 1642v190 q68 95 217 95q49 0 94.5 -13.5t115.5 -41.5q59 -27 104.5 -42t95.5 -15q65 0 118 26t95 88v-190q-65 -93 -213 -93q-55 0 -105.5 14t-114.5 43q-63 27 -103 40t-87 13q-63 0 -116.5 -25.5t-100.5 -88.5z" />
<glyph unicode="&#x1eef;" horiz-adv-x="1594" d="M133 384v678h223v-657q0 -261 254 -261q106 0 195.5 49.5t154.5 151.5v717h224v-102q88 4 135.5 54t47.5 134v86h184v-90q0 -142 -99 -236t-268 -98v-810h-217v157q-78 -100 -184 -145t-224 -45q-214 0 -320 113.5t-106 303.5zM245 1184v190q68 95 217 95 q49 0 94.5 -13.5t116.5 -41.5q59 -27 104.5 -41.5t94.5 -14.5q65 0 118.5 25.5t95.5 87.5v-190q-65 -93 -214 -93q-56 0 -105.5 14t-114.5 43q-63 27 -103 40t-87 13q-63 0 -116.5 -25.5t-100.5 -88.5z" />
<glyph unicode="&#x1ef0;" horiz-adv-x="1857" d="M133 578v969h232v-979q0 -196 107.5 -293.5t299.5 -97.5q190 0 297.5 97.5t107.5 293.5v979h232v-167q108 0 152.5 44.5t44.5 147.5v80h207v-90q0 -157 -103.5 -259t-300.5 -102v-623q0 -283 -161.5 -447t-475.5 -164q-316 0 -477.5 162.5t-161.5 448.5zM635 -239 q0 53 38.5 91t92.5 38q50 0 87.5 -38t37.5 -91t-37.5 -90.5t-87.5 -37.5q-54 0 -92.5 37.5t-38.5 90.5z" />
<glyph unicode="&#x1ef1;" horiz-adv-x="1594" d="M133 384v678h223v-657q0 -261 254 -261q106 0 195.5 49.5t154.5 151.5v717h224v-102q88 4 135.5 54t47.5 134v86h184v-90q0 -142 -99 -236t-268 -98v-810h-217v157q-78 -100 -184 -145t-224 -45q-214 0 -320 113.5t-106 303.5zM522 -239q0 53 38.5 91t91.5 38 q51 0 89 -38t38 -91t-38 -90.5t-89 -37.5q-53 0 -91.5 37.5t-38.5 90.5z" />
<glyph unicode="&#x1ef2;" horiz-adv-x="1547" d="M99 1547h241l432 -747l438 747h238l-568 -961v-586h-219v586zM491 2020h237l152 -381h-205z" />
<glyph unicode="&#x1ef3;" horiz-adv-x="1298" d="M99 1062h230l355 -817l329 817h230l-477 -1182q-66 -166 -158.5 -242t-238.5 -76q-118 0 -198 24v175q57 -21 141 -22q78 0 121.5 38.5t79.5 125.5l51 124zM399 1562h236l152 -380h-205z" />
<glyph unicode="&#x1ef4;" horiz-adv-x="1547" d="M99 1547h241l432 -747l438 747h238l-568 -961v-586h-219v586zM644 -239q0 53 38.5 91t91.5 38q51 0 89 -38t38 -91t-38 -90.5t-89 -37.5q-53 0 -91.5 37.5t-38.5 90.5z" />
<glyph unicode="&#x1ef5;" horiz-adv-x="1298" d="M99 1062h230l355 -817l329 817h230l-477 -1182q-66 -166 -158.5 -242t-238.5 -76q-118 0 -198 24v175q57 -21 141 -22q78 0 121.5 38.5t79.5 125.5l51 124zM842 -232q0 53 39 90.5t92 37.5q51 0 88.5 -37.5t37.5 -90.5t-37.5 -91t-88.5 -38q-53 0 -92 38t-39 91z" />
<glyph unicode="&#x1ef6;" horiz-adv-x="1547" d="M99 1547h241l432 -747l438 747h238l-568 -961v-586h-219v586zM578 1988v122q35 11 88 19.5t104 8.5q142 0 215.5 -58t73.5 -155q0 -83 -52.5 -139t-150.5 -70v-74h-197v156q103 0 153.5 27.5t50.5 90.5q0 51 -34.5 74t-111.5 23q-29 0 -74.5 -8t-64.5 -17z" />
<glyph unicode="&#x1ef7;" horiz-adv-x="1298" d="M99 1062h230l355 -817l329 817h230l-477 -1182q-66 -166 -158.5 -242t-238.5 -76q-118 0 -198 24v175q57 -21 141 -22q78 0 121.5 38.5t79.5 125.5l51 124zM482 1530v122q35 11 88.5 19.5t104.5 8.5q141 0 215 -58t74 -155q0 -82 -52.5 -138.5t-150.5 -70.5v-74h-197v156 q103 0 153.5 27.5t50.5 90.5q0 51 -34.5 74t-112.5 23q-29 0 -74 -8t-65 -17z" />
<glyph unicode="&#x1ef8;" horiz-adv-x="1547" d="M99 1547h241l432 -747l438 747h238l-568 -961v-586h-219v586zM352 1642v190q68 95 216 95q49 0 94 -13.5t117 -41.5q59 -27 104.5 -42t93.5 -15q66 0 119.5 26t95.5 88v-190q-66 -93 -215 -93q-55 0 -104.5 14t-114.5 43q-64 27 -103.5 40t-86.5 13q-64 0 -116.5 -25.5 t-99.5 -88.5z" />
<glyph unicode="&#x1ef9;" horiz-adv-x="1298" d="M99 1062h230l355 -817l329 817h230l-477 -1182q-66 -166 -158.5 -242t-238.5 -76q-118 0 -198 24v175q57 -21 141 -22q78 0 121.5 38.5t79.5 125.5l51 124zM264 1184v190q68 95 216 95q48 0 93.5 -13.5t116.5 -41.5q60 -27 105 -41.5t94 -14.5q66 0 119.5 25.5t95.5 87.5 v-190q-66 -93 -215 -93q-55 0 -105 14t-113 43q-64 27 -104.5 40t-86.5 13q-64 0 -117 -25.5t-99 -88.5z" />
<glyph unicode="&#x2000;" horiz-adv-x="1173" />
<glyph unicode="&#x2001;" horiz-adv-x="2347" />
<glyph unicode="&#x2002;" horiz-adv-x="1173" />
<glyph unicode="&#x2003;" horiz-adv-x="2347" />
<glyph unicode="&#x2004;" horiz-adv-x="782" />
<glyph unicode="&#x2005;" horiz-adv-x="586" />
<glyph unicode="&#x2006;" horiz-adv-x="391" />
<glyph unicode="&#x2007;" />
<glyph unicode="&#x2008;" horiz-adv-x="293" />
<glyph unicode="&#x2009;" horiz-adv-x="469" />
<glyph unicode="&#x200a;" horiz-adv-x="130" />
<glyph unicode="&#x2010;" horiz-adv-x="977" d="M99 555v184h779v-184h-779z" />
<glyph unicode="&#x2011;" horiz-adv-x="903" d="M99 566v184h706v-184h-706z" />
<glyph unicode="&#x2012;" horiz-adv-x="1505" d="M99 555v184h1308v-184h-1308z" />
<glyph unicode="&#x2013;" horiz-adv-x="1428" d="M99 566v184h1230v-184h-1230z" />
<glyph unicode="&#x2014;" horiz-adv-x="1748" d="M99 566v184h1551v-184h-1551z" />
<glyph unicode="&#x2015;" horiz-adv-x="2239" d="M99 555v184h2042v-184h-2042z" />
<glyph unicode="&#x2018;" horiz-adv-x="559" d="M99 1148l173 431h188l-146 -431h-215z" />
<glyph unicode="&#x2019;" horiz-adv-x="565" d="M99 1148l146 431h222l-175 -431h-193z" />
<glyph unicode="&#x201a;" horiz-adv-x="565" d="M99 -274l146 431h222l-175 -431h-193z" />
<glyph unicode="&#x201c;" horiz-adv-x="906" d="M99 1148l175 431h182l-148 -431h-209zM451 1148l175 431h182l-147 -431h-210z" />
<glyph unicode="&#x201d;" horiz-adv-x="906" d="M99 1148l146 431h211l-175 -431h-182zM451 1148l146 431h211l-175 -431h-182z" />
<glyph unicode="&#x201e;" horiz-adv-x="906" d="M99 -274l146 431h211l-175 -431h-182zM451 -274l146 431h211l-175 -431h-182z" />
<glyph unicode="&#x2020;" horiz-adv-x="1184" d="M99 962v188h381v397h225v-397h381v-188h-381v-1116h-225v1116h-381z" />
<glyph unicode="&#x2021;" horiz-adv-x="1184" d="M99 365v190h381v436h-381v191h381v365h225v-365h381v-191h-381v-436h381v-190h-381v-365h-225v365h-381z" />
<glyph unicode="&#x2022;" horiz-adv-x="585" d="M99 657q0 82 56 138t137 56q82 0 138.5 -56t56.5 -138t-56.5 -137.5t-138.5 -55.5q-81 0 -137 55.5t-56 137.5z" />
<glyph unicode="&#x2026;" horiz-adv-x="1296" d="M99 104q0 44 30 75.5t74 31.5t75.5 -31.5t31.5 -75.5q0 -45 -31.5 -74.5t-75.5 -29.5t-74 29.5t-30 74.5zM542 104q0 44 30 75.5t74 31.5t76 -31.5t32 -75.5q0 -45 -32 -74.5t-76 -29.5t-74 29.5t-30 74.5zM986 104q0 44 30.5 75.5t74.5 31.5t75 -31.5t31 -75.5 q0 -45 -31 -74.5t-75 -29.5t-74.5 29.5t-30.5 74.5z" />
<glyph unicode="&#x202f;" horiz-adv-x="469" />
<glyph unicode="&#x2030;" horiz-adv-x="2850" d="M99 1172q0 110 54.5 204.5t147.5 148.5t203 54q111 0 204.5 -54t148.5 -148t55 -205q0 -110 -55 -203t-148.5 -147t-204.5 -54q-110 0 -203 54t-147.5 147t-54.5 203zM268 1167q0 -99 67.5 -167.5t168.5 -68.5q102 0 169.5 68.5t67.5 167.5q0 102 -67.5 171t-169.5 69 q-101 0 -168.5 -68.5t-67.5 -171.5zM438 0l856 1547h219l-856 -1547h-219zM1040 372q0 110 54 204.5t147 148.5t203 54t204.5 -54t148.5 -148.5t54 -204.5q0 -111 -54 -203.5t-148 -147t-205 -54.5q-110 0 -203 54.5t-147 147t-54 203.5zM1205 367q0 -99 68.5 -167.5 t168.5 -68.5q102 0 170 68.5t68 167.5q0 102 -68 170.5t-170 68.5q-100 0 -168.5 -68.5t-68.5 -170.5zM1940 372q0 110 54 204.5t146.5 148.5t204.5 54q110 0 204 -54t148.5 -148.5t54.5 -204.5q0 -111 -54.5 -203.5t-148.5 -147t-204 -54.5q-112 0 -204.5 54.5t-146.5 147 t-54 203.5zM2106 367q0 -99 68.5 -167.5t168.5 -68.5q101 0 169.5 68.5t68.5 167.5q0 102 -68.5 170.5t-169.5 68.5q-100 0 -168.5 -68.5t-68.5 -170.5z" />
<glyph unicode="&#x2032;" horiz-adv-x="388" d="M99 1133v414h190v-414h-190z" />
<glyph unicode="&#x2033;" horiz-adv-x="760" d="M99 1133v414h190v-414h-190zM471 1133v414h190v-414h-190z" />
<glyph unicode="&#x2039;" horiz-adv-x="821" d="M99 681v66l513 437l112 -142l-390 -327l390 -326l-112 -142z" />
<glyph unicode="&#x203a;" horiz-adv-x="821" d="M99 389l390 326l-390 327l112 142l513 -437v-66l-513 -434z" />
<glyph unicode="&#x2044;" horiz-adv-x="555" d="M-266 -33l852 1612h235l-852 -1612h-235z" />
<glyph unicode="&#x205f;" horiz-adv-x="586" />
<glyph unicode="&#x2070;" horiz-adv-x="878" d="M99 1182q0 179 90 282.5t249 103.5t250 -103.5t91 -282.5q0 -180 -91 -284t-250 -104q-157 0 -248 104t-91 284zM252 1182q0 -123 50 -185t136 -62t136 62t50 185q0 119 -50 181t-136 62t-136 -62.5t-50 -180.5z" />
<glyph unicode="&#x2074;" horiz-adv-x="733" d="M55 980v117l334 450h186v-443h104v-124h-104v-161h-170v161h-350zM215 1104h212v278z" />
<glyph unicode="&#x2075;" horiz-adv-x="760" d="M99 842v144q40 -25 98 -38t111 -13q95 0 141.5 33.5t46.5 90.5q0 62 -43.5 92.5t-138.5 30.5q-86 0 -155 -25l-47 27l27 363h469v-133h-321l-8 -127q61 13 126 13q126 0 191 -63t65 -178q0 -119 -88 -191t-244 -72q-63 0 -127.5 12.5t-102.5 33.5z" />
<glyph unicode="&#x2076;" horiz-adv-x="808" d="M99 1128q0 212 102 326t272 114q84 0 135 -15v-122q-38 17 -121 17q-194 0 -228 -203q29 36 78.5 56t109.5 20q131 0 197 -71t66 -191q0 -117 -77.5 -190t-223.5 -73q-143 0 -226.5 87.5t-83.5 244.5zM264 1057q0 -66 39 -107t106 -41q71 0 108.5 39.5t37.5 108.5 q0 68 -35 108t-109 40q-65 0 -106 -42t-41 -106z" />
<glyph unicode="&#x2077;" horiz-adv-x="703" d="M78 1414v133h548v-101l-288 -627h-167l272 595h-365z" />
<glyph unicode="&#x2078;" horiz-adv-x="795" d="M99 1013q0 71 39 121t99 63q-53 21 -82 64.5t-29 101.5q0 97 74 151t199 54q124 0 198 -54t74 -151q0 -57 -29.5 -101t-82.5 -65q60 -13 99 -63t39 -121q0 -104 -78.5 -160.5t-219.5 -56.5q-142 0 -221 56.5t-79 160.5zM261 1022q0 -53 37.5 -84t100.5 -31q61 0 99 31 t38 84q0 55 -38 87.5t-99 32.5q-62 0 -100 -32.5t-38 -87.5zM281 1353q0 -46 32 -76t86 -30q52 0 84 30t32 76q0 47 -33 76t-83 29q-51 0 -84.5 -29t-33.5 -76z" />
<glyph unicode="&#x2079;" horiz-adv-x="808" d="M99 1302q0 118 78 192t224 74q143 0 226 -87.5t83 -243.5q0 -215 -101.5 -328t-272.5 -113q-95 1 -135 16v119q40 -15 122 -15q194 0 228 203q-29 -38 -78 -57.5t-110 -19.5q-131 0 -197.5 71t-66.5 189zM255 1307q0 -71 35 -109.5t109 -38.5q65 0 106 41t41 107 q0 64 -39.5 105.5t-105.5 41.5q-72 0 -109 -40t-37 -107z" />
<glyph unicode="&#x207d;" horiz-adv-x="498" d="M99 1182q0 112 32.5 212.5t92.5 173.5h177q-62 -80 -95.5 -180.5t-33.5 -205.5q0 -108 33 -208t96 -178h-177q-60 71 -92.5 171.5t-32.5 214.5z" />
<glyph unicode="&#x207e;" horiz-adv-x="498" d="M99 796q63 78 95 177t32 209q0 105 -32 205.5t-95 180.5h177q60 -73 92.5 -173.5t32.5 -212.5q0 -113 -33.5 -213t-91.5 -173h-177z" />
<glyph unicode="&#x207f;" horiz-adv-x="986" d="M110 796v751h169v-105q55 71 132.5 104t160.5 33q157 0 236 -79.5t79 -212.5v-491h-175v460q0 89 -41.5 136.5t-139.5 47.5q-158 0 -248 -142v-502h-173z" />
<glyph unicode="&#x2080;" horiz-adv-x="878" d="M99 9q0 179 90 283t249 104t250 -104t91 -283q0 -180 -91 -282.5t-250 -102.5q-157 0 -248 104t-91 281zM252 9q0 -120 50 -181.5t136 -61.5t136 62t50 181q0 122 -50 184t-136 62t-136 -62t-50 -184z" />
<glyph unicode="&#x2081;" horiz-adv-x="515" d="M99 62v159l204 153h157v-728h-171v553z" />
<glyph unicode="&#x2082;" horiz-adv-x="753" d="M99 -245l162 139q129 108 172.5 155.5t43.5 104.5q0 95 -118 95q-53 0 -118.5 -18t-107.5 -47v148q42 27 109.5 44.5t124.5 17.5q137 0 209 -65t72 -165q0 -55 -21 -97t-55 -77.5t-112 -99.5l-131 -114h325v-132h-555v111z" />
<glyph unicode="&#x2083;" horiz-adv-x="762" d="M99 -203q45 -22 108 -34t118 -12q162 0 162 99q0 53 -36.5 76t-125.5 23h-101v127h99q144 0 144 95t-148 95q-108 0 -205 -58v130q98 57 251 58q133 0 206 -55.5t73 -152.5q0 -126 -125 -175q144 -29 144 -175q0 -99 -80.5 -156.5t-223.5 -57.5q-167 0 -260 40v133z" />
<glyph unicode="&#x2084;" horiz-adv-x="733" d="M55 -76l334 450h186v-442h104v-126h-104v-160h-170v160h-350v118zM217 -68h210v279z" />
<glyph unicode="&#x2085;" horiz-adv-x="762" d="M99 -186q42 -25 100 -38t109 -13q95 0 140.5 33t45.5 92q0 63 -42.5 90.5t-137.5 27.5q-86 0 -155 -23l-47 28l27 363h469v-133h-321l-8 -127q63 13 126 15q129 0 193.5 -63.5t64.5 -177.5q0 -120 -89 -192t-245 -72q-63 0 -127.5 12t-102.5 35v143z" />
<glyph unicode="&#x2086;" horiz-adv-x="815" d="M99 -44q0 215 102 327.5t272 112.5q84 0 135 -16v-121q-38 17 -121 17q-194 0 -228 -200q29 35 79.5 54.5t110.5 19.5q131 0 199.5 -70.5t68.5 -189.5q0 -118 -80 -192t-226 -74q-141 0 -226.5 87.5t-85.5 244.5zM264 -114q0 -64 40.5 -107t106.5 -43q71 0 111 40t40 110 q0 71 -37.5 110.5t-108.5 39.5q-68 0 -110 -42.5t-42 -107.5z" />
<glyph unicode="&#x2087;" horiz-adv-x="703" d="M78 241v133h548v-100l-288 -628h-167l272 595h-365z" />
<glyph unicode="&#x2088;" horiz-adv-x="795" d="M99 -159q0 72 39 121t99 63q-53 21 -82 64.5t-29 100.5q0 97 74 151.5t199 54.5q124 0 198 -54.5t74 -151.5q0 -57 -29.5 -100.5t-82.5 -64.5q60 -13 99 -63.5t39 -120.5q0 -103 -78.5 -160t-219.5 -57q-142 0 -221 56t-79 161zM261 -150q0 -53 37.5 -84.5t100.5 -31.5 q61 0 99 31.5t38 84.5q0 55 -38 87t-99 32q-62 0 -100 -32t-38 -87zM281 181q0 -46 32 -75.5t86 -29.5q52 0 84 29.5t32 75.5q0 47 -33 75.5t-83 28.5q-51 0 -84.5 -28.5t-33.5 -75.5z" />
<glyph unicode="&#x2089;" horiz-adv-x="815" d="M99 131q0 117 79 191t225 74q143 0 228.5 -88.5t85.5 -245.5q0 -213 -103 -325.5t-272 -112.5q-96 0 -134 15v120q38 -15 119 -16q195 0 230 202q-29 -38 -79.5 -58t-112.5 -20q-131 0 -198.5 71t-67.5 193zM255 133q0 -68 37 -108t109 -40q66 0 108 41.5t42 106.5 q0 66 -41 107t-107 41q-71 0 -109.5 -40t-38.5 -108z" />
<glyph unicode="&#x208d;" horiz-adv-x="498" d="M99 -13q0 112 32.5 213t92.5 174h177q-62 -80 -95.5 -180.5t-33.5 -206.5q0 -108 33 -208t96 -178h-177q-60 72 -92.5 172.5t-32.5 213.5z" />
<glyph unicode="&#x208e;" horiz-adv-x="498" d="M99 374h177q60 -74 92.5 -174.5t32.5 -212.5t-33.5 -212t-91.5 -174h-177q63 78 95 177.5t32 208.5q0 106 -32 206.5t-95 180.5z" />
<glyph unicode="&#x20a1;" horiz-adv-x="1547" d="M99 772q0 230 91 405.5t254.5 280t378.5 119.5l57 157h195l-60 -162q78 -6 146 -25l69 187h195l-93 -254q42 -22 97 -62v-217q-76 64 -164 104l-414 -1132q19 -2 65 -2q164 0 293 43t239 138v-219q-198 -166 -553 -166q-59 0 -116 6l-51 -139h-194l65 179q-68 25 -132 63 l-89 -242h-194l130 358q-103 106 -159 254.5t-56 325.5zM327 772q0 -188 80 -329l332 906q-190 -49 -301 -199t-111 -378zM544 285q53 -42 129 -72l418 1142q-62 11 -149 17z" />
<glyph unicode="&#x20a4;" horiz-adv-x="1085" d="M99 0v181h180v203h-167v182h167v213h-167v181h167v217q0 192 122.5 297t308.5 105q88 0 172 -26v-181q-55 24 -126 23q-122 0 -185.5 -58t-63.5 -172v-205h386v-181h-386v-213h386v-182h-386v-203h479v-181h-887z" />
<glyph unicode="&#x20a6;" horiz-adv-x="1521" d="M99 471v150h150v303h-150v155h150v468h169l255 -468h424v468h173v-468h152v-155h-152v-303h152v-150h-152v-471h-166l-259 471h-421v-471h-175v471h-150zM424 621h340l-167 303h-173v-303zM424 1079h89l-89 162v-162zM758 924l166 -303h173v303h-339zM1007 471l90 -163 v163h-90z" />
<glyph unicode="&#x20a7;" horiz-adv-x="2790" d="M144 0v1547h464q252 0 388.5 -115t136.5 -351v-19h141v310h223v-310h246v-171h-246v-553q0 -108 40 -152.5t149 -44.5q38 0 86.5 17t82.5 41q95 -34 180.5 -46t195.5 -12q120 0 179 29t59 94q0 48 -27 79t-88.5 56t-181.5 59q-131 36 -207 74t-116 99t-40 154 q0 152 122 231t325 79q108 0 208 -20t161 -55v-184q-63 38 -154 60t-188 22q-120 0 -184 -29.5t-64 -103.5q0 -48 29.5 -78t88.5 -50t183 -53q137 -38 213 -81t109 -103.5t33 -151.5q0 -137 -114 -219t-332 -82q-101 0 -206.5 14.5t-183.5 47.5q-42 -27 -109.5 -44.5 t-137.5 -17.5q-162 0 -248 91.5t-86 264.5v568h-170q-97 -276 -496 -276h-239v-615h-225zM369 794h209q154 0 241.5 64t87.5 223q0 171 -95 228.5t-270 57.5h-173v-573z" />
<glyph unicode="&#x20ab;" horiz-adv-x="1492" d="M99 528q0 166 72 294.5t199.5 200.5t286.5 72q287 0 436 -175v312h-434v172h434v230h224v-230h120v-172h-120v-1232h-218v154q-88 -97 -193.5 -142t-248.5 -45q-159 0 -286.5 69.5t-199.5 197t-72 294.5zM279 -219h1032v-170h-1032v170zM325 528q0 -112 49.5 -200.5 t137 -136t195.5 -47.5q138 0 241 71.5t145 193.5v239q-38 122 -143 195t-243 73q-108 0 -195.5 -48.5t-137 -137t-49.5 -202.5z" />
<glyph unicode="&#x20ac;" horiz-adv-x="1516" d="M89 471v173h148q-7 59 -7 128q0 64 7 125h-148v173h183q74 239 256 374t432 135q146 0 255.5 -33t200.5 -106v-216q-93 80 -198.5 114t-237.5 34q-175 0 -294.5 -78t-176.5 -224h373v-173h-418q-6 -59 -6 -125q0 -68 6 -128h418v-173h-373q57 -146 176.5 -223t294.5 -77 q141 0 245 34t204 122v-219q-89 -78 -200.5 -109.5t-268.5 -31.5q-250 0 -432.5 133.5t-255.5 370.5h-183z" />
<glyph unicode="&#x20b1;" horiz-adv-x="1391" d="M55 851v147h113v119h-113v148h113v282h542q183 0 314 -73.5t186 -208.5h126v-148h-89q3 -20 3 -60q0 -42 -3 -59h89v-147h-124q-53 -137 -185 -208t-320 -71h-311v-572h-228v851h-113zM396 758h290q188 0 272 93h-562v-93zM396 998h628q4 36 4 59q0 20 -4 60h-628v-119z M396 1265h564q-88 95 -274 96h-290v-96z" />
<glyph unicode="&#x20b2;" horiz-adv-x="1583" d="M99 772q0 224 90 397t251.5 278.5t371.5 124.5v201h199v-198q261 -20 439 -155v-217q-175 148 -439 166v-529h473v-707q-175 -146 -473 -164v-197h-199v201q-210 19 -371.5 123.5t-251.5 278.5t-90 397zM327 772q0 -243 133 -400t352 -193v1182q-219 -38 -352 -195 t-133 -394zM1011 173q148 13 247 79v405h-247v-484z" />
<glyph unicode="&#x20b5;" horiz-adv-x="1570" d="M99 772q0 224 90 397t251.5 278.5t371.5 124.5v201h199v-198q252 -20 439 -157v-217q-172 150 -439 168v-1196q137 8 250 51.5t210 127.5v-219q-171 -144 -460 -162v-199h-199v201q-210 19 -371.5 123.5t-251.5 278.5t-90 397zM327 772q0 -241 132 -397t353 -194v1180 q-221 -36 -353 -192t-132 -397z" />
<glyph unicode="&#x20b9;" horiz-adv-x="1085" d="M99 626v170h188q131 0 201.5 44.5t86.5 136.5h-476v182h476q-27 106 -85.5 156t-181.5 50h-209v182h887v-182h-305q40 -29 66.5 -88t33.5 -118h205v-182h-205q-22 -152 -133.5 -245t-320.5 -99l367 -633h-232z" />
<glyph unicode="&#x20ba;" horiz-adv-x="1374" d="M99 677v172l197 65v143l-197 -63v171l197 65v317h228v-240l400 135v-172l-400 -133v-146l400 132v-169l-400 -133v-635q263 8 394 120t131 331v84h228v-84q0 -199 -95.5 -343t-270 -219t-409.5 -75h-206v741z" />
<glyph unicode="&#x20bd;" horiz-adv-x="1437" d="M99 239v183h140v164h-140v188h140v773h593q249 0 394.5 -125.5t145.5 -355.5q0 -234 -144 -357t-396 -123h-365v-164h243v-183h-243v-239h-228v239h-140zM467 774h341q336 0 336 292q0 159 -91 224t-245 65h-341v-581z" />
<glyph unicode="&#x210a;" horiz-adv-x="1459" d="M99 531q0 169 72 296t199.5 197.5t286.5 70.5q148 0 251 -43t191 -143v153h218v-1009q0 -272 -152 -417t-466 -145q-108 0 -211.5 18t-173.5 50v184q167 -76 385 -75q205 0 299.5 90t94.5 271v112q-146 -174 -430 -174q-162 0 -290 70.5t-201 199t-73 294.5zM325 531 q0 -114 49.5 -202t137 -136.5t195.5 -48.5q138 0 243 72.5t143 194.5v239q-42 124 -145 195t-241 71q-108 0 -195.5 -47.5t-137 -136t-49.5 -201.5z" />
<glyph unicode="&#x2113;" horiz-adv-x="961" d="M55 606v202q120 29 173 61v418q0 171 91.5 271.5t248.5 100.5q177 0 258 -104.5t81 -280.5q0 -342 -458 -540v-402q0 -93 29 -134t94 -41q125 0 125 168h200q0 -358 -335 -358q-155 0 -244.5 99.5t-89.5 254.5v342q-80 -33 -173 -57zM443 933q127 58 193.5 145t66.5 199 q0 183 -131 183q-61 0 -95 -44t-34 -124v-359z" />
<glyph unicode="&#x2117;" horiz-adv-x="1819" d="M99 772q0 237 107.5 420.5t293.5 285t412 101.5q225 0 410 -101.5t291.5 -285t106.5 -420.5q0 -236 -106.5 -418.5t-291.5 -284.5t-410 -102q-226 0 -412 102t-293.5 284.5t-107.5 418.5zM303 772q0 -188 79.5 -327t218 -212.5t311.5 -73.5q169 0 307.5 73.5t218 212.5 t79.5 327q0 186 -79.5 325.5t-216.5 213.5t-309 74q-175 0 -313.5 -74t-217 -212.5t-78.5 -326.5zM615 257v1017h407q164 0 261 -84t97 -234q0 -135 -97 -222.5t-261 -87.5h-228v-389h-179zM794 787h219q199 0 199 171q0 95 -48.5 134t-150.5 39h-219v-344z" />
<glyph unicode="&#x2120;" horiz-adv-x="1618" d="M99 1374q0 95 76.5 145.5t206.5 50.5q66 0 132 -14.5t107 -35.5v-125q-42 25 -100.5 38t-119.5 13q-74 0 -111.5 -16t-37.5 -56q0 -42 35.5 -60t150.5 -51q129 -38 177 -86.5t48 -134.5q0 -88 -72 -141.5t-211 -53.5q-70 0 -151 19t-125 48v130q55 -33 127 -53t141 -20 q73 0 106 16.5t33 52.5q0 44 -36.5 66t-145.5 51q-124 35 -177 80.5t-53 136.5zM745 865v682h150l238 -458l234 458h153v-682h-151v405l-206 -405h-64l-206 405v-405h-148z" />
<glyph unicode="&#x2122;" horiz-adv-x="1647" d="M99 1407v140h629v-140h-234v-542h-162v542h-233zM774 865v682h150l237 -458l237 458h151v-682h-151v405l-204 -405h-63l-207 405v-405h-150z" />
<glyph unicode="&#x2126;" horiz-adv-x="1813" d="M99 0v188h308q-139 99 -222 255t-83 349q0 228 99.5 407t281.5 279.5t424 100.5q239 0 421.5 -100.5t283 -279.5t100.5 -407q0 -193 -82.5 -348t-222.5 -256h307v-188h-628v177q206 115 302 262t96 353q0 170 -74 302t-206 205t-297 73q-166 0 -298 -73t-206 -205 t-74 -302q0 -206 95 -353t302 -262v-177h-627z" />
<glyph unicode="&#x212e;" horiz-adv-x="1828" d="M99 772q0 255 112 437t297.5 276t407.5 94q215 0 401.5 -98.5t299.5 -273.5t113 -393v-42h-1295v-553q66 -84 212.5 -142t301.5 -58q222 0 370 72.5t258 242.5h69q-129 -205 -291.5 -286t-405.5 -81q-232 0 -427 107t-309 292t-114 406zM435 827h960v534q-75 75 -199 120 t-280 45q-306 0 -481 -161v-538z" />
</font>
</defs>
</svg>
