<?xml version="1.0" standalone="no"?>
<!DOCTYPE svg PUBLIC "-//W3C//DTD SVG 1.1//EN" "http://www.w3.org/Graphics/SVG/1.1/DTD/svg11.dtd" >
<svg xmlns="http://www.w3.org/2000/svg" xmlns:xlink="http://www.w3.org/1999/xlink" version="1.1">
<metadata></metadata>
<defs>
<font id="promptmedium" horiz-adv-x="0" >
<font-face units-per-em="2048" ascent="1536" descent="-512" />
<missing-glyph horiz-adv-x="795" />
<glyph unicode="fi" horiz-adv-x="1370" d="M44 849v213h157v175q0 130 59 222t158 139.5t224 47.5q105 0 185 -31v-226q-59 27 -130 27q-106 0 -161.5 -51t-55.5 -149v-154h744v-1062h-280v849h-464v-849h-279v849h-157zM924 1402q0 64 45.5 109.5t111.5 45.5q64 0 111 -45t47 -110q0 -66 -45.5 -110.5 t-112.5 -44.5q-66 0 -111.5 44.5t-45.5 110.5z" />
<glyph unicode="fl" horiz-adv-x="1359" d="M44 849v213h157v183q0 192 125 296.5t316 104.5q105 0 185 -31v-226q-59 27 -130 27q-102 0 -159.5 -48.5t-57.5 -141.5v-164h469v502h279v-1564h-279v849h-469v-849h-279v849h-157z" />
<glyph unicode="&#xe24;&#xe45;" horiz-adv-x="1967" d="M89 905q122 152 279.5 231.5t365.5 79.5q195 0 330 -64q53 27 140.5 45.5t171.5 18.5q228 0 344 -123.5t116 -353.5v-1172h-281v1189q0 131 -52.5 186.5t-185.5 55.5q-36 0 -74 -7q62 -103 62 -241v-1183h-281v1161q0 137 -73 203.5t-217 66.5q-108 0 -191 -31.5 t-154 -101.5l91 -146v-381q0 -57 25.5 -80.5t85.5 -23.5h119v-234h-269q-118 0 -180 66.5t-62 180.5v474z" />
<glyph unicode="&#xe26;&#xe45;" horiz-adv-x="1999" d="M89 0v234h86q57 0 78 22.5t21 81.5v383l-154 184q236 312 648 311q192 0 327 -64q53 27 140.5 45.5t171.5 18.5q228 0 344 -123.5t116 -353.5v-1172h-282v1189q0 131 -51.5 186.5t-186.5 55.5q-36 0 -73 -7q62 -103 62 -241v-1183h-281v1161q0 137 -73 203.5t-216 66.5 q-106 0 -187 -31.5t-152 -92.5l128 -153v-472q0 -117 -63 -183t-178 -66h-225z" />
<glyph unicode=" "  horiz-adv-x="795" />
<glyph unicode="&#x09;" horiz-adv-x="795" />
<glyph unicode="&#xa0;" horiz-adv-x="795" />
<glyph unicode="!" horiz-adv-x="490" d="M89 122q0 66 45 110t111 44t112 -44t46 -110q0 -64 -46.5 -109.5t-111.5 -45.5q-66 0 -111 45t-45 110zM112 462v1085h268v-1085h-268z" />
<glyph unicode="&#x22;" horiz-adv-x="771" d="M89 1119v428h209v-428h-209zM473 1119v428h211v-428h-211z" />
<glyph unicode="#" horiz-adv-x="1705" d="M89 356v206h265l108 380h-281v206h338l114 399h243l-112 -399h422l112 399h246l-113 -399h186v-206h-243l-109 -380h259v-206h-317l-99 -356h-245l99 356h-422l-99 -356h-244l99 356h-207zM597 562h423l108 380h-423z" />
<glyph unicode="$" horiz-adv-x="1253" d="M89 59v242q196 -95 424 -107v492q-217 88 -314 196.5t-97 269.5q0 162 110.5 273.5t300.5 142.5v205h239v-198q179 -13 334 -82v-235q-168 82 -334 91v-480q148 -63 236.5 -125.5t132.5 -144.5t44 -198q0 -173 -103.5 -281.5t-309.5 -138.5v-209h-239v197 q-124 4 -237.5 28.5t-186.5 61.5zM401 1152q0 -61 26.5 -102t85.5 -75v344q-112 -49 -112 -167zM752 230q111 53 111 173q0 59 -26.5 100t-84.5 75v-348z" />
<glyph unicode="%" horiz-adv-x="1969" d="M102 1172q0 110 54.5 204.5t147 148.5t203.5 54q110 0 204 -54t148.5 -148t54.5 -205q0 -110 -54.5 -203t-148.5 -147t-204 -54q-111 0 -203.5 54t-147 147t-54.5 203zM303 1167q0 -86 58.5 -144.5t145.5 -58.5q88 0 146.5 58.5t58.5 144.5q0 89 -58.5 148t-146.5 59 q-87 0 -145.5 -59t-58.5 -148zM429 0l856 1547h272l-856 -1547h-272zM1070 372q0 110 54.5 204.5t147.5 148.5t203 54t204 -54t148.5 -148.5t54.5 -204.5q0 -111 -54.5 -203.5t-148.5 -147t-204 -54.5t-203 54.5t-147.5 147t-54.5 203.5zM1270 367q0 -86 58.5 -144.5 t144.5 -58.5q89 0 147 58.5t58 144.5q0 89 -58 147t-147 58q-86 0 -144.5 -58t-58.5 -147z" />
<glyph unicode="&#x26;" horiz-adv-x="1729" d="M89 387q0 148 80 251t260 209q-104 97 -156 181t-52 186q0 106 54 189t151.5 129.5t227.5 46.5q127 0 223 -47.5t149 -130t53 -187.5q0 -126 -62.5 -217.5t-211.5 -186.5l379 -356q59 101 59 346h228q0 -173 -25.5 -287t-90.5 -224l308 -289h-327l-144 133 q-101 -87 -237 -126.5t-309 -39.5q-247 0 -402 110.5t-155 309.5zM350 387q0 -115 87 -175t211 -60q120 0 219.5 36t164.5 97l-424 412q-133 -62 -195.5 -137t-62.5 -173zM460 1197q0 -62 41 -116.5t136 -143.5q113 67 163.5 126.5t50.5 133.5q0 84 -53 137t-144 53 q-88 0 -141 -53t-53 -137z" />
<glyph unicode="'" horiz-adv-x="386" d="M89 1119v428h209v-428h-209z" />
<glyph unicode="(" horiz-adv-x="751" d="M89 597q0 575 331 982h287q-335 -431 -335 -982t335 -981h-287q-331 407 -331 981z" />
<glyph unicode=")" horiz-adv-x="751" d="M44 -384q336 430 336 981t-336 982h288q331 -407 331 -982q0 -574 -331 -981h-288z" />
<glyph unicode="*" horiz-adv-x="975" d="M89 1254l65 150l237 -85v228h193v-228l237 88l66 -153l-263 -91l174 -239l-150 -97l-159 224l-160 -226l-150 97l173 239z" />
<glyph unicode="+" horiz-adv-x="910" d="M89 551v223h253v254h224v-254h257v-223h-257v-257h-224v257h-253z" />
<glyph unicode="," horiz-adv-x="648" d="M89 -327l181 451h289l-217 -451h-253z" />
<glyph unicode="-" horiz-adv-x="910" d="M89 551v223h734v-223h-734z" />
<glyph unicode="." horiz-adv-x="401" d="M89 110q0 49 32.5 82.5t79.5 33.5q46 0 79.5 -33.5t33.5 -82.5q0 -46 -33.5 -78t-79.5 -32q-47 0 -79.5 32t-32.5 78z" />
<glyph unicode="/" horiz-adv-x="1078" d="M89 0l630 1579h272l-630 -1579h-272z" />
<glyph unicode="0" horiz-adv-x="1507" d="M89 772q0 248 79 430.5t228.5 279.5t357.5 97q205 0 355.5 -97t230.5 -279.5t80 -430.5q0 -247 -80 -428.5t-230 -279t-356 -97.5q-203 0 -354 97.5t-231 278.5t-80 429zM372 770q0 -257 100 -404t282 -147q183 0 284 147t101 404t-99.5 405t-283.5 148t-284 -148.5 t-100 -404.5z" />
<glyph unicode="1" horiz-adv-x="826" d="M89 1013v261l371 273h234v-1547h-278v1250z" />
<glyph unicode="2" horiz-adv-x="1293" d="M89 0v181l305 281l146 131q122 106 184.5 170t102.5 138t40 161q0 126 -74 193.5t-211 67.5q-106 0 -220.5 -39t-207.5 -110v268q193 137 475 137q247 0 384 -132.5t137 -362.5q0 -108 -42 -202.5t-119 -183t-210 -209.5l-277 -257h703v-232h-1116z" />
<glyph unicode="3" horiz-adv-x="1281" d="M89 55v215q210 -95 447 -95q188 0 282 67.5t94 192.5q0 131 -92 185.5t-284 54.5h-194v216h186q155 0 246 59t91 178t-81 181.5t-227 62.5q-126 0 -226.5 -30.5t-204.5 -94.5v217q199 115 469 115q274 0 413.5 -116t139.5 -324q0 -114 -61 -207.5t-180 -146.5 q142 -42 214.5 -134t72.5 -229q0 -215 -148.5 -335t-473.5 -120q-137 0 -264 22t-219 66z" />
<glyph unicode="4" horiz-adv-x="1346" d="M44 367v167l745 1013h275v-969h238v-211h-238v-367h-281v367h-739zM352 578h471v642z" />
<glyph unicode="5" horiz-adv-x="1275" d="M89 66v237q92 -57 209.5 -89.5t223.5 -32.5q382 0 383 304q0 146 -94 223t-265 77q-77 0 -163.5 -15.5t-152.5 -41.5l-118 66l61 753h906v-233h-652l-28 -354q122 27 268 26q246 0 383.5 -134.5t137.5 -366.5q0 -252 -163.5 -385t-490.5 -133q-125 0 -244 26t-201 73z " />
<glyph unicode="6" horiz-adv-x="1368" d="M89 644q0 298 89.5 508.5t258.5 318.5t401 108q135 0 239 -30v-226q-87 40 -216 40q-217 0 -343.5 -129.5t-150.5 -374.5q74 77 179.5 113.5t232.5 36.5q150 0 264 -62t176 -176t62 -271q0 -152 -68.5 -274t-202.5 -190.5t-318 -68.5q-173 0 -310 79.5t-215 232 t-78 365.5zM382 487q0 -84 39 -156t108.5 -115t162.5 -43q142 0 227 86t85 228q0 144 -85 229.5t-227 85.5q-133 0 -221.5 -89t-88.5 -226z" />
<glyph unicode="7" horiz-adv-x="1205" d="M66 1314v233h1073v-196l-611 -1351h-271l594 1314h-785z" />
<glyph unicode="8" horiz-adv-x="1353" d="M89 429q0 143 71.5 241t191.5 135q-99 48 -155 137.5t-56 205.5q0 201 146 316t390 115q245 0 390 -115t145 -316q0 -114 -55 -204t-155 -139q120 -38 191.5 -135.5t71.5 -240.5q0 -222 -158 -342t-430 -120q-270 0 -429 120.5t-159 341.5zM365 447q0 -131 85.5 -205 t226.5 -74q144 0 227.5 74t83.5 205q0 126 -86 199t-225 73t-225.5 -73.5t-86.5 -198.5zM405 1125q0 -110 75 -175t197 -65q123 0 198.5 65t75.5 175q0 111 -76.5 180t-197.5 69q-122 0 -197 -68.5t-75 -180.5z" />
<glyph unicode="9" horiz-adv-x="1368" d="M89 1047q0 152 68.5 273.5t202.5 190t317 68.5q173 0 309.5 -79.5t215.5 -232t79 -364.5q0 -298 -89.5 -508.5t-258.5 -319t-402 -108.5q-136 0 -239 31v226q86 -40 217 -40q217 0 342.5 129.5t150.5 374.5q-141 -150 -400 -150q-151 0 -267 61.5t-181 176.5t-65 271z M365 1059q0 -143 85.5 -229.5t226.5 -86.5q133 0 221 89.5t88 226.5q0 85 -38.5 156.5t-108 115t-162.5 43.5q-141 0 -226.5 -86.5t-85.5 -228.5z" />
<glyph unicode=":" horiz-adv-x="468" d="M89 181q0 60 43 103t102 43q60 0 103 -43t43 -103q0 -59 -43 -102t-103 -43q-59 0 -102 43t-43 102zM89 933q0 60 43 103t102 43q60 0 103 -42.5t43 -103.5q0 -59 -43 -102.5t-103 -43.5q-59 0 -102 43.5t-43 102.5z" />
<glyph unicode=";" horiz-adv-x="648" d="M89 -327l181 451h289l-217 -451h-253zM255 933q0 60 42.5 103t103.5 43q59 0 102 -42.5t43 -103.5q0 -59 -43 -102.5t-102 -43.5q-61 0 -103.5 43.5t-42.5 102.5z" />
<glyph unicode="&#x3c;" horiz-adv-x="1200" d="M89 619v197l1023 503v-277l-683 -325l683 -326v-277z" />
<glyph unicode="=" horiz-adv-x="1180" d="M89 405v219h1004v-219h-1004zM89 891v219h1004v-219h-1004z" />
<glyph unicode="&#x3e;" horiz-adv-x="1200" d="M89 114v277l683 326l-683 325v277l1023 -503v-197z" />
<glyph unicode="?" horiz-adv-x="1149" d="M89 1260v233q86 37 196.5 61.5t221.5 24.5q257 0 406 -110.5t149 -309.5q0 -82 -30 -140.5t-75 -100.5t-138 -113q-95 -74 -130 -106t-52.5 -73.5t-17.5 -114.5v-49h-267v51q0 131 48.5 219.5t158.5 168.5l58 39q93 63 131.5 106t38.5 113q0 91 -69.5 141.5t-210.5 50.5 q-106 0 -217 -24.5t-201 -66.5zM325 122q0 66 45.5 110t111.5 44t111.5 -44t45.5 -110q0 -64 -46.5 -109.5t-110.5 -45.5q-66 0 -111.5 45t-45.5 110z" />
<glyph unicode="@" horiz-adv-x="2014" d="M89 629q0 278 121.5 493.5t342.5 336t513 120.5q266 0 459 -89.5t297.5 -260t104.5 -410.5q0 -255 -107.5 -416.5t-302.5 -161.5q-82 0 -150.5 40t-92.5 108q-50 -74 -135.5 -111t-187.5 -37q-174 0 -281.5 100t-107.5 292q0 150 62 269.5t176 188t266 68.5q93 0 189 -21 t167 -57l-29 -495q-4 -75 29.5 -117t88.5 -42q95 0 136 101t41 291q0 280 -153 415t-469 135q-224 0 -390.5 -87.5t-257.5 -254t-91 -398.5q0 -294 172 -442.5t499 -148.5q223 0 409 61v-198q-179 -68 -409 -69q-272 0 -478 91.5t-318.5 271t-112.5 434.5zM800 652 q0 -219 175 -219q97 0 150.5 53.5t58.5 132.5l19 325q-55 25 -141 25q-115 0 -188.5 -88.5t-73.5 -228.5z" />
<glyph unicode="A" horiz-adv-x="1684" d="M89 0l618 1547h273l617 -1547h-286l-141 356h-655l-139 -356h-287zM593 589h500l-251 656z" />
<glyph unicode="B" horiz-adv-x="1454" d="M133 0v1547h734q213 0 331.5 -106.5t118.5 -309.5q0 -108 -52.5 -196t-139.5 -135q241 -80 242 -355q0 -137 -62 -238t-167.5 -154t-232.5 -53h-772zM411 221h429q118 0 181 49t63 173t-66.5 179t-192.5 55h-414v-456zM411 903h412q95 0 152 52t57 157q0 122 -56 167.5 t-166 45.5h-399v-422z" />
<glyph unicode="C" horiz-adv-x="1556" d="M89 772q0 243 103.5 425.5t292 282t431.5 99.5q321 0 534 -152v-268q-192 164 -510 164q-171 0 -299 -67.5t-198.5 -191.5t-70.5 -292t71.5 -292t200 -191.5t296.5 -67.5q164 0 292.5 41t236.5 132v-268q-203 -158 -553 -159q-243 0 -431.5 98.5t-292 280.5t-103.5 426z " />
<glyph unicode="D" horiz-adv-x="1560" d="M133 0v1547h517q252 0 438 -93t285.5 -266t99.5 -407q0 -385 -223.5 -583t-623.5 -198h-493zM414 232h217q270 0 414.5 145t144.5 404q0 156 -64 277t-183.5 188.5t-283.5 67.5h-245v-1082z" />
<glyph unicode="E" horiz-adv-x="1245" d="M133 0v1547h1046v-233h-765v-425h568v-232h-568v-425h765v-232h-1046z" />
<glyph unicode="F" horiz-adv-x="1222" d="M133 0v1547h1046v-236h-765v-433h568v-211h-568v-667h-281z" />
<glyph unicode="G" horiz-adv-x="1576" d="M89 772q0 243 103.5 425.5t292 282t431.5 99.5q166 0 296 -35t236 -113v-268q-97 84 -223 122t-285 38t-288.5 -67.5t-204.5 -193t-75 -290.5q0 -168 70.5 -293t197 -192.5t287.5 -67.5q170 0 280 57v348h-260v223h541v-721q-205 -158 -572 -159q-243 0 -431.5 98.5 t-292 280.5t-103.5 426z" />
<glyph unicode="H" horiz-adv-x="1568" d="M133 0v1547h281v-642h743v642h278v-1547h-278v673h-743v-673h-281z" />
<glyph unicode="I" horiz-adv-x="545" d="M133 0v1547h281v-1547h-281z" />
<glyph unicode="J" horiz-adv-x="853" d="M44 9v234q72 -30 173 -30h7q217 0 217 205v1129h280v-1144q0 -203 -112.5 -319.5t-316.5 -116.5q-66 0 -138 12t-110 30z" />
<glyph unicode="K" horiz-adv-x="1516" d="M133 0v1547h281v-702l635 702h336l-686 -758l730 -789h-336l-679 734v-734h-281z" />
<glyph unicode="L" horiz-adv-x="1200" d="M133 0v1547h281v-1315h743v-232h-1024z" />
<glyph unicode="M" horiz-adv-x="1848" d="M133 0v1547h274l517 -1133l518 1133h274v-1547h-266v1004l-459 -1004h-132l-460 1004v-1004h-266z" />
<glyph unicode="N" horiz-adv-x="1534" d="M133 0v1547h266l722 -1078v1078h281v-1547h-265l-723 1079v-1079h-281z" />
<glyph unicode="O" horiz-adv-x="1815" d="M89 772q0 237 107 420.5t294 285t419 101.5q230 0 417 -101.5t294 -285t107 -420.5q0 -236 -107 -418.5t-294 -284.5t-417 -102q-232 0 -419 100.5t-294 284.5t-107 420zM372 772q0 -166 71.5 -291t194.5 -192.5t271 -67.5t269.5 67.5t193.5 192.5t72 291q0 164 -71 289 t-192.5 193.5t-271.5 68.5t-273 -68.5t-193.5 -194t-70.5 -288.5z" />
<glyph unicode="P" horiz-adv-x="1357" d="M133 0v1547h619q255 0 408.5 -135t153.5 -370q0 -243 -152.5 -370.5t-411.5 -127.5h-336v-544h-281zM414 777h303q315 0 315 262q0 275 -315 275h-303v-537z" />
<glyph unicode="Q" horiz-adv-x="1800" d="M89 779q0 236 107 418.5t294 282t419 99.5q230 0 417 -99.5t294 -282t107 -418.5q0 -159 -71 -304.5t-183 -229.5h283v-245h-812q-258 0 -452 95t-298.5 272t-104.5 412zM372 779q0 -252 144.5 -388t392.5 -136q246 0 390.5 136.5t144.5 387.5q0 164 -71 287.5 t-192.5 190t-271.5 66.5t-273 -66.5t-193.5 -190.5t-70.5 -287z" />
<glyph unicode="R" horiz-adv-x="1401" d="M133 0v1547h646q257 0 396 -126.5t139 -365.5q0 -170 -84 -289.5t-239 -170.5l314 -595h-288l-298 566h-305v-566h-281zM414 798h314q137 0 220.5 64.5t83.5 192.5q0 259 -304 259h-314v-516z" />
<glyph unicode="S" horiz-adv-x="1253" d="M89 59v242q110 -53 232 -80t238 -27q148 0 226 56t78 153q0 68 -35.5 113.5t-104.5 80t-210 89.5q-217 88 -314 196.5t-97 269.5q0 127 68.5 224t192.5 150t285 53q133 0 235.5 -21t202.5 -65v-235q-192 93 -389 93q-142 0 -219 -52t-77 -147q0 -68 35 -111t94 -73.5 t211 -93.5q154 -64 244 -126t135 -145.5t45 -201.5q0 -206 -148 -320t-437 -114q-137 0 -271 25t-220 67z" />
<glyph unicode="T" horiz-adv-x="1302" d="M44 1314v233h1214v-233h-466v-1314h-281v1314h-467z" />
<glyph unicode="U" horiz-adv-x="1562" d="M122 602v945h281v-950q0 -183 102.5 -279.5t277.5 -96.5q173 0 275.5 96.5t102.5 279.5v950h281v-945q0 -292 -166 -463.5t-493 -171.5t-494 171.5t-167 463.5z" />
<glyph unicode="V" horiz-adv-x="1684" d="M89 1547h298l455 -1171l458 1171h297l-617 -1547h-273z" />
<glyph unicode="W" horiz-adv-x="2197" d="M89 1547h291l308 -1093l303 1093h216l304 -1093l307 1093h292l-440 -1547h-261l-310 1075l-310 -1075h-261z" />
<glyph unicode="X" horiz-adv-x="1640" d="M89 0l572 781l-559 766h320l399 -547l399 547h321l-559 -766l571 -781h-321l-411 562l-412 -562h-320z" />
<glyph unicode="Y" horiz-adv-x="1578" d="M89 1547h298l398 -688l409 688h296l-572 -958v-589h-268v589z" />
<glyph unicode="Z" horiz-adv-x="1368" d="M89 0v184l808 1130h-789v233h1133v-184l-808 -1131h848v-232h-1192z" />
<glyph unicode="[" horiz-adv-x="705" d="M89 -213v1954h550v-232h-270v-1490h270v-232h-550z" />
<glyph unicode="\" horiz-adv-x="1078" d="M89 1579h272l630 -1579h-272z" />
<glyph unicode="]" horiz-adv-x="705" d="M66 19h270v1490h-270v232h551v-1954h-551v232z" />
<glyph unicode="^" horiz-adv-x="1247" d="M89 856l424 735h221l425 -735h-268l-267 473l-268 -473h-267z" />
<glyph unicode="_" horiz-adv-x="1078" d="M89 0h902v-245h-902v245z" />
<glyph unicode="`" horiz-adv-x="623" d="M89 1644h293l154 -386h-257z" />
<glyph unicode="a" horiz-adv-x="1275" d="M89 338q0 177 115 277t322 100q201 0 348 -82v28q0 112 -70 163.5t-224 51.5q-97 0 -192.5 -19t-168.5 -52v219q66 31 178 51t215 20q277 0 410 -118t133 -329v-648h-264v104q-68 -66 -155.5 -101.5t-213.5 -35.5q-190 0 -311.5 100.5t-121.5 270.5zM372 338 q0 -84 56.5 -125.5t162.5 -41.5q93 0 168 36t115 101v116q-122 87 -279 87q-223 0 -223 -173z" />
<glyph unicode="b" horiz-adv-x="1469" d="M133 0v1634h278v-676q76 68 183 102.5t229 34.5q162 0 289 -72t198.5 -200.5t71.5 -294.5q0 -168 -71.5 -295t-199 -196.5t-288.5 -69.5q-135 0 -232 36.5t-188 120.5v-124h-270zM411 422q38 -108 131 -172t212 -64q151 0 248 95t97 247t-97 250t-248 98 q-120 0 -213.5 -65.5t-129.5 -173.5v-215z" />
<glyph unicode="c" horiz-adv-x="1211" d="M89 528q0 177 78 304.5t218.5 195t329.5 67.5q247 0 395 -97v-224q-143 102 -367 102q-171 0 -271 -85.5t-100 -262.5q0 -175 100 -258.5t267 -83.5q223 0 384 106v-221q-80 -53 -180.5 -78.5t-232.5 -25.5q-186 0 -326.5 66t-217.5 192.5t-77 302.5z" />
<glyph unicode="d" horiz-adv-x="1469" d="M89 528q0 166 71.5 294.5t199 200.5t288.5 72q261 0 411 -137v676h279v-1634h-270v124q-91 -84 -188 -120.5t-232 -36.5q-161 0 -288.5 69.5t-199 197t-71.5 294.5zM372 528q0 -152 97 -247t248 -95q119 0 212 64t130 172v215q-35 108 -129 173.5t-213 65.5 q-150 0 -247.5 -97.5t-97.5 -250.5z" />
<glyph unicode="e" horiz-adv-x="1346" d="M89 528q0 261 152.5 414t435.5 153q186 0 317 -70.5t197.5 -194t66.5 -279.5v-129h-904q29 -236 412 -236q101 0 207 17.5t186 48.5v-214q-76 -32 -194 -51.5t-235 -19.5q-297 0 -469 148.5t-172 412.5zM354 612h642q-5 127 -90 195.5t-233 68.5q-146 0 -230 -71 t-89 -193z" />
<glyph unicode="f" horiz-adv-x="804" d="M44 849v213h157v183q0 195 115 298t303 103q106 0 186 -31v-226q-60 27 -130 27q-99 0 -147 -44.5t-48 -145.5v-164h259v-213h-259v-849h-279v849h-157z" />
<glyph unicode="g" horiz-adv-x="1469" d="M89 534q0 168 71.5 295t199 196.5t288.5 69.5q135 0 232 -36.5t188 -121.5v125h270v-998q0 -275 -158 -424t-486 -149q-105 0 -211.5 20t-176.5 54v220q168 -74 377 -74h11q195 0 280 81.5t85 243.5v68q-75 -68 -178.5 -102.5t-223.5 -34.5q-162 0 -292.5 71.5t-203 200 t-72.5 295.5zM372 534q0 -153 97 -250.5t248 -97.5q119 0 213 65t129 173v215q-37 108 -130 172.5t-212 64.5q-150 0 -247.5 -95t-97.5 -247z" />
<glyph unicode="h" horiz-adv-x="1348" d="M133 0v1634h278v-707q151 168 389 168q215 0 321.5 -116t106.5 -308v-671h-279v644q0 232 -217 232q-95 0 -179 -45.5t-142 -136.5v-694h-278z" />
<glyph unicode="i" horiz-adv-x="581" d="M133 1402q0 66 45.5 112t110.5 46q66 0 113 -45.5t47 -112.5q0 -66 -46.5 -110.5t-113.5 -44.5q-65 0 -110.5 44.5t-45.5 110.5zM148 0v1062h283v-1062h-283z" />
<glyph unicode="j" horiz-adv-x="568" d="M-177 -257q57 -26 131 -26h6q91 0 135 45.5t44 142.5v1157h279v-1186q0 -192 -110.5 -289.5t-298.5 -97.5q-106 0 -186 29v225zM122 1402q0 64 45.5 109.5t111.5 45.5q63 0 109.5 -45t46.5 -110q0 -66 -45 -110.5t-111 -44.5t-111.5 44.5t-45.5 110.5z" />
<glyph unicode="k" horiz-adv-x="1302" d="M133 0v1634h278v-1039l423 467h327l-473 -520l526 -542h-327l-476 491v-491h-278z" />
<glyph unicode="l" horiz-adv-x="543" d="M133 0v1634h278v-1634h-278z" />
<glyph unicode="m" horiz-adv-x="1927" d="M133 0v1062h261v-140q71 85 165.5 129t192.5 44q124 0 199 -41t113 -123q71 80 171.5 122t199.5 42q199 0 285.5 -100t86.5 -292v-703h-268v665q0 113 -45.5 162t-144.5 49q-71 0 -129.5 -27.5t-107.5 -94.5q5 -71 5 -115v-639h-270v671q0 114 -37.5 159.5t-136.5 45.5 q-150 0 -270 -171v-705h-270z" />
<glyph unicode="n" horiz-adv-x="1348" d="M133 0v1062h270v-144q75 91 179 134t218 43q215 0 321.5 -116t106.5 -308v-671h-279v644q0 232 -217 232q-95 0 -179 -45.5t-142 -136.5v-694h-278z" />
<glyph unicode="o" horiz-adv-x="1419" d="M89 531q0 171 76 298t217.5 196.5t327.5 69.5q185 0 326 -69.5t218.5 -197t77.5 -297.5q0 -175 -77.5 -302t-218.5 -194.5t-326 -67.5q-186 0 -326.5 67.5t-217.5 194.5t-77 302zM376 531q0 -152 90.5 -248.5t243.5 -96.5t243.5 96t90.5 249q0 162 -89.5 253.5 t-244.5 91.5t-244.5 -92t-89.5 -253z" />
<glyph unicode="p" horiz-adv-x="1469" d="M133 -485v1547h270v-129q86 82 187.5 122t232.5 40q162 0 289 -69.5t198.5 -197t71.5 -294.5t-71.5 -295.5t-199 -200t-288.5 -71.5q-122 0 -229 34.5t-183 102.5v-589h-278zM411 424q36 -108 130 -173t213 -65q151 0 248 97t97 251q0 152 -97 247t-248 95 q-120 0 -212.5 -64.5t-130.5 -172.5v-215z" />
<glyph unicode="q" horiz-adv-x="1469" d="M89 534q0 168 71.5 295t199 196.5t288.5 69.5q131 0 232.5 -40t187.5 -122v129h270v-1547h-279v589q-75 -68 -182 -102.5t-229 -34.5q-162 0 -289 71.5t-198.5 200t-71.5 295.5zM372 534q0 -153 97 -250.5t248 -97.5q119 0 213 65t129 173v215q-37 108 -130 172.5 t-212 64.5q-150 0 -247.5 -95t-97.5 -247z" />
<glyph unicode="r" horiz-adv-x="899" d="M133 0v1062h270v-171q64 86 182 128.5t271 42.5v-213q-162 0 -280 -49.5t-165 -155.5v-644h-278z" />
<glyph unicode="s" horiz-adv-x="1102" d="M89 774q0 159 125.5 240t340.5 81q110 0 220 -21t172 -59v-228q-66 40 -161.5 64.5t-194.5 24.5q-108 0 -163.5 -21t-55.5 -81q0 -40 29.5 -63t78 -40t177.5 -50q137 -38 214.5 -81.5t110.5 -105.5t33 -155q0 -142 -120.5 -227t-348.5 -85q-115 0 -245 26t-204 73v237 q87 -52 206 -84.5t225 -32.5t155 19t49 69q0 40 -25.5 65.5t-82 46.5t-173.5 52q-132 38 -208.5 77.5t-115 100.5t-38.5 158z" />
<glyph unicode="t" horiz-adv-x="857" d="M44 849v213h159v318h279v-318h255v-213h-255v-475q0 -102 37.5 -145t137.5 -43q68 0 135 31v-213q-95 -37 -233 -37q-175 0 -265.5 97.5t-90.5 273.5v511h-159z" />
<glyph unicode="u" horiz-adv-x="1348" d="M122 391v671h279v-644q0 -232 216 -232q95 0 179 45t141 136v695h279v-1062h-269v144q-75 -91 -179.5 -134t-218.5 -43q-215 0 -321 116t-106 308z" />
<glyph unicode="v" horiz-adv-x="1313" d="M89 1062h280l288 -735l287 735h282l-439 -1062h-261z" />
<glyph unicode="w" horiz-adv-x="1834" d="M89 1062h278l217 -720l212 720h244l212 -720l217 720h278l-347 -1062h-256l-226 721l-226 -721h-257z" />
<glyph unicode="x" horiz-adv-x="1393" d="M89 0l453 551l-422 511h309l268 -325l267 325h310l-423 -511l454 -551h-307l-301 363l-301 -363h-307z" />
<glyph unicode="y" horiz-adv-x="1326" d="M89 1062h280l328 -775l307 775h279l-464 -1157q-72 -175 -172.5 -259t-259.5 -84q-58 0 -121 8t-98 21v212q56 -21 138 -22q84 0 125.5 37.5t72.5 119.5l42 111z" />
<glyph unicode="z" horiz-adv-x="1108" d="M89 0v175l563 674h-548v213h898v-175l-561 -674h579v-213h-931z" />
<glyph unicode="{" horiz-adv-x="760" d="M44 642v245h51q68 0 102.5 40t34.5 115v473q0 113 52 169.5t147 56.5h242v-234h-80q-47 0 -64.5 -21.5t-17.5 -71.5v-414q0 -186 -148 -234v-5q148 -42 148 -235v-414q0 -50 17.5 -71.5t64.5 -21.5h80v-234h-242q-95 0 -147 56.5t-52 169.5v474q0 76 -34 116.5t-103 40.5 h-51z" />
<glyph unicode="|" horiz-adv-x="456" d="M89 -319v2115h280v-2115h-280z" />
<glyph unicode="}" horiz-adv-x="760" d="M89 19h79q47 0 64 21.5t17 71.5v414q0 192 150 235v5q-148 48 -150 234v414q0 50 -17 71.5t-64 21.5h-79v234h240q95 0 147 -56.5t52 -169.5v-473q0 -75 34.5 -115t102.5 -40h52v-245h-52q-68 0 -102.5 -41.5t-34.5 -115.5v-474q0 -113 -52 -169.5t-147 -56.5h-240v234z " />
<glyph unicode="~" horiz-adv-x="1195" d="M89 584v250q35 53 100.5 81.5t148.5 28.5q62 0 120.5 -16t151.5 -52q80 -31 136 -47.5t113 -16.5q154 0 249 130v-250q-36 -53 -101 -81.5t-148 -28.5q-63 0 -123.5 17.5t-142.5 50.5q-91 34 -144 49.5t-111 15.5q-154 0 -249 -131z" />
<glyph unicode="&#xa1;" horiz-adv-x="490" d="M89 1062q0 63 45 108.5t111 45.5q64 0 111 -45.5t47 -108.5q0 -66 -45.5 -110.5t-112.5 -44.5q-66 0 -111 44.5t-45 110.5zM112 -374v1084h268v-1084h-268z" />
<glyph unicode="&#xa2;" horiz-adv-x="1211" d="M89 528q0 234 136 380.5t370 177.5v199h239v-196q162 -15 276 -91v-224q-110 80 -276 98v-682q166 20 289 102v-221q-118 -77 -289 -98v-197h-239v197q-234 29 -370 174t-136 381zM372 528q0 -133 59.5 -213.5t163.5 -111.5v653q-106 -31 -164.5 -113t-58.5 -215z" />
<glyph unicode="&#xa3;" horiz-adv-x="1087" d="M89 0v232h172v475h-162v233h162v217q0 135 61.5 230t167 143.5t234.5 48.5q105 0 185 -30v-226q-59 27 -130 26q-108 0 -172.5 -55t-64.5 -157v-197h363v-233h-363v-475h458v-232h-911z" />
<glyph unicode="&#xa4;" horiz-adv-x="1321" d="M89 247l187 140q-65 97 -65 221t65 224l-185 139l117 146l195 -155q112 85 258 85t259 -85l195 155l117 -146l-185 -139q65 -100 65 -224t-65 -221l187 -140l-119 -148l-197 153q-112 -82 -257 -81q-144 0 -256 81l-197 -153zM431 608q0 -97 67.5 -164.5t162.5 -67.5 t162.5 67.5t67.5 164.5t-67.5 165.5t-162.5 68.5t-162.5 -68.5t-67.5 -165.5z" />
<glyph unicode="&#xa5;" horiz-adv-x="1578" d="M89 1547h298l398 -688l409 688h296l-492 -826h222v-183h-302v-142h302v-185h-302v-211h-268v211h-302v185h302v142h-302v183h224z" />
<glyph unicode="&#xa6;" horiz-adv-x="456" d="M89 -319v861h280v-861h-280zM89 935v861h280v-861h-280z" />
<glyph unicode="&#xa7;" horiz-adv-x="1253" d="M89 -42q110 -53 232 -79.5t238 -26.5q148 0 226 55t78 152q0 68 -34.5 112t-101 78t-214.5 96q-217 90 -314 196.5t-97 268.5q0 95 44 165q-44 74 -44 177q0 127 68.5 224t192.5 150t285 53q133 0 235.5 -21t202.5 -65v-235q-192 93 -389 93q-131 0 -213.5 -58.5 t-82.5 -146.5q0 -80 77 -139.5t263 -141.5q168 -76 253 -128.5t128 -131.5t43 -204q0 -87 -40 -167q40 -80 40 -177q0 -205 -148 -319t-437 -114q-137 0 -271 25.5t-220 67.5v241zM340 774q0 -77 71 -132.5t231 -124.5q114 -50 182.5 -85.5t104.5 -75.5q8 39 8 68 q0 62 -34 104t-95 75.5t-187 86.5q-84 36 -160.5 79t-108.5 76q-11 -38 -12 -71z" />
<glyph unicode="&#xa8;" horiz-adv-x="994" d="M89 1425q0 61 44 104t104 43q59 0 102 -43t43 -104q0 -62 -43 -104t-102 -42q-60 0 -104 43t-44 103zM612 1425q0 61 44.5 104t104.5 43t103 -43t43 -104q0 -62 -43 -104t-103 -42t-104.5 43t-44.5 103z" />
<glyph unicode="&#xa9;" horiz-adv-x="1806" d="M89 772q0 237 108.5 420.5t295 285t412.5 101.5t411.5 -101.5t293.5 -285t108 -420.5q0 -236 -108 -418.5t-293.5 -284.5t-411.5 -102t-412.5 102t-295 284.5t-108.5 418.5zM338 772q0 -177 74.5 -306.5t202.5 -197t290 -67.5q161 0 289.5 67.5t202.5 197t74 306.5 q0 175 -73 304t-202.5 197.5t-290.5 68.5q-164 0 -292 -68.5t-201.5 -197.5t-73.5 -304zM411 770q0 150 62.5 261t173.5 168t256 57q215 0 342 -84v-201q-61 44 -142 65t-172 21q-287 0 -287 -287q0 -285 283 -285q192 0 331 93v-202q-137 -91 -361 -91q-216 0 -351 128.5 t-135 356.5z" />
<glyph unicode="&#xaa;" horiz-adv-x="939" d="M89 1038q0 126 83 197.5t231 71.5q146 0 247 -60v23q0 80 -49.5 116t-159.5 36q-150 0 -260 -50v156q49 22 129.5 36.5t153.5 14.5q197 0 292 -85t95 -236v-462h-188v73q-48 -46 -111 -71.5t-153 -25.5q-138 0 -224 72t-86 194zM292 1038q0 -60 40 -90t115 -30 q66 0 120 25.5t83 71.5v84q-84 62 -199 62q-158 0 -159 -123z" />
<glyph unicode="&#xab;" horiz-adv-x="1388" d="M89 681v71l523 455l140 -175l-374 -315l374 -314l-140 -175zM637 681v71l524 455l139 -175l-373 -315l373 -314l-139 -175z" />
<glyph unicode="&#xac;" horiz-adv-x="986" d="M89 562v212h808v-482h-278v270h-530z" />
<glyph unicode="&#xad;" horiz-adv-x="910" d="M89 551v223h734v-223h-734z" />
<glyph unicode="&#xae;" horiz-adv-x="1806" d="M89 772q0 237 108.5 420.5t295 285t412.5 101.5t411.5 -101.5t293.5 -285t108 -420.5q0 -236 -108 -418.5t-293.5 -284.5t-411.5 -102t-412.5 102t-295 284.5t-108.5 418.5zM338 772q0 -177 74.5 -306.5t202.5 -197t290 -67.5q161 0 289.5 67.5t202.5 197t74 306.5 q0 175 -73 304t-202.5 197.5t-290.5 68.5q-164 0 -292 -68.5t-201.5 -197.5t-73.5 -304zM575 323v909h374q153 0 245.5 -75.5t92.5 -212.5q0 -99 -57.5 -168t-159.5 -95l180 -358h-218l-173 344h-70v-344h-214zM789 832h151q82 0 118.5 26.5t36.5 85.5q0 68 -35.5 95 t-119.5 27h-151v-234z" />
<glyph unicode="&#xaf;" horiz-adv-x="891" d="M89 1314v186h713v-186h-713z" />
<glyph unicode="&#xb0;" horiz-adv-x="813" d="M89 1290q0 86 43 159t116 116t159 43q87 0 159.5 -43t116 -116t43.5 -159q0 -87 -43.5 -160t-116 -116t-159.5 -43q-86 0 -159 43t-116 116t-43 160zM261 1290q0 -60 44.5 -104t101.5 -44q60 0 103 44t43 104q0 59 -43 102t-103 43q-59 0 -102.5 -43t-43.5 -102z" />
<glyph unicode="&#xb1;" horiz-adv-x="910" d="M89 0v224h734v-224h-734zM89 595v224h253v253h224v-253h257v-224h-257v-257h-224v257h-253z" />
<glyph unicode="&#xb2;" horiz-adv-x="756" d="M89 819v130l145 121q127 104 172 152t45 97q0 77 -99 76q-53 0 -121.5 -21t-110.5 -49v179q42 27 112.5 45.5t132.5 18.5q146 0 220 -68.5t74 -170.5q0 -52 -19 -92t-52 -72t-106 -95l-110 -93h295v-158h-578z" />
<glyph unicode="&#xb3;" horiz-adv-x="766" d="M89 838v158q46 -22 110.5 -34.5t116.5 -12.5q68 0 107 17.5t39 63.5q0 42 -33 61t-110 19h-108v150h105q127 0 127 74q0 38 -35.5 59t-101.5 21q-100 0 -202 -59v158q103 55 263 55q137 0 214.5 -56t77.5 -157q0 -117 -110 -169q130 -36 130 -171q0 -101 -83 -160 t-235 -59q-173 0 -272 42z" />
<glyph unicode="&#xb4;" horiz-adv-x="623" d="M89 1258l154 386h293l-191 -386h-256z" />
<glyph unicode="&#xb6;" horiz-adv-x="1676" d="M89 1125q0 270 160 415.5t426 145.5h913v-1982h-281v1750h-272v-1750h-281v874h-130q-243 0 -389 142.5t-146 404.5z" />
<glyph unicode="&#xb7;" horiz-adv-x="401" d="M89 654q0 47 32.5 80.5t79.5 33.5q46 0 79.5 -33.5t33.5 -80.5q0 -46 -33.5 -79t-79.5 -33q-47 0 -79.5 33t-32.5 79z" />
<glyph unicode="&#xb8;" horiz-adv-x="696" d="M89 -522l2 153q25 -11 60 -19t68 -8q131 0 131 90q0 53 -52.5 85.5t-166.5 32.5l72 188h251l-45 -114q95 -11 147 -70t52 -148q0 -103 -86.5 -160t-232.5 -57q-59 0 -114 7.5t-86 19.5z" />
<glyph unicode="&#xb9;" horiz-adv-x="521" d="M89 1207v191l200 149h188v-728h-207v519z" />
<glyph unicode="&#xba;" horiz-adv-x="1068" d="M89 1174q0 184 121.5 294.5t325.5 110.5q201 0 322.5 -110.5t121.5 -294.5q0 -188 -120.5 -296t-323.5 -108q-204 0 -325.5 108t-121.5 296zM298 1174q0 -108 64.5 -175.5t173.5 -67.5q106 0 170 67.5t64 175.5q0 112 -63 178t-171 66q-110 0 -174 -64t-64 -180z" />
<glyph unicode="&#xbb;" horiz-adv-x="1388" d="M89 403l373 314l-373 315l139 175l524 -455v-71l-524 -453zM637 403l374 314l-374 315l140 175l523 -455v-71l-523 -453z" />
<glyph unicode="&#xbc;" horiz-adv-x="1621" d="M89 1207v191l200 149h188v-728h-207v519zM224 0l855 1547h286l-856 -1547h-285zM882 150v142l325 436h224v-427h102v-151h-102v-150h-207v150h-342zM1077 301h177v233z" />
<glyph unicode="&#xbd;" horiz-adv-x="1655" d="M89 1207v191l200 149h188v-728h-207v519zM224 0l855 1547h286l-856 -1547h-285zM988 0v131l147 121q126 103 171 151t45 97q0 78 -99 78q-53 0 -121.5 -21t-110.5 -50v179q42 27 112.5 45.5t132.5 18.5q145 0 220 -69t75 -170q0 -53 -19 -93t-52 -72t-107 -94l-110 -93 h296v-159h-580z" />
<glyph unicode="&#xbe;" horiz-adv-x="1647" d="M89 838v158q46 -22 110.5 -34.5t116.5 -12.5q68 0 107 17.5t39 63.5q0 42 -33 61t-110 19h-108v150h105q127 0 127 74q0 38 -35.5 59t-101.5 21q-100 0 -202 -59v158q103 55 263 55q137 0 214.5 -56t77.5 -157q0 -117 -110 -169q130 -36 130 -171q0 -101 -83 -160 t-235 -59q-173 0 -272 42zM249 0l857 1547h285l-855 -1547h-287zM909 150v142l325 436h224v-427h102v-151h-102v-150h-208v150h-341zM1104 301h177v233z" />
<glyph unicode="&#xbf;" horiz-adv-x="1149" d="M89 25q0 82 29.5 140.5t75 100.5t138.5 112q95 73 129.5 105t52 74t17.5 116v48h267v-50q0 -131 -48.5 -219.5t-158.5 -168.5l-57 -40q-93 -64 -132 -106t-39 -112q0 -91 69.5 -142t211.5 -51q106 0 216.5 24t201.5 66v-232q-87 -38 -197.5 -62t-220.5 -24 q-257 0 -406 110.5t-149 310.5zM511 1062q0 63 46.5 108.5t109.5 45.5q66 0 112 -45.5t46 -108.5q0 -66 -45.5 -110.5t-112.5 -44.5q-65 0 -110.5 44.5t-45.5 110.5z" />
<glyph unicode="&#xc0;" horiz-adv-x="1684" d="M89 0l618 1547h273l617 -1547h-286l-141 356h-655l-139 -356h-287zM517 2026h295l152 -384h-257zM593 589h500l-251 656z" />
<glyph unicode="&#xc1;" horiz-adv-x="1684" d="M89 0l618 1547h273l617 -1547h-286l-141 356h-655l-139 -356h-287zM593 589h500l-251 656zM728 1642l152 384h294l-190 -384h-256z" />
<glyph unicode="&#xc2;" horiz-adv-x="1684" d="M89 0l618 1547h273l617 -1547h-286l-141 356h-655l-139 -356h-287zM396 1642l325 378h248l323 -378h-279l-168 218l-168 -218h-281zM593 589h500l-251 656z" />
<glyph unicode="&#xc3;" horiz-adv-x="1684" d="M89 0l618 1547h273l617 -1547h-286l-141 356h-655l-139 -356h-287zM414 1642v227q71 96 221 96q49 0 95.5 -13.5t118.5 -43.5q61 -27 108 -41t96 -14q137 0 221 114v-228q-68 -93 -221 -93q-55 0 -106.5 14t-117.5 43q-65 27 -106.5 40t-87.5 13q-64 0 -118.5 -26.5 t-102.5 -87.5zM593 589h500l-251 656z" />
<glyph unicode="&#xc4;" horiz-adv-x="1684" d="M89 0l618 1547h273l617 -1547h-286l-141 356h-655l-139 -356h-287zM433 1809q0 62 44.5 105t104.5 43t103 -42.5t43 -105.5q0 -62 -43 -104t-103 -42t-104.5 43.5t-44.5 102.5zM593 589h500l-251 656zM958 1809q0 62 44.5 105t103.5 43t102.5 -42.5t43.5 -105.5 q0 -62 -43.5 -104t-102.5 -42t-103.5 43.5t-44.5 102.5z" />
<glyph unicode="&#xc5;" horiz-adv-x="1684" d="M89 0l599 1495q-55 38 -87.5 96.5t-32.5 128.5q0 115 80 196t194 81q115 0 196 -80.5t81 -196.5q0 -71 -32 -129t-87 -96l597 -1495h-286l-141 356h-655l-139 -356h-287zM593 589h500l-251 656zM730 1720q0 -46 33 -79t79 -33q47 0 80.5 33t33.5 79q0 47 -33.5 80.5 t-80.5 33.5q-46 0 -79 -33.5t-33 -80.5z" />
<glyph unicode="&#xc6;" horiz-adv-x="2043" d="M89 0l732 1547h1134v-233h-687v-425h490v-232h-490v-425h687v-232h-969v378h-422l-175 -378h-300zM671 589h315v698h-6z" />
<glyph unicode="&#xc7;" horiz-adv-x="1556" d="M89 772q0 243 103.5 425.5t292 282t431.5 99.5q321 0 534 -152v-268q-192 164 -510 164q-171 0 -299 -67.5t-198.5 -191.5t-70.5 -292t71.5 -292t200 -191.5t296.5 -67.5q164 0 292.5 41t236.5 132v-268q-160 -124 -407 -153l-36 -87q95 -11 147.5 -70t52.5 -148 q0 -103 -86.5 -160t-232.5 -57q-59 0 -114.5 7.5t-87.5 19.5l2 153q25 -11 60 -19t69 -8q131 0 131 90q0 53 -52 85.5t-168 32.5l63 159q-215 19 -378.5 123.5t-253 278t-89.5 399.5z" />
<glyph unicode="&#xc8;" horiz-adv-x="1266" d="M133 0v1547h1046v-233h-765v-425h568v-232h-568v-425h765v-232h-1046zM338 2026h295l152 -384h-257z" />
<glyph unicode="&#xc9;" horiz-adv-x="1245" d="M133 0v1547h1046v-233h-765v-425h568v-232h-568v-425h765v-232h-1046zM482 1642l153 384h294l-190 -384h-257z" />
<glyph unicode="&#xca;" horiz-adv-x="1266" d="M133 0v1547h1046v-233h-765v-425h568v-232h-568v-425h765v-232h-1046zM175 1642l325 378h247l323 -378h-278l-168 218l-168 -218h-281z" />
<glyph unicode="&#xcb;" horiz-adv-x="1266" d="M133 0v1547h1046v-233h-765v-425h568v-232h-568v-425h765v-232h-1046zM230 1809q0 62 44.5 105t103.5 43t102.5 -42.5t43.5 -105.5q0 -62 -43 -104t-103 -42q-59 0 -103.5 43.5t-44.5 102.5zM754 1809q0 62 44 105t105 43q59 0 102.5 -42.5t43.5 -105.5q0 -62 -43.5 -104 t-102.5 -42q-61 0 -105 43.5t-44 102.5z" />
<glyph unicode="&#xcc;" horiz-adv-x="559" d="M-42 2026h294l153 -384h-257zM139 0v1547h281v-1547h-281z" />
<glyph unicode="&#xcd;" horiz-adv-x="559" d="M139 0v1547h281v-1547h-281zM152 1642l154 384h293l-190 -384h-257z" />
<glyph unicode="&#xce;" horiz-adv-x="559" d="M-168 1642l325 378h248l323 -378h-279l-168 218l-169 -218h-280zM139 0v1547h281v-1547h-281z" />
<glyph unicode="&#xcf;" horiz-adv-x="559" d="M-131 1809q0 62 44.5 105t103.5 43q60 0 103.5 -42.5t43.5 -105.5q0 -62 -43 -104t-104 -42q-59 0 -103.5 43.5t-44.5 102.5zM139 0v1547h281v-1547h-281zM394 1809q0 62 44 105t104 43t103 -42.5t43 -105.5q0 -62 -43 -104t-103 -42t-104 43.5t-44 102.5z" />
<glyph unicode="&#xd0;" horiz-adv-x="1602" d="M44 665v213h131v669h517q252 0 438.5 -93t285.5 -266t99 -407q0 -385 -223.5 -583t-624.5 -198h-492v665h-131zM456 232h217q270 0 414.5 145t144.5 404q0 156 -64 277t-183.5 188.5t-283.5 67.5h-245v-436h380v-213h-380v-433z" />
<glyph unicode="&#xd1;" horiz-adv-x="1534" d="M133 0v1547h266l722 -1078v1078h281v-1547h-265l-723 1079v-1079h-281zM354 1642v227q72 96 221 96q48 0 95 -13.5t119 -43.5q62 -27 108.5 -41t96.5 -14q137 0 220 114v-228q-68 -93 -220 -93q-55 0 -106.5 14t-117.5 43q-66 27 -107.5 40t-87.5 13q-64 0 -118 -26.5 t-103 -87.5z" />
<glyph unicode="&#xd2;" horiz-adv-x="1815" d="M89 772q0 237 107 420.5t294 285t419 101.5q230 0 417 -101.5t294 -285t107 -420.5q0 -236 -107 -418.5t-294 -284.5t-417 -102q-232 0 -419 100.5t-294 284.5t-107 420zM372 772q0 -166 71.5 -291t194.5 -192.5t271 -67.5t269.5 67.5t193.5 192.5t72 291q0 164 -71 289 t-192.5 193.5t-271.5 68.5t-273 -68.5t-193.5 -194t-70.5 -288.5zM608 2026h295l152 -384h-257z" />
<glyph unicode="&#xd3;" horiz-adv-x="1815" d="M89 772q0 237 107 420.5t294 285t419 101.5q230 0 417 -101.5t294 -285t107 -420.5q0 -236 -107 -418.5t-294 -284.5t-417 -102q-232 0 -419 100.5t-294 284.5t-107 420zM372 772q0 -166 71.5 -291t194.5 -192.5t271 -67.5t269.5 67.5t193.5 192.5t72 291q0 164 -71 289 t-192.5 193.5t-271.5 68.5t-273 -68.5t-193.5 -194t-70.5 -288.5zM777 1642l152 384h295l-192 -384h-255z" />
<glyph unicode="&#xd4;" horiz-adv-x="1815" d="M89 772q0 237 107 420.5t294 285t419 101.5q230 0 417 -101.5t294 -285t107 -420.5q0 -236 -107 -418.5t-294 -284.5t-417 -102q-232 0 -419 100.5t-294 284.5t-107 420zM372 772q0 -166 71.5 -291t194.5 -192.5t271 -67.5t269.5 67.5t193.5 192.5t72 291q0 164 -71 289 t-192.5 193.5t-271.5 68.5t-273 -68.5t-193.5 -194t-70.5 -288.5zM460 1642l325 378h247l323 -378h-278l-168 218l-168 -218h-281z" />
<glyph unicode="&#xd5;" horiz-adv-x="1815" d="M89 772q0 237 107 420.5t294 285t419 101.5q230 0 417 -101.5t294 -285t107 -420.5q0 -236 -107 -418.5t-294 -284.5t-417 -102q-232 0 -419 100.5t-294 284.5t-107 420zM372 772q0 -166 71.5 -291t194.5 -192.5t271 -67.5t269.5 67.5t193.5 192.5t72 291q0 164 -71 289 t-192.5 193.5t-271.5 68.5t-273 -68.5t-193.5 -194t-70.5 -288.5zM480 1642v227q71 96 221 96q49 0 95 -13.5t120 -43.5q61 -27 107.5 -41t95.5 -14q137 0 221 114v-228q-68 -93 -221 -93q-55 0 -106 14t-118 43q-66 27 -107 40t-87 13q-64 0 -118.5 -26.5t-102.5 -87.5z " />
<glyph unicode="&#xd6;" horiz-adv-x="1815" d="M89 772q0 237 107 420.5t294 285t419 101.5q230 0 417 -101.5t294 -285t107 -420.5q0 -236 -107 -418.5t-294 -284.5t-417 -102q-232 0 -419 100.5t-294 284.5t-107 420zM372 772q0 -166 71.5 -291t194.5 -192.5t271 -67.5t269.5 67.5t193.5 192.5t72 291q0 164 -71 289 t-192.5 193.5t-271.5 68.5t-273 -68.5t-193.5 -194t-70.5 -288.5zM498 1809q0 62 44 105t104 43q59 0 102.5 -42.5t43.5 -105.5q0 -62 -43.5 -104t-102.5 -42q-60 0 -104 43.5t-44 102.5zM1022 1809q0 62 44 105t104 43q59 0 103 -42.5t44 -105.5q0 -62 -43.5 -104 t-103.5 -42t-104 43.5t-44 102.5z" />
<glyph unicode="&#xd7;" horiz-adv-x="855" d="M89 854l158 157l180 -182l181 184l160 -159l-182 -181l180 -179l-158 -160l-181 179l-178 -177l-158 158l179 179z" />
<glyph unicode="&#xd8;" horiz-adv-x="1815" d="M89 772q0 237 107 420.5t294 285t419 101.5q89 0 182 -17l70 172h274l-103 -261q183 -101 289 -283.5t106 -417.5q0 -236 -107 -418.5t-294 -284.5t-417 -102q-86 0 -179 18l-69 -175h-274l104 256q-188 101 -295 285.5t-107 420.5zM372 772q0 -150 58.5 -267.5 t160.5 -188.5l403 1001q-43 6 -85 6q-150 0 -273 -68.5t-193.5 -194t-70.5 -288.5zM829 226q49 -5 80 -5q148 0 269.5 67.5t193.5 192.5t72 291q0 146 -57.5 262t-156.5 190z" />
<glyph unicode="&#xd9;" horiz-adv-x="1562" d="M122 602v945h281v-950q0 -183 102.5 -279.5t277.5 -96.5q173 0 275.5 96.5t102.5 279.5v950h281v-945q0 -292 -166 -463.5t-493 -171.5t-494 171.5t-167 463.5zM473 2026h295l152 -384h-257z" />
<glyph unicode="&#xda;" horiz-adv-x="1562" d="M122 602v945h281v-950q0 -183 102.5 -279.5t277.5 -96.5q173 0 275.5 96.5t102.5 279.5v950h281v-945q0 -292 -166 -463.5t-493 -171.5t-494 171.5t-167 463.5zM639 1642l153 384h294l-191 -384h-256z" />
<glyph unicode="&#xdb;" horiz-adv-x="1562" d="M122 602v945h281v-950q0 -183 102.5 -279.5t277.5 -96.5q173 0 275.5 96.5t102.5 279.5v950h281v-945q0 -292 -166 -463.5t-493 -171.5t-494 171.5t-167 463.5zM334 1642l325 378h248l323 -378h-279l-168 218l-168 -218h-281z" />
<glyph unicode="&#xdc;" horiz-adv-x="1562" d="M122 602v945h281v-950q0 -183 102.5 -279.5t277.5 -96.5q173 0 275.5 96.5t102.5 279.5v950h281v-945q0 -292 -166 -463.5t-493 -171.5t-494 171.5t-167 463.5zM372 1809q0 62 44 105t103 43q60 0 103 -42.5t43 -105.5q0 -62 -42.5 -104t-103.5 -42q-59 0 -103 43.5 t-44 102.5zM895 1809q0 62 44.5 105t104.5 43t103 -42.5t43 -105.5q0 -62 -43 -104t-103 -42t-104.5 43.5t-44.5 102.5z" />
<glyph unicode="&#xdd;" horiz-adv-x="1604" d="M102 1547h299l397 -688l409 688h297l-573 -958v-589h-268v589zM659 1642l153 384h294l-190 -384h-257z" />
<glyph unicode="&#xde;" horiz-adv-x="1357" d="M133 0v1547h281v-287h356q259 0 401.5 -120t142.5 -363t-143 -363t-401 -120h-356v-294h-281zM414 526h303q148 0 231.5 53.5t83.5 197.5q0 145 -83.5 198t-231.5 53h-303v-502z" />
<glyph unicode="&#xdf;" horiz-adv-x="1433" d="M122 0v1102q0 254 143.5 399t424.5 145q184 0 306.5 -67.5t181.5 -177t59 -234.5q0 -105 -47.5 -193.5t-136.5 -131.5q146 -42 219 -142.5t73 -252.5q0 -221 -130.5 -350.5t-374.5 -129.5q-188 0 -287 42v259q91 -47 241 -47q124 0 194.5 73t70.5 193q0 122 -73.5 176 t-219.5 54h-127v234h100q212 0 212 216q0 100 -69.5 160t-189.5 60q-289 0 -289 -268v-1119h-281z" />
<glyph unicode="&#xe0;" horiz-adv-x="1275" d="M89 338q0 177 115 277t322 100q201 0 348 -82v28q0 112 -70 163.5t-224 51.5q-97 0 -192.5 -19t-168.5 -52v219q66 31 178 51t215 20q277 0 410 -118t133 -329v-648h-264v104q-68 -66 -155.5 -101.5t-213.5 -35.5q-190 0 -311.5 100.5t-121.5 270.5zM372 338 q0 -84 56.5 -125.5t162.5 -41.5q93 0 168 36t115 101v116q-122 87 -279 87q-223 0 -223 -173zM389 1568h295l152 -384h-256z" />
<glyph unicode="&#xe1;" horiz-adv-x="1275" d="M89 338q0 177 115 277t322 100q201 0 348 -82v28q0 112 -70 163.5t-224 51.5q-97 0 -192.5 -19t-168.5 -52v219q66 31 178 51t215 20q277 0 410 -118t133 -329v-648h-264v104q-68 -66 -155.5 -101.5t-213.5 -35.5q-190 0 -311.5 100.5t-121.5 270.5zM372 338 q0 -84 56.5 -125.5t162.5 -41.5q93 0 168 36t115 101v116q-122 87 -279 87q-223 0 -223 -173zM513 1184l152 384h295l-190 -384h-257z" />
<glyph unicode="&#xe2;" horiz-adv-x="1275" d="M89 338q0 177 115 277t322 100q201 0 348 -82v28q0 112 -70 163.5t-224 51.5q-97 0 -192.5 -19t-168.5 -52v219q66 31 178 51t215 20q277 0 410 -118t133 -329v-648h-264v104q-68 -66 -155.5 -101.5t-213.5 -35.5q-190 0 -311.5 100.5t-121.5 270.5zM208 1184l326 378 h247l323 -378h-279l-168 218l-168 -218h-281zM372 338q0 -84 56.5 -125.5t162.5 -41.5q93 0 168 36t115 101v116q-122 87 -279 87q-223 0 -223 -173z" />
<glyph unicode="&#xe3;" horiz-adv-x="1275" d="M89 338q0 177 115 277t322 100q201 0 348 -82v28q0 112 -70 163.5t-224 51.5q-97 0 -192.5 -19t-168.5 -52v219q66 31 178 51t215 20q277 0 410 -118t133 -329v-648h-264v104q-68 -66 -155.5 -101.5t-213.5 -35.5q-190 0 -311.5 100.5t-121.5 270.5zM255 1179v228 q71 95 220 95q49 0 95.5 -13.5t119.5 -42.5q62 -27 108.5 -41t94.5 -14q137 0 222 113v-227q-68 -93 -222 -93q-55 0 -105.5 14t-116.5 43q-66 27 -107.5 40t-88.5 13q-64 0 -118 -26.5t-102 -88.5zM372 338q0 -84 56.5 -125.5t162.5 -41.5q93 0 168 36t115 101v116 q-122 87 -279 87q-223 0 -223 -173z" />
<glyph unicode="&#xe4;" horiz-adv-x="1275" d="M89 338q0 177 115 277t322 100q201 0 348 -82v28q0 112 -70 163.5t-224 51.5q-97 0 -192.5 -19t-168.5 -52v219q66 31 178 51t215 20q277 0 410 -118t133 -329v-648h-264v104q-68 -66 -155.5 -101.5t-213.5 -35.5q-190 0 -311.5 100.5t-121.5 270.5zM234 1351 q0 62 44.5 105.5t103.5 43.5q60 0 103 -43t43 -106q0 -61 -42.5 -103.5t-103.5 -42.5q-59 0 -103.5 43.5t-44.5 102.5zM372 338q0 -84 56.5 -125.5t162.5 -41.5q93 0 168 36t115 101v116q-122 87 -279 87q-223 0 -223 -173zM758 1351q0 62 44.5 105.5t104.5 43.5t103 -43 t43 -106q0 -61 -43 -103.5t-103 -42.5t-104.5 43.5t-44.5 102.5z" />
<glyph unicode="&#xe5;" horiz-adv-x="1275" d="M89 338q0 177 115 277t322 100q201 0 348 -82v28q0 112 -70 163.5t-224 51.5q-97 0 -192.5 -19t-168.5 -52v219q66 31 178 51t215 20q277 0 410 -118t133 -329v-648h-264v104q-68 -66 -155.5 -101.5t-213.5 -35.5q-190 0 -311.5 100.5t-121.5 270.5zM372 338 q0 -84 56.5 -125.5t162.5 -41.5q93 0 168 36t115 101v116q-122 87 -279 87q-223 0 -223 -173zM399 1458q0 114 79 195t195 81q114 0 195 -81t81 -195t-81 -194t-195 -80q-116 0 -195 79t-79 195zM559 1458q0 -46 33.5 -79.5t80.5 -33.5q46 0 79 33.5t33 79.5t-33 79t-79 33 q-47 0 -80.5 -33t-33.5 -79z" />
<glyph unicode="&#xe6;" horiz-adv-x="2142" d="M89 338q0 177 115 277t322 100q201 0 348 -82v28q0 112 -70 163.5t-224 51.5q-97 0 -192.5 -19t-168.5 -52v219q66 31 178 51t215 20q288 0 426 -155q75 75 186.5 115t248.5 40q186 0 317.5 -70.5t198 -194t66.5 -279.5v-129h-900q29 -236 407 -236q101 0 207.5 17.5 t185.5 48.5v-214q-76 -32 -193.5 -51.5t-235.5 -19.5q-308 0 -496 170q-90 -84 -202.5 -127t-287.5 -43q-211 0 -331 99.5t-120 271.5zM372 338q0 -84 56.5 -125.5t162.5 -41.5q93 0 167 34t116 96v123q-122 87 -279 87q-223 0 -223 -173zM1155 612h637q-5 127 -90 195.5 t-233 68.5q-144 0 -227 -71t-87 -193z" />
<glyph unicode="&#xe7;" horiz-adv-x="1211" d="M89 528q0 177 78 304.5t218.5 195t329.5 67.5q247 0 395 -97v-224q-143 102 -367 102q-171 0 -271 -85.5t-100 -262.5q0 -175 100 -258.5t267 -83.5q223 0 384 106v-221q-116 -79 -291 -98l-34 -87q95 -11 147.5 -70t52.5 -148q0 -103 -86.5 -160t-232.5 -57 q-59 0 -114.5 7.5t-87.5 19.5l3 153q24 -11 59.5 -19t68.5 -8q131 0 131 90q0 53 -52 85.5t-168 32.5l65 163q-230 34 -362.5 176.5t-132.5 376.5z" />
<glyph unicode="&#xe8;" horiz-adv-x="1346" d="M89 528q0 261 152.5 414t435.5 153q186 0 317 -70.5t197.5 -194t66.5 -279.5v-129h-904q29 -236 412 -236q101 0 207 17.5t186 48.5v-214q-76 -32 -194 -51.5t-235 -19.5q-297 0 -469 148.5t-172 412.5zM354 612h642q-5 127 -90 195.5t-233 68.5q-146 0 -230 -71 t-89 -193zM384 1568h295l153 -384h-257z" />
<glyph unicode="&#xe9;" horiz-adv-x="1346" d="M89 528q0 261 152.5 414t435.5 153q186 0 317 -70.5t197.5 -194t66.5 -279.5v-129h-904q29 -236 412 -236q101 0 207 17.5t186 48.5v-214q-76 -32 -194 -51.5t-235 -19.5q-297 0 -469 148.5t-172 412.5zM354 612h642q-5 127 -90 195.5t-233 68.5q-146 0 -230 -71 t-89 -193zM524 1184l153 384h294l-190 -384h-257z" />
<glyph unicode="&#xea;" horiz-adv-x="1346" d="M89 528q0 261 152.5 414t435.5 153q186 0 317 -70.5t197.5 -194t66.5 -279.5v-129h-904q29 -236 412 -236q101 0 207 17.5t186 48.5v-214q-76 -32 -194 -51.5t-235 -19.5q-297 0 -469 148.5t-172 412.5zM245 1184l325 378h249l323 -378h-279l-169 218l-168 -218h-281z M354 612h642q-5 127 -90 195.5t-233 68.5q-146 0 -230 -71t-89 -193z" />
<glyph unicode="&#xeb;" horiz-adv-x="1346" d="M89 528q0 261 152.5 414t435.5 153q186 0 317 -70.5t197.5 -194t66.5 -279.5v-129h-904q29 -236 412 -236q101 0 207 17.5t186 48.5v-214q-76 -32 -194 -51.5t-235 -19.5q-297 0 -469 148.5t-172 412.5zM276 1351q0 62 44.5 105.5t103.5 43.5q60 0 103 -43t43 -106 q0 -61 -42.5 -103.5t-103.5 -42.5q-59 0 -103.5 43.5t-44.5 102.5zM354 612h642q-5 127 -90 195.5t-233 68.5q-146 0 -230 -71t-89 -193zM800 1351q0 62 44.5 105.5t104.5 43.5t103 -43t43 -106q0 -61 -43 -103.5t-103 -42.5t-104.5 43.5t-44.5 102.5z" />
<glyph unicode="&#xec;" horiz-adv-x="547" d="M-44 1568h293l154 -384h-257zM133 0v1062h283v-1062h-283z" />
<glyph unicode="&#xed;" horiz-adv-x="547" d="M133 0v1062h283v-1062h-283zM141 1184l153 384h295l-190 -384h-258z" />
<glyph unicode="&#xee;" horiz-adv-x="547" d="M-173 1184l325 378h249l323 -378h-279l-169 218l-168 -218h-281zM133 0v1062h283v-1062h-283z" />
<glyph unicode="&#xef;" horiz-adv-x="547" d="M-135 1351q0 62 44.5 105.5t103.5 43.5t102.5 -43t43.5 -106q0 -61 -43 -103.5t-103 -42.5q-59 0 -103.5 43.5t-44.5 102.5zM133 0v1062h283v-1062h-283zM389 1351q0 62 44 105.5t105 43.5q59 0 102.5 -43t43.5 -106q0 -61 -43.5 -103.5t-102.5 -42.5q-61 0 -105 43.5 t-44 102.5z" />
<glyph unicode="&#xf0;" horiz-adv-x="1401" d="M89 489q0 239 150 376t420 137q106 0 204.5 -35.5t164.5 -101.5q-6 199 -91 334l-295 -144v179l174 85q-75 44 -170 44q-64 0 -146 -12.5t-126 -29.5v226q48 13 131.5 22.5t140.5 9.5q255 0 409 -146l259 127v-180l-157 -78q124 -217 124 -590q0 -243 -78 -410t-216 -251 t-320 -84t-314 66t-198 184.5t-66 271.5zM365 482q0 -137 87.5 -219t224.5 -82q133 0 214.5 87.5t81.5 213.5q0 133 -84 217t-212 84q-137 0 -224.5 -82t-87.5 -219z" />
<glyph unicode="&#xf1;" horiz-adv-x="1348" d="M133 0v1062h270v-144q75 91 179 134t218 43q215 0 321.5 -116t106.5 -308v-671h-279v644q0 232 -217 232q-95 0 -179 -45.5t-142 -136.5v-694h-278zM224 1184v228q71 95 221 95q49 0 95 -13.5t119 -43.5q61 -27 108 -41t96 -14q137 0 221 114v-228q-68 -93 -221 -93 q-55 0 -106.5 14t-117.5 43q-66 27 -107 40t-87 13q-64 0 -118.5 -26.5t-102.5 -87.5z" />
<glyph unicode="&#xf2;" horiz-adv-x="1419" d="M89 531q0 171 76 298t217.5 196.5t327.5 69.5q185 0 326 -69.5t218.5 -197t77.5 -297.5q0 -175 -77.5 -302t-218.5 -194.5t-326 -67.5q-186 0 -326.5 67.5t-217.5 194.5t-77 302zM376 531q0 -152 90.5 -248.5t243.5 -96.5t243.5 96t90.5 249q0 162 -89.5 253.5 t-244.5 91.5t-244.5 -92t-89.5 -253zM427 1568h294l153 -384h-257z" />
<glyph unicode="&#xf3;" horiz-adv-x="1419" d="M89 531q0 171 76 298t217.5 196.5t327.5 69.5q185 0 326 -69.5t218.5 -197t77.5 -297.5q0 -175 -77.5 -302t-218.5 -194.5t-326 -67.5q-186 0 -326.5 67.5t-217.5 194.5t-77 302zM376 531q0 -152 90.5 -248.5t243.5 -96.5t243.5 96t90.5 249q0 162 -89.5 253.5 t-244.5 91.5t-244.5 -92t-89.5 -253zM575 1184l153 384h294l-190 -384h-257z" />
<glyph unicode="&#xf4;" horiz-adv-x="1499" d="M168 531q0 171 76.5 298t218 196.5t326.5 69.5q186 0 326.5 -69.5t218.5 -197t78 -297.5q0 -175 -78 -302t-218.5 -194.5t-326.5 -67.5q-185 0 -325.5 67.5t-218 194.5t-77.5 302zM342 1184l325 378h249l323 -378h-279l-168 218l-168 -218h-282zM456 531 q0 -152 90.5 -248.5t242.5 -96.5q153 0 243.5 96t90.5 249q0 162 -89.5 253.5t-244.5 91.5q-154 0 -243.5 -92t-89.5 -253z" />
<glyph unicode="&#xf5;" horiz-adv-x="1481" d="M150 531q0 171 76.5 298t218 196.5t327.5 69.5t326.5 -69.5t217.5 -197t77 -297.5q0 -175 -77 -302t-217.5 -194.5t-326.5 -67.5t-326 67.5t-218 194.5t-78 302zM342 1212v228q72 95 222 95q48 0 94.5 -13t120.5 -42q61 -27 107.5 -41t95.5 -14q137 0 221 112v-228 q-68 -93 -221 -93q-55 0 -106 14.5t-118 43.5q-66 27 -107 40t-87 13q-64 0 -118.5 -26.5t-103.5 -88.5zM438 531q0 -152 90.5 -248.5t243.5 -96.5q152 0 243 96t91 249q0 162 -89.5 253.5t-244.5 91.5q-154 0 -244 -92t-90 -253z" />
<glyph unicode="&#xf6;" horiz-adv-x="1459" d="M129 531q0 171 76 298t217.5 196.5t327.5 69.5q185 0 325.5 -69.5t218.5 -197t78 -297.5q0 -175 -78 -302t-218.5 -194.5t-325.5 -67.5q-186 0 -326.5 67.5t-217.5 194.5t-77 302zM340 1351q0 62 44.5 105.5t104.5 43.5t103 -43t43 -106q0 -61 -43 -103.5t-103 -42.5 t-104.5 43.5t-44.5 102.5zM416 531q0 -152 90.5 -248.5t243.5 -96.5t243.5 96t90.5 249q0 162 -89.5 253.5t-244.5 91.5t-244.5 -92t-89.5 -253zM865 1351q0 62 44.5 105.5t103.5 43.5t102.5 -43t43.5 -106q0 -61 -43.5 -103.5t-102.5 -42.5t-103.5 43.5t-44.5 102.5z" />
<glyph unicode="&#xf7;" horiz-adv-x="910" d="M89 551v223h734v-223h-734zM332 352q0 53 36.5 89t87.5 36t87.5 -36t36.5 -89q0 -51 -36.5 -86.5t-87.5 -35.5t-87.5 35.5t-36.5 86.5zM332 969q0 53 36.5 89.5t87.5 36.5t87.5 -36.5t36.5 -89.5q0 -51 -36.5 -86.5t-87.5 -35.5t-87.5 35.5t-36.5 86.5z" />
<glyph unicode="&#xf8;" horiz-adv-x="1419" d="M89 531q0 171 76 298t217.5 196.5t327.5 69.5q29 0 82 -4l64 161h275l-93 -228q139 -68 216.5 -196.5t77.5 -296.5q0 -175 -77.5 -302t-218.5 -194.5t-326 -67.5q-34 0 -95 4l-64 -161h-275l93 230q-135 68 -207.5 194.5t-72.5 296.5zM376 531q0 -154 91 -250l238 595 q-152 -2 -240.5 -94t-88.5 -251zM701 186h9q152 0 243 96t91 249q0 169 -100 261z" />
<glyph unicode="&#xf9;" horiz-adv-x="1348" d="M122 391v671h279v-644q0 -232 216 -232q95 0 179 45t141 136v695h279v-1062h-269v144q-75 -91 -179.5 -134t-218.5 -43q-215 0 -321 116t-106 308zM367 1568h294l153 -384h-257z" />
<glyph unicode="&#xfa;" horiz-adv-x="1348" d="M122 391v671h279v-644q0 -232 216 -232q95 0 179 45t141 136v695h279v-1062h-269v144q-75 -91 -179.5 -134t-218.5 -43q-215 0 -321 116t-106 308zM522 1184l153 384h294l-190 -384h-257z" />
<glyph unicode="&#xfb;" horiz-adv-x="1348" d="M122 391v671h279v-644q0 -232 216 -232q95 0 179 45t141 136v695h279v-1062h-269v144q-75 -91 -179.5 -134t-218.5 -43q-215 0 -321 116t-106 308zM211 1184l325 378h247l323 -378h-279l-168 218l-168 -218h-280z" />
<glyph unicode="&#xfc;" horiz-adv-x="1348" d="M122 391v671h279v-644q0 -232 216 -232q95 0 179 45t141 136v695h279v-1062h-269v144q-75 -91 -179.5 -134t-218.5 -43q-215 0 -321 116t-106 308zM252 1351q0 62 44 105.5t105 43.5q59 0 102 -43t43 -106q0 -61 -43 -103.5t-102 -42.5q-61 0 -105 43.5t-44 102.5z M777 1351q0 62 44 105.5t103 43.5q60 0 103 -43t43 -106q0 -61 -43 -103.5t-103 -42.5q-59 0 -103 43.5t-44 102.5z" />
<glyph unicode="&#xfd;" horiz-adv-x="1326" d="M89 1062h280l328 -775l307 775h279l-464 -1157q-72 -175 -172.5 -259t-259.5 -84q-58 0 -121 8t-98 21v212q56 -21 138 -22q84 0 125.5 37.5t72.5 119.5l42 111zM540 1184l152 384h294l-190 -384h-256z" />
<glyph unicode="&#xfe;" horiz-adv-x="1469" d="M133 -485v2032h278v-589q76 68 183 102.5t229 34.5q162 0 289 -69.5t198.5 -197t71.5 -294.5t-71.5 -295.5t-199 -200t-288.5 -71.5q-122 0 -229 34.5t-183 102.5v-589h-278zM411 424q36 -108 130 -173t213 -65q151 0 248 97t97 251q0 152 -97 247t-248 95 q-120 0 -212.5 -64.5t-130.5 -172.5v-215z" />
<glyph unicode="&#xff;" horiz-adv-x="1326" d="M89 1062h280l328 -775l307 775h279l-464 -1157q-72 -175 -172.5 -259t-259.5 -84q-58 0 -121 8t-98 21v212q56 -21 138 -22q84 0 125.5 37.5t72.5 119.5l42 111zM287 1351q0 62 44.5 105.5t103.5 43.5q60 0 103.5 -43t43.5 -106q0 -61 -43 -103.5t-104 -42.5 q-59 0 -103.5 43.5t-44.5 102.5zM812 1351q0 62 44.5 105.5t103.5 43.5q60 0 103 -43t43 -106q0 -61 -43 -103.5t-103 -42.5q-59 0 -103.5 43.5t-44.5 102.5z" />
<glyph unicode="&#x100;" horiz-adv-x="1684" d="M89 0l618 1547h273l617 -1547h-286l-141 356h-655l-139 -356h-287zM487 1663v186h714v-186h-714zM593 589h500l-251 656z" />
<glyph unicode="&#x101;" horiz-adv-x="1275" d="M89 338q0 177 115 277t322 100q201 0 348 -82v28q0 112 -70 163.5t-224 51.5q-97 0 -192.5 -19t-168.5 -52v219q66 31 178 51t215 20q277 0 410 -118t133 -329v-648h-264v104q-68 -66 -155.5 -101.5t-213.5 -35.5q-190 0 -311.5 100.5t-121.5 270.5zM319 1205v186h713 v-186h-713zM372 338q0 -84 56.5 -125.5t162.5 -41.5q93 0 168 36t115 101v116q-122 87 -279 87q-223 0 -223 -173z" />
<glyph unicode="&#x102;" horiz-adv-x="1684" d="M89 0l618 1547h273l617 -1547h-286l-141 356h-655l-139 -356h-287zM487 1975h210q0 -73 37.5 -110.5t107.5 -37.5q72 0 109 37.5t37 110.5h211q0 -150 -95 -241.5t-262 -91.5q-165 0 -260 91.5t-95 241.5zM593 589h500l-251 656z" />
<glyph unicode="&#x103;" horiz-adv-x="1275" d="M89 338q0 177 115 277t322 100q201 0 348 -82v28q0 112 -70 163.5t-224 51.5q-97 0 -192.5 -19t-168.5 -52v219q66 31 178 51t215 20q277 0 410 -118t133 -329v-648h-264v104q-68 -66 -155.5 -101.5t-213.5 -35.5q-190 0 -311.5 100.5t-121.5 270.5zM312 1517h210 q0 -73 37.5 -110.5t107.5 -37.5q72 0 109.5 37.5t37.5 110.5h210q0 -150 -95 -241.5t-262 -91.5q-165 0 -260 91.5t-95 241.5zM372 338q0 -84 56.5 -125.5t162.5 -41.5q93 0 168 36t115 101v116q-122 87 -279 87q-223 0 -223 -173z" />
<glyph unicode="&#x104;" horiz-adv-x="1684" d="M89 0l618 1547h273l617 -1547h-42q-88 -53 -131.5 -105t-43.5 -114q0 -42 25.5 -65.5t65.5 -23.5q57 0 106 25v-160q-76 -29 -192 -28q-111 0 -179.5 52t-68.5 151q0 84 44.5 153t116.5 115h13l-141 356h-655l-139 -356h-287zM593 589h500l-251 656z" />
<glyph unicode="&#x105;" horiz-adv-x="1275" d="M89 338q0 177 115 277t322 100q201 0 348 -82v28q0 112 -70 163.5t-224 51.5q-97 0 -192.5 -19t-168.5 -52v219q66 31 178 51t215 20q277 0 410 -118t133 -329v-648h-7q-89 -53 -132 -105t-43 -114q0 -42 25.5 -65.5t65.5 -23.5q57 0 106 25v-160q-76 -29 -193 -28 q-110 0 -178.5 52t-68.5 151q0 84 44.5 153t116.5 115v104q-68 -66 -155.5 -101.5t-213.5 -35.5q-190 0 -311.5 100.5t-121.5 270.5zM372 338q0 -84 56.5 -125.5t162.5 -41.5q93 0 168 36t115 101v116q-122 87 -279 87q-223 0 -223 -173z" />
<glyph unicode="&#x106;" horiz-adv-x="1556" d="M89 772q0 243 103.5 425.5t292 282t431.5 99.5q321 0 534 -152v-268q-192 164 -510 164q-171 0 -299 -67.5t-198.5 -191.5t-70.5 -292t71.5 -292t200 -191.5t296.5 -67.5q164 0 292.5 41t236.5 132v-268q-203 -158 -553 -159q-243 0 -431.5 98.5t-292 280.5t-103.5 426z M768 1642l152 384h294l-190 -384h-256z" />
<glyph unicode="&#x107;" horiz-adv-x="1211" d="M89 528q0 177 78 304.5t218.5 195t329.5 67.5q247 0 395 -97v-224q-143 102 -367 102q-171 0 -271 -85.5t-100 -262.5q0 -175 100 -258.5t267 -83.5q223 0 384 106v-221q-80 -53 -180.5 -78.5t-232.5 -25.5q-186 0 -326.5 66t-217.5 192.5t-77 302.5zM580 1184l152 384 h294l-190 -384h-256z" />
<glyph unicode="&#x108;" horiz-adv-x="1556" d="M89 772q0 243 103.5 425.5t292 282t431.5 99.5q321 0 534 -152v-268q-192 164 -510 164q-171 0 -299 -67.5t-198.5 -191.5t-70.5 -292t71.5 -292t200 -191.5t296.5 -67.5q164 0 292.5 41t236.5 132v-268q-203 -158 -553 -159q-243 0 -431.5 98.5t-292 280.5t-103.5 426z M449 1642l325 378h248l323 -378h-279l-169 218l-167 -218h-281z" />
<glyph unicode="&#x109;" horiz-adv-x="1211" d="M89 528q0 177 78 304.5t218.5 195t329.5 67.5q247 0 395 -97v-224q-143 102 -367 102q-171 0 -271 -85.5t-100 -262.5q0 -175 100 -258.5t267 -83.5q223 0 384 106v-221q-80 -53 -180.5 -78.5t-232.5 -25.5q-186 0 -326.5 66t-217.5 192.5t-77 302.5zM226 1184l325 378 h247l323 -378h-279l-167 218l-168 -218h-281z" />
<glyph unicode="&#x10a;" horiz-adv-x="1556" d="M89 772q0 243 103.5 425.5t292 282t431.5 99.5q321 0 534 -152v-268q-192 164 -510 164q-171 0 -299 -67.5t-198.5 -191.5t-70.5 -292t71.5 -292t200 -191.5t296.5 -67.5q164 0 292.5 41t236.5 132v-268q-203 -158 -553 -159q-243 0 -431.5 98.5t-292 280.5t-103.5 426z M741 1809q0 62 44 105t104 43q59 0 102.5 -42.5t43.5 -105.5q0 -62 -43 -104t-103 -42t-104 43.5t-44 102.5z" />
<glyph unicode="&#x10b;" horiz-adv-x="1211" d="M89 528q0 177 78 304.5t218.5 195t329.5 67.5q247 0 395 -97v-224q-143 102 -367 102q-171 0 -271 -85.5t-100 -262.5q0 -175 100 -258.5t267 -83.5q223 0 384 106v-221q-80 -53 -180.5 -78.5t-232.5 -25.5q-186 0 -326.5 66t-217.5 192.5t-77 302.5zM538 1329 q0 62 44 105t104 43q59 0 102.5 -43t43.5 -105q0 -61 -43.5 -103t-102.5 -42q-60 0 -104 43t-44 102z" />
<glyph unicode="&#x10c;" horiz-adv-x="1556" d="M89 772q0 243 103.5 425.5t292 282t431.5 99.5q321 0 534 -152v-268q-192 164 -510 164q-171 0 -299 -67.5t-198.5 -191.5t-70.5 -292t71.5 -292t200 -191.5t296.5 -67.5q164 0 292.5 41t236.5 132v-268q-203 -158 -553 -159q-243 0 -431.5 98.5t-292 280.5t-103.5 426z M449 2020h281l167 -222l169 222h279l-323 -378h-248z" />
<glyph unicode="&#x10d;" horiz-adv-x="1211" d="M89 528q0 177 78 304.5t218.5 195t329.5 67.5q247 0 395 -97v-224q-143 102 -367 102q-171 0 -271 -85.5t-100 -262.5q0 -175 100 -258.5t267 -83.5q223 0 384 106v-221q-80 -53 -180.5 -78.5t-232.5 -25.5q-186 0 -326.5 66t-217.5 192.5t-77 302.5zM211 1562h280 l168 -222l168 222h279l-323 -378h-247z" />
<glyph unicode="&#x10e;" horiz-adv-x="1560" d="M133 0v1547h517q252 0 438 -93t285.5 -266t99.5 -407q0 -385 -223.5 -583t-623.5 -198h-493zM283 2020h281l168 -222l169 222h278l-323 -378h-248zM414 232h217q270 0 414.5 145t144.5 404q0 156 -64 277t-183.5 188.5t-283.5 67.5h-245v-1082z" />
<glyph unicode="&#x10f;" horiz-adv-x="1824" d="M89 509q0 166 71.5 294t199 198.5t288.5 70.5q131 0 243.5 -50.5t170.5 -141.5v732h278v-1634h-270v170q-66 -97 -176.5 -150t-245.5 -53q-161 0 -288.5 69.5t-199 196.5t-71.5 298zM376 507q0 -157 96 -250t245 -93q121 0 214 59.5t131 165.5v237q-36 106 -130 167 t-215 61q-148 0 -244.5 -94.5t-96.5 -252.5zM1418 1290l173 411h234l-202 -411h-205z" />
<glyph unicode="&#x110;" horiz-adv-x="1602" d="M44 665v213h131v669h517q252 0 438.5 -93t285.5 -266t99 -407q0 -385 -223.5 -583t-624.5 -198h-492v665h-131zM456 232h217q270 0 414.5 145t144.5 404q0 156 -64 277t-183.5 188.5t-283.5 67.5h-245v-436h380v-213h-380v-433z" />
<glyph unicode="&#x111;" horiz-adv-x="1492" d="M89 528q0 166 71.5 294.5t199 200.5t288.5 72q261 0 411 -137v281h-402v209h402v186h279v-186h110v-209h-110v-1239h-270v124q-91 -84 -188 -120.5t-232 -36.5q-161 0 -288.5 69.5t-199 197t-71.5 294.5zM372 528q0 -152 97 -247t248 -95q119 0 212 64t130 172v215 q-35 108 -129 173.5t-213 65.5q-150 0 -247.5 -97.5t-97.5 -250.5z" />
<glyph unicode="&#x112;" horiz-adv-x="1266" d="M133 0v1547h1046v-233h-765v-425h568v-232h-568v-425h765v-232h-1046zM314 1663v186h714v-186h-714z" />
<glyph unicode="&#x113;" horiz-adv-x="1346" d="M89 528q0 261 152.5 414t435.5 153q186 0 317 -70.5t197.5 -194t66.5 -279.5v-129h-904q29 -236 412 -236q101 0 207 17.5t186 48.5v-214q-76 -32 -194 -51.5t-235 -19.5q-297 0 -469 148.5t-172 412.5zM334 1205v186h715v-186h-715zM354 612h642q-5 127 -90 195.5 t-233 68.5q-146 0 -230 -71t-89 -193z" />
<glyph unicode="&#x114;" horiz-adv-x="1266" d="M133 0v1547h1046v-233h-765v-425h568v-232h-568v-425h765v-232h-1046zM329 1975h211q0 -73 37.5 -110.5t108.5 -37.5t108.5 37.5t37.5 110.5h210q0 -150 -95.5 -241.5t-260.5 -91.5q-167 0 -262 91.5t-95 241.5z" />
<glyph unicode="&#x115;" horiz-adv-x="1346" d="M89 528q0 261 152.5 414t435.5 153q186 0 317 -70.5t197.5 -194t66.5 -279.5v-129h-904q29 -236 412 -236q101 0 207 17.5t186 48.5v-214q-76 -32 -194 -51.5t-235 -19.5q-297 0 -469 148.5t-172 412.5zM332 1517h210q0 -73 37.5 -110.5t108.5 -37.5t108.5 37.5 t37.5 110.5h210q0 -150 -95 -241.5t-261 -91.5t-261 91.5t-95 241.5zM354 612h642q-5 127 -90 195.5t-233 68.5q-146 0 -230 -71t-89 -193z" />
<glyph unicode="&#x116;" horiz-adv-x="1266" d="M133 0v1547h1046v-233h-765v-425h568v-232h-568v-425h765v-232h-1046zM534 1809q0 62 43.5 105t103.5 43t103 -42.5t43 -105.5q0 -62 -43 -104t-103 -42t-103.5 43.5t-43.5 102.5z" />
<glyph unicode="&#x117;" horiz-adv-x="1346" d="M89 528q0 261 152.5 414t435.5 153q186 0 317 -70.5t197.5 -194t66.5 -279.5v-129h-904q29 -236 412 -236q101 0 207 17.5t186 48.5v-214q-76 -32 -194 -51.5t-235 -19.5q-297 0 -469 148.5t-172 412.5zM354 612h642q-5 127 -90 195.5t-233 68.5q-146 0 -230 -71 t-89 -193zM534 1351q0 62 43.5 105.5t103.5 43.5t103 -43t43 -106q0 -61 -43 -103.5t-103 -42.5t-103.5 43.5t-43.5 102.5z" />
<glyph unicode="&#x118;" horiz-adv-x="1266" d="M133 0v1547h1046v-233h-765v-425h568v-232h-568v-425h765v-232h-22q-89 -53 -132 -105t-43 -114q0 -42 25 -65.5t65 -23.5q58 0 107 25v-160q-75 -29 -193 -28q-110 0 -178.5 52t-68.5 151q0 84 44 153t118 115h-768z" />
<glyph unicode="&#x119;" horiz-adv-x="1346" d="M89 528q0 261 152.5 414t435.5 153q186 0 317 -70.5t197.5 -194t66.5 -279.5v-129h-904q29 -236 412 -236q101 0 207 17.5t186 48.5v-214q-60 -27 -182 -49q-80 -48 -118 -99.5t-38 -108.5q0 -42 25.5 -65.5t65.5 -23.5q57 0 105 25v-160q-75 -29 -192 -28 q-110 0 -178.5 52t-68.5 151q0 139 116 235q-283 10 -444 157.5t-161 403.5zM354 612h642q-5 127 -90 195.5t-233 68.5q-146 0 -230 -71t-89 -193z" />
<glyph unicode="&#x11a;" horiz-adv-x="1266" d="M133 0v1547h1046v-233h-765v-425h568v-232h-568v-425h765v-232h-1046zM247 2020h281l169 -222l168 222h279l-323 -378h-249z" />
<glyph unicode="&#x11b;" horiz-adv-x="1346" d="M89 528q0 261 152.5 414t435.5 153q186 0 317 -70.5t197.5 -194t66.5 -279.5v-129h-904q29 -236 412 -236q101 0 207 17.5t186 48.5v-214q-76 -32 -194 -51.5t-235 -19.5q-297 0 -469 148.5t-172 412.5zM239 1562h280l169 -222l168 222h279l-323 -378h-248zM354 612h642 q-5 127 -90 195.5t-233 68.5q-146 0 -230 -71t-89 -193z" />
<glyph unicode="&#x11c;" horiz-adv-x="1576" d="M89 772q0 243 103.5 425.5t292 282t431.5 99.5q166 0 296 -35t236 -113v-268q-97 84 -223 122t-285 38t-288.5 -67.5t-204.5 -193t-75 -290.5q0 -168 70.5 -293t197 -192.5t287.5 -67.5q170 0 280 57v348h-260v223h541v-721q-205 -158 -572 -159q-243 0 -431.5 98.5 t-292 280.5t-103.5 426zM458 1642l325 378h247l323 -378h-278l-168 218l-168 -218h-281z" />
<glyph unicode="&#x11d;" horiz-adv-x="1469" d="M89 534q0 168 71.5 295t199 196.5t288.5 69.5q135 0 232 -36.5t188 -121.5v125h270v-998q0 -275 -158 -424t-486 -149q-105 0 -211.5 20t-176.5 54v220q172 -76 388 -74q195 0 280 81.5t85 243.5v68q-75 -68 -178.5 -102.5t-223.5 -34.5q-162 0 -292.5 71.5t-203 200 t-72.5 295.5zM314 1184l325 378h248l323 -378h-279l-167 218l-169 -218h-281zM372 534q0 -153 97 -250.5t248 -97.5q119 0 213 65t129 173v215q-37 108 -130 172.5t-212 64.5q-150 0 -247.5 -95t-97.5 -247z" />
<glyph unicode="&#x11e;" horiz-adv-x="1576" d="M89 772q0 243 103.5 425.5t292 282t431.5 99.5q166 0 296 -35t236 -113v-268q-97 84 -223 122t-285 38t-288.5 -67.5t-204.5 -193t-75 -290.5q0 -168 70.5 -293t197 -192.5t287.5 -67.5q170 0 280 57v348h-260v223h541v-721q-205 -158 -572 -159q-243 0 -431.5 98.5 t-292 280.5t-103.5 426zM568 1975h211q0 -73 37.5 -110.5t107.5 -37.5q72 0 109 37.5t37 110.5h211q0 -150 -95 -241.5t-262 -91.5q-166 0 -261 91.5t-95 241.5z" />
<glyph unicode="&#x11f;" horiz-adv-x="1469" d="M89 534q0 168 71.5 295t199 196.5t288.5 69.5q135 0 232 -36.5t188 -121.5v125h270v-998q0 -275 -158 -424t-486 -149q-105 0 -211.5 20t-176.5 54v220q172 -76 388 -74q195 0 280 81.5t85 243.5v68q-75 -68 -178.5 -102.5t-223.5 -34.5q-162 0 -292.5 71.5t-203 200 t-72.5 295.5zM372 534q0 -153 97 -250.5t248 -97.5q119 0 213 65t129 173v215q-37 108 -130 172.5t-212 64.5q-150 0 -247.5 -95t-97.5 -247zM399 1517h209q0 -73 38 -110.5t108 -37.5q71 0 109 37.5t38 110.5h209q0 -150 -95 -241.5t-261 -91.5q-165 0 -260 91.5t-95 241.5 z" />
<glyph unicode="&#x120;" horiz-adv-x="1576" d="M89 772q0 243 103.5 425.5t292 282t431.5 99.5q166 0 296 -35t236 -113v-268q-97 84 -223 122t-285 38t-288.5 -67.5t-204.5 -193t-75 -290.5q0 -168 70.5 -293t197 -192.5t287.5 -67.5q170 0 280 57v348h-260v223h541v-721q-205 -158 -572 -159q-243 0 -431.5 98.5 t-292 280.5t-103.5 426zM770 1809q0 62 44.5 105t103.5 43t102.5 -42.5t43.5 -105.5q0 -62 -43.5 -104t-102.5 -42t-103.5 43.5t-44.5 102.5z" />
<glyph unicode="&#x121;" horiz-adv-x="1469" d="M89 534q0 168 71.5 295t199 196.5t288.5 69.5q135 0 232 -36.5t188 -121.5v125h270v-998q0 -275 -158 -424t-486 -149q-105 0 -211.5 20t-176.5 54v220q172 -76 388 -74q195 0 280 81.5t85 243.5v68q-75 -68 -178.5 -102.5t-223.5 -34.5q-162 0 -292.5 71.5t-203 200 t-72.5 295.5zM372 534q0 -153 97 -250.5t248 -97.5q119 0 213 65t129 173v215q-37 108 -130 172.5t-212 64.5q-150 0 -247.5 -95t-97.5 -247zM615 1351q0 62 44 105.5t105 43.5q59 0 102 -43t43 -106q0 -61 -43 -103.5t-102 -42.5q-61 0 -105 43.5t-44 102.5z" />
<glyph unicode="&#x122;" horiz-adv-x="1576" d="M89 772q0 243 103.5 425.5t292 282t431.5 99.5q166 0 296 -35t236 -113v-268q-97 84 -223 122t-285 38t-288.5 -67.5t-204.5 -193t-75 -290.5q0 -168 70.5 -293t197 -192.5t287.5 -67.5q170 0 280 57v348h-260v223h541v-721q-205 -158 -572 -159q-243 0 -431.5 98.5 t-292 280.5t-103.5 426zM635 -572l181 448h290l-217 -448h-254z" />
<glyph unicode="&#x123;" horiz-adv-x="1469" d="M89 534q0 168 71.5 295t199 196.5t288.5 69.5q135 0 232 -36.5t188 -121.5v125h270v-998q0 -275 -158 -424t-486 -149q-105 0 -211.5 20t-176.5 54v220q172 -76 388 -74q195 0 280 81.5t85 243.5v68q-75 -68 -178.5 -102.5t-223.5 -34.5q-162 0 -292.5 71.5t-203 200 t-72.5 295.5zM372 534q0 -153 97 -250.5t248 -97.5q119 0 213 65t129 173v215q-37 108 -130 172.5t-212 64.5q-150 0 -247.5 -95t-97.5 -247zM637 1184l217 448h254l-181 -448h-290z" />
<glyph unicode="&#x124;" horiz-adv-x="1568" d="M133 0v1547h281v-642h743v642h278v-1547h-278v673h-743v-673h-281zM336 1642l325 378h248l323 -378h-278l-169 218l-168 -218h-281z" />
<glyph unicode="&#x125;" horiz-adv-x="1348" d="M133 0v1634h278v-707q151 168 389 168q215 0 321.5 -116t106.5 -308v-671h-279v644q0 232 -217 232q-95 0 -179 -45.5t-142 -136.5v-694h-278zM141 1697l326 378h248l323 -378h-280l-167 219l-169 -219h-281z" />
<glyph unicode="&#x126;" horiz-adv-x="1604" d="M44 1104v232h100v211h280v-211h743v211h279v-211h116v-232h-116v-1104h-279v673h-743v-673h-280v1104h-100zM424 905h743v199h-743v-199z" />
<glyph unicode="&#x127;" horiz-adv-x="1359" d="M44 1210v202h100v222h278v-222h336v-202h-336v-288q78 89 178.5 131t213.5 42q217 0 321 -110.5t104 -303.5v-681h-279v644q0 232 -226 232q-196 0 -312 -182v-694h-278v1210h-100z" />
<glyph unicode="&#x128;" horiz-adv-x="559" d="M-150 1642v227q71 96 221 96q49 0 95.5 -13.5t118.5 -43.5q62 -27 109 -41t95 -14q137 0 221 114v-228q-68 -93 -221 -93q-55 0 -106 14t-117 43q-66 27 -107 40t-88 13q-63 0 -118 -26.5t-103 -87.5zM139 0v1547h281v-1547h-281z" />
<glyph unicode="&#x129;" horiz-adv-x="547" d="M-154 1179v228q71 95 220 95q48 0 95 -13.5t120 -42.5q61 -27 107.5 -41t96.5 -14q137 0 220 113v-227q-68 -93 -220 -93q-55 0 -106.5 14t-117.5 43q-66 27 -107.5 40t-87.5 13q-64 0 -118 -26.5t-102 -88.5zM133 0v1062h283v-1062h-283z" />
<glyph unicode="&#x12a;" horiz-adv-x="559" d="M-89 1663v186h735v-186h-735zM139 0v1547h281v-1547h-281z" />
<glyph unicode="&#x12b;" horiz-adv-x="547" d="M-93 1205v186h735v-186h-735zM133 0v1062h283v-1062h-283z" />
<glyph unicode="&#x12c;" horiz-adv-x="559" d="M-78 1975h211q0 -73 37.5 -110.5t108.5 -37.5t108 37.5t37 110.5h211q0 -150 -95 -241.5t-261 -91.5q-167 0 -262 91.5t-95 241.5zM139 0v1547h281v-1547h-281z" />
<glyph unicode="&#x12d;" horiz-adv-x="547" d="M-82 1517h211q0 -73 37 -110.5t108 -37.5q72 0 109 37.5t37 110.5h211q0 -150 -95 -241.5t-262 -91.5q-166 0 -261 91.5t-95 241.5zM133 0v1062h283v-1062h-283z" />
<glyph unicode="&#x12e;" horiz-adv-x="559" d="M-6 -268q0 84 44 153t116 115h-15v1547h281v-1547h-9q-88 -53 -131 -105t-43 -114q0 -42 25 -65.5t65 -23.5q57 0 106 25v-160q-76 -29 -192 -28q-110 0 -178.5 52t-68.5 151z" />
<glyph unicode="&#x12f;" horiz-adv-x="581" d="M2 -268q0 84 44.5 153t117.5 115h-16v1062h283v-1062h-11q-88 -53 -131.5 -105t-43.5 -114q0 -42 25.5 -65.5t65.5 -23.5q57 0 107 25v-160q-76 -29 -194 -28q-110 0 -178.5 52t-68.5 151zM133 1402q0 66 45.5 112t110.5 46q66 0 113 -45.5t47 -112.5q0 -66 -46.5 -110.5 t-113.5 -44.5q-65 0 -110.5 44.5t-45.5 110.5z" />
<glyph unicode="&#x130;" horiz-adv-x="559" d="M133 1809q0 62 44 105t104 43q59 0 102.5 -42.5t43.5 -105.5q0 -62 -43.5 -104t-102.5 -42q-60 0 -104 43.5t-44 102.5zM139 0v1547h281v-1547h-281z" />
<glyph unicode="&#x131;" horiz-adv-x="547" d="M133 0v1062h283v-1062h-283z" />
<glyph unicode="&#x132;" horiz-adv-x="1399" d="M139 0v1547h281v-1547h-281zM595 9v234q74 -31 179 -30q217 0 217 205v1129h281v-1144q0 -203 -112.5 -319.5t-317.5 -116.5q-65 0 -137 12t-110 30z" />
<glyph unicode="&#x133;" horiz-adv-x="1047" d="M133 1402q0 66 45.5 112t110.5 46q66 0 113 -45.5t47 -112.5q0 -66 -46.5 -110.5t-113.5 -44.5q-65 0 -110.5 44.5t-45.5 110.5zM148 0v1062h283v-1062h-283zM303 -257q60 -27 138 -26q90 0 134 45.5t44 142.5v1157h278v-1186q0 -192 -110 -289.5t-298 -97.5 q-106 0 -186 29v225zM602 1402q0 64 45 109.5t111 45.5q64 0 111 -45t47 -110q0 -66 -45.5 -110.5t-112.5 -44.5q-66 0 -111 44.5t-45 110.5z" />
<glyph unicode="&#x134;" horiz-adv-x="848" d="M44 9v234q74 -31 180 -30q217 0 217 205v1129h280v-1144q0 -203 -112.5 -319.5t-316.5 -116.5q-66 0 -138 12t-110 30zM135 1642l325 378h247l323 -378h-278l-168 218l-168 -218h-281z" />
<glyph unicode="&#x135;" horiz-adv-x="549" d="M-177 -257q59 -27 137 -26q91 0 135 45.5t44 142.5v1157h279v-1186q0 -192 -110.5 -289.5t-298.5 -97.5q-106 0 -186 29v225zM-171 1184l325 378h249l323 -378h-279l-168 218l-169 -218h-281z" />
<glyph unicode="&#x136;" horiz-adv-x="1516" d="M133 0v1547h281v-702l635 702h336l-686 -758l730 -789h-336l-679 734v-734h-281zM405 -572l181 448h290l-217 -448h-254z" />
<glyph unicode="&#x137;" horiz-adv-x="1302" d="M133 0v1634h278v-1039l423 467h327l-473 -520l526 -542h-327l-476 491v-491h-278zM303 -572l182 448h289l-217 -448h-254z" />
<glyph unicode="&#x138;" horiz-adv-x="1302" d="M133 0v1062h268v-505l446 505h314l-473 -531l526 -531h-313l-500 507v-507h-268z" />
<glyph unicode="&#x139;" horiz-adv-x="1200" d="M133 0v1547h281v-1315h743v-232h-1024zM146 1642l152 384h295l-190 -384h-257z" />
<glyph unicode="&#x13a;" horiz-adv-x="543" d="M133 0v1634h278v-1634h-278zM146 1692l152 385h295l-190 -385h-257z" />
<glyph unicode="&#x13b;" horiz-adv-x="1200" d="M133 0v1547h281v-1315h743v-232h-1024zM338 -572l181 448h291l-217 -448h-255z" />
<glyph unicode="&#x13c;" horiz-adv-x="599" d="M6 -572l182 448h289l-216 -448h-255zM192 0v1634h279v-1634h-279z" />
<glyph unicode="&#x13d;" horiz-adv-x="1200" d="M133 0v1547h281v-1315h743v-232h-1024zM631 1115l181 449h290l-217 -449h-254z" />
<glyph unicode="&#x13e;" horiz-adv-x="1045" d="M133 0v1634h278v-1634h-278zM509 1216l181 449h290l-216 -449h-255z" />
<glyph unicode="&#x13f;" horiz-adv-x="1200" d="M133 0v1547h281v-1315h743v-232h-1024zM690 856q0 62 44.5 105t103.5 43t102.5 -43t43.5 -105q0 -61 -43.5 -103.5t-102.5 -42.5t-103.5 43t-44.5 103z" />
<glyph unicode="&#x140;" horiz-adv-x="846" d="M133 0v1634h278v-1634h-278zM531 847q0 61 44 105t104 44t103 -43.5t43 -105.5t-43 -104t-103 -42t-104 43t-44 103z" />
<glyph unicode="&#x141;" horiz-adv-x="1298" d="M22 534v266l208 93v654h281v-530l343 155v-267l-343 -155v-518h743v-232h-1024v626z" />
<glyph unicode="&#x142;" horiz-adv-x="875" d="M22 500v268l254 112v754h279v-630l299 135v-267l-299 -135v-737h-279v612z" />
<glyph unicode="&#x143;" horiz-adv-x="1534" d="M133 0v1547h266l722 -1078v1078h281v-1547h-265l-723 1079v-1079h-281zM615 1642l153 384h294l-190 -384h-257z" />
<glyph unicode="&#x144;" horiz-adv-x="1348" d="M133 0v1062h270v-144q75 91 179 134t218 43q215 0 321.5 -116t106.5 -308v-671h-279v644q0 232 -217 232q-95 0 -179 -45.5t-142 -136.5v-694h-278zM487 1184l152 384h294l-190 -384h-256z" />
<glyph unicode="&#x145;" horiz-adv-x="1534" d="M133 0v1547h266l722 -1078v1078h281v-1547h-265l-723 1079v-1079h-281zM458 -572l181 448h290l-217 -448h-254z" />
<glyph unicode="&#x146;" horiz-adv-x="1348" d="M133 0v1062h270v-144q75 91 179 134t218 43q215 0 321.5 -116t106.5 -308v-671h-279v644q0 232 -217 232q-95 0 -179 -45.5t-142 -136.5v-694h-278zM380 -572l182 448h289l-216 -448h-255z" />
<glyph unicode="&#x147;" horiz-adv-x="1534" d="M133 0v1547h266l722 -1078v1078h281v-1547h-265l-723 1079v-1079h-281zM316 2020h281l169 -222l167 222h279l-323 -378h-247z" />
<glyph unicode="&#x148;" horiz-adv-x="1348" d="M133 0v1062h270v-144q75 91 179 134t218 43q215 0 321.5 -116t106.5 -308v-671h-279v644q0 232 -217 232q-95 0 -179 -45.5t-142 -136.5v-694h-278zM249 1562h282l168 -222l168 222h279l-323 -378h-248z" />
<glyph unicode="&#x149;" horiz-adv-x="1618" d="M44 1115l182 449h289l-217 -449h-254zM403 0v1062h270v-144q75 91 179 134t218 43q215 0 321 -116t106 -308v-671h-279v644q0 232 -216 232q-95 0 -179 -45.5t-142 -136.5v-694h-278z" />
<glyph unicode="&#x14a;" horiz-adv-x="1534" d="M133 0v1547h266l722 -1078v1078h281v-1547v-122q0 -192 -110 -289.5t-298 -97.5q-106 0 -186 29v225q59 -27 136 -26q91 0 135 45.5t44 142.5v112l-709 1060v-1079h-281z" />
<glyph unicode="&#x14b;" horiz-adv-x="1348" d="M133 0v1062h270v-144q75 91 179 134t218 43q215 0 321.5 -116t106.5 -308v-793q0 -192 -110.5 -289.5t-298.5 -97.5q-106 0 -186 29v225q59 -27 137 -26q91 0 135 45.5t44 142.5v737q0 232 -217 232q-95 0 -179 -45.5t-142 -136.5v-694h-278z" />
<glyph unicode="&#x14c;" horiz-adv-x="1815" d="M89 772q0 237 107 420.5t294 285t419 101.5q230 0 417 -101.5t294 -285t107 -420.5q0 -236 -107 -418.5t-294 -284.5t-417 -102q-232 0 -419 100.5t-294 284.5t-107 420zM372 772q0 -166 71.5 -291t194.5 -192.5t271 -67.5t269.5 67.5t193.5 192.5t72 291q0 164 -71 289 t-192.5 193.5t-271.5 68.5t-273 -68.5t-193.5 -194t-70.5 -288.5zM551 1663v186h714v-186h-714z" />
<glyph unicode="&#x14d;" horiz-adv-x="1419" d="M89 531q0 171 76 298t217.5 196.5t327.5 69.5q185 0 326 -69.5t218.5 -197t77.5 -297.5q0 -175 -77.5 -302t-218.5 -194.5t-326 -67.5q-186 0 -326.5 67.5t-217.5 194.5t-77 302zM354 1205v186h714v-186h-714zM376 531q0 -152 90.5 -248.5t243.5 -96.5t243.5 96t90.5 249 q0 162 -89.5 253.5t-244.5 91.5t-244.5 -92t-89.5 -253z" />
<glyph unicode="&#x14e;" horiz-adv-x="1815" d="M89 772q0 237 107 420.5t294 285t419 101.5q230 0 417 -101.5t294 -285t107 -420.5q0 -236 -107 -418.5t-294 -284.5t-417 -102q-232 0 -419 100.5t-294 284.5t-107 420zM372 772q0 -166 71.5 -291t194.5 -192.5t271 -67.5t269.5 67.5t193.5 192.5t72 291q0 164 -71 289 t-192.5 193.5t-271.5 68.5t-273 -68.5t-193.5 -194t-70.5 -288.5zM551 1975h210q0 -73 37.5 -110.5t108.5 -37.5t108.5 37.5t37.5 110.5h210q0 -150 -95.5 -241.5t-260.5 -91.5q-166 0 -261 91.5t-95 241.5z" />
<glyph unicode="&#x14f;" horiz-adv-x="1419" d="M89 531q0 171 76 298t217.5 196.5t327.5 69.5q185 0 326 -69.5t218.5 -197t77.5 -297.5q0 -175 -77.5 -302t-218.5 -194.5t-326 -67.5q-186 0 -326.5 67.5t-217.5 194.5t-77 302zM354 1517h210q0 -73 37.5 -110.5t108.5 -37.5t108.5 37.5t37.5 110.5h210 q0 -150 -95 -241.5t-261 -91.5t-261 91.5t-95 241.5zM376 531q0 -152 90.5 -248.5t243.5 -96.5t243.5 96t90.5 249q0 162 -89.5 253.5t-244.5 91.5t-244.5 -92t-89.5 -253z" />
<glyph unicode="&#x150;" horiz-adv-x="1815" d="M89 772q0 237 107 420.5t294 285t419 101.5q230 0 417 -101.5t294 -285t107 -420.5q0 -236 -107 -418.5t-294 -284.5t-417 -102q-232 0 -419 100.5t-294 284.5t-107 420zM372 772q0 -166 71.5 -291t194.5 -192.5t271 -67.5t269.5 67.5t193.5 192.5t72 291q0 164 -71 289 t-192.5 193.5t-271.5 68.5t-273 -68.5t-193.5 -194t-70.5 -288.5zM519 1642l154 384h271l-190 -384h-235zM1013 1642l154 384h270l-190 -384h-234z" />
<glyph unicode="&#x151;" horiz-adv-x="1461" d="M131 531q0 171 76 298t217.5 196.5t327.5 69.5q185 0 325.5 -69.5t218.5 -197t78 -297.5q0 -175 -78 -302t-218.5 -194.5t-325.5 -67.5q-186 0 -326.5 67.5t-217.5 194.5t-77 302zM365 1184l152 384h272l-190 -384h-234zM418 531q0 -152 90.5 -248.5t243.5 -96.5 t243.5 96t90.5 249q0 162 -89.5 253.5t-244.5 91.5t-244.5 -92t-89.5 -253zM859 1184l154 384h270l-190 -384h-234z" />
<glyph unicode="&#x152;" horiz-adv-x="1976" d="M89 772q0 237 109.5 413t301.5 269t435 93h954v-233h-663v-425h466v-232h-466v-425h663v-232h-954q-243 0 -435 93t-301.5 268t-109.5 411zM372 772q0 -166 69.5 -287.5t192 -187t282.5 -65.5h28v1082h-28q-157 0 -281 -66t-193.5 -189.5t-69.5 -286.5z" />
<glyph unicode="&#x153;" horiz-adv-x="2275" d="M89 531q0 171 76 298t217.5 196.5t327.5 69.5q141 0 257.5 -41t197.5 -117q157 157 441 158q186 0 317.5 -70.5t197.5 -194t66 -279.5v-129h-864q-9 -53 -18 -77q77 -159 390 -159q101 0 207.5 17.5t185.5 48.5v-214q-76 -32 -193.5 -51.5t-235.5 -19.5q-312 0 -485 162 q-82 -78 -200 -120t-264 -42q-186 0 -326.5 67.5t-217.5 194.5t-77 302zM376 531q0 -152 90.5 -248.5t243.5 -96.5q119 0 202.5 61t113.5 164q-9 51 -9 117q0 60 11 126q-31 106 -113.5 164t-204.5 58q-155 0 -244.5 -92t-89.5 -253zM1305 715q17 -66 22 -103h598 q-5 127 -90 195.5t-233 68.5q-114 0 -190 -42t-107 -119z" />
<glyph unicode="&#x154;" horiz-adv-x="1401" d="M133 0v1547h646q257 0 396 -126.5t139 -365.5q0 -170 -84 -289.5t-239 -170.5l314 -595h-288l-298 566h-305v-566h-281zM414 798h314q137 0 220.5 64.5t83.5 192.5q0 259 -304 259h-314v-516zM485 1642l152 384h294l-190 -384h-256z" />
<glyph unicode="&#x155;" horiz-adv-x="899" d="M133 0v1062h270v-171q64 86 182 128.5t271 42.5v-213q-162 0 -280 -49.5t-165 -155.5v-644h-278zM146 1184l152 384h295l-190 -384h-257z" />
<glyph unicode="&#x156;" horiz-adv-x="1401" d="M133 0v1547h646q257 0 396 -126.5t139 -365.5q0 -170 -84 -289.5t-239 -170.5l314 -595h-288l-298 566h-305v-566h-281zM363 -572l181 448h290l-217 -448h-254zM414 798h314q137 0 220.5 64.5t83.5 192.5q0 259 -304 259h-314v-516z" />
<glyph unicode="&#x157;" horiz-adv-x="899" d="M-57 -572l181 448h290l-217 -448h-254zM133 0v1062h270v-171q64 86 182 128.5t271 42.5v-213q-162 0 -280 -49.5t-165 -155.5v-644h-278z" />
<glyph unicode="&#x158;" horiz-adv-x="1401" d="M133 0v1547h646q257 0 396 -126.5t139 -365.5q0 -170 -84 -289.5t-239 -170.5l314 -595h-288l-298 566h-305v-566h-281zM150 2020h281l168 -222l169 222h279l-323 -378h-249zM414 798h314q137 0 220.5 64.5t83.5 192.5q0 259 -304 259h-314v-516z" />
<glyph unicode="&#x159;" horiz-adv-x="1083" d="M42 1562h281l168 -222l168 222h278l-322 -378h-248zM316 0v1062h270v-171q64 86 182.5 128.5t271.5 42.5v-213q-162 0 -280 -49.5t-165 -155.5v-644h-279z" />
<glyph unicode="&#x15a;" horiz-adv-x="1253" d="M89 59v242q110 -53 232 -80t238 -27q148 0 226 56t78 153q0 68 -35.5 113.5t-104.5 80t-210 89.5q-217 88 -314 196.5t-97 269.5q0 127 68.5 224t192.5 150t285 53q133 0 235.5 -21t202.5 -65v-235q-192 93 -389 93q-142 0 -219 -52t-77 -147q0 -68 35 -111t94 -73.5 t211 -93.5q154 -64 244 -126t135 -145.5t45 -201.5q0 -206 -148 -320t-437 -114q-137 0 -271 25t-220 67zM487 1642l152 384h294l-190 -384h-256z" />
<glyph unicode="&#x15b;" horiz-adv-x="1102" d="M89 774q0 159 125.5 240t340.5 81q110 0 220 -21t172 -59v-228q-66 40 -161.5 64.5t-194.5 24.5q-108 0 -163.5 -21t-55.5 -81q0 -40 29.5 -63t78 -40t177.5 -50q137 -38 214.5 -81.5t110.5 -105.5t33 -155q0 -142 -120.5 -227t-348.5 -85q-115 0 -245 26t-204 73v237 q87 -52 206 -84.5t225 -32.5t155 19t49 69q0 40 -25.5 65.5t-82 46.5t-173.5 52q-132 38 -208.5 77.5t-115 100.5t-38.5 158zM363 1184l152 384h295l-191 -384h-256z" />
<glyph unicode="&#x15c;" horiz-adv-x="1253" d="M89 59v242q110 -53 232 -80t238 -27q148 0 226 56t78 153q0 68 -35.5 113.5t-104.5 80t-210 89.5q-217 88 -314 196.5t-97 269.5q0 127 68.5 224t192.5 150t285 53q133 0 235.5 -21t202.5 -65v-235q-192 93 -389 93q-142 0 -219 -52t-77 -147q0 -68 35 -111t94 -73.5 t211 -93.5q154 -64 244 -126t135 -145.5t45 -201.5q0 -206 -148 -320t-437 -114q-137 0 -271 25t-220 67zM164 1642l325 378h248l322 -378h-278l-169 218l-167 -218h-281z" />
<glyph unicode="&#x15d;" horiz-adv-x="1102" d="M89 774q0 159 125.5 240t340.5 81q110 0 220 -21t172 -59v-228q-66 40 -161.5 64.5t-194.5 24.5q-108 0 -163.5 -21t-55.5 -81q0 -40 29.5 -63t78 -40t177.5 -50q137 -38 214.5 -81.5t110.5 -105.5t33 -155q0 -142 -120.5 -227t-348.5 -85q-115 0 -245 26t-204 73v237 q87 -52 206 -84.5t225 -32.5t155 19t49 69q0 40 -25.5 65.5t-82 46.5t-173.5 52q-132 38 -208.5 77.5t-115 100.5t-38.5 158zM106 1184l325 378h248l323 -378h-278l-169 218l-168 -218h-281z" />
<glyph unicode="&#x15e;" horiz-adv-x="1253" d="M89 59v242q110 -53 232 -80t238 -27q148 0 226 56t78 153q0 68 -35.5 113.5t-104.5 80t-210 89.5q-217 88 -314 196.5t-97 269.5q0 127 68.5 224t192.5 150t285 53q133 0 235.5 -21t202.5 -65v-235q-192 93 -389 93q-142 0 -219 -52t-77 -147q0 -68 35 -111t94 -73.5 t211 -93.5q154 -64 244 -126t135 -145.5t45 -201.5q0 -182 -117 -293.5t-349 -134.5l-34 -87q95 -11 147.5 -70t52.5 -148q0 -103 -86.5 -160t-232.5 -57q-59 0 -114.5 7.5t-86.5 19.5l3 153q25 -11 60 -19t67 -8q131 0 131 90q0 53 -52 85.5t-167 32.5l62 161 q-106 9 -200.5 31.5t-159.5 54.5z" />
<glyph unicode="&#x15f;" horiz-adv-x="1102" d="M89 774q0 159 125.5 240t340.5 81q110 0 220 -21t172 -59v-228q-66 40 -161.5 64.5t-194.5 24.5q-108 0 -163.5 -21t-55.5 -81q0 -40 29.5 -63t78 -40t177.5 -50q137 -38 214.5 -81.5t110.5 -105.5t33 -155q0 -129 -98 -211.5t-288 -98.5l-34 -83q95 -11 147 -70t52 -148 q0 -103 -86.5 -160t-232.5 -57q-59 0 -114 7.5t-87 19.5l2 153q25 -11 60.5 -19t68.5 -8q131 0 131 90q0 53 -52.5 85.5t-167.5 32.5l64 169q-186 27 -283 85v237q87 -52 206 -84.5t225 -32.5t155 19t49 69q0 40 -25.5 65.5t-82 46.5t-173.5 52q-132 38 -208.5 77.5 t-115 100.5t-38.5 158z" />
<glyph unicode="&#x160;" horiz-adv-x="1253" d="M89 59v242q110 -53 232 -80t238 -27q148 0 226 56t78 153q0 68 -35.5 113.5t-104.5 80t-210 89.5q-217 88 -314 196.5t-97 269.5q0 127 68.5 224t192.5 150t285 53q133 0 235.5 -21t202.5 -65v-235q-192 93 -389 93q-142 0 -219 -52t-77 -147q0 -68 35 -111t94 -73.5 t211 -93.5q154 -64 244 -126t135 -145.5t45 -201.5q0 -206 -148 -320t-437 -114q-137 0 -271 25t-220 67zM194 2020h281l169 -222l168 222h279l-323 -378h-249z" />
<glyph unicode="&#x161;" horiz-adv-x="1102" d="M89 774q0 159 125.5 240t340.5 81q110 0 220 -21t172 -59v-228q-66 40 -161.5 64.5t-194.5 24.5q-108 0 -163.5 -21t-55.5 -81q0 -40 29.5 -63t78 -40t177.5 -50q137 -38 214.5 -81.5t110.5 -105.5t33 -155q0 -142 -120.5 -227t-348.5 -85q-115 0 -245 26t-204 73v237 q87 -52 206 -84.5t225 -32.5t155 19t49 69q0 40 -25.5 65.5t-82 46.5t-173.5 52q-132 38 -208.5 77.5t-115 100.5t-38.5 158zM97 1562h281l168 -222l169 222h279l-323 -378h-249z" />
<glyph unicode="&#x162;" horiz-adv-x="1302" d="M44 1314v233h1214v-233h-466v-1314h-13l-45 -114q95 -11 147 -70t52 -148q0 -103 -86 -160t-232 -57q-60 0 -115 7.5t-86 19.5l2 153q25 -11 60 -19t68 -8q131 0 131 90q0 53 -52.5 85.5t-166.5 32.5l72 188h-17v1314h-467z" />
<glyph unicode="&#x163;" horiz-adv-x="872" d="M44 849v213h159v318h279v-318h255v-213h-255v-475q0 -102 37.5 -145t137.5 -43q68 0 135 31v-213q-64 -27 -150 -35l-34 -83q95 -12 147.5 -70.5t52.5 -147.5q0 -103 -86.5 -160t-232.5 -57q-59 0 -114.5 7.5t-87.5 19.5l2 153q25 -11 60 -19t69 -8q131 0 131 90 q0 53 -52 85.5t-168 32.5l72 182q-98 37 -148 124t-50 220v511h-159z" />
<glyph unicode="&#x164;" horiz-adv-x="1302" d="M44 1314v233h1214v-233h-466v-1314h-281v1314h-467zM203 2020h282l167 -222l169 222h278l-322 -378h-249z" />
<glyph unicode="&#x165;" horiz-adv-x="1085" d="M44 849v213h159v318h279v-318h255v-213h-255v-475q0 -102 37.5 -145t137.5 -43q68 0 135 31v-213q-95 -37 -233 -37q-175 0 -265.5 97.5t-90.5 273.5v511h-159zM593 1294l181 449h290l-217 -449h-254z" />
<glyph unicode="&#x166;" horiz-adv-x="1302" d="M44 1298v249h1214v-249h-460v-444h264v-237h-264v-617h-294v617h-261v237h261v444h-460z" />
<glyph unicode="&#x167;" horiz-adv-x="859" d="M44 494v156h161v222h-159v190h159v318h280v-318h256v-190h-256v-222h254v-156h-254v-120q0 -100 41.5 -144t134.5 -44q71 0 133 31v-213q-95 -37 -232 -37q-173 0 -265 97.5t-92 273.5v156h-161z" />
<glyph unicode="&#x168;" horiz-adv-x="1562" d="M122 602v945h281v-950q0 -183 102.5 -279.5t277.5 -96.5q173 0 275.5 96.5t102.5 279.5v950h281v-945q0 -292 -166 -463.5t-493 -171.5t-494 171.5t-167 463.5zM363 1642v227q71 96 221 96q49 0 95.5 -13.5t118.5 -43.5q62 -27 109 -41t95 -14q137 0 222 114v-228 q-68 -93 -222 -93q-55 0 -106 14t-117 43q-66 27 -107 40t-88 13q-63 0 -118 -26.5t-103 -87.5z" />
<glyph unicode="&#x169;" horiz-adv-x="1348" d="M122 391v671h279v-644q0 -232 216 -232q95 0 179 45t141 136v695h279v-1062h-269v144q-75 -91 -179.5 -134t-218.5 -43q-215 0 -321 116t-106 308zM249 1184v228q72 95 222 95q48 0 94.5 -13.5t120.5 -43.5q61 -27 107.5 -41t95.5 -14q137 0 221 114v-228 q-68 -93 -221 -93q-55 0 -106 14t-118 43q-66 27 -107 40t-87 13q-64 0 -118.5 -26.5t-103.5 -87.5z" />
<glyph unicode="&#x16a;" horiz-adv-x="1562" d="M122 602v945h281v-950q0 -183 102.5 -279.5t277.5 -96.5q173 0 275.5 96.5t102.5 279.5v950h281v-945q0 -292 -166 -463.5t-493 -171.5t-494 171.5t-167 463.5zM424 1663v186h715v-186h-715z" />
<glyph unicode="&#x16b;" horiz-adv-x="1348" d="M122 391v671h279v-644q0 -232 216 -232q95 0 179 45t141 136v695h279v-1062h-269v144q-75 -91 -179.5 -134t-218.5 -43q-215 0 -321 116t-106 308zM310 1205v186h714v-186h-714z" />
<glyph unicode="&#x16c;" horiz-adv-x="1562" d="M122 602v945h281v-950q0 -183 102.5 -279.5t277.5 -96.5q173 0 275.5 96.5t102.5 279.5v950h281v-945q0 -292 -166 -463.5t-493 -171.5t-494 171.5t-167 463.5zM424 1975h211q0 -73 37.5 -110.5t108.5 -37.5t108.5 37.5t37.5 110.5h210q0 -150 -95 -241.5t-261 -91.5 t-261.5 91.5t-95.5 241.5z" />
<glyph unicode="&#x16d;" horiz-adv-x="1348" d="M122 391v671h279v-644q0 -232 216 -232q95 0 179 45t141 136v695h279v-1062h-269v144q-75 -91 -179.5 -134t-218.5 -43q-215 0 -321 116t-106 308zM310 1517h209q0 -73 38 -110.5t108 -37.5q72 0 109.5 37.5t37.5 110.5h210q0 -150 -95 -241.5t-262 -91.5 q-165 0 -260 91.5t-95 241.5z" />
<glyph unicode="&#x16e;" horiz-adv-x="1562" d="M122 602v945h281v-950q0 -183 102.5 -279.5t277.5 -96.5q173 0 275.5 96.5t102.5 279.5v950h281v-945q0 -292 -166 -463.5t-493 -171.5t-494 171.5t-167 463.5zM507 1916q0 114 79 195t195 81q114 0 195 -81t81 -195q0 -115 -81 -194.5t-195 -79.5q-116 0 -195 79 t-79 195zM667 1916q0 -47 33.5 -80t80.5 -33q46 0 79 33t33 80q0 46 -33 79t-79 33q-47 0 -80.5 -33t-33.5 -79z" />
<glyph unicode="&#x16f;" horiz-adv-x="1348" d="M122 391v671h279v-644q0 -232 216 -232q95 0 179 45t141 136v695h279v-1062h-269v144q-75 -91 -179.5 -134t-218.5 -43q-215 0 -321 116t-106 308zM391 1458q0 114 80 195t194 81q115 0 196 -81t81 -195t-80.5 -194t-196.5 -80q-114 0 -194 79t-80 195zM553 1458 q0 -46 33 -79.5t79 -33.5q47 0 80.5 33.5t33.5 79.5t-33.5 79t-80.5 33q-46 0 -79 -33t-33 -79z" />
<glyph unicode="&#x170;" horiz-adv-x="1562" d="M122 602v945h281v-950q0 -183 102.5 -279.5t277.5 -96.5q173 0 275.5 96.5t102.5 279.5v950h281v-945q0 -292 -166 -463.5t-493 -171.5t-494 171.5t-167 463.5zM409 1642l153 384h272l-190 -384h-235zM903 1642l154 384h270l-190 -384h-234z" />
<glyph unicode="&#x171;" horiz-adv-x="1348" d="M122 391v671h279v-644q0 -232 216 -232q95 0 179 45t141 136v695h279v-1062h-269v144q-75 -91 -179.5 -134t-218.5 -43q-215 0 -321 116t-106 308zM281 1184l152 384h272l-190 -384h-234zM774 1184l155 384h270l-190 -384h-235z" />
<glyph unicode="&#x172;" horiz-adv-x="1562" d="M122 602v945h281v-950q0 -183 102.5 -279.5t277.5 -96.5q173 0 275.5 96.5t102.5 279.5v950h281v-945q0 -264 -136 -431t-403 -198q-68 -46 -100.5 -92.5t-32.5 -99.5q0 -42 25.5 -65.5t65.5 -23.5q57 0 106 25v-160q-76 -29 -193 -28q-110 0 -179 52t-69 151 q0 144 126 243q-263 34 -396.5 199.5t-133.5 427.5z" />
<glyph unicode="&#x173;" horiz-adv-x="1359" d="M122 391v671h279v-644q0 -232 216 -232q95 0 179 45t141 136v695h279v-1062h-11q-88 -53 -131.5 -105t-43.5 -114q0 -42 25.5 -65.5t65.5 -23.5q58 0 107 25v-160q-76 -29 -193 -28q-111 0 -179.5 52t-68.5 151q0 84 44.5 153t117.5 115h-2v144q-75 -91 -179.5 -134 t-218.5 -43q-215 0 -321 116t-106 308z" />
<glyph unicode="&#x174;" horiz-adv-x="2224" d="M102 1547h292l307 -1093l303 1093h216l304 -1093l308 1093h291l-439 -1547h-262l-310 1075l-310 -1075h-260zM665 1642l326 378h248l323 -378h-279l-168 218l-168 -218h-282z" />
<glyph unicode="&#x175;" horiz-adv-x="1834" d="M89 1062h278l217 -720l212 720h244l212 -720l217 720h278l-347 -1062h-256l-226 721l-226 -721h-257zM471 1184l325 378h248l323 -378h-278l-169 218l-168 -218h-281z" />
<glyph unicode="&#x176;" horiz-adv-x="1604" d="M102 1547h299l397 -688l409 688h297l-573 -958v-589h-268v589zM352 1642l325 378h247l323 -378h-278l-169 218l-167 -218h-281z" />
<glyph unicode="&#x177;" horiz-adv-x="1326" d="M89 1062h280l328 -775l307 775h279l-464 -1157q-72 -175 -172.5 -259t-259.5 -84q-58 0 -121 8t-98 21v212q56 -21 138 -22q84 0 125.5 37.5t72.5 119.5l42 111zM252 1184l326 378h247l323 -378h-279l-168 218l-167 -218h-282z" />
<glyph unicode="&#x178;" horiz-adv-x="1604" d="M102 1547h299l397 -688l409 688h297l-573 -958v-589h-268v589zM389 1809q0 62 44 105t105 43q59 0 102.5 -42.5t43.5 -105.5q0 -62 -43.5 -104t-102.5 -42q-61 0 -105 43.5t-44 102.5zM914 1809q0 62 44 105t104 43q59 0 102 -42.5t43 -105.5q0 -62 -43 -104t-102 -42 q-60 0 -104 43.5t-44 102.5z" />
<glyph unicode="&#x179;" horiz-adv-x="1368" d="M89 0v184l808 1130h-789v233h1133v-184l-808 -1131h848v-232h-1192zM511 1642l152 384h295l-190 -384h-257z" />
<glyph unicode="&#x17a;" horiz-adv-x="1108" d="M89 0v175l563 674h-548v213h898v-175l-561 -674h579v-213h-931zM396 1184l153 384h293l-190 -384h-256z" />
<glyph unicode="&#x17b;" horiz-adv-x="1368" d="M89 0v184l808 1130h-789v233h1133v-184l-808 -1131h848v-232h-1192zM513 1809q0 62 44.5 105t103.5 43t103 -42.5t44 -105.5q0 -62 -43.5 -104t-103.5 -42q-59 0 -103.5 43.5t-44.5 102.5z" />
<glyph unicode="&#x17c;" horiz-adv-x="1108" d="M89 0v175l563 674h-548v213h898v-175l-561 -674h579v-213h-931zM407 1351q0 62 44.5 105.5t103.5 43.5q60 0 103 -43t43 -106q0 -61 -43 -103.5t-103 -42.5q-59 0 -103.5 43.5t-44.5 102.5z" />
<glyph unicode="&#x17d;" horiz-adv-x="1368" d="M89 0v184l808 1130h-789v233h1133v-184l-808 -1131h848v-232h-1192zM228 2020h281l168 -222l168 222h278l-323 -378h-247z" />
<glyph unicode="&#x17e;" horiz-adv-x="1108" d="M89 0v175l563 674h-548v213h898v-175l-561 -674h579v-213h-931zM118 1562h281l167 -222l168 222h279l-323 -378h-247z" />
<glyph unicode="&#x18f;" horiz-adv-x="1826" d="M89 741v133h1351q-22 219 -195 346t-453 127q-144 0 -297 -26.5t-263 -70.5v227q108 45 271.5 73.5t328.5 28.5q285 0 488.5 -94t311 -274.5t107.5 -433.5q0 -246 -95 -428.5t-282.5 -282t-452.5 -99.5t-450 100.5t-277.5 275t-92.5 398.5zM359 663q10 -215 145 -343 t399 -128q258 0 392 128.5t147 342.5h-1083z" />
<glyph unicode="&#x192;" horiz-adv-x="1161" d="M-211 -477l43 225q57 -29 130 -29q104 0 158.5 46.5t76.5 145.5l202 961h-171l36 190h177l36 183q87 401 496 401q120 0 188 -31l-42 -226q-53 27 -135 27q-95 0 -151 -43.5t-79 -146.5l-35 -164h283l-35 -190h-288l-208 -980q-44 -211 -164.5 -306t-331.5 -95 q-112 0 -186 32z" />
<glyph unicode="&#x1a0;" horiz-adv-x="1927" d="M89 772q0 237 107 420.5t294 285t419 101.5q159 0 300.5 -51t250.5 -143q108 2 148 42t40 148v77h258v-92q0 -138 -75 -243t-203 -140q99 -179 99 -405q0 -236 -107 -418.5t-294 -284.5t-417 -102q-232 0 -419 100.5t-294 284.5t-107 420zM384 772q0 -162 70 -283.5 t190 -188t265 -66.5q144 0 263.5 66.5t189 188t69.5 283.5q0 159 -68.5 282t-188 189t-265.5 66q-145 0 -266 -66t-190 -189t-69 -282z" />
<glyph unicode="&#x1a1;" horiz-adv-x="1526" d="M89 531q0 171 76 298t217.5 196.5t327.5 69.5q249 0 418 -126q150 27 151 188v77h225v-92q0 -118 -63 -209t-173 -131q64 -124 64 -271q0 -175 -77.5 -302t-218.5 -194.5t-326 -67.5q-186 0 -326.5 67.5t-217.5 194.5t-77 302zM376 531q0 -152 90.5 -248.5t243.5 -96.5 t243.5 96t90.5 249q0 162 -89.5 253.5t-244.5 91.5t-244.5 -92t-89.5 -253z" />
<glyph unicode="&#x1af;" horiz-adv-x="1906" d="M122 602v945h294v-950q0 -183 96 -273t271 -90q173 0 269 91t96 272v950h294v-165q108 0 145.5 42.5t37.5 150.5v77h260v-92q0 -178 -108.5 -286.5t-334.5 -110.5v-561q0 -292 -166 -463.5t-493 -171.5t-494 171.5t-167 463.5z" />
<glyph unicode="&#x1b0;" horiz-adv-x="1631" d="M122 391v671h279v-644q0 -232 216 -232q95 0 179 45t141 136v695h279v-100q84 9 126.5 56.5t42.5 129.5v86h225v-92q0 -153 -103 -254t-291 -109v-779h-269v144q-75 -91 -179.5 -134t-218.5 -43q-215 0 -321 116t-106 308z" />
<glyph unicode="&#x1cd;" horiz-adv-x="1684" d="M89 0l618 1547h273l617 -1547h-286l-141 356h-655l-139 -356h-287zM396 2020h281l168 -222l168 222h279l-323 -378h-248zM593 589h500l-251 656z" />
<glyph unicode="&#x1ce;" horiz-adv-x="1275" d="M89 338q0 177 115 277t322 100q201 0 348 -82v28q0 112 -70 163.5t-224 51.5q-97 0 -192.5 -19t-168.5 -52v219q66 31 178 51t215 20q277 0 410 -118t133 -329v-648h-264v104q-68 -66 -155.5 -101.5t-213.5 -35.5q-190 0 -311.5 100.5t-121.5 270.5zM239 1562h280 l169 -222l168 222h279l-323 -378h-248zM372 338q0 -84 56.5 -125.5t162.5 -41.5q93 0 168 36t115 101v116q-122 87 -279 87q-223 0 -223 -173z" />
<glyph unicode="&#x1cf;" horiz-adv-x="545" d="M-173 2068h281l168 -221l169 221h279l-323 -378h-249zM133 0v1547h281v-1547h-281z" />
<glyph unicode="&#x1d0;" horiz-adv-x="547" d="M-173 1562h281l168 -222l169 222h279l-323 -378h-249zM133 0v1062h283v-1062h-283z" />
<glyph unicode="&#x1d1;" horiz-adv-x="1815" d="M89 772q0 237 107 420.5t294 285t419 101.5q230 0 417 -101.5t294 -285t107 -420.5q0 -236 -107 -418.5t-294 -284.5t-417 -102q-232 0 -419 100.5t-294 284.5t-107 420zM372 772q0 -166 71.5 -291t194.5 -192.5t271 -67.5t269.5 67.5t193.5 192.5t72 291q0 164 -71 289 t-192.5 193.5t-271.5 68.5t-273 -68.5t-193.5 -194t-70.5 -288.5zM458 2020h281l168 -222l168 222h278l-323 -378h-247z" />
<glyph unicode="&#x1d2;" horiz-adv-x="1499" d="M168 531q0 171 76.5 298t218 196.5t326.5 69.5q186 0 326.5 -69.5t218.5 -197t78 -297.5q0 -175 -78 -302t-218.5 -194.5t-326.5 -67.5q-185 0 -325.5 67.5t-218 194.5t-77.5 302zM342 1562h282l168 -222l168 222h279l-323 -378h-249zM456 531q0 -152 90.5 -248.5 t242.5 -96.5q153 0 243.5 96t90.5 249q0 162 -89.5 253.5t-244.5 91.5q-154 0 -243.5 -92t-89.5 -253z" />
<glyph unicode="&#x1d3;" horiz-adv-x="1562" d="M122 602v945h281v-950q0 -183 102.5 -279.5t277.5 -96.5q173 0 275.5 96.5t102.5 279.5v950h281v-945q0 -292 -166 -463.5t-493 -171.5t-494 171.5t-167 463.5zM334 2020h281l168 -222l168 222h279l-323 -378h-248z" />
<glyph unicode="&#x1d4;" horiz-adv-x="1348" d="M122 391v671h279v-644q0 -232 216 -232q95 0 179 45t141 136v695h279v-1062h-269v144q-75 -91 -179.5 -134t-218.5 -43q-215 0 -321 116t-106 308zM221 1562h281l169 -222l167 222h279l-323 -378h-248z" />
<glyph unicode="&#x1d5;" horiz-adv-x="1562" d="M122 602v945h281v-950q0 -183 102.5 -279.5t277.5 -96.5q173 0 275.5 96.5t102.5 279.5v950h281v-945q0 -292 -166 -463.5t-493 -171.5t-494 171.5t-167 463.5zM372 1809q0 62 44 105t103 43q60 0 103 -42.5t43 -105.5q0 -62 -42.5 -104t-103.5 -42q-59 0 -103 43.5 t-44 102.5zM424 2055v186h715v-186h-715zM895 1809q0 62 44.5 105t104.5 43t103 -42.5t43 -105.5q0 -62 -43 -104t-103 -42t-104.5 43.5t-44.5 102.5z" />
<glyph unicode="&#x1d6;" horiz-adv-x="1348" d="M122 391v671h279v-644q0 -232 216 -232q95 0 179 45t141 136v695h279v-1062h-269v144q-75 -91 -179.5 -134t-218.5 -43q-215 0 -321 116t-106 308zM261 1351q0 62 44.5 105.5t103.5 43.5q60 0 103 -43t43 -106q0 -61 -43 -103.5t-103 -42.5q-59 0 -103.5 43.5 t-44.5 102.5zM314 1602v185h714v-185h-714zM785 1351q0 62 44.5 105.5t103.5 43.5q60 0 103 -43t43 -106q0 -61 -42.5 -103.5t-103.5 -42.5q-59 0 -103.5 43.5t-44.5 102.5z" />
<glyph unicode="&#x1d7;" horiz-adv-x="1562" d="M122 602v945h281v-950q0 -183 102.5 -279.5t277.5 -96.5q173 0 275.5 96.5t102.5 279.5v950h281v-945q0 -292 -166 -463.5t-493 -171.5t-494 171.5t-167 463.5zM354 1809q0 62 44.5 105t103.5 43q60 0 103 -42.5t43 -105.5q0 -62 -43 -104t-103 -42q-59 0 -103.5 43.5 t-44.5 102.5zM671 1911l134 284h259l-171 -284h-222zM922 1809q0 62 44.5 105t103.5 43q60 0 103 -42.5t43 -105.5q0 -62 -42.5 -104t-103.5 -42q-59 0 -103.5 43.5t-44.5 102.5z" />
<glyph unicode="&#x1d8;" horiz-adv-x="1348" d="M122 391v671h279v-644q0 -232 216 -232q95 0 179 45t141 136v695h279v-1062h-269v144q-75 -91 -179.5 -134t-218.5 -43q-215 0 -321 116t-106 308zM224 1351q0 62 44 105.5t104 43.5q59 0 102 -43t43 -106q0 -61 -43 -103.5t-102 -42.5q-60 0 -104 43.5t-44 102.5z M540 1454l135 283h258l-169 -283h-224zM792 1351q0 62 44 105.5t104 43.5q59 0 102.5 -43t43.5 -106q0 -61 -43 -103.5t-103 -42.5t-104 43.5t-44 102.5z" />
<glyph unicode="&#x1d9;" horiz-adv-x="1562" d="M122 602v945h281v-950q0 -183 102.5 -279.5t277.5 -96.5q173 0 275.5 96.5t102.5 279.5v950h281v-945q0 -292 -166 -463.5t-493 -171.5t-494 171.5t-167 463.5zM350 1809q0 62 42.5 105t103.5 43q59 0 103.5 -42.5t44.5 -105.5q0 -59 -44.5 -102.5t-103.5 -43.5 q-61 0 -103.5 42t-42.5 104zM405 2212h234l142 -166l141 166h237l-274 -301h-208zM918 1809q0 62 43 105t103 43q59 0 103.5 -42.5t44.5 -105.5q0 -59 -44.5 -102.5t-103.5 -43.5q-60 0 -103 42t-43 104z" />
<glyph unicode="&#x1da;" horiz-adv-x="1348" d="M122 391v671h279v-644q0 -232 216 -232q95 0 179 45t141 136v695h279v-1062h-269v144q-75 -91 -179.5 -134t-218.5 -43q-215 0 -321 116t-106 308zM213 1351q0 62 42.5 105.5t103.5 43.5q59 0 103.5 -43t44.5 -106q0 -59 -44.5 -102.5t-103.5 -43.5q-61 0 -103.5 42.5 t-42.5 103.5zM268 1754h234l142 -166l141 166h237l-275 -300h-207zM781 1351q0 62 43 105.5t103 43.5q59 0 103.5 -43t44.5 -106q0 -59 -44.5 -102.5t-103.5 -43.5q-60 0 -103 42.5t-43 103.5z" />
<glyph unicode="&#x1db;" horiz-adv-x="1562" d="M122 602v945h281v-950q0 -183 102.5 -279.5t277.5 -96.5q173 0 275.5 96.5t102.5 279.5v950h281v-945q0 -292 -166 -463.5t-493 -171.5t-494 171.5t-167 463.5zM356 1809q0 62 43.5 105t102.5 43q60 0 104 -42.5t44 -105.5q0 -59 -44 -102.5t-104 -43.5q-59 0 -102.5 42 t-43.5 104zM509 2195h259l135 -284h-224zM924 1809q0 62 43.5 105t102.5 43q60 0 104 -42.5t44 -105.5q0 -59 -43.5 -102.5t-104.5 -43.5q-59 0 -102.5 42t-43.5 104z" />
<glyph unicode="&#x1dc;" horiz-adv-x="1348" d="M122 391v671h279v-644q0 -232 216 -232q95 0 179 45t141 136v695h279v-1062h-269v144q-75 -91 -179.5 -134t-218.5 -43q-215 0 -321 116t-106 308zM234 1351q0 62 43.5 105.5t102.5 43.5q60 0 104 -43t44 -106q0 -59 -43.5 -102.5t-104.5 -43.5q-59 0 -102.5 42.5 t-43.5 103.5zM387 1737h259l135 -283h-224zM802 1351q0 62 43.5 105.5t103.5 43.5t104 -43t44 -106q0 -59 -44 -102.5t-104 -43.5t-103.5 42.5t-43.5 103.5z" />
<glyph unicode="&#x1e6;" horiz-adv-x="1576" d="M89 772q0 243 103.5 425.5t292 282t431.5 99.5q166 0 296 -35t236 -113v-268q-97 84 -223 122t-285 38t-288.5 -67.5t-204.5 -193t-75 -290.5q0 -168 70.5 -293t197 -192.5t287.5 -67.5q170 0 280 57v348h-260v223h541v-721q-205 -158 -572 -159q-243 0 -431.5 98.5 t-292 280.5t-103.5 426zM433 2020h282l167 -222l169 222h278l-322 -378h-249z" />
<glyph unicode="&#x1e7;" horiz-adv-x="1469" d="M89 534q0 168 71.5 295t199 196.5t288.5 69.5q135 0 232 -36.5t188 -121.5v125h270v-998q0 -275 -158 -424t-486 -149q-105 0 -211.5 20t-176.5 54v220q172 -76 388 -74q195 0 280 81.5t85 243.5v68q-75 -68 -178.5 -102.5t-223.5 -34.5q-162 0 -292.5 71.5t-203 200 t-72.5 295.5zM266 1562h280l169 -222l167 222h279l-323 -378h-247zM372 534q0 -153 97 -250.5t248 -97.5q119 0 213 65t129 173v215q-37 108 -130 172.5t-212 64.5q-150 0 -247.5 -95t-97.5 -247z" />
<glyph unicode="&#x1fa;" horiz-adv-x="1684" d="M89 0l599 1495q-55 38 -87.5 96.5t-32.5 128.5q0 115 80 196t194 81q115 0 196 -80.5t81 -196.5q0 -71 -32 -129t-87 -96l597 -1495h-286l-141 356h-655l-139 -356h-287zM593 589h500l-251 656zM715 2033l152 307h294l-190 -307h-256zM730 1720q0 -46 33 -79t79 -33 q47 0 80.5 33t33.5 79q0 47 -33.5 80.5t-80.5 33.5q-46 0 -79 -33.5t-33 -80.5z" />
<glyph unicode="&#x1fb;" horiz-adv-x="1275" d="M89 338q0 177 115 277t322 100q201 0 348 -82v28q0 112 -70 163.5t-224 51.5q-97 0 -192.5 -19t-168.5 -52v219q66 31 178 51t215 20q277 0 410 -118t133 -329v-648h-264v104q-68 -66 -155.5 -101.5t-213.5 -35.5q-190 0 -311.5 100.5t-121.5 270.5zM372 338 q0 -84 56.5 -125.5t162.5 -41.5q93 0 168 36t115 101v116q-122 87 -279 87q-223 0 -223 -173zM399 1458q0 114 79 195t195 81q114 0 195 -81t81 -195t-81 -194t-195 -80q-116 0 -195 79t-79 195zM546 1811l153 308h295l-192 -308h-256zM559 1458q0 -46 33.5 -79.5 t80.5 -33.5q46 0 79 33.5t33 79.5t-33 79t-79 33q-47 0 -80.5 -33t-33.5 -79z" />
<glyph unicode="&#x1fc;" horiz-adv-x="2043" d="M89 0l732 1547h1134v-233h-687v-425h490v-232h-490v-425h687v-232h-969v378h-422l-175 -378h-300zM671 589h315v698h-6zM1089 1642l152 384h294l-190 -384h-256z" />
<glyph unicode="&#x1fd;" horiz-adv-x="2142" d="M89 338q0 177 115 277t322 100q201 0 348 -82v28q0 112 -70 163.5t-224 51.5q-97 0 -192.5 -19t-168.5 -52v219q66 31 178 51t215 20q288 0 426 -155q75 75 186.5 115t248.5 40q186 0 317.5 -70.5t198 -194t66.5 -279.5v-129h-900q29 -236 407 -236q101 0 207.5 17.5 t185.5 48.5v-214q-76 -32 -193.5 -51.5t-235.5 -19.5q-308 0 -496 170q-90 -84 -202.5 -127t-287.5 -43q-211 0 -331 99.5t-120 271.5zM372 338q0 -84 56.5 -125.5t162.5 -41.5q93 0 167 34t116 96v123q-122 87 -279 87q-223 0 -223 -173zM903 1184l152 384h294l-190 -384 h-256zM1155 612h637q-5 127 -90 195.5t-233 68.5q-144 0 -227 -71t-87 -193z" />
<glyph unicode="&#x1fe;" horiz-adv-x="1815" d="M89 772q0 237 107 420.5t294 285t419 101.5q89 0 182 -17l70 172h274l-103 -261q183 -101 289 -283.5t106 -417.5q0 -236 -107 -418.5t-294 -284.5t-417 -102q-86 0 -179 18l-69 -175h-274l104 256q-188 101 -295 285.5t-107 420.5zM372 772q0 -150 58.5 -267.5 t160.5 -188.5l403 1001q-43 6 -85 6q-150 0 -273 -68.5t-193.5 -194t-70.5 -288.5zM774 1642l153 384h293l-190 -384h-256zM829 226q49 -5 80 -5q148 0 269.5 67.5t193.5 192.5t72 291q0 146 -57.5 262t-156.5 190z" />
<glyph unicode="&#x1ff;" horiz-adv-x="1419" d="M89 531q0 171 76 298t217.5 196.5t327.5 69.5q29 0 82 -4l64 161h275l-93 -228q139 -68 216.5 -196.5t77.5 -296.5q0 -175 -77.5 -302t-218.5 -194.5t-326 -67.5q-34 0 -95 4l-64 -161h-275l93 230q-135 68 -207.5 194.5t-72.5 296.5zM376 531q0 -154 91 -250l238 595 q-152 -2 -240.5 -94t-88.5 -251zM491 1184l153 384h293l-190 -384h-256zM701 186h9q152 0 243 96t91 249q0 169 -100 261z" />
<glyph unicode="&#x218;" horiz-adv-x="1253" d="M89 59v242q110 -53 232 -80t238 -27q148 0 226 56t78 153q0 68 -35.5 113.5t-104.5 80t-210 89.5q-217 88 -314 196.5t-97 269.5q0 127 68.5 224t192.5 150t285 53q133 0 235.5 -21t202.5 -65v-235q-192 93 -389 93q-142 0 -219 -52t-77 -147q0 -68 35 -111t94 -73.5 t211 -93.5q154 -64 244 -126t135 -145.5t45 -201.5q0 -206 -148 -320t-437 -114q-137 0 -271 25t-220 67zM270 -572l181 448h290l-217 -448h-254z" />
<glyph unicode="&#x219;" horiz-adv-x="1102" d="M89 774q0 159 125.5 240t340.5 81q110 0 220 -21t172 -59v-228q-66 40 -161.5 64.5t-194.5 24.5q-108 0 -163.5 -21t-55.5 -81q0 -40 29.5 -63t78 -40t177.5 -50q137 -38 214.5 -81.5t110.5 -105.5t33 -155q0 -142 -120.5 -227t-348.5 -85q-115 0 -245 26t-204 73v237 q87 -52 206 -84.5t225 -32.5t155 19t49 69q0 40 -25.5 65.5t-82 46.5t-173.5 52q-132 38 -208.5 77.5t-115 100.5t-38.5 158zM226 -572l181 448h290l-217 -448h-254z" />
<glyph unicode="&#x21a;" horiz-adv-x="1302" d="M44 1314v233h1214v-233h-466v-1314h-281v1314h-467zM319 -572l181 448h289l-217 -448h-253z" />
<glyph unicode="&#x21b;" horiz-adv-x="857" d="M44 849v213h159v318h279v-318h255v-213h-255v-475q0 -102 37.5 -145t137.5 -43q68 0 135 31v-213q-95 -37 -233 -37q-175 0 -265.5 97.5t-90.5 273.5v511h-159zM213 -572l181 448h290l-217 -448h-254z" />
<glyph unicode="&#x237;" horiz-adv-x="549" d="M-177 -257q59 -27 137 -26q91 0 135 45.5t44 142.5v1157h279v-1186q0 -192 -110.5 -289.5t-298.5 -97.5q-106 0 -186 29v225z" />
<glyph unicode="&#x251;" horiz-adv-x="1469" d="M89 528q0 166 71.5 294.5t199 200.5t288.5 72q261 0 411 -137v104h279v-1062h-270v124q-91 -84 -188 -120.5t-232 -36.5q-161 0 -288.5 69.5t-199 197t-71.5 294.5zM372 528q0 -152 97 -247t248 -95q119 0 212 64t130 172v215q-35 108 -129 173.5t-213 65.5 q-150 0 -247.5 -97.5t-97.5 -250.5z" />
<glyph unicode="&#x259;" horiz-adv-x="1346" d="M89 511v128h905q-30 237 -412 237q-101 0 -207.5 -18t-186.5 -48v214q76 31 194 51t235 20q296 0 468.5 -148.5t172.5 -412.5q0 -262 -152 -414.5t-435 -152.5q-186 0 -318 70.5t-198 193.5t-66 280zM352 449q4 -126 89 -194.5t234 -68.5q146 0 229.5 70.5t89.5 192.5 h-642z" />
<glyph unicode="&#x2bb;" horiz-adv-x="591" d="M89 1146l177 433h238l-145 -433h-270z" />
<glyph unicode="&#x2bc;" horiz-adv-x="591" d="M89 1146l145 433h270l-177 -433h-238z" />
<glyph unicode="&#x2be;" d="M-168 1161v200q75 0 112 27.5t37 95.5t-37 96t-112 28v199q156 0 250.5 -80.5t94.5 -242.5t-94 -242.5t-251 -80.5z" />
<glyph unicode="&#x2bf;" d="M-168 1484q0 162 93.5 242.5t251.5 80.5v-199q-75 0 -111.5 -27.5t-36.5 -96.5q0 -68 36.5 -95.5t111.5 -27.5v-200q-158 0 -251.5 81t-93.5 242z" />
<glyph unicode="&#x2c6;" horiz-adv-x="1072" d="M89 1309l325 379h247l323 -379h-279l-167 219l-169 -219h-280z" />
<glyph unicode="&#x2c7;" horiz-adv-x="1072" d="M89 1688h280l169 -221l167 221h279l-323 -379h-247z" />
<glyph unicode="&#x2c8;" d="M-106 1281v403h208v-403h-208z" />
<glyph unicode="&#x2c9;" horiz-adv-x="1302" d="M283 1314v186h734v-186h-734z" />
<glyph unicode="&#x2ca;" d="M-228 1292l152 384h295l-190 -384h-257z" />
<glyph unicode="&#x2cb;" d="M-230 1292l190 384h257l-153 -384h-294z" />
<glyph unicode="&#x2cc;" d="M-106 -135h208v-403h-208v403z" />
<glyph unicode="&#x2d8;" horiz-adv-x="888" d="M89 1597h209q0 -73 38 -111t109 -38t108.5 38t37.5 111h209q0 -150 -95 -242t-260 -92q-166 0 -261 91.5t-95 242.5z" />
<glyph unicode="&#x2d9;" horiz-adv-x="470" d="M89 1425q0 61 44 104t104 43q59 0 102 -43t43 -104q0 -62 -43 -104t-102 -42q-60 0 -104 43t-44 103z" />
<glyph unicode="&#x2da;" horiz-adv-x="726" d="M89 1454q0 114 79 195t195 81q114 0 195 -81t81 -195q0 -115 -81 -195t-195 -80q-116 0 -195 79.5t-79 195.5zM249 1454q0 -47 33.5 -80.5t80.5 -33.5q46 0 79 33.5t33 80.5q0 46 -33 79t-79 33q-47 0 -80.5 -33t-33.5 -79z" />
<glyph unicode="&#x2db;" horiz-adv-x="616" d="M89 -268q0 84 44 153t116 115h260q-89 -53 -132 -105t-43 -114q0 -42 25 -65.5t65 -23.5q56 0 104 25v-160q-75 -29 -192 -28q-108 0 -177.5 52t-69.5 151z" />
<glyph unicode="&#x2dc;" horiz-adv-x="1036" d="M89 1309v228q71 95 221 95q49 0 95 -13t119 -42q61 -27 108 -41t96 -14q137 0 221 112v-227q-68 -93 -221 -93q-55 0 -106.5 14t-117.5 44q-66 27 -107 40t-87 13q-64 0 -118.5 -26.5t-102.5 -89.5z" />
<glyph unicode="&#x2dd;" horiz-adv-x="1096" d="M89 1258l154 386h270l-190 -386h-234zM584 1258l153 386h272l-190 -386h-235z" />
<glyph unicode="&#x300;" d="M-1059 1676h293l154 -384h-257z" />
<glyph unicode="&#x301;" d="M-816 1292l153 384h294l-190 -384h-257z" />
<glyph unicode="&#x302;" d="M-449 1298l325 378h248l323 -378h-279l-168 219l-168 -219h-281z" />
<glyph unicode="&#x303;" d="M-1112 1309v228q71 95 221 95q49 0 95 -13t119 -42q61 -27 108 -41t96 -14q137 0 221 112v-227q-68 -93 -221 -93q-55 0 -106.5 14t-117.5 44q-65 27 -106.5 40t-87.5 13q-64 0 -118.5 -26.5t-102.5 -89.5z" />
<glyph unicode="&#x304;" d="M-345 1314v186h714v-186h-714z" />
<glyph unicode="&#x306;" d="M-356 1597h210q0 -73 37.5 -111t108.5 -38t108.5 38t37.5 111h210q0 -150 -95 -242t-261 -92t-261 91.5t-95 242.5z" />
<glyph unicode="&#x307;" d="M-148 1425q0 61 44.5 104t103.5 43t102.5 -43t43.5 -104q0 -62 -43.5 -104t-102.5 -42t-103.5 43t-44.5 103z" />
<glyph unicode="&#x308;" d="M-411 1425q0 61 44 104t103 43q60 0 103 -43t43 -104q0 -62 -42.5 -104t-103.5 -42q-59 0 -103 43t-44 103zM112 1425q0 61 44.5 104t104.5 43t103 -43t43 -104q0 -62 -43 -104t-103 -42t-104.5 43t-44.5 103z" />
<glyph unicode="&#x309;" d="M-988 1579v146q42 13 101.5 22t114.5 9q150 0 230 -59.5t80 -161.5q0 -82 -53 -137.5t-148 -70.5v-75h-244v164q99 0 150.5 24t51.5 84q0 44 -32.5 63t-104.5 19q-30 0 -78.5 -9t-67.5 -18z" />
<glyph unicode="&#x30a;" d="M-274 1454q0 114 80 195t194 81t195 -81t81 -195q0 -115 -81 -195t-195 -80t-194 79.5t-80 195.5zM-112 1454q0 -47 33 -80.5t79 -33.5t79 33.5t33 80.5q0 46 -33 79t-79 33t-79 -33t-33 -79z" />
<glyph unicode="&#x30b;" d="M-482 1292l153 384h272l-190 -384h-235zM11 1292l155 384h269l-190 -384h-234z" />
<glyph unicode="&#x30c;" d="M-449 1676h281l168 -220l168 220h279l-323 -378h-248z" />
<glyph unicode="&#x31b;" d="M-199 1197v194q95 0 146 52t51 132v77h223v-92q0 -159 -109.5 -261t-310.5 -102z" />
<glyph unicode="&#x323;" d="M-148 -249q0 61 44.5 104t103.5 43t102.5 -43t43.5 -104q0 -62 -43.5 -104.5t-102.5 -42.5t-103.5 43t-44.5 104z" />
<glyph unicode="&#x324;" d="M-387 -249q0 61 44.5 104t103.5 43q60 0 103 -43t43 -104q0 -62 -43 -104.5t-103 -42.5q-59 0 -103.5 43t-44.5 104zM89 -249q0 61 44 104t104 43q59 0 102 -43t43 -104q0 -62 -43 -104.5t-102 -42.5q-60 0 -104 43t-44 104z" />
<glyph unicode="&#x326;" d="M-559 -572l181 448h289l-217 -448h-253z" />
<glyph unicode="&#x327;" d="M-247 -522l2 153q25 -11 60 -19t67 -8q131 0 131 90q0 53 -52 85.5t-166 32.5l72 188h251l-45 -114q95 -11 147 -70t52 -148q0 -103 -86.5 -160t-231.5 -57q-60 0 -115.5 7.5t-85.5 19.5z" />
<glyph unicode="&#x328;" d="M-213 -268q0 84 44.5 153t117.5 115h256q-88 -53 -131 -105t-43 -114q0 -42 25.5 -65.5t65.5 -23.5q57 0 106 25v-160q-76 -29 -192 -28q-112 0 -180.5 52t-68.5 151z" />
<glyph unicode="&#x32e;" d="M-356 -131h210q0 -73 37.5 -110.5t108.5 -37.5t108.5 38t37.5 110h210q0 -150 -95 -241.5t-261 -91.5t-261 91.5t-95 241.5z" />
<glyph unicode="&#x331;" d="M-345 -150h714v-184h-714v184z" />
<glyph unicode="&#x394;" horiz-adv-x="1526" d="M89 0v190l553 1389h243l552 -1389v-190h-1348zM352 228h820l-408 1046z" />
<glyph unicode="&#x3a9;" horiz-adv-x="1809" d="M89 0v232h272q-120 95 -195 242t-75 315q0 233 100.5 412t285 278.5t428.5 99.5q243 0 427.5 -99.5t285 -278.5t100.5 -412q0 -168 -75 -315t-195 -242h272v-232h-654v211q369 203 369 578q0 159 -68.5 281t-189 187.5t-272.5 65.5t-273 -65.5t-189.5 -187t-68.5 -281.5 q0 -375 369 -578v-211h-654z" />
<glyph unicode="&#x3bc;" horiz-adv-x="1359" d="M133 -485v1547h278v-657q0 -110 53 -164.5t165 -54.5q95 0 178.5 45t141.5 136v695h279v-1062h-270v144q-76 -91 -179.5 -134t-219.5 -43q-92 0 -148 31v-483h-278z" />
<glyph unicode="&#x3c0;" horiz-adv-x="1539" d="M66 829v233h1306v-233h-193v-447q0 -101 34 -144.5t123 -43.5q78 0 137 27v-225q-80 -29 -186 -29q-185 0 -287.5 96t-102.5 291v475h-357v-829h-281v829h-193z" />
<glyph unicode="&#xe01;" horiz-adv-x="1437" d="M89 905q122 152 279.5 231.5t365.5 79.5q277 0 424 -123.5t147 -342.5v-750h-281v728q0 137 -73 203.5t-217 66.5q-108 0 -191 -31.5t-154 -101.5l91 -146v-719h-281v721z" />
<glyph unicode="&#xe02;" horiz-adv-x="1319" d="M89 962v222h274q99 0 158 -57t59 -152q0 -66 -26 -121.5t-74 -134.5q-49 -80 -73.5 -131.5t-24.5 -112.5v-55q0 -112 66.5 -173t199.5 -61q259 0 259 245v753h281v-707q0 -234 -140.5 -372t-399.5 -138q-166 0 -290 56.5t-190 157t-66 228.5v55q0 78 32 142.5t90 145.5 q37 53 54.5 84t17.5 59q0 66 -81 67h-126z" />
<glyph unicode="&#xe03;" horiz-adv-x="1342" d="M89 1068v116h196v-80q0 -64 65 -64q38 0 64 26v118h212v-209q0 -78 -32 -143.5t-92 -152.5q-48 -71 -72.5 -117.5t-24.5 -92.5v-49q0 -112 66.5 -173t199.5 -61q259 0 258 245v753h281v-707q0 -234 -140.5 -372t-398.5 -138q-167 0 -290.5 56.5t-190 157t-66.5 228.5v64 q0 73 39.5 140.5t110.5 152.5q47 57 64.5 83.5t17.5 47.5v8q-44 -22 -101 -23q-166 0 -166 186z" />
<glyph unicode="&#xe04;" horiz-adv-x="1435" d="M133 0v717q0 239 158 369t428 130t426.5 -130t156.5 -369v-717h-280v728q0 135 -78.5 202.5t-224.5 67.5t-225.5 -66.5t-79.5 -203.5v-194q29 46 85 74.5t132 28.5h179v-234h-200q-86 0 -141 -57t-55 -135v-211h-281z" />
<glyph unicode="&#xe05;" horiz-adv-x="1435" d="M133 0v821q0 181 81.5 288t254.5 107q88 0 152.5 -32t95.5 -93q36 61 98.5 93t151.5 32q172 0 253.5 -106t81.5 -289v-821h-280v827q0 93 -22.5 132t-87.5 39q-51 0 -76.5 -30.5t-39.5 -95.5h-157q-13 65 -38.5 95.5t-76.5 30.5q-64 0 -87 -39t-23 -130v-295 q29 46 85 74.5t132 28.5h179v-234h-200q-86 0 -141 -57t-55 -135v-211h-281z" />
<glyph unicode="&#xe06;" horiz-adv-x="1395" d="M89 1068v116h196v-80q0 -64 65 -64q38 0 64 26v118h212v-209q0 -78 -32 -142.5t-92 -155.5q-48 -71 -72.5 -117.5t-24.5 -92.5v-100q114 -181 319 -181q261 0 260 243v755h279v-768q0 -127 -54 -229.5t-158 -161t-249 -58.5q-110 0 -217.5 45t-190.5 134v-146h-270v456 q0 80 40.5 150.5t111.5 161.5q40 48 60 78t20 51v8q-44 -22 -101 -23q-166 0 -166 186z" />
<glyph unicode="&#xe07;" horiz-adv-x="1391" d="M89 1035h280l260 -816q185 0 285.5 105t100.5 300q0 188 -68.5 281t-218.5 93q-82 0 -153 -23v215q86 27 202 26q259 0 392 -156.5t133 -435.5q0 -194 -84.5 -336t-228.5 -215t-318 -73h-255z" />
<glyph unicode="&#xe08;" horiz-adv-x="1308" d="M89 918v219q86 38 205.5 58.5t245.5 20.5q321 0 500.5 -161.5t179.5 -457.5q0 -179 -88 -314t-240.5 -209t-334.5 -74h-261l-161 650h279l105 -431q186 0 300 98.5t114 279.5q0 195 -99.5 298t-329.5 103q-110 0 -225 -22t-190 -58z" />
<glyph unicode="&#xe09;" horiz-adv-x="1361" d="M89 918v219q84 36 220 57.5t263 21.5q345 0 501.5 -144.5t156.5 -432.5v-639h-270v146q-68 -89 -175.5 -134t-231.5 -45q-215 0 -328 117t-113 321v270h282v-253q0 -122 59.5 -179t185.5 -57q98 0 180 47.5t130 133.5v262q0 190 -88.5 279.5t-316.5 89.5 q-117 0 -247.5 -22t-207.5 -58z" />
<glyph unicode="&#xe0a;" horiz-adv-x="1306" d="M89 962v222h274q99 0 158 -57t59 -152q0 -66 -26 -121.5t-74 -134.5q-49 -80 -73.5 -131.5t-24.5 -112.5v-55q0 -110 70 -172t198 -62q135 0 207 74t72 217q0 290 -237 291v148l226 300h300l-245 -327q126 -60 181.5 -159t55.5 -253q0 -148 -69 -264t-195.5 -181 t-295.5 -65q-163 0 -287 56.5t-192.5 157t-68.5 228.5v55q0 78 33 144.5t91 147.5q40 59 55 86t15 53q0 66 -81 67h-126z" />
<glyph unicode="&#xe0b;" horiz-adv-x="1328" d="M89 1068v116h196v-80q0 -64 65 -64q38 0 64 26v118h212v-209q0 -78 -32 -143.5t-92 -152.5q-48 -71 -72.5 -117.5t-24.5 -92.5v-49q0 -110 69.5 -172t198.5 -62q135 0 206.5 74t71.5 217q0 290 -236 291v148l225 300h301l-245 -327q126 -60 181 -159t55 -253 q0 -148 -68.5 -264t-196 -181t-294.5 -65q-164 0 -288 56.5t-192.5 157t-68.5 228.5v64q0 73 39.5 140.5t110.5 152.5q47 57 64.5 83.5t17.5 47.5v8q-44 -22 -101 -23q-166 0 -166 186z" />
<glyph unicode="&#xe0c;" horiz-adv-x="2206" d="M89 905q122 152 273 231.5t350 79.5q268 0 407 -122.5t139 -343.5v-383q115 -181 299 -181q125 0 182 60t57 183v755h279v-768q0 -127 -51 -229.5t-149 -161t-238 -58.5q-109 0 -208.5 42t-178.5 130v-139h-270v728q0 139 -66.5 204.5t-201.5 65.5q-102 0 -179 -31.5 t-144 -101.5l91 -146v-381q0 -57 25.5 -80.5t85.5 -23.5h119v-234h-269q-118 0 -180 66.5t-62 180.5v474z" />
<glyph unicode="&#xe0d;" horiz-adv-x="2235" d="M89 905q122 152 273 231.5t350 79.5q268 0 407 -122.5t139 -343.5v-75q0 -150 63.5 -222.5t215.5 -72.5q281 0 281 295v509h282v-532q0 -137 -87 -268q112 -99 112 -240q0 -173 -159 -267t-411 -94q-122 0 -241.5 24.5t-192.5 66.5v232q192 -104 434 -104 q159 0 236.5 34.5t77.5 107.5q0 48 -35 88q-146 -71 -304 -70q-272 0 -411 129t-139 361v76q0 139 -66.5 204.5t-201.5 65.5q-102 0 -179 -31.5t-144 -101.5l91 -146v-381q0 -57 24 -80.5t82 -23.5h124v-234h-269q-118 0 -180 66.5t-62 180.5v474z" />
<glyph unicode="&#xe0e;" horiz-adv-x="1467" d="M89 0v234h86q57 0 78 22.5t21 81.5v383l-154 184q236 312 648 311q274 0 421 -123.5t147 -342.5v-1239h-247q-78 61 -161 89t-183 28q-101 0 -197.5 -34.5t-165.5 -95.5v230q62 55 162 87.5t201 32.5q192 0 310 -76v956q0 137 -73 203.5t-216 66.5q-106 0 -187 -31.5 t-152 -92.5l128 -153v-472q0 -117 -63 -183t-178 -66h-225z" />
<glyph unicode="&#xe0f;" horiz-adv-x="1467" d="M89 0v234h86q57 0 78 22.5t21 81.5v383l-154 184q236 312 648 311q274 0 421 -123.5t147 -342.5v-1239h-268l-263 151q-45 -78 -126.5 -118t-191.5 -40q-69 0 -132 19t-108 50v212q95 -61 222 -61q86 0 142 37.5t73 114.5h154l217 -123v975q0 137 -73 203.5t-216 66.5 q-106 0 -187 -31.5t-152 -92.5l128 -153v-472q0 -117 -63 -183t-178 -66h-225z" />
<glyph unicode="&#xe10;" horiz-adv-x="1344" d="M89 918v219q86 38 205.5 58.5t245.5 20.5q199 0 347 -64l104 120h309l-223 -255q143 -156 143 -407q0 -183 -88 -322.5t-239.5 -213.5t-335.5 -74h-261l-161 650h279l105 -431q184 0 299 105t115 288q0 193 -99.5 289.5t-329.5 96.5q-110 0 -225 -22t-190 -58zM102 -237 q95 -61 221 -61q88 0 139 39.5t76 123.5h137l234 -141v192h279v-405h-255l-272 160q-46 -89 -121.5 -128t-189.5 -39q-71 0 -138.5 19t-109.5 50v190z" />
<glyph unicode="&#xe11;" horiz-adv-x="1406" d="M89 1068v116h196v-80q0 -64 65 -64q38 0 64 26v118h212v-74q47 49 130.5 77.5t167.5 28.5q350 0 350 -400v-816h-280v849q0 75 -35 112t-105 37q-164 0 -250 -124q-15 -49 -34 -86.5t-53 -90.5q-40 -66 -59.5 -114.5t-19.5 -113.5v-469h-281v473q0 73 33.5 139.5 t92.5 153.5q38 55 53.5 82.5t15.5 48.5v8q-44 -22 -103 -23q-162 0 -160 186z" />
<glyph unicode="&#xe12;" horiz-adv-x="2309" d="M89 572q0 199 56 345.5t156 222.5t225 76q159 0 235 -125q82 126 283 125q159 0 239 -100.5t80 -268.5v-480q114 -181 296 -181q124 0 181.5 60t57.5 183v755h278v-768q0 -127 -50.5 -229.5t-149 -161t-237.5 -58.5q-108 0 -208 42t-180 130v-139h-270v827 q0 91 -24.5 131t-87.5 40q-104 0 -129 -129h-156q-7 64 -32.5 96.5t-79.5 32.5q-90 0 -143 -106.5t-53 -319.5q0 -188 90.5 -287t252.5 -99q82 0 153 22v-214q-87 -27 -201 -27q-169 0 -300.5 69.5t-206.5 205.5t-75 330z" />
<glyph unicode="&#xe13;" horiz-adv-x="2206" d="M89 905q122 152 273 231.5t350 79.5q268 0 407 -122.5t139 -343.5v-321q0 -124 58 -183.5t181 -59.5q97 0 178 47.5t121 133.5v817h279v-1184h-270v139q-140 -172 -387 -172q-139 0 -238 58.5t-149.5 161t-50.5 229.5v312q0 139 -66.5 204.5t-201.5 65.5 q-102 0 -179 -31.5t-144 -101.5l91 -146v-381q0 -57 25.5 -80.5t85.5 -23.5h119v-234h-269q-118 0 -180 66.5t-62 180.5v474z" />
<glyph unicode="&#xe14;" horiz-adv-x="1516" d="M89 562q0 203 80 350t232 225.5t357 78.5q325 0 476 -150t151 -391v-675h-281v677q0 155 -81 238t-265 83q-177 0 -279.5 -114t-102.5 -322q0 -190 88.5 -283t254.5 -93q82 0 153 22v-214q-87 -27 -201 -27q-270 0 -426 151.5t-156 443.5z" />
<glyph unicode="&#xe15;" horiz-adv-x="1516" d="M89 562q0 198 57 346.5t159 228t229 79.5q164 0 238 -125q42 66 119.5 95.5t170.5 29.5q158 0 240.5 -100.5t82.5 -268.5v-847h-281v827q0 89 -26.5 130t-91.5 41q-110 0 -135 -129h-157q-13 129 -114 129q-91 0 -147.5 -112t-56.5 -324q0 -376 343 -376q82 0 153 22 v-214q-87 -27 -201 -27q-268 0 -425 151.5t-157 443.5z" />
<glyph unicode="&#xe16;" horiz-adv-x="1437" d="M89 905q122 152 279.5 231.5t365.5 79.5q277 0 424 -123.5t147 -342.5v-750h-281v728q0 137 -73 203.5t-217 66.5q-108 0 -191 -31.5t-154 -101.5l91 -146v-381q0 -57 25.5 -80.5t85.5 -23.5h119v-234h-269q-118 0 -180 66.5t-62 180.5v474z" />
<glyph unicode="&#xe17;" horiz-adv-x="1404" d="M133 0v1184h270v-146q84 88 195.5 133t224.5 45q219 0 334 -122.5t115 -314.5v-779h-281v766q0 232 -248 232q-215 0 -329 -182v-816h-281z" />
<glyph unicode="&#xe18;" horiz-adv-x="1247" d="M89 891q0 166 145.5 245.5t375.5 79.5q137 0 268 -27.5t211 -69.5v-230q-85 51 -205 80t-242 29q-138 0 -205.5 -20t-67.5 -87q0 -57 61 -85.5t220 -71.5l95 -24q155 -43 242.5 -89t129.5 -114.5t42 -179.5q0 -162 -137 -261t-391 -99q-247 0 -392.5 96t-145.5 262v144 h276v-124q0 -169 262 -168q249 0 249 150q0 64 -30.5 99.5t-97 58t-218.5 57.5q-224 53 -334.5 128t-110.5 221z" />
<glyph unicode="&#xe19;" horiz-adv-x="1404" d="M133 416v768h281v-755q0 -243 259 -243q203 0 318 181v817h281v-1184h-270v146q-84 -89 -191.5 -134t-217.5 -45q-144 0 -248 58.5t-158 161t-54 229.5z" />
<glyph unicode="&#xe1a;" horiz-adv-x="1443" d="M137 469v715h281v-704q0 -140 77 -217t231 -77q150 0 227 77t77 217v704h281v-715q0 -146 -72 -260t-204 -178t-309 -64t-311 64t-206 178t-72 260z" />
<glyph unicode="&#xe1b;" horiz-adv-x="1439" d="M133 469v715h281v-704q0 -140 77 -217t230 -77q151 0 228 77t77 217v1099h281v-1110q0 -146 -72 -260t-205 -178t-309 -64q-177 0 -311 64t-205.5 178t-71.5 260z" />
<glyph unicode="&#xe1c;" horiz-adv-x="1441" d="M133 0v924q0 127 67.5 193.5t193.5 66.5h201v-235h-82q-57 0 -79.5 -24t-22.5 -87v-439l254 397h112l253 -397v785h279v-1184h-252l-336 534l-337 -534h-251z" />
<glyph unicode="&#xe1d;" horiz-adv-x="1441" d="M133 0v924q0 127 67.5 193.5t193.5 66.5h201v-235h-82q-57 0 -79.5 -24t-22.5 -87v-439l254 397h112l253 -397v1180h279v-1579h-252l-336 534l-337 -534h-251z" />
<glyph unicode="&#xe1e;" horiz-adv-x="1742" d="M66 1184h282l190 -795l230 795h207l230 -795l190 795h281l-329 -1184h-237l-238 814l-239 -814h-237z" />
<glyph unicode="&#xe1f;" horiz-adv-x="1682" d="M66 1184h282l190 -795l230 795h207l230 -795l241 1190h281l-380 -1579h-237l-238 814l-239 -814h-237z" />
<glyph unicode="&#xe20;" horiz-adv-x="1467" d="M89 0v234h86q57 0 78 22.5t21 81.5v383l-154 184q236 312 648 311q274 0 421 -123.5t147 -342.5v-750h-281v728q0 137 -73 203.5t-216 66.5q-106 0 -187 -31.5t-152 -92.5l128 -153v-472q0 -117 -63 -183t-178 -66h-225z" />
<glyph unicode="&#xe21;" horiz-adv-x="1404" d="M133 0v1184h281v-817q114 -181 318 -181q262 0 262 243v755h278v-768q0 -127 -54.5 -229.5t-158 -161t-247.5 -58.5q-111 0 -218 45t-191 134v-146h-270z" />
<glyph unicode="&#xe22;" horiz-adv-x="1416" d="M89 356q0 91 52.5 164t137.5 101q-80 38 -130 108.5t-50 159.5q0 148 102 237.5t301 89.5q62 0 119.5 -7.5t90.5 -18.5v-219q-29 13 -74 20t-81 7q-170 0 -170 -126q0 -68 42 -101.5t135 -33.5h148v-228h-148q-188 0 -188 -153q0 -80 79 -125t216 -45q172 0 252.5 70.5 t80.5 207.5v722h281v-717q0 -127 -61 -241t-199 -187.5t-354 -73.5q-264 0 -423 102t-159 287z" />
<glyph unicode="&#xe23;" horiz-adv-x="1146" d="M89 869q0 167 132.5 257t358.5 90q120 0 229 -25.5t179 -67.5v-230q-73 47 -175.5 76t-206.5 29q-237 0 -237 -129q0 -46 29 -74.5t77.5 -47.5t148.5 -50l73 -22q141 -44 220 -95.5t110.5 -117.5t31.5 -164q0 -148 -125.5 -239.5t-378.5 -91.5q-126 0 -255 26t-203 80 v219q97 -58 215.5 -86.5t218.5 -28.5q133 0 191.5 26.5t58.5 99.5q0 51 -31 81t-84.5 50t-198.5 64q-191 59 -284.5 143.5t-93.5 227.5z" />
<glyph unicode="&#xe24;" horiz-adv-x="1437" d="M89 905q122 152 279.5 231.5t365.5 79.5q277 0 424 -123.5t147 -342.5v-1183h-281v1161q0 137 -73 203.5t-217 66.5q-108 0 -191 -31.5t-154 -101.5l91 -146v-381q0 -57 25.5 -80.5t85.5 -23.5h119v-234h-269q-118 0 -180 66.5t-62 180.5v474z" />
<glyph unicode="&#xe25;" horiz-adv-x="1366" d="M89 348q0 120 61 210t172 141t262 51q215 0 372 -73v53q0 137 -81 202.5t-260 65.5q-108 0 -213.5 -22t-182.5 -60v219q72 34 196.5 57.5t243.5 23.5q287 0 431 -130t144 -349v-737h-278v456q-148 75 -339 75q-125 0 -185 -48t-60 -138q0 -83 55 -121t175 -38 q75 0 130 22v-214q-82 -27 -206 -27q-197 0 -317 99.5t-120 281.5z" />
<glyph unicode="&#xe26;" horiz-adv-x="1467" d="M89 0v234h86q57 0 78 22.5t21 81.5v383l-154 184q236 312 648 311q274 0 421 -123.5t147 -342.5v-1183h-281v1161q0 137 -73 203.5t-216 66.5q-106 0 -187 -31.5t-152 -92.5l128 -153v-472q0 -117 -63 -183t-178 -66h-225z" />
<glyph unicode="&#xe27;" horiz-adv-x="1269" d="M89 62v221q137 -97 382 -97q201 0 311.5 100.5t110.5 304.5q0 203 -110 305t-312 102q-232 0 -376 -97v220q152 95 433 95q306 0 480 -164.5t174 -460.5q0 -294 -175 -459t-479 -165q-289 0 -439 95z" />
<glyph unicode="&#xe28;" horiz-adv-x="1467" d="M133 0v717q0 239 158 369t428 130q153 0 265 -42l86 98h310l-194 -223q118 -129 116 -332v-717h-280v728q0 135 -78.5 202.5t-224.5 67.5t-225.5 -66.5t-79.5 -203.5v-194q29 46 85 74.5t132 28.5h179v-234h-200q-86 0 -141 -57t-55 -135v-211h-281z" />
<glyph unicode="&#xe29;" horiz-adv-x="1481" d="M133 469v715h281v-704q0 -140 77 -217t230 -77q151 0 228 77t77 217v100h-258v234h258v370h281v-370h120v-234h-120v-111q0 -146 -72 -260t-205 -178t-309 -64q-177 0 -311 64t-205.5 178t-71.5 260z" />
<glyph unicode="&#xe2a;" horiz-adv-x="1419" d="M89 348q0 120 61 210t172 141t262 51q215 0 372 -73v53q0 137 -81 202.5t-260 65.5q-108 0 -213.5 -22t-182.5 -60v219q72 34 196.5 57.5t243.5 23.5q179 0 310 -55l97 111h310l-228 -261q86 -97 86 -274v-737h-278v456q-148 75 -339 75q-125 0 -185 -48t-60 -138 q0 -83 55 -121t175 -38q75 0 130 22v-214q-82 -27 -206 -27q-197 0 -317 99.5t-120 281.5z" />
<glyph unicode="&#xe2b;" horiz-adv-x="1379" d="M133 0v1184h281v-474l510 474h323l-323 -299q180 -47 250.5 -150.5t70.5 -276.5v-458h-281v438q0 127 -45 190.5t-165 90.5l-340 -316v-403h-281z" />
<glyph unicode="&#xe2c;" horiz-adv-x="1463" d="M133 0v1184h278v-775l266 454h110l266 -454v476q0 114 -51 162t-181 48v155l241 329h310l-255 -347q124 -40 169.5 -124t45.5 -230v-878h-253l-347 589l-348 -589h-251z" />
<glyph unicode="&#xe2d;" horiz-adv-x="1364" d="M89 84v619h530v-228h-250v-245q82 -44 226 -44q194 0 293.5 106.5t99.5 309.5q0 139 -43.5 225.5t-145.5 128.5t-275 42q-113 0 -229 -23.5t-193 -67.5v218q88 45 210.5 68t259.5 23q336 0 520.5 -160.5t184.5 -453.5q0 -294 -176.5 -464.5t-505.5 -170.5 q-141 0 -278.5 31t-227.5 86z" />
<glyph unicode="&#xe2e;" horiz-adv-x="1401" d="M89 84v619h530v-228h-250v-245q82 -44 226 -44q194 0 293.5 106.5t99.5 309.5q0 205 -110 300.5t-354 95.5q-113 0 -229 -23.5t-193 -67.5v218q88 45 210.5 68t259.5 23q211 0 365 -72l112 128h309l-230 -265q147 -162 149 -405q0 -294 -176.5 -464.5t-505.5 -170.5 q-141 0 -278.5 31t-227.5 86z" />
<glyph unicode="&#xe2f;" horiz-adv-x="1218" d="M44 838q0 177 110 277.5t281 100.5q131 0 211 -28v-213q-66 22 -131 23q-86 0 -134.5 -39t-48.5 -121q0 -154 206 -154q156 0 267 77v423h281v-1184h-281v538q-131 -74 -336 -74q-186 0 -305.5 99.5t-119.5 274.5z" />
<glyph unicode="&#xe30;" horiz-adv-x="753" d="M89 306v141h251v-91q0 -33 14.5 -46.5t50.5 -13.5h260v-190h-384q-106 0 -149 48.5t-43 151.5zM89 905v142h251v-91q0 -34 14.5 -47.5t50.5 -13.5h260v-190h-384q-106 0 -149 48.5t-43 151.5z" />
<glyph unicode="&#xe31;" d="M-779 1557v129h253v-103q0 -35 13 -47t49 -12h526v-179h-642q-104 0 -151.5 52.5t-47.5 159.5z" />
<glyph unicode="&#xe32;" horiz-adv-x="926" d="M22 933v219q53 27 140 45.5t172 18.5q228 0 344 -123.5t116 -353.5v-739h-281v756q0 131 -52 186.5t-187 55.5q-124 0 -252 -65z" />
<glyph unicode="&#xe33;" horiz-adv-x="937" d="M-546 1562q0 103 75 178t179 75t178 -75t74 -178q0 -106 -74 -179.5t-178 -73.5q-107 0 -180.5 73.5t-73.5 179.5zM-387 1560q0 -38 27.5 -68t67.5 -30q35 0 64 30t29 68q0 37 -28 67t-65 30q-40 0 -67.5 -29t-27.5 -68zM33 933v219q53 27 140.5 45.5t171.5 18.5 q227 0 343.5 -123.5t116.5 -353.5v-739h-281v756q0 131 -52 186.5t-187 55.5q-124 0 -252 -65z" />
<glyph unicode="&#xe34;" d="M-1121 1345v179h988v-179h-988z" />
<glyph unicode="&#xe35;" d="M-1117 1345v179h737v239h251v-418h-988z" />
<glyph unicode="&#xe36;" d="M-1115 1345v179h581q-6 27 -6 53q0 93 64.5 154t163.5 61q106 0 168 -65.5t62 -154.5q0 -99 -69.5 -163t-180.5 -64h-783zM-409 1572q0 -39 29.5 -69t69.5 -30t69.5 30t29.5 69q0 40 -29.5 70t-69.5 30t-69.5 -30t-29.5 -70z" />
<glyph unicode="&#xe37;" d="M-1115 1345v179h429v239h197v-239h168v239h195v-418h-989z" />
<glyph unicode="&#xe38;" d="M-522 -114h206q110 0 150 -41.5t40 -150.5v-287h-252v228q0 40 -13.5 55.5t-53.5 15.5h-77v180z" />
<glyph unicode="&#xe39;" d="M-863 -114h224q61 0 86 -28.5t25 -89.5v-124q0 -89 95 -89q93 0 93 89v242h211v-264q0 -102 -77 -166t-218 -64q-151 0 -234 60.5t-83 163.5v39q0 32 -8.5 41.5t-37.5 9.5h-76v180z" />
<glyph unicode="&#xe3a;" d="M-418 -255q0 62 43 105.5t105 43.5q59 0 103.5 -43t44.5 -106q0 -59 -44.5 -102.5t-103.5 -43.5q-62 0 -105 43.5t-43 102.5z" />
<glyph unicode="&#xe3f;" horiz-adv-x="1454" d="M133 0v1547h437v226h240v-226h57q213 0 331.5 -106.5t118.5 -309.5q0 -108 -52.5 -196t-139.5 -135q241 -80 242 -355q0 -137 -62 -238t-167.5 -154t-232.5 -53h-95v-228h-240v228h-437zM411 221h159v456h-159v-456zM411 903h159v422h-159v-422zM810 221h30q118 0 181 49 t63 173t-66.5 179t-192.5 55h-15v-456zM810 903h13q95 0 152 52t57 157q0 122 -56 167.5t-166 45.5v-422z" />
<glyph unicode="&#xe40;" horiz-adv-x="682" d="M133 247v937h281v-848q0 -57 24 -79.5t79 -22.5h78v-234h-226q-114 0 -175 65.5t-61 181.5z" />
<glyph unicode="&#xe41;" horiz-adv-x="1277" d="M133 247v937h281v-848q0 -57 24 -79.5t79 -22.5h78v-234h-226q-114 0 -175 65.5t-61 181.5zM728 247v937h281v-848q0 -57 24 -79.5t79 -22.5h78v-234h-226q-115 0 -175.5 65.5t-60.5 181.5z" />
<glyph unicode="&#xe42;" horiz-adv-x="753" d="M-11 1444v219h743v-234h-376q162 -118 161 -382v-711q0 -57 24.5 -79.5t79.5 -22.5h78v-234h-226q-114 0 -175 65.5t-61 181.5v806q0 159 -58.5 248.5t-189.5 142.5z" />
<glyph unicode="&#xe43;" horiz-adv-x="686" d="M-22 1389v215q68 40 154.5 61t177.5 21q179 0 267 -84.5t88 -219.5q0 -77 -30.5 -136.5t-92.5 -139.5q-66 -84 -98.5 -144.5t-32.5 -147.5v-478q0 -57 24.5 -79.5t79.5 -22.5h78v-234h-226q-115 0 -175.5 65.5t-60.5 181.5v563q0 106 40 182t112 163q49 59 72 98t23 83 q0 68 -35 99.5t-124 31.5q-133 0 -241 -78z" />
<glyph unicode="&#xe44;" horiz-adv-x="753" d="M-11 1429v234h743v-219q-130 -53 -188.5 -142.5t-58.5 -248.5v-717q0 -57 24.5 -79.5t79.5 -22.5h76v-234h-224q-116 0 -177 65.5t-61 181.5v800q0 265 162 382h-376z" />
<glyph unicode="&#xe45;" horiz-adv-x="926" d="M22 933v219q53 27 140 45.5t172 18.5q228 0 344 -123.5t116 -353.5v-1172h-281v1189q0 131 -52 186.5t-187 55.5q-124 0 -252 -65z" />
<glyph unicode="&#xe46;" horiz-adv-x="1355" d="M44 792q0 181 86.5 302.5t270.5 121.5q162 0 232 -125q68 126 245 125q179 0 262.5 -109t83.5 -293v-814h-282v845q0 82 -24.5 117.5t-88.5 35.5q-105 0 -122 -129h-156q-7 66 -24.5 97.5t-72.5 31.5q-122 0 -122 -206q0 -93 44 -132t126 -39q87 0 152 23v-215 q-86 -27 -200 -26q-175 0 -292.5 95t-117.5 294z" />
<glyph unicode="&#xe47;" d="M-1059 1581q0 142 82 214t223 72h541v-153h-521q-66 0 -100.5 -26.5t-34.5 -85.5q0 -53 27.5 -81t77.5 -28q56 0 86 31t30 82h150q0 -53 31.5 -78.5t86.5 -25.5h131v-160h-127q-75 0 -129 29t-70 71q-19 -44 -79.5 -76t-134.5 -32q-125 0 -197.5 67.5t-72.5 179.5z" />
<glyph unicode="&#xe48;" d="M-411 1345v380h280v-380h-280z" />
<glyph unicode="&#xe49;" d="M-785 1530v195h188q75 0 110.5 -36.5t35.5 -89.5v-71h453v-183h-639v139q0 25 -10 35.5t-37 10.5h-101z" />
<glyph unicode="&#xe4a;" d="M-1091 1541q0 122 61 193t158 71q66 0 104 -23.5t61 -67.5q46 86 161 86q181 0 181 -196v-109h29q34 0 45.5 15.5t11.5 51.5v230h155v-237q0 -99 -55 -156t-163 -57h-167v193q0 88 -63 88q-43 0 -56.5 -22t-13.5 -68v-40h-128v37q0 47 -13 70t-51 23q-40 0 -59 -25.5 t-19 -82.5q0 -95 56 -173h-179q-56 85 -56 199z" />
<glyph unicode="&#xe4b;" d="M-677 1440v212h135v95h272v-95h135v-212h-135v-95h-272v95h-135z" />
<glyph unicode="&#xe4c;" d="M-692 1345v141q0 93 48.5 140.5t156.5 47.5h489v-179h-376q-37 0 -52 -15.5t-15 -52.5v-82h-251z" />
<glyph unicode="&#xe4d;" d="M-546 1562q0 103 75 178t179 75t178 -75t74 -178q0 -106 -74 -179.5t-178 -73.5q-107 0 -180.5 73.5t-73.5 179.5zM-387 1560q0 -38 27.5 -68t67.5 -30q35 0 64 30t29 68q0 37 -28 67t-65 30q-40 0 -67.5 -29t-27.5 -68z" />
<glyph unicode="&#xe4e;" d="M-667 1528q0 87 49.5 135.5t130.5 54.5q-34 38 -32 91q0 71 55 112t139 41q86 0 137 -31v-120q-42 34 -106 34q-35 0 -52 -11t-17 -38q0 -53 80 -71v-117q-49 15 -95 15q-62 0 -90 -20t-28 -66q0 -38 30.5 -56.5t78.5 -18.5q76 0 126 38v-122q-58 -38 -172 -38 q-111 0 -172.5 51t-61.5 137z" />
<glyph unicode="&#xe4f;" horiz-adv-x="1300" d="M89 531q0 159 74 288.5t203.5 202.5t283.5 73q157 0 285.5 -73t202.5 -202.5t74 -288.5q0 -158 -74 -288.5t-202 -203t-286 -72.5q-154 0 -283.5 72.5t-203.5 202.5t-74 289zM283 531q0 -108 47.5 -193.5t131.5 -133t188 -47.5t188 47.5t133 132.5t49 194 q0 108 -49 192.5t-133 132t-188 47.5t-188 -47.5t-131.5 -132t-47.5 -192.5zM342 531q0 138 88.5 223.5t221.5 85.5q131 0 220.5 -87.5t89.5 -221.5q0 -137 -88.5 -223.5t-221.5 -86.5t-221.5 86.5t-88.5 223.5zM513 531q0 -63 40 -102.5t99 -39.5q60 0 98.5 39t38.5 103 t-38.5 103t-98.5 39q-59 0 -99 -39t-40 -103z" />
<glyph unicode="&#xe50;" horiz-adv-x="1428" d="M89 531q0 169 78 296t219.5 197.5t328.5 70.5q186 0 327.5 -70.5t219.5 -198t78 -295.5t-78 -295.5t-219.5 -198t-327.5 -70.5q-187 0 -328.5 70.5t-219.5 198t-78 295.5zM372 531q0 -158 96 -251.5t247 -93.5q150 0 246 93t96 252q0 157 -97 251t-245 94t-245.5 -94 t-97.5 -251z" />
<glyph unicode="&#xe51;" horiz-adv-x="1384" d="M89 604q0 230 157 360.5t421 130.5q304 0 466.5 -155t162.5 -414q0 -270 -179.5 -453t-536.5 -267v236q162 38 255.5 98.5t135.5 151t42 227.5q0 178 -82 267.5t-264 89.5q-139 0 -217 -73t-78 -197q0 -108 61 -166t177 -58q102 0 173 38v-203q-40 -25 -102 -39t-132 -14 q-206 0 -333 120.5t-127 319.5z" />
<glyph unicode="&#xe52;" horiz-adv-x="1614" d="M133 549v667h247v-654q0 -190 99 -285.5t331 -95.5q208 0 315 80.5t107 229.5v281q0 97 -77 97q-80 0 -117 -128h-166q-9 68 -28 101.5t-67 33.5q-45 0 -71.5 -42t-26.5 -133q0 -95 45.5 -144.5t129.5 -49.5q95 0 148 19v-212q-42 -13 -78.5 -17.5t-94.5 -4.5 q-177 0 -282.5 104t-105.5 305q0 97 33 188t102.5 148.5t168.5 57.5q155 0 211 -135q31 62 91.5 98.5t140.5 36.5q146 0 220 -79t74 -218v-318q0 -153 -91 -270t-245.5 -180t-335.5 -63q-310 0 -493.5 144t-183.5 438z" />
<glyph unicode="&#xe53;" horiz-adv-x="1475" d="M89 513q0 281 116 431.5t314 150.5q155 0 228 -111q40 51 107.5 81t147.5 30q155 0 247.5 -87.5t92.5 -230.5v-777h-249v750q0 65 -30.5 95.5t-93.5 30.5q-113 0 -113 -118v-359h-225v359q0 62 -22.5 90t-77.5 28q-158 0 -159 -367q0 -323 214 -323q47 0 99 6.5t81 18.5 v-220q-97 -24 -209 -24q-133 0 -239.5 63t-167.5 186.5t-61 296.5z" />
<glyph unicode="&#xe54;" horiz-adv-x="1404" d="M89 522q0 162 70.5 295.5t214 214t354.5 80.5q144 0 211.5 9.5t100 37t51.5 88.5h270q-47 -177 -169 -264.5t-350 -87.5q-247 0 -358.5 -84.5t-111.5 -291.5q0 -164 71.5 -232t213.5 -68h84q-40 36 -64.5 90t-24.5 111q0 135 101 213.5t260 78.5q166 0 252 -41v-220 q-32 20 -77.5 31.5t-96.5 11.5q-159 0 -160 -133q0 -72 46.5 -107t130.5 -35h206v-219h-639q-270 0 -428 133t-158 389z" />
<glyph unicode="&#xe55;" horiz-adv-x="1404" d="M89 522q0 230 129.5 379.5t340.5 182.5q-21 49 -21 93q0 104 62.5 160t167.5 56q104 0 163.5 -55t59.5 -144q0 -42 -16 -73q66 4 98.5 34.5t45.5 91.5h242q-47 -175 -170 -262.5t-349 -87.5q-247 0 -358.5 -85.5t-111.5 -292.5q0 -164 71.5 -232t213.5 -68h84 q-40 36 -64.5 90t-24.5 111q0 135 101 213.5t260 78.5q166 0 252 -41v-220q-32 20 -77.5 31.5t-96.5 11.5q-159 0 -160 -133q0 -72 46.5 -107t130.5 -35h206v-219h-639q-270 0 -428 133t-158 389zM686 1177q0 -38 23 -63t59 -25q37 0 61.5 25t24.5 63t-23 62t-63 24 q-36 0 -59 -24.5t-23 -61.5z" />
<glyph unicode="&#xe56;" horiz-adv-x="1435" d="M44 1218h232l83 -327q61 97 170.5 150.5t253.5 53.5q285 0 424.5 -157t139.5 -414q0 -159 -76.5 -286.5t-219 -199t-336.5 -71.5q-135 0 -258 34.5t-198 100.5v234q93 -76 208 -113t238 -37q173 0 266 86.5t93 251.5q0 173 -76 262.5t-245 89.5q-124 0 -221.5 -66.5 t-139.5 -190.5h-192z" />
<glyph unicode="&#xe57;" horiz-adv-x="1855" d="M89 513q0 281 116 431.5t314 150.5q155 0 228 -111q40 51 107.5 81t147.5 30q155 0 247.5 -87.5t92.5 -230.5v-562q76 0 114.5 33t38.5 117v851h228v-807q0 -409 -463 -409h-167v750q0 65 -30.5 95.5t-93.5 30.5q-113 0 -113 -118v-359h-225v359q0 62 -22.5 90t-77.5 28 q-158 0 -159 -367q0 -323 214 -323q47 0 99 6.5t81 18.5v-220q-97 -24 -209 -24q-133 0 -239.5 63t-167.5 186.5t-61 296.5z" />
<glyph unicode="&#xe58;" horiz-adv-x="1467" d="M89 509q0 162 70.5 300t214 220.5t354.5 82.5q144 0 211.5 9.5t100 37t51.5 88.5h270q-47 -177 -169 -264.5t-350 -87.5q-247 0 -361 -94t-114 -294q0 -175 34 -250.5t108 -75.5q63 0 89 32t26 97v89h261v-89q0 -129 113 -129q61 0 95.5 50t34.5 145q0 75 -35.5 120.5 t-101.5 45.5q-82 0 -132 -29v219q73 29 185 29q146 0 241 -103t95 -282q0 -192 -98 -300.5t-262 -108.5q-76 0 -151 29t-115 80q-38 -53 -106 -81t-152 -28q-186 0 -296.5 138t-110.5 404z" />
<glyph unicode="&#xe59;" horiz-adv-x="1609" d="M89 511q0 281 120 432.5t325 151.5q79 0 138.5 -31.5t93.5 -72.5q33 45 92.5 74.5t127.5 29.5q91 0 148.5 -30t102.5 -92l95 243h234l-252 -641h-217l47 117q11 38 11 66q0 51 -30 84.5t-87 33.5q-62 0 -95.5 -28.5t-33.5 -81.5q0 -27 11 -67l215 -699h-234l-222 724 q-17 59 -31.5 87.5t-41 46.5t-72.5 18q-169 0 -169 -365q0 -325 224 -325q75 0 135 22v-219q-93 -21 -186 -22q-122 0 -223.5 63t-163.5 185.5t-62 295.5z" />
<glyph unicode="&#xe5a;" horiz-adv-x="1959" d="M89 838q0 177 109.5 277.5t281.5 100.5q130 0 210 -28v-213q-66 22 -131 23q-86 0 -134.5 -39t-48.5 -121q0 -154 206 -154q157 0 267 77v423h282v-467q53 -33 148 -33q156 0 268 77v423h280v-1184h-280v538q-131 -74 -337 -74q-55 0 -79 5v-469h-282v538 q-131 -74 -336 -74q-186 0 -305 99.5t-119 274.5z" />
<glyph unicode="&#xe5b;" horiz-adv-x="2516" d="M89 526q0 162 67.5 291.5t190 203.5t279.5 74q237 0 357.5 -114t120.5 -320q0 -194 -113 -293.5t-281 -99.5q-122 0 -201 46v217q33 -24 81.5 -40t97.5 -16q95 0 146 44.5t51 143.5q0 224 -261 224q-143 0 -229.5 -94t-86.5 -267t98 -262t286 -89q259 0 375.5 122.5 t116.5 381.5v214h256l80 -300h4l42 270h221l64 -283h4l38 239h169l82 -244h4l39 104h242v-185h-169l-52 -154h-131l-70 198h-6l-70 -253h-152l-93 283h-6l-76 -329h-158l-77 310h-4q2 -171 -83 -304t-240 -205.5t-350 -72.5q-281 0 -442 144t-161 415z" />
<glyph unicode="&#x1e0c;" horiz-adv-x="1560" d="M133 0v1547h517q252 0 438 -93t285.5 -266t99.5 -407q0 -385 -223.5 -583t-623.5 -198h-493zM414 232h217q270 0 414.5 145t144.5 404q0 156 -64 277t-183.5 188.5t-283.5 67.5h-245v-1082zM464 -249q0 61 44.5 104t103.5 43q60 0 103 -43t43 -104q0 -62 -42.5 -104.5 t-103.5 -42.5q-59 0 -103.5 43t-44.5 104z" />
<glyph unicode="&#x1e0d;" horiz-adv-x="1469" d="M89 528q0 166 71.5 294.5t199 200.5t288.5 72q261 0 411 -137v676h279v-1634h-270v124q-91 -84 -188 -120.5t-232 -36.5q-161 0 -288.5 69.5t-199 197t-71.5 294.5zM372 528q0 -152 97 -247t248 -95q119 0 212 64t130 172v215q-35 108 -129 173.5t-213 65.5 q-150 0 -247.5 -97.5t-97.5 -250.5zM551 -249q0 61 44 104t104 43q59 0 102.5 -43t43.5 -104q0 -62 -43.5 -104.5t-102.5 -42.5q-60 0 -104 43t-44 104z" />
<glyph unicode="&#x1e0e;" horiz-adv-x="1560" d="M133 0v1547h517q252 0 438 -93t285.5 -266t99.5 -407q0 -385 -223.5 -583t-623.5 -198h-493zM294 -150h715v-184h-715v184zM414 232h217q270 0 414.5 145t144.5 404q0 156 -64 277t-183.5 188.5t-283.5 67.5h-245v-1082z" />
<glyph unicode="&#x1e0f;" horiz-adv-x="1469" d="M89 528q0 166 71.5 294.5t199 200.5t288.5 72q261 0 411 -137v676h279v-1634h-270v124q-91 -84 -188 -120.5t-232 -36.5q-161 0 -288.5 69.5t-199 197t-71.5 294.5zM372 528q0 -152 97 -247t248 -95q119 0 212 64t130 172v215q-35 108 -129 173.5t-213 65.5 q-150 0 -247.5 -97.5t-97.5 -250.5zM394 -150h714v-184h-714v184z" />
<glyph unicode="&#x1e20;" horiz-adv-x="1576" d="M89 772q0 243 103.5 425.5t292 282t431.5 99.5q166 0 296 -35t236 -113v-268q-97 84 -223 122t-285 38t-288.5 -67.5t-204.5 -193t-75 -290.5q0 -168 70.5 -293t197 -192.5t287.5 -67.5q170 0 280 57v348h-260v223h541v-721q-205 -158 -572 -159q-243 0 -431.5 98.5 t-292 280.5t-103.5 426zM555 1663v186h715v-186h-715z" />
<glyph unicode="&#x1e21;" horiz-adv-x="1469" d="M89 534q0 168 71.5 295t199 196.5t288.5 69.5q135 0 232 -36.5t188 -121.5v125h270v-998q0 -275 -158 -424t-486 -149q-105 0 -211.5 20t-176.5 54v220q172 -76 388 -74q195 0 280 81.5t85 243.5v68q-75 -68 -178.5 -102.5t-223.5 -34.5q-162 0 -292.5 71.5t-203 200 t-72.5 295.5zM372 534q0 -153 97 -250.5t248 -97.5q119 0 213 65t129 173v215q-37 108 -130 172.5t-212 64.5q-150 0 -247.5 -95t-97.5 -247zM374 1205v186h715v-186h-715z" />
<glyph unicode="&#x1e24;" horiz-adv-x="1568" d="M133 0v1547h281v-642h743v642h278v-1547h-278v673h-743v-673h-281zM637 -249q0 61 44.5 104t103.5 43q60 0 103 -43t43 -104q0 -62 -43 -104.5t-103 -42.5q-59 0 -103.5 43t-44.5 104z" />
<glyph unicode="&#x1e25;" horiz-adv-x="1348" d="M133 0v1634h278v-707q151 168 389 168q215 0 321.5 -116t106.5 -308v-671h-279v644q0 232 -217 232q-95 0 -179 -45.5t-142 -136.5v-694h-278zM528 -249q0 61 44.5 104t104.5 43t103 -43t43 -104q0 -62 -43 -104.5t-103 -42.5t-104.5 43t-44.5 104z" />
<glyph unicode="&#x1e2a;" horiz-adv-x="1568" d="M133 0v1547h281v-642h743v642h278v-1547h-278v673h-743v-673h-281zM427 -131h210q0 -73 37.5 -110.5t108.5 -37.5t108.5 38t37.5 110h210q0 -150 -95 -241.5t-261 -91.5t-261 91.5t-95 241.5z" />
<glyph unicode="&#x1e2b;" horiz-adv-x="1348" d="M133 0v1634h278v-707q151 168 389 168q215 0 321.5 -116t106.5 -308v-671h-279v644q0 232 -217 232q-95 0 -179 -45.5t-142 -136.5v-694h-278zM334 -131h210q0 -73 37.5 -110.5t108.5 -37.5t108.5 38t37.5 110h211q0 -150 -95.5 -241.5t-261.5 -91.5t-261 91.5t-95 241.5 z" />
<glyph unicode="&#x1e36;" horiz-adv-x="1200" d="M133 0v1547h281v-1315h743v-232h-1024zM431 -249q0 61 44 104t105 43q59 0 102.5 -43t43.5 -104q0 -62 -43.5 -104.5t-102.5 -42.5q-61 0 -105 43t-44 104z" />
<glyph unicode="&#x1e37;" horiz-adv-x="543" d="M126 -249q0 61 44.5 104t103.5 43q60 0 103 -43t43 -104q0 -62 -43 -104.5t-103 -42.5q-59 0 -103.5 43t-44.5 104zM133 0v1634h278v-1634h-278z" />
<glyph unicode="&#x1e38;" horiz-adv-x="1237" d="M154 1663v186h715v-186h-715zM171 0v1547h280v-1315h743v-232h-1023zM522 -249q0 61 44 104t105 43q59 0 102 -43t43 -104q0 -62 -43 -104.5t-102 -42.5q-61 0 -105 43t-44 104z" />
<glyph unicode="&#x1e39;" horiz-adv-x="543" d="M-84 1695v185h715v-185h-715zM126 -249q0 61 44.5 104t103.5 43q60 0 103 -43t43 -104q0 -62 -43 -104.5t-103 -42.5q-59 0 -103.5 43t-44.5 104zM133 0v1634h278v-1634h-278z" />
<glyph unicode="&#x1e3a;" horiz-adv-x="1200" d="M133 0v1547h281v-1315h743v-232h-1024zM276 -150h715v-184h-715v184z" />
<glyph unicode="&#x1e3b;" horiz-adv-x="543" d="M-84 -150h715v-184h-715v184zM133 0v1634h278v-1634h-278z" />
<glyph unicode="&#x1e42;" horiz-adv-x="1848" d="M133 0v1547h274l517 -1133l518 1133h274v-1547h-266v1004l-459 -1004h-132l-460 1004v-1004h-266zM779 -249q0 61 44 104t104 43q59 0 102 -43t43 -104q0 -62 -43 -104.5t-102 -42.5q-60 0 -104 43t-44 104z" />
<glyph unicode="&#x1e43;" horiz-adv-x="1927" d="M133 0v1062h261v-140q71 85 165.5 129t192.5 44q124 0 199 -41t113 -123q71 80 171.5 122t199.5 42q199 0 285.5 -100t86.5 -292v-703h-268v665q0 113 -45.5 162t-144.5 49q-71 0 -129.5 -27.5t-107.5 -94.5q5 -71 5 -115v-639h-270v671q0 114 -37.5 159.5t-136.5 45.5 q-150 0 -270 -171v-705h-270zM840 -249q0 61 44.5 104t103.5 43q60 0 103.5 -43t43.5 -104q0 -62 -43 -104.5t-104 -42.5q-59 0 -103.5 43t-44.5 104z" />
<glyph unicode="&#x1e44;" horiz-adv-x="1534" d="M133 0v1547h266l722 -1078v1078h281v-1547h-265l-723 1079v-1079h-281zM626 1809q0 62 44.5 105t103.5 43q60 0 103 -42.5t43 -105.5q0 -62 -43 -104t-103 -42q-59 0 -103.5 43.5t-44.5 102.5z" />
<glyph unicode="&#x1e45;" horiz-adv-x="1348" d="M133 0v1062h270v-144q75 91 179 134t218 43q215 0 321.5 -116t106.5 -308v-671h-279v644q0 232 -217 232q-95 0 -179 -45.5t-142 -136.5v-694h-278zM519 1351q0 62 44.5 105.5t103.5 43.5q60 0 103.5 -43t43.5 -106q0 -61 -43 -103.5t-104 -42.5q-59 0 -103.5 43.5 t-44.5 102.5z" />
<glyph unicode="&#x1e46;" horiz-adv-x="1534" d="M133 0v1547h266l722 -1078v1078h281v-1547h-265l-723 1079v-1079h-281zM624 -249q0 61 44 104t104 43t103 -43t43 -104q0 -62 -43 -104.5t-103 -42.5t-104 43t-44 104z" />
<glyph unicode="&#x1e47;" horiz-adv-x="1348" d="M133 0v1062h270v-144q75 91 179 134t218 43q215 0 321.5 -116t106.5 -308v-671h-279v644q0 232 -217 232q-95 0 -179 -45.5t-142 -136.5v-694h-278zM528 -249q0 61 44.5 104t104.5 43t103 -43t43 -104q0 -62 -43 -104.5t-103 -42.5t-104.5 43t-44.5 104z" />
<glyph unicode="&#x1e48;" horiz-adv-x="1534" d="M133 0v1547h266l722 -1078v1078h281v-1547h-265l-723 1079v-1079h-281zM424 -150h715v-184h-715v184z" />
<glyph unicode="&#x1e49;" horiz-adv-x="1348" d="M133 0v1062h270v-144q75 91 179 134t218 43q215 0 321.5 -116t106.5 -308v-671h-279v644q0 232 -217 232q-95 0 -179 -45.5t-142 -136.5v-694h-278zM350 -150h714v-184h-714v184z" />
<glyph unicode="&#x1e5a;" horiz-adv-x="1401" d="M133 0v1547h646q257 0 396 -126.5t139 -365.5q0 -170 -84 -289.5t-239 -170.5l314 -595h-288l-298 566h-305v-566h-281zM414 798h314q137 0 220.5 64.5t83.5 192.5q0 259 -304 259h-314v-516zM528 -249q0 61 44.5 104t104.5 43t103 -43t43 -104q0 -62 -43 -104.5 t-103 -42.5t-104.5 43t-44.5 104z" />
<glyph unicode="&#x1e5b;" horiz-adv-x="899" d="M108 -249q0 61 44.5 104t104.5 43q59 0 102.5 -43t43.5 -104q0 -62 -43.5 -104.5t-102.5 -42.5q-60 0 -104.5 43t-44.5 104zM133 0v1062h270v-171q64 86 182 128.5t271 42.5v-213q-162 0 -280 -49.5t-165 -155.5v-644h-278z" />
<glyph unicode="&#x1e5c;" horiz-adv-x="1401" d="M133 0v1547h646q257 0 396 -126.5t139 -365.5q0 -170 -84 -289.5t-239 -170.5l314 -595h-288l-298 566h-305v-566h-281zM272 1663v186h714v-186h-714zM414 798h314q137 0 220.5 64.5t83.5 192.5q0 259 -304 259h-314v-516zM485 -249q0 61 43.5 104t104.5 43 q59 0 102.5 -43t43.5 -104q0 -62 -43.5 -104.5t-102.5 -42.5q-61 0 -104.5 43t-43.5 104z" />
<glyph unicode="&#x1e5d;" horiz-adv-x="959" d="M154 1205v186h715v-186h-715zM175 -249q0 61 44.5 104t103.5 43t102.5 -43t43.5 -104q0 -62 -43.5 -104.5t-102.5 -42.5t-103.5 43t-44.5 104zM192 0v1062h270v-171q64 86 183 128.5t271 42.5v-213q-162 0 -280.5 -49.5t-164.5 -155.5v-644h-279z" />
<glyph unicode="&#x1e5e;" horiz-adv-x="1401" d="M133 0v1547h646q257 0 396 -126.5t139 -365.5q0 -170 -84 -289.5t-239 -170.5l314 -595h-288l-298 566h-305v-566h-281zM316 -150h714v-184h-714v184zM414 798h314q137 0 220.5 64.5t83.5 192.5q0 259 -304 259h-314v-516z" />
<glyph unicode="&#x1e5f;" horiz-adv-x="899" d="M38 -150h714v-184h-714v184zM133 0v1062h270v-171q64 86 182 128.5t271 42.5v-213q-162 0 -280 -49.5t-165 -155.5v-644h-278z" />
<glyph unicode="&#x1e60;" horiz-adv-x="1253" d="M89 59v242q110 -53 232 -80t238 -27q148 0 226 56t78 153q0 68 -35.5 113.5t-104.5 80t-210 89.5q-217 88 -314 196.5t-97 269.5q0 127 68.5 224t192.5 150t285 53q133 0 235.5 -21t202.5 -65v-235q-192 93 -389 93q-142 0 -219 -52t-77 -147q0 -68 35 -111t94 -73.5 t211 -93.5q154 -64 244 -126t135 -145.5t45 -201.5q0 -206 -148 -320t-437 -114q-137 0 -271 25t-220 67zM496 1809q0 62 44 105t104 43q59 0 102 -42.5t43 -105.5q0 -62 -43 -104t-102 -42q-60 0 -104 43.5t-44 102.5z" />
<glyph unicode="&#x1e61;" horiz-adv-x="1102" d="M89 774q0 159 125.5 240t340.5 81q110 0 220 -21t172 -59v-228q-66 40 -161.5 64.5t-194.5 24.5q-108 0 -163.5 -21t-55.5 -81q0 -40 29.5 -63t78 -40t177.5 -50q137 -38 214.5 -81.5t110.5 -105.5t33 -155q0 -142 -120.5 -227t-348.5 -85q-115 0 -245 26t-204 73v237 q87 -52 206 -84.5t225 -32.5t155 19t49 69q0 40 -25.5 65.5t-82 46.5t-173.5 52q-132 38 -208.5 77.5t-115 100.5t-38.5 158zM399 1351q0 62 44 105.5t103 43.5q60 0 103 -43t43 -106q0 -61 -43 -103.5t-103 -42.5q-59 0 -103 43.5t-44 102.5z" />
<glyph unicode="&#x1e62;" horiz-adv-x="1253" d="M89 59v242q110 -53 232 -80t238 -27q148 0 226 56t78 153q0 68 -35.5 113.5t-104.5 80t-210 89.5q-217 88 -314 196.5t-97 269.5q0 127 68.5 224t192.5 150t285 53q133 0 235.5 -21t202.5 -65v-235q-192 93 -389 93q-142 0 -219 -52t-77 -147q0 -68 35 -111t94 -73.5 t211 -93.5q154 -64 244 -126t135 -145.5t45 -201.5q0 -206 -148 -320t-437 -114q-137 0 -271 25t-220 67zM447 -249q0 61 44.5 104t103.5 43t102.5 -43t43.5 -104q0 -62 -43.5 -104.5t-102.5 -42.5t-103.5 43t-44.5 104z" />
<glyph unicode="&#x1e63;" horiz-adv-x="1102" d="M89 774q0 159 125.5 240t340.5 81q110 0 220 -21t172 -59v-228q-66 40 -161.5 64.5t-194.5 24.5q-108 0 -163.5 -21t-55.5 -81q0 -40 29.5 -63t78 -40t177.5 -50q137 -38 214.5 -81.5t110.5 -105.5t33 -155q0 -142 -120.5 -227t-348.5 -85q-115 0 -245 26t-204 73v237 q87 -52 206 -84.5t225 -32.5t155 19t49 69q0 40 -25.5 65.5t-82 46.5t-173.5 52q-132 38 -208.5 77.5t-115 100.5t-38.5 158zM391 -249q0 61 44.5 104t104.5 43q59 0 102.5 -43t43.5 -104q0 -62 -43.5 -104.5t-102.5 -42.5q-60 0 -104.5 43t-44.5 104z" />
<glyph unicode="&#x1e6c;" horiz-adv-x="1302" d="M44 1314v233h1214v-233h-466v-1314h-281v1314h-467zM504 -249q0 61 44.5 104t103.5 43q60 0 103 -43t43 -104q0 -62 -43 -104.5t-103 -42.5q-59 0 -103.5 43t-44.5 104z" />
<glyph unicode="&#x1e6d;" horiz-adv-x="857" d="M44 849v213h159v318h279v-318h255v-213h-255v-475q0 -102 37.5 -145t137.5 -43q68 0 135 31v-213q-95 -37 -233 -37q-175 0 -265.5 97.5t-90.5 273.5v511h-159zM361 -249q0 61 44 104t104 43q59 0 102 -43t43 -104q0 -62 -43 -104.5t-102 -42.5q-60 0 -104 43t-44 104z " />
<glyph unicode="&#x1e6e;" horiz-adv-x="1302" d="M44 1314v233h1214v-233h-466v-1314h-281v1314h-467zM294 -150h715v-184h-715v184z" />
<glyph unicode="&#x1e6f;" horiz-adv-x="882" d="M66 849v213h160v318h278v-318h254v-213h-254v-475q0 -102 38 -145t137 -43q68 0 135 31v-213q-95 -37 -232 -37q-175 0 -265.5 97.5t-90.5 273.5v511h-160zM102 -150h714v-184h-714v184z" />
<glyph unicode="&#x1e80;" horiz-adv-x="2224" d="M102 1547h292l307 -1093l303 1093h216l304 -1093l308 1093h291l-439 -1547h-262l-310 1075l-310 -1075h-260zM783 2026h294l153 -384h-257z" />
<glyph unicode="&#x1e81;" horiz-adv-x="1834" d="M89 1062h278l217 -720l212 720h244l212 -720l217 720h278l-347 -1062h-256l-226 721l-226 -721h-257zM584 1568h294l152 -384h-256z" />
<glyph unicode="&#x1e82;" horiz-adv-x="2224" d="M102 1547h292l307 -1093l303 1093h216l304 -1093l308 1093h291l-439 -1547h-262l-310 1075l-310 -1075h-260zM998 1642l152 384h294l-190 -384h-256z" />
<glyph unicode="&#x1e83;" horiz-adv-x="1834" d="M89 1062h278l217 -720l212 720h244l212 -720l217 720h278l-347 -1062h-256l-226 721l-226 -721h-257zM789 1184l153 384h295l-190 -384h-258z" />
<glyph unicode="&#x1e84;" horiz-adv-x="2224" d="M102 1547h292l307 -1093l303 1093h216l304 -1093l308 1093h291l-439 -1547h-262l-310 1075l-310 -1075h-260zM703 1809q0 62 44.5 105t103.5 43t103 -42.5t44 -105.5q0 -62 -43 -104t-104 -42q-59 0 -103.5 43.5t-44.5 102.5zM1228 1809q0 62 44.5 105t103.5 43 t102.5 -42.5t43.5 -105.5q0 -62 -43.5 -104t-102.5 -42t-103.5 43.5t-44.5 102.5z" />
<glyph unicode="&#x1e85;" horiz-adv-x="1834" d="M89 1062h278l217 -720l212 720h244l212 -720l217 720h278l-347 -1062h-256l-226 721l-226 -721h-257zM509 1351q0 62 44 105.5t104 43.5q59 0 102 -43t43 -106q0 -61 -42.5 -103.5t-102.5 -42.5t-104 43.5t-44 102.5zM1032 1351q0 62 44.5 105.5t105.5 43.5q59 0 102 -43 t43 -106q0 -61 -43 -103.5t-102 -42.5q-61 0 -105.5 43.5t-44.5 102.5z" />
<glyph unicode="&#x1e8e;" horiz-adv-x="1604" d="M102 1547h299l397 -688l409 688h297l-573 -958v-589h-268v589zM652 1809q0 62 44.5 105t103.5 43q60 0 103.5 -42.5t43.5 -105.5q0 -62 -43 -104t-104 -42q-59 0 -103.5 43.5t-44.5 102.5z" />
<glyph unicode="&#x1e8f;" horiz-adv-x="1326" d="M89 1062h280l328 -775l307 775h279l-464 -1157q-72 -175 -172.5 -259t-259.5 -84q-58 0 -121 8t-98 21v212q56 -21 138 -22q84 0 125.5 37.5t72.5 119.5l42 111zM551 1351q0 62 44 105.5t104 43.5q59 0 102.5 -43t43.5 -106q0 -61 -43.5 -103.5t-102.5 -42.5 q-60 0 -104 43.5t-44 102.5z" />
<glyph unicode="&#x1e92;" horiz-adv-x="1368" d="M89 0v184l808 1130h-789v233h1133v-184l-808 -1131h848v-232h-1192zM559 -249q0 61 44.5 104t103.5 43q60 0 103.5 -43t43.5 -104q0 -62 -43 -104.5t-104 -42.5q-59 0 -103.5 43t-44.5 104z" />
<glyph unicode="&#x1e93;" horiz-adv-x="1108" d="M89 0v175l563 674h-548v213h898v-175l-561 -674h579v-213h-931zM411 -249q0 61 44.5 104t103.5 43q60 0 103 -43t43 -104q0 -62 -43 -104.5t-103 -42.5q-59 0 -103.5 43t-44.5 104z" />
<glyph unicode="&#x1e97;" horiz-adv-x="857" d="M-57 1612q0 62 44 105t104 43q59 0 102.5 -43t43.5 -105q0 -61 -43.5 -103t-102.5 -42q-60 0 -104 43t-44 102zM44 849v213h159v318h279v-318h255v-213h-255v-475q0 -102 37.5 -145t137.5 -43q68 0 135 31v-213q-95 -37 -233 -37q-175 0 -265.5 97.5t-90.5 273.5v511 h-159zM467 1612q0 62 44 105t104 43q59 0 102.5 -43t43.5 -105q0 -61 -43 -103t-103 -42t-104 43t-44 102z" />
<glyph unicode="&#x1e9e;" horiz-adv-x="1410" d="M122 0v1015q0 268 137 416t408 148q169 0 290.5 -62.5t187 -169t71.5 -237.5l-236 -243q179 -31 261 -137t82 -289q0 -215 -130.5 -344.5t-373.5 -129.5q-188 0 -288 42v259q91 -47 223 -47q137 0 211.5 58.5t74.5 174.5q0 130 -88.5 186.5t-234.5 56.5h-96v157l297 305 q-17 71 -83.5 117.5t-167.5 46.5q-124 0 -195 -76.5t-71 -222.5v-1024h-279z" />
<glyph unicode="&#x1ea0;" horiz-adv-x="1684" d="M89 0l618 1547h273l617 -1547h-286l-141 356h-655l-139 -356h-287zM593 589h500l-251 656zM694 -249q0 61 44.5 104t103.5 43q60 0 103 -43t43 -104q0 -62 -42.5 -104.5t-103.5 -42.5q-59 0 -103.5 43t-44.5 104z" />
<glyph unicode="&#x1ea1;" horiz-adv-x="1275" d="M89 338q0 177 115 277t322 100q201 0 348 -82v28q0 112 -70 163.5t-224 51.5q-97 0 -192.5 -19t-168.5 -52v219q66 31 178 51t215 20q277 0 410 -118t133 -329v-648h-264v104q-68 -66 -155.5 -101.5t-213.5 -35.5q-190 0 -311.5 100.5t-121.5 270.5zM372 338 q0 -84 56.5 -125.5t162.5 -41.5q93 0 168 36t115 101v116q-122 87 -279 87q-223 0 -223 -173zM482 -249q0 61 44 104t105 43q59 0 102.5 -43t43.5 -104q0 -62 -43.5 -104.5t-102.5 -42.5q-61 0 -105 43t-44 104z" />
<glyph unicode="&#x1ea2;" horiz-adv-x="1684" d="M89 0l618 1547h273l617 -1547h-286l-141 356h-655l-139 -356h-287zM593 589h500l-251 656zM639 1969v146q42 13 101.5 22t115.5 9q151 0 230 -60t79 -161q0 -83 -53 -138t-148 -71v-74h-243v163q100 0 150.5 24t50.5 85q0 44 -31.5 62.5t-105.5 18.5q-29 0 -77.5 -9 t-68.5 -17z" />
<glyph unicode="&#x1ea3;" horiz-adv-x="1275" d="M89 338q0 177 115 277t322 100q201 0 348 -82v28q0 112 -70 163.5t-224 51.5q-97 0 -192.5 -19t-168.5 -52v219q66 31 178 51t215 20q277 0 410 -118t133 -329v-648h-264v104q-68 -66 -155.5 -101.5t-213.5 -35.5q-190 0 -311.5 100.5t-121.5 270.5zM372 338 q0 -84 56.5 -125.5t162.5 -41.5q93 0 168 36t115 101v116q-122 87 -279 87q-223 0 -223 -173zM460 1511v146q42 13 101.5 22t115.5 9q150 0 229.5 -60t79.5 -161q0 -82 -53 -137.5t-148 -71.5v-74h-243v163q100 0 150.5 24t50.5 85q0 44 -32 62.5t-105 18.5 q-29 0 -77.5 -8.5t-68.5 -17.5z" />
<glyph unicode="&#x1ea4;" horiz-adv-x="1684" d="M89 0l618 1547h273l617 -1547h-286l-141 356h-655l-139 -356h-287zM418 1644l308 336h234l305 -336h-263l-160 186l-158 -186h-266zM593 589h500l-251 656zM1144 1862l135 284h258l-170 -284h-223z" />
<glyph unicode="&#x1ea5;" horiz-adv-x="1275" d="M89 338q0 177 115 277t322 100q201 0 348 -82v28q0 112 -70 163.5t-224 51.5q-97 0 -192.5 -19t-168.5 -52v219q66 31 178 51t215 20q277 0 410 -118t133 -329v-648h-264v104q-68 -66 -155.5 -101.5t-213.5 -35.5q-190 0 -311.5 100.5t-121.5 270.5zM255 1184l307 336 h234l306 -336h-264l-159 185l-160 -185h-264zM372 338q0 -84 56.5 -125.5t162.5 -41.5q93 0 168 36t115 101v116q-122 87 -279 87q-223 0 -223 -173zM980 1402l135 284h259l-171 -284h-223z" />
<glyph unicode="&#x1ea6;" horiz-adv-x="1684" d="M89 0l618 1547h273l617 -1547h-286l-141 356h-655l-139 -356h-287zM148 2144h259l135 -284h-223zM420 1642l306 335h234l308 -335h-266l-160 185l-158 -185h-264zM593 589h500l-251 656z" />
<glyph unicode="&#x1ea7;" horiz-adv-x="1275" d="M-33 1686h259l135 -284h-224zM89 338q0 177 115 277t322 100q201 0 348 -82v28q0 112 -70 163.5t-224 51.5q-97 0 -192.5 -19t-168.5 -52v219q66 31 178 51t215 20q277 0 410 -118t133 -329v-648h-264v104q-68 -66 -155.5 -101.5t-213.5 -35.5q-190 0 -311.5 100.5 t-121.5 270.5zM239 1184l305 336h235l307 -336h-265l-160 185l-159 -185h-263zM372 338q0 -84 56.5 -125.5t162.5 -41.5q93 0 168 36t115 101v116q-122 87 -279 87q-223 0 -223 -173z" />
<glyph unicode="&#x1ea8;" horiz-adv-x="1684" d="M89 0l618 1547h273l617 -1547h-286l-141 356h-655l-139 -356h-287zM418 1644l308 336h234l305 -336h-263l-160 186l-158 -186h-266zM593 589h500l-251 656zM1086 2057v108q32 11 75.5 18t83.5 7q100 0 157.5 -42t57.5 -113q0 -55 -37.5 -94t-103.5 -50v-53h-175v110 q66 0 96 16t30 53q0 34 -22 46t-71 12q-55 0 -91 -18z" />
<glyph unicode="&#x1ea9;" horiz-adv-x="1275" d="M89 338q0 177 115 277t322 100q201 0 348 -82v28q0 112 -70 163.5t-224 51.5q-97 0 -192.5 -19t-168.5 -52v219q66 31 178 51t215 20q277 0 410 -118t133 -329v-648h-264v104q-68 -66 -155.5 -101.5t-213.5 -35.5q-190 0 -311.5 100.5t-121.5 270.5zM226 1184l308 336 h234l304 -336h-262l-160 185l-159 -185h-265zM372 338q0 -84 56.5 -125.5t162.5 -41.5q93 0 168 36t115 101v116q-122 87 -279 87q-223 0 -223 -173zM893 1597v108q31 11 75.5 18t84.5 7q99 0 157 -42t58 -113q0 -55 -38 -94t-105 -50v-53h-174v110q66 0 96 16t30 53 q0 34 -22.5 46t-70.5 12q-55 0 -91 -18z" />
<glyph unicode="&#x1eaa;" horiz-adv-x="1684" d="M89 0l618 1547h273l617 -1547h-286l-141 356h-655l-139 -356h-287zM420 1642l308 335h234l306 -335h-264l-159 185l-159 -185h-266zM509 2007v196q53 78 172 77q38 0 76.5 -12t98.5 -37q11 -4 46 -17t65.5 -21t54.5 -8q53 0 95 21t77 72v-199q-52 -76 -172 -76 q-42 0 -81.5 13.5t-100.5 38.5q-57 22 -91 33.5t-68 11.5q-52 0 -93.5 -21.5t-78.5 -71.5zM593 589h500l-251 656z" />
<glyph unicode="&#x1eab;" horiz-adv-x="1275" d="M89 338q0 177 115 277t322 100q201 0 348 -82v28q0 112 -70 163.5t-224 51.5q-97 0 -192.5 -19t-168.5 -52v219q66 31 178 51t215 20q277 0 410 -118t133 -329v-648h-264v104q-68 -66 -155.5 -101.5t-213.5 -35.5q-190 0 -311.5 100.5t-121.5 270.5zM237 1184l307 336 h235l305 -336h-263l-160 185l-159 -185h-265zM325 1549v196q53 78 173 78q38 0 76 -12.5t99 -37.5q11 -4 46 -17t65 -21t54 -8q53 0 95 21t78 73v-200q-53 -76 -173 -74q-42 0 -81.5 12.5t-99.5 37.5q-58 22 -92 33.5t-67 11.5q-53 0 -94 -21.5t-79 -71.5zM372 338 q0 -84 56.5 -125.5t162.5 -41.5q93 0 168 36t115 101v116q-122 87 -279 87q-223 0 -223 -173z" />
<glyph unicode="&#x1eac;" horiz-adv-x="1684" d="M89 0l618 1547h273l617 -1547h-286l-141 356h-655l-139 -356h-287zM396 1642l325 378h248l323 -378h-279l-168 218l-168 -218h-281zM593 589h500l-251 656zM697 -249q0 61 44 104t104 43q59 0 102.5 -43t43.5 -104q0 -62 -43 -104.5t-103 -42.5t-104 43t-44 104z" />
<glyph unicode="&#x1ead;" horiz-adv-x="1275" d="M89 338q0 177 115 277t322 100q201 0 348 -82v28q0 112 -70 163.5t-224 51.5q-97 0 -192.5 -19t-168.5 -52v219q66 31 178 51t215 20q277 0 410 -118t133 -329v-648h-264v104q-68 -66 -155.5 -101.5t-213.5 -35.5q-190 0 -311.5 100.5t-121.5 270.5zM197 1184l325 378 h248l323 -378h-279l-168 218l-169 -218h-280zM372 338q0 -84 56.5 -125.5t162.5 -41.5q93 0 168 36t115 101v116q-122 87 -279 87q-223 0 -223 -173zM475 -249q0 61 44.5 104t104.5 43t103 -43t43 -104q0 -62 -43 -104.5t-103 -42.5t-104.5 43t-44.5 104z" />
<glyph unicode="&#x1eae;" horiz-adv-x="1684" d="M89 0l618 1547h273l617 -1547h-286l-141 356h-655l-139 -356h-287zM498 1967h203q0 -72 36.5 -108t104.5 -36t105 36t37 108h204q0 -148 -92 -236.5t-254 -88.5q-161 0 -252.5 88t-91.5 237zM593 589h500l-251 656zM745 1975l116 279h223l-149 -279h-190z" />
<glyph unicode="&#x1eaf;" horiz-adv-x="1275" d="M89 338q0 177 115 277t322 100q201 0 348 -82v28q0 112 -70 163.5t-224 51.5q-97 0 -192.5 -19t-168.5 -52v219q66 31 178 51t215 20q277 0 410 -118t133 -329v-648h-264v104q-68 -66 -155.5 -101.5t-213.5 -35.5q-190 0 -311.5 100.5t-121.5 270.5zM316 1509h203 q0 -72 37 -108t105 -36t104.5 36t36.5 108h205q0 -148 -92 -236.5t-254 -88.5q-161 0 -253 88.5t-92 236.5zM372 338q0 -84 56.5 -125.5t162.5 -41.5q93 0 168 36t115 101v116q-122 87 -279 87q-223 0 -223 -173zM564 1517l115 279h224l-149 -279h-190z" />
<glyph unicode="&#x1eb0;" horiz-adv-x="1684" d="M89 0l618 1547h273l617 -1547h-286l-141 356h-655l-139 -356h-287zM498 1967h203q0 -72 36.5 -108t104.5 -36t105 36t37 108h204q0 -148 -92 -236.5t-254 -88.5q-161 0 -252.5 88t-91.5 237zM593 589h500l-251 656zM602 2254h223l115 -279h-190z" />
<glyph unicode="&#x1eb1;" horiz-adv-x="1275" d="M89 338q0 177 115 277t322 100q201 0 348 -82v28q0 112 -70 163.5t-224 51.5q-97 0 -192.5 -19t-168.5 -52v219q66 31 178 51t215 20q277 0 410 -118t133 -329v-648h-264v104q-68 -66 -155.5 -101.5t-213.5 -35.5q-190 0 -311.5 100.5t-121.5 270.5zM306 1509h203 q0 -72 36.5 -108t104.5 -36t105 36t37 108h204q0 -148 -92 -236.5t-254 -88.5q-161 0 -252.5 88.5t-91.5 236.5zM372 338q0 -84 56.5 -125.5t162.5 -41.5q93 0 168 36t115 101v116q-122 87 -279 87q-223 0 -223 -173zM409 1796h224l114 -279h-190z" />
<glyph unicode="&#x1eb2;" horiz-adv-x="1684" d="M89 0l618 1547h273l617 -1547h-286l-141 356h-655l-139 -356h-287zM498 1967h199q0 -72 38.5 -110.5t106.5 -38.5t107 38.5t39 110.5h200q0 -148 -92 -236.5t-254 -88.5q-161 0 -252.5 88t-91.5 237zM593 589h500l-251 656zM701 2170v108q31 11 75.5 18t84.5 7 q99 0 156.5 -42.5t57.5 -112.5q0 -55 -37.5 -94t-104.5 -51v-53h-175v112q66 0 96.5 15t30.5 53q0 33 -22.5 45t-70.5 12q-55 0 -91 -17z" />
<glyph unicode="&#x1eb3;" horiz-adv-x="1275" d="M89 338q0 177 115 277t322 100q201 0 348 -82v28q0 112 -70 163.5t-224 51.5q-97 0 -192.5 -19t-168.5 -52v219q66 31 178 51t215 20q277 0 410 -118t133 -329v-648h-264v104q-68 -66 -155.5 -101.5t-213.5 -35.5q-190 0 -311.5 100.5t-121.5 270.5zM310 1497h199 q0 -71 38.5 -109.5t106.5 -38.5q69 0 107.5 39t38.5 109h200q0 -148 -92 -236.5t-254 -88.5q-160 0 -252 88.5t-92 236.5zM372 338q0 -84 56.5 -125.5t162.5 -41.5q93 0 168 36t115 101v116q-122 87 -279 87q-223 0 -223 -173zM513 1701v108q31 11 75.5 18t84.5 7 q99 0 156.5 -42t57.5 -114q0 -55 -37.5 -93t-104.5 -50v-53h-175v111q66 0 96.5 15t30.5 53q0 34 -22.5 45.5t-70.5 11.5q-55 0 -91 -17z" />
<glyph unicode="&#x1eb4;" horiz-adv-x="1684" d="M89 0l618 1547h273l617 -1547h-286l-141 356h-655l-139 -356h-287zM498 1967h203q0 -72 36.5 -108t104.5 -36t105 36t37 108h204q0 -148 -92 -236.5t-254 -88.5q-161 0 -252.5 88t-91.5 237zM502 2048v197q53 78 173 77q38 0 76 -12t98 -37q11 -4 46.5 -17t65.5 -21 t54 -8q53 0 95 21t78 72v-199q-53 -75 -173 -75q-42 0 -82 13.5t-99 37.5q-57 22 -92 33t-67 11q-53 0 -94 -20.5t-79 -72.5zM593 589h500l-251 656z" />
<glyph unicode="&#x1eb5;" horiz-adv-x="1275" d="M89 338q0 177 115 277t322 100q201 0 348 -82v28q0 112 -70 163.5t-224 51.5q-97 0 -192.5 -19t-168.5 -52v219q66 31 178 51t215 20q277 0 410 -118t133 -329v-648h-264v104q-68 -66 -155.5 -101.5t-213.5 -35.5q-190 0 -311.5 100.5t-121.5 270.5zM350 1509h203 q0 -72 36.5 -108t104.5 -36t105 36t37 108h204q0 -148 -92 -236.5t-254 -88.5q-160 0 -252 88.5t-92 236.5zM354 1591v196q53 78 172 77q38 0 77 -12t98 -37q11 -4 46.5 -17t65 -21t54.5 -8q53 0 95 21t78 72v-199q-53 -75 -173 -75q-42 0 -82 13.5t-99 37.5 q-57 22 -92 33.5t-68 11.5q-53 0 -94 -21t-78 -72zM372 338q0 -84 56.5 -125.5t162.5 -41.5q93 0 168 36t115 101v116q-122 87 -279 87q-223 0 -223 -173z" />
<glyph unicode="&#x1eb6;" horiz-adv-x="1684" d="M89 0l618 1547h273l617 -1547h-286l-141 356h-655l-139 -356h-287zM487 1975h210q0 -73 37.5 -110.5t107.5 -37.5q72 0 109 37.5t37 110.5h211q0 -150 -95 -241.5t-262 -91.5q-165 0 -260 91.5t-95 241.5zM593 589h500l-251 656zM697 -249q0 61 44 104t104 43 q59 0 102.5 -43t43.5 -104q0 -62 -43 -104.5t-103 -42.5t-104 43t-44 104z" />
<glyph unicode="&#x1eb7;" horiz-adv-x="1275" d="M89 338q0 177 115 277t322 100q201 0 348 -82v28q0 112 -70 163.5t-224 51.5q-97 0 -192.5 -19t-168.5 -52v219q66 31 178 51t215 20q277 0 410 -118t133 -329v-648h-264v104q-68 -66 -155.5 -101.5t-213.5 -35.5q-190 0 -311.5 100.5t-121.5 270.5zM303 1517h210 q0 -73 38 -110.5t108 -37.5q71 0 108.5 37.5t37.5 110.5h210q0 -150 -95 -241.5t-261 -91.5q-165 0 -260.5 91.5t-95.5 241.5zM372 338q0 -84 56.5 -125.5t162.5 -41.5q93 0 168 36t115 101v116q-122 87 -279 87q-223 0 -223 -173zM491 -249q0 61 44.5 104t103.5 43 q60 0 103 -43t43 -104q0 -62 -43 -104.5t-103 -42.5q-59 0 -103.5 43t-44.5 104z" />
<glyph unicode="&#x1eb8;" horiz-adv-x="1266" d="M133 0v1547h1046v-233h-765v-425h568v-232h-568v-425h765v-232h-1046zM500 -249q0 61 44.5 104t103.5 43t102.5 -43t43.5 -104q0 -62 -43.5 -104.5t-102.5 -42.5t-103.5 43t-44.5 104z" />
<glyph unicode="&#x1eb9;" horiz-adv-x="1346" d="M89 528q0 261 152.5 414t435.5 153q186 0 317 -70.5t197.5 -194t66.5 -279.5v-129h-904q29 -236 412 -236q101 0 207 17.5t186 48.5v-214q-76 -32 -194 -51.5t-235 -19.5q-297 0 -469 148.5t-172 412.5zM354 612h642q-5 127 -90 195.5t-233 68.5q-146 0 -230 -71 t-89 -193zM566 -249q0 61 44 104t105 43q59 0 102.5 -43t43.5 -104q0 -62 -43.5 -104.5t-102.5 -42.5q-61 0 -105 43t-44 104z" />
<glyph unicode="&#x1eba;" horiz-adv-x="1266" d="M133 0v1547h1046v-233h-765v-425h568v-232h-568v-425h765v-232h-1046zM433 1969v146q42 13 102 22t115 9q150 0 230 -60t80 -161q0 -83 -53 -138t-149 -71v-74h-243v163q100 0 151 24t51 85q0 44 -32.5 62.5t-104.5 18.5q-29 0 -77.5 -9t-69.5 -17z" />
<glyph unicode="&#x1ebb;" horiz-adv-x="1346" d="M89 528q0 261 152.5 414t435.5 153q186 0 317 -70.5t197.5 -194t66.5 -279.5v-129h-904q29 -236 412 -236q101 0 207 17.5t186 48.5v-214q-76 -32 -194 -51.5t-235 -19.5q-297 0 -469 148.5t-172 412.5zM354 612h642q-5 127 -90 195.5t-233 68.5q-146 0 -230 -71 t-89 -193zM482 1511v146q42 13 102 22t115 9q150 0 230 -60t80 -161q0 -82 -53 -137.5t-148 -71.5v-74h-244v163q99 0 150.5 24t51.5 85q0 44 -32.5 62.5t-104.5 18.5q-30 0 -78.5 -8.5t-68.5 -17.5z" />
<glyph unicode="&#x1ebc;" horiz-adv-x="1266" d="M133 0v1547h1046v-233h-765v-425h568v-232h-568v-425h765v-232h-1046zM221 1642v227q72 96 222 96q48 0 94.5 -13.5t119.5 -43.5q61 -27 108 -41t96 -14q137 0 220 114v-228q-68 -93 -220 -93q-55 0 -106.5 14t-117.5 43q-66 27 -107 40t-87 13q-64 0 -118.5 -26.5 t-103.5 -87.5z" />
<glyph unicode="&#x1ebd;" horiz-adv-x="1346" d="M89 528q0 261 152.5 414t435.5 153q186 0 317 -70.5t197.5 -194t66.5 -279.5v-129h-904q29 -236 412 -236q101 0 207 17.5t186 48.5v-214q-76 -32 -194 -51.5t-235 -19.5q-297 0 -469 148.5t-172 412.5zM274 1184v228q72 95 222 95q48 0 94.5 -13.5t119.5 -43.5 q61 -27 108 -41t96 -14q137 0 221 114v-228q-68 -93 -221 -93q-55 0 -106.5 14t-117.5 43q-66 27 -107 40t-87 13q-64 0 -118.5 -26.5t-103.5 -87.5zM354 612h642q-5 127 -90 195.5t-233 68.5q-146 0 -230 -71t-89 -193z" />
<glyph unicode="&#x1ebe;" horiz-adv-x="1245" d="M133 0v1547h1046v-233h-765v-425h568v-232h-568v-425h765v-232h-1046zM190 1642l308 335h234l306 -335h-264l-159 185l-159 -185h-266zM916 1860l135 284h258l-170 -284h-223z" />
<glyph unicode="&#x1ebf;" horiz-adv-x="1346" d="M89 528q0 261 152.5 414t435.5 153q186 0 317 -70.5t197.5 -194t66.5 -279.5v-129h-904q29 -236 412 -236q101 0 207 17.5t186 48.5v-214q-76 -32 -194 -51.5t-235 -19.5q-297 0 -469 148.5t-172 412.5zM268 1184l307 336h235l305 -336h-264l-159 185l-158 -185h-266z M354 612h642q-5 127 -90 195.5t-233 68.5q-146 0 -230 -71t-89 -193zM994 1402l134 284h259l-171 -284h-222z" />
<glyph unicode="&#x1ec0;" horiz-adv-x="1245" d="M-33 2144h259l135 -284h-224zM133 0v1547h1046v-233h-765v-425h568v-232h-568v-425h765v-232h-1046zM239 1642l305 335h235l307 -335h-265l-160 185l-159 -185h-263z" />
<glyph unicode="&#x1ec1;" horiz-adv-x="1346" d="M6 1686h260l135 -284h-224zM89 528q0 261 152.5 414t435.5 153q186 0 317 -70.5t197.5 -194t66.5 -279.5v-129h-904q29 -236 412 -236q101 0 207 17.5t186 48.5v-214q-76 -32 -194 -51.5t-235 -19.5q-297 0 -469 148.5t-172 412.5zM279 1184l305 336h235l306 -336h-264 l-160 185l-159 -185h-263zM354 612h642q-5 127 -90 195.5t-233 68.5q-146 0 -230 -71t-89 -193z" />
<glyph unicode="&#x1ec2;" horiz-adv-x="1245" d="M133 0v1547h1046v-233h-765v-425h568v-232h-568v-425h765v-232h-1046zM232 1642l308 335h234l305 -335h-263l-159 185l-159 -185h-266zM901 2055v108q31 11 75 17.5t83 6.5q100 0 157.5 -41.5t57.5 -112.5q0 -56 -37.5 -94.5t-103.5 -49.5v-53h-175v110q66 0 96 15.5 t30 53.5q0 34 -22 46t-71 12q-55 0 -90 -18z" />
<glyph unicode="&#x1ec3;" horiz-adv-x="1346" d="M89 528q0 261 152.5 414t435.5 153q186 0 317 -70.5t197.5 -194t66.5 -279.5v-129h-904q29 -236 412 -236q101 0 207 17.5t186 48.5v-214q-76 -32 -194 -51.5t-235 -19.5q-297 0 -469 148.5t-172 412.5zM257 1184l307 336h234l306 -336h-264l-159 185l-159 -185h-265z M354 612h642q-5 127 -90 195.5t-233 68.5q-146 0 -230 -71t-89 -193zM924 1597v108q32 11 76 18t84 7q100 0 157 -42t57 -113q0 -55 -37 -94t-104 -50v-53h-175v110q66 0 96 16t30 53q0 34 -22 46t-71 12q-55 0 -91 -18z" />
<glyph unicode="&#x1ec4;" horiz-adv-x="1266" d="M133 0v1547h1046v-233h-765v-425h568v-232h-568v-425h765v-232h-1046zM239 1642l307 335h235l305 -335h-263l-160 185l-159 -185h-265zM327 2007v196q53 78 173 77q38 0 76.5 -12t98.5 -37q11 -4 46 -17t65 -21t54 -8q53 0 95 21t78 72v-199q-53 -76 -173 -76 q-42 0 -81.5 13.5t-99.5 38.5q-57 22 -91 33.5t-68 11.5q-53 0 -94 -21.5t-79 -71.5z" />
<glyph unicode="&#x1ec5;" horiz-adv-x="1346" d="M89 528q0 261 152.5 414t435.5 153q186 0 317 -70.5t197.5 -194t66.5 -279.5v-129h-904q29 -236 412 -236q101 0 207 17.5t186 48.5v-214q-76 -32 -194 -51.5t-235 -19.5q-297 0 -469 148.5t-172 412.5zM249 1184l308 336h235l305 -336h-263l-159 185l-160 -185h-266z M338 1549v196q53 78 173 78q38 0 76.5 -12.5t98.5 -37.5q11 -4 46.5 -17t65 -21t53.5 -8q53 0 95 21t78 73v-200q-53 -76 -173 -74q-41 0 -81 12.5t-99 37.5q-58 22 -92.5 33.5t-67.5 11.5q-53 0 -94 -21.5t-79 -71.5zM354 612h642q-5 127 -90 195.5t-233 68.5 q-146 0 -230 -71t-89 -193z" />
<glyph unicode="&#x1ec6;" horiz-adv-x="1271" d="M137 0v1547h1047v-233h-766v-425h568v-232h-568v-425h766v-232h-1047zM199 1642l325 378h248l323 -378h-279l-168 218l-168 -218h-281zM502 -249q0 61 44.5 104t103.5 43q60 0 103 -43t43 -104q0 -62 -43 -104.5t-103 -42.5q-59 0 -103.5 43t-44.5 104z" />
<glyph unicode="&#x1ec7;" horiz-adv-x="1346" d="M89 528q0 261 152.5 414t435.5 153q186 0 317 -70.5t197.5 -194t66.5 -279.5v-129h-904q29 -236 412 -236q101 0 207 17.5t186 48.5v-214q-76 -32 -194 -51.5t-235 -19.5q-297 0 -469 148.5t-172 412.5zM243 1184l325 378h248l323 -378h-278l-169 218l-168 -218h-281z M354 612h642q-5 127 -90 195.5t-233 68.5q-146 0 -230 -71t-89 -193zM544 -249q0 61 44.5 104t103.5 43q60 0 103 -43t43 -104q0 -62 -43 -104.5t-103 -42.5q-59 0 -103.5 43t-44.5 104z" />
<glyph unicode="&#x1ec8;" horiz-adv-x="559" d="M73 1969v146q43 13 102 22t114 9q151 0 230.5 -60t79.5 -161q0 -83 -52.5 -138t-147.5 -71v-74h-245v163q100 0 151 24t51 85q0 44 -32 62.5t-105 18.5q-29 0 -77.5 -9t-68.5 -17zM139 0v1547h281v-1547h-281z" />
<glyph unicode="&#x1ec9;" horiz-adv-x="547" d="M71 1511v146q42 13 101.5 22t114.5 9q150 0 230 -60t80 -161q0 -82 -53 -137.5t-148 -71.5v-74h-244v163q100 0 151 24t51 85q0 44 -32.5 62.5t-104.5 18.5q-29 0 -77.5 -8.5t-68.5 -17.5zM133 0v1062h283v-1062h-283z" />
<glyph unicode="&#x1eca;" horiz-adv-x="559" d="M133 -249q0 61 44 104t104 43q59 0 102.5 -43t43.5 -104q0 -62 -43.5 -104.5t-102.5 -42.5q-60 0 -104 43t-44 104zM139 0v1547h281v-1547h-281z" />
<glyph unicode="&#x1ecb;" horiz-adv-x="581" d="M133 1402q0 66 45.5 112t110.5 46q66 0 113 -45.5t47 -112.5q0 -66 -46.5 -110.5t-113.5 -44.5q-65 0 -110.5 44.5t-45.5 110.5zM144 -249q0 61 44 104t104 43q59 0 102.5 -43t43.5 -104q0 -62 -43 -104.5t-103 -42.5t-104 43t-44 104zM148 0v1062h283v-1062h-283z" />
<glyph unicode="&#x1ecc;" horiz-adv-x="1815" d="M89 772q0 237 107 420.5t294 285t419 101.5q230 0 417 -101.5t294 -285t107 -420.5q0 -236 -107 -418.5t-294 -284.5t-417 -102q-232 0 -419 100.5t-294 284.5t-107 420zM372 772q0 -166 71.5 -291t194.5 -192.5t271 -67.5t269.5 67.5t193.5 192.5t72 291q0 164 -71 289 t-192.5 193.5t-271.5 68.5t-273 -68.5t-193.5 -194t-70.5 -288.5zM761 -249q0 61 44 104t104 43t103 -43t43 -104q0 -62 -43 -104.5t-103 -42.5t-104 43t-44 104z" />
<glyph unicode="&#x1ecd;" horiz-adv-x="1419" d="M89 531q0 171 76 298t217.5 196.5t327.5 69.5q185 0 326 -69.5t218.5 -197t77.5 -297.5q0 -175 -77.5 -302t-218.5 -194.5t-326 -67.5q-186 0 -326.5 67.5t-217.5 194.5t-77 302zM376 531q0 -152 90.5 -248.5t243.5 -96.5t243.5 96t90.5 249q0 162 -89.5 253.5 t-244.5 91.5t-244.5 -92t-89.5 -253zM564 -249q0 61 44 104t104 43q59 0 103 -43t44 -104q0 -62 -43.5 -104.5t-103.5 -42.5t-104 43t-44 104z" />
<glyph unicode="&#x1ece;" horiz-adv-x="1815" d="M89 772q0 237 107 420.5t294 285t419 101.5q230 0 417 -101.5t294 -285t107 -420.5q0 -236 -107 -418.5t-294 -284.5t-417 -102q-232 0 -419 100.5t-294 284.5t-107 420zM372 772q0 -166 71.5 -291t194.5 -192.5t271 -67.5t269.5 67.5t193.5 192.5t72 291q0 164 -71 289 t-192.5 193.5t-271.5 68.5t-273 -68.5t-193.5 -194t-70.5 -288.5zM694 1969v146q43 13 102.5 22t115.5 9q150 0 229 -60t79 -161q0 -83 -52.5 -138t-147.5 -71v-74h-243v163q99 0 149.5 24t50.5 85q0 44 -31.5 62.5t-105.5 18.5q-29 0 -77 -9t-69 -17z" />
<glyph unicode="&#x1ecf;" horiz-adv-x="1419" d="M89 531q0 171 76 298t217.5 196.5t327.5 69.5q185 0 326 -69.5t218.5 -197t77.5 -297.5q0 -175 -77.5 -302t-218.5 -194.5t-326 -67.5q-186 0 -326.5 67.5t-217.5 194.5t-77 302zM376 531q0 -152 90.5 -248.5t243.5 -96.5t243.5 96t90.5 249q0 162 -89.5 253.5 t-244.5 91.5t-244.5 -92t-89.5 -253zM513 1511v146q42 13 102 22t115 9q150 0 230 -60t80 -161q0 -82 -53.5 -137.5t-148.5 -71.5v-74h-243v163q99 0 150 24t51 85q0 44 -32 62.5t-105 18.5q-29 0 -77 -8.5t-69 -17.5z" />
<glyph unicode="&#x1ed0;" horiz-adv-x="1815" d="M89 772q0 237 107 420.5t294 285t419 101.5q230 0 417 -101.5t294 -285t107 -420.5q0 -236 -107 -418.5t-294 -284.5t-417 -102q-232 0 -419 100.5t-294 284.5t-107 420zM372 772q0 -166 71.5 -291t194.5 -192.5t271 -67.5t269.5 67.5t193.5 192.5t72 291q0 164 -71 289 t-192.5 193.5t-271.5 68.5t-273 -68.5t-193.5 -194t-70.5 -288.5zM513 1642l308 335h234l306 -335h-264l-160 185l-158 -185h-266zM1239 1860l135 284h258l-170 -284h-223z" />
<glyph unicode="&#x1ed1;" horiz-adv-x="1419" d="M89 531q0 171 76 298t217.5 196.5t327.5 69.5q185 0 326 -69.5t218.5 -197t77.5 -297.5q0 -175 -77.5 -302t-218.5 -194.5t-326 -67.5q-186 0 -326.5 67.5t-217.5 194.5t-77 302zM285 1184l308 336h234l306 -336h-264l-159 185l-159 -185h-266zM376 531 q0 -152 90.5 -248.5t243.5 -96.5t243.5 96t90.5 249q0 162 -89.5 253.5t-244.5 91.5t-244.5 -92t-89.5 -253zM1011 1402l135 284h258l-170 -284h-223z" />
<glyph unicode="&#x1ed2;" horiz-adv-x="1815" d="M89 772q0 237 107 420.5t294 285t419 101.5q230 0 417 -101.5t294 -285t107 -420.5q0 -236 -107 -418.5t-294 -284.5t-417 -102q-232 0 -419 100.5t-294 284.5t-107 420zM226 2144h259l134 -284h-223zM372 772q0 -166 71.5 -291t194.5 -192.5t271 -67.5t269.5 67.5 t193.5 192.5t72 291q0 164 -71 289t-192.5 193.5t-271.5 68.5t-273 -68.5t-193.5 -194t-70.5 -288.5zM498 1642l304 335h236l307 -335h-266l-159 185l-159 -185h-263z" />
<glyph unicode="&#x1ed3;" horiz-adv-x="1419" d="M31 1686h258l135 -284h-223zM89 531q0 171 76 298t217.5 196.5t327.5 69.5q185 0 326 -69.5t218.5 -197t77.5 -297.5q0 -175 -77.5 -302t-218.5 -194.5t-326 -67.5q-186 0 -326.5 67.5t-217.5 194.5t-77 302zM303 1184l305 336h234l308 -336h-265l-159 185l-160 -185 h-263zM376 531q0 -152 90.5 -248.5t243.5 -96.5t243.5 96t90.5 249q0 162 -89.5 253.5t-244.5 91.5t-244.5 -92t-89.5 -253z" />
<glyph unicode="&#x1ed4;" horiz-adv-x="1815" d="M89 772q0 237 107 420.5t294 285t419 101.5q230 0 417 -101.5t294 -285t107 -420.5q0 -236 -107 -418.5t-294 -284.5t-417 -102q-232 0 -419 100.5t-294 284.5t-107 420zM372 772q0 -166 71.5 -291t194.5 -192.5t271 -67.5t269.5 67.5t193.5 192.5t72 291q0 164 -71 289 t-192.5 193.5t-271.5 68.5t-273 -68.5t-193.5 -194t-70.5 -288.5zM513 1642l308 335h234l306 -335h-264l-160 185l-158 -185h-266zM1182 2055v108q31 11 74.5 17.5t83.5 6.5q100 0 157.5 -41.5t57.5 -112.5q0 -56 -37.5 -94.5t-103.5 -49.5v-53h-175v110q66 0 96 15.5 t30 53.5q0 34 -22 46t-71 12q-55 0 -90 -18z" />
<glyph unicode="&#x1ed5;" horiz-adv-x="1419" d="M89 531q0 171 76 298t217.5 196.5t327.5 69.5q185 0 326 -69.5t218.5 -197t77.5 -297.5q0 -175 -77.5 -302t-218.5 -194.5t-326 -67.5q-186 0 -326.5 67.5t-217.5 194.5t-77 302zM287 1184l308 336h234l306 -336h-263l-160 185l-159 -185h-266zM376 531 q0 -152 90.5 -248.5t243.5 -96.5t243.5 96t90.5 249q0 162 -89.5 253.5t-244.5 91.5t-244.5 -92t-89.5 -253zM956 1597v108q31 11 75 18t84 7q99 0 156.5 -42t57.5 -113q0 -55 -37.5 -94t-103.5 -50v-53h-175v110q66 0 96 16t30 53q0 34 -22 46t-70 12q-56 0 -91 -18z" />
<glyph unicode="&#x1ed6;" horiz-adv-x="1815" d="M89 772q0 237 107 420.5t294 285t419 101.5q230 0 417 -101.5t294 -285t107 -420.5q0 -236 -107 -418.5t-294 -284.5t-417 -102q-232 0 -419 100.5t-294 284.5t-107 420zM372 772q0 -166 71.5 -291t194.5 -192.5t271 -67.5t269.5 67.5t193.5 192.5t72 291q0 164 -71 289 t-192.5 193.5t-271.5 68.5t-273 -68.5t-193.5 -194t-70.5 -288.5zM562 1967h204q0 -72 36 -108t105 -36q68 0 105 36t37 108h203q0 -148 -92 -236.5t-253 -88.5q-162 0 -253.5 88t-91.5 237zM566 2048v197q53 78 173 77q38 0 76.5 -12t98.5 -37q10 -4 46 -17t65.5 -21 t53.5 -8q53 0 95 21t78 72v-199q-53 -75 -173 -75q-41 0 -81 13.5t-101 37.5q-57 22 -91 33t-67 11q-53 0 -94 -20.5t-79 -72.5z" />
<glyph unicode="&#x1ed7;" horiz-adv-x="1419" d="M89 531q0 171 76 298t217.5 196.5t327.5 69.5q185 0 326 -69.5t218.5 -197t77.5 -297.5q0 -175 -77.5 -302t-218.5 -194.5t-326 -67.5q-186 0 -326.5 67.5t-217.5 194.5t-77 302zM365 1509h203q0 -72 37 -108t105 -36t104.5 36t36.5 108h204q0 -148 -91.5 -236.5 t-253.5 -88.5q-161 0 -253 88.5t-92 236.5zM369 1591v196q53 78 173 77q38 0 76.5 -12t98.5 -37q11 -4 46 -17t65.5 -21t53.5 -8q53 0 95.5 21t77.5 72v-199q-53 -75 -173 -75q-42 0 -81.5 13.5t-99.5 37.5q-57 22 -91.5 33.5t-67.5 11.5q-53 0 -94 -21t-79 -72zM376 531 q0 -152 90.5 -248.5t243.5 -96.5t243.5 96t90.5 249q0 162 -89.5 253.5t-244.5 91.5t-244.5 -92t-89.5 -253z" />
<glyph unicode="&#x1ed8;" horiz-adv-x="1815" d="M89 772q0 237 107 420.5t294 285t419 101.5q230 0 417 -101.5t294 -285t107 -420.5q0 -236 -107 -418.5t-294 -284.5t-417 -102q-232 0 -419 100.5t-294 284.5t-107 420zM372 772q0 -166 71.5 -291t194.5 -192.5t271 -67.5t269.5 67.5t193.5 192.5t72 291q0 164 -71 289 t-192.5 193.5t-271.5 68.5t-273 -68.5t-193.5 -194t-70.5 -288.5zM460 1642l325 378h247l323 -378h-278l-168 218l-168 -218h-281zM764 -249q0 61 43.5 104t104.5 43q59 0 102 -43t43 -104q0 -62 -43 -104.5t-102 -42.5q-61 0 -104.5 43t-43.5 104z" />
<glyph unicode="&#x1ed9;" horiz-adv-x="1419" d="M89 531q0 171 76 298t217.5 196.5t327.5 69.5q185 0 326 -69.5t218.5 -197t77.5 -297.5q0 -175 -77.5 -302t-218.5 -194.5t-326 -67.5q-186 0 -326.5 67.5t-217.5 194.5t-77 302zM264 1184l325 378h247l323 -378h-279l-168 218l-168 -218h-280zM376 531 q0 -152 90.5 -248.5t243.5 -96.5t243.5 96t90.5 249q0 162 -89.5 253.5t-244.5 91.5t-244.5 -92t-89.5 -253zM564 -249q0 61 44 104t104 43q59 0 103 -43t44 -104q0 -62 -43.5 -104.5t-103.5 -42.5t-104 43t-44 104z" />
<glyph unicode="&#x1eda;" horiz-adv-x="1927" d="M89 772q0 237 107 420.5t294 285t419 101.5q159 0 300.5 -51t250.5 -143q108 2 148 42t40 148v77h258v-92q0 -138 -75 -243t-203 -140q99 -179 99 -405q0 -236 -107 -418.5t-294 -284.5t-417 -102q-232 0 -419 100.5t-294 284.5t-107 420zM384 772q0 -162 70 -283.5 t190 -188t265 -66.5q144 0 263.5 66.5t189 188t69.5 283.5q0 159 -68.5 282t-188 189t-265.5 66q-145 0 -266 -66t-190 -189t-69 -282zM787 1642l153 384h294l-190 -384h-257z" />
<glyph unicode="&#x1edb;" horiz-adv-x="1526" d="M89 531q0 171 76 298t217.5 196.5t327.5 69.5q249 0 418 -126q150 27 151 188v77h225v-92q0 -118 -63 -209t-173 -131q64 -124 64 -271q0 -175 -77.5 -302t-218.5 -194.5t-326 -67.5q-186 0 -326.5 67.5t-217.5 194.5t-77 302zM376 531q0 -152 90.5 -248.5t243.5 -96.5 t243.5 96t90.5 249q0 162 -89.5 253.5t-244.5 91.5t-244.5 -92t-89.5 -253zM564 1184l153 384h294l-190 -384h-257z" />
<glyph unicode="&#x1edc;" horiz-adv-x="1927" d="M89 772q0 237 107 420.5t294 285t419 101.5q159 0 300.5 -51t250.5 -143q108 2 148 42t40 148v77h258v-92q0 -138 -75 -243t-203 -140q99 -179 99 -405q0 -236 -107 -418.5t-294 -284.5t-417 -102q-232 0 -419 100.5t-294 284.5t-107 420zM384 772q0 -162 70 -283.5 t190 -188t265 -66.5q144 0 263.5 66.5t189 188t69.5 283.5q0 159 -68.5 282t-188 189t-265.5 66q-145 0 -266 -66t-190 -189t-69 -282zM568 2026h295l152 -384h-257z" />
<glyph unicode="&#x1edd;" horiz-adv-x="1526" d="M89 531q0 171 76 298t217.5 196.5t327.5 69.5q249 0 418 -126q150 27 151 188v77h225v-92q0 -118 -63 -209t-173 -131q64 -124 64 -271q0 -175 -77.5 -302t-218.5 -194.5t-326 -67.5q-186 0 -326.5 67.5t-217.5 194.5t-77 302zM376 531q0 -152 90.5 -248.5t243.5 -96.5 t243.5 96t90.5 249q0 162 -89.5 253.5t-244.5 91.5t-244.5 -92t-89.5 -253zM380 1568h295l152 -384h-257z" />
<glyph unicode="&#x1ede;" horiz-adv-x="1927" d="M89 772q0 237 107 420.5t294 285t419 101.5q159 0 300.5 -51t250.5 -143q108 2 148 42t40 148v77h258v-92q0 -138 -75 -243t-203 -140q99 -179 99 -405q0 -236 -107 -418.5t-294 -284.5t-417 -102q-232 0 -419 100.5t-294 284.5t-107 420zM384 772q0 -162 70 -283.5 t190 -188t265 -66.5q144 0 263.5 66.5t189 188t69.5 283.5q0 159 -68.5 282t-188 189t-265.5 66q-145 0 -266 -66t-190 -189t-69 -282zM701 1969v146q42 13 102 22t115 9q150 0 230 -60t80 -161q0 -83 -53.5 -138t-148.5 -71v-74h-243v163q99 0 150 24t51 85q0 44 -32 62.5 t-105 18.5q-29 0 -77.5 -9t-68.5 -17z" />
<glyph unicode="&#x1edf;" horiz-adv-x="1526" d="M89 531q0 171 76 298t217.5 196.5t327.5 69.5q249 0 418 -126q150 27 151 188v77h225v-92q0 -118 -63 -209t-173 -131q64 -124 64 -271q0 -175 -77.5 -302t-218.5 -194.5t-326 -67.5q-186 0 -326.5 67.5t-217.5 194.5t-77 302zM376 531q0 -152 90.5 -248.5t243.5 -96.5 t243.5 96t90.5 249q0 162 -89.5 253.5t-244.5 91.5t-244.5 -92t-89.5 -253zM482 1511v146q42 13 102 22t115 9q150 0 230 -60t80 -161q0 -82 -53 -137.5t-148 -71.5v-74h-244v163q99 0 150.5 24t51.5 85q0 44 -32.5 62.5t-104.5 18.5q-30 0 -78.5 -8.5t-68.5 -17.5z" />
<glyph unicode="&#x1ee0;" horiz-adv-x="1927" d="M89 772q0 237 107 420.5t294 285t419 101.5q159 0 300.5 -51t250.5 -143q108 2 148 42t40 148v77h258v-92q0 -138 -75 -243t-203 -140q99 -179 99 -405q0 -236 -107 -418.5t-294 -284.5t-417 -102q-232 0 -419 100.5t-294 284.5t-107 420zM384 772q0 -162 70 -283.5 t190 -188t265 -66.5q144 0 263.5 66.5t189 188t69.5 283.5q0 159 -68.5 282t-188 189t-265.5 66q-145 0 -266 -66t-190 -189t-69 -282zM511 1642v227q71 96 221 96q49 0 95.5 -13.5t119.5 -43.5q62 -27 108.5 -41t94.5 -14q137 0 222 114v-228q-68 -93 -222 -93 q-55 0 -105.5 14t-117.5 43q-66 27 -107 40t-88 13q-63 0 -118 -26.5t-103 -87.5z" />
<glyph unicode="&#x1ee1;" horiz-adv-x="1526" d="M89 531q0 171 76 298t217.5 196.5t327.5 69.5q249 0 418 -126q150 27 151 188v77h225v-92q0 -118 -63 -209t-173 -131q64 -124 64 -271q0 -175 -77.5 -302t-218.5 -194.5t-326 -67.5q-186 0 -326.5 67.5t-217.5 194.5t-77 302zM270 1212v228q71 95 221 95q49 0 95.5 -13 t118.5 -42q62 -27 109 -41t95 -14q138 0 222 112v-228q-68 -93 -222 -93q-55 0 -106 14.5t-117 43.5q-66 27 -107 40t-88 13q-63 0 -117.5 -26.5t-103.5 -88.5zM376 531q0 -152 90.5 -248.5t243.5 -96.5t243.5 96t90.5 249q0 162 -89.5 253.5t-244.5 91.5t-244.5 -92 t-89.5 -253z" />
<glyph unicode="&#x1ee2;" horiz-adv-x="1927" d="M89 772q0 237 107 420.5t294 285t419 101.5q159 0 300.5 -51t250.5 -143q108 2 148 42t40 148v77h258v-92q0 -138 -75 -243t-203 -140q99 -179 99 -405q0 -236 -107 -418.5t-294 -284.5t-417 -102q-232 0 -419 100.5t-294 284.5t-107 420zM384 772q0 -162 70 -283.5 t190 -188t265 -66.5q144 0 263.5 66.5t189 188t69.5 283.5q0 159 -68.5 282t-188 189t-265.5 66q-145 0 -266 -66t-190 -189t-69 -282zM747 -249q0 61 44.5 104t103.5 43q60 0 103.5 -43t43.5 -104q0 -62 -43 -104.5t-104 -42.5q-59 0 -103.5 43t-44.5 104z" />
<glyph unicode="&#x1ee3;" horiz-adv-x="1526" d="M89 531q0 171 76 298t217.5 196.5t327.5 69.5q249 0 418 -126q150 27 151 188v77h225v-92q0 -118 -63 -209t-173 -131q64 -124 64 -271q0 -175 -77.5 -302t-218.5 -194.5t-326 -67.5q-186 0 -326.5 67.5t-217.5 194.5t-77 302zM376 531q0 -152 90.5 -248.5t243.5 -96.5 t243.5 96t90.5 249q0 162 -89.5 253.5t-244.5 91.5t-244.5 -92t-89.5 -253zM551 -249q0 61 44 104t104 43q59 0 102.5 -43t43.5 -104q0 -62 -43.5 -104.5t-102.5 -42.5q-60 0 -104 43t-44 104z" />
<glyph unicode="&#x1ee4;" horiz-adv-x="1562" d="M122 602v945h281v-950q0 -183 102.5 -279.5t277.5 -96.5q173 0 275.5 96.5t102.5 279.5v950h281v-945q0 -292 -166 -463.5t-493 -171.5t-494 171.5t-167 463.5zM635 -249q0 61 44.5 104t103.5 43t102.5 -43t43.5 -104q0 -62 -43.5 -104.5t-102.5 -42.5t-103.5 43 t-44.5 104z" />
<glyph unicode="&#x1ee5;" horiz-adv-x="1348" d="M122 391v671h279v-644q0 -232 216 -232q95 0 179 45t141 136v695h279v-1062h-269v144q-75 -91 -179.5 -134t-218.5 -43q-215 0 -321 116t-106 308zM513 -249q0 61 44.5 104t103.5 43t103 -43t44 -104q0 -62 -43.5 -104.5t-103.5 -42.5q-59 0 -103.5 43t-44.5 104z" />
<glyph unicode="&#x1ee6;" horiz-adv-x="1562" d="M122 602v945h281v-950q0 -183 102.5 -279.5t277.5 -96.5q173 0 275.5 96.5t102.5 279.5v950h281v-945q0 -292 -166 -463.5t-493 -171.5t-494 171.5t-167 463.5zM555 1969v146q42 13 102 22t115 9q150 0 229.5 -60t79.5 -161q0 -83 -53 -138t-148 -71v-74h-243v163 q100 0 150.5 24t50.5 85q0 44 -32 62.5t-105 18.5q-29 0 -77.5 -9t-68.5 -17z" />
<glyph unicode="&#x1ee7;" horiz-adv-x="1348" d="M122 391v671h279v-644q0 -232 216 -232q95 0 179 45t141 136v695h279v-1062h-269v144q-75 -91 -179.5 -134t-218.5 -43q-215 0 -321 116t-106 308zM443 1511v146q42 13 101.5 22t114.5 9q150 0 230 -60t80 -161q0 -82 -53 -137.5t-148 -71.5v-74h-244v163q99 0 150.5 24 t51.5 85q0 44 -32.5 62.5t-104.5 18.5q-30 0 -78.5 -8.5t-67.5 -17.5z" />
<glyph unicode="&#x1ee8;" horiz-adv-x="1906" d="M122 602v945h294v-950q0 -183 96 -273t271 -90q173 0 269 91t96 272v950h294v-165q108 0 145.5 42.5t37.5 150.5v77h260v-92q0 -178 -108.5 -286.5t-334.5 -110.5v-561q0 -292 -166 -463.5t-493 -171.5t-494 171.5t-167 463.5zM633 1642l152 384h294l-190 -384h-256z" />
<glyph unicode="&#x1ee9;" horiz-adv-x="1631" d="M122 391v671h279v-644q0 -232 216 -232q95 0 179 45t141 136v695h279v-100q84 9 126.5 56.5t42.5 129.5v86h225v-92q0 -153 -103 -254t-291 -109v-779h-269v144q-75 -91 -179.5 -134t-218.5 -43q-215 0 -321 116t-106 308zM517 1184l154 384h293l-190 -384h-257z" />
<glyph unicode="&#x1eea;" horiz-adv-x="1906" d="M122 602v945h294v-950q0 -183 96 -273t271 -90q173 0 269 91t96 272v950h294v-165q108 0 145.5 42.5t37.5 150.5v77h260v-92q0 -178 -108.5 -286.5t-334.5 -110.5v-561q0 -292 -166 -463.5t-493 -171.5t-494 171.5t-167 463.5zM469 2026h295l152 -384h-257z" />
<glyph unicode="&#x1eeb;" horiz-adv-x="1631" d="M122 391v671h279v-644q0 -232 216 -232q95 0 179 45t141 136v695h279v-100q84 9 126.5 56.5t42.5 129.5v86h225v-92q0 -153 -103 -254t-291 -109v-779h-269v144q-75 -91 -179.5 -134t-218.5 -43q-215 0 -321 116t-106 308zM342 1568h295l152 -384h-255z" />
<glyph unicode="&#x1eec;" horiz-adv-x="1906" d="M122 602v945h294v-950q0 -183 96 -273t271 -90q173 0 269 91t96 272v950h294v-165q108 0 145.5 42.5t37.5 150.5v77h260v-92q0 -178 -108.5 -286.5t-334.5 -110.5v-561q0 -292 -166 -463.5t-493 -171.5t-494 171.5t-167 463.5zM568 1969v146q42 13 102 22t115 9 q150 0 230 -60t80 -161q0 -83 -53.5 -138t-148.5 -71v-74h-243v163q100 0 150.5 24t50.5 85q0 44 -32 62.5t-104 18.5q-29 0 -77.5 -9t-69.5 -17z" />
<glyph unicode="&#x1eed;" horiz-adv-x="1631" d="M122 391v671h279v-644q0 -232 216 -232q95 0 179 45t141 136v695h279v-100q84 9 126.5 56.5t42.5 129.5v86h225v-92q0 -153 -103 -254t-291 -109v-779h-269v144q-75 -91 -179.5 -134t-218.5 -43q-215 0 -321 116t-106 308zM441 1511v146q42 13 101.5 22t114.5 9 q150 0 230 -60t80 -161q0 -82 -53 -137.5t-148 -71.5v-74h-244v163q99 0 150.5 24t51.5 85q0 44 -32.5 62.5t-105.5 18.5q-29 0 -77.5 -8.5t-67.5 -17.5z" />
<glyph unicode="&#x1eee;" horiz-adv-x="1906" d="M122 602v945h294v-950q0 -183 96 -273t271 -90q173 0 269 91t96 272v950h294v-165q108 0 145.5 42.5t37.5 150.5v77h260v-92q0 -178 -108.5 -286.5t-334.5 -110.5v-561q0 -292 -166 -463.5t-493 -171.5t-494 171.5t-167 463.5zM376 1642v227q71 96 221 96 q49 0 95.5 -13.5t119.5 -43.5q62 -27 108.5 -41t94.5 -14q137 0 222 114v-228q-68 -93 -222 -93q-55 0 -105.5 14t-117.5 43q-66 27 -107 40t-88 13q-63 0 -118 -26.5t-103 -87.5z" />
<glyph unicode="&#x1eef;" horiz-adv-x="1631" d="M122 391v671h279v-644q0 -232 216 -232q95 0 179 45t141 136v695h279v-100q84 9 126.5 56.5t42.5 129.5v86h225v-92q0 -153 -103 -254t-291 -109v-779h-269v144q-75 -91 -179.5 -134t-218.5 -43q-215 0 -321 116t-106 308zM247 1184v228q72 95 222 95q48 0 94.5 -13.5 t120.5 -43.5q61 -27 107.5 -41t95.5 -14q137 0 221 114v-228q-68 -93 -221 -93q-55 0 -106 14t-118 43q-66 27 -107 40t-87 13q-64 0 -118.5 -26.5t-103.5 -87.5z" />
<glyph unicode="&#x1ef0;" horiz-adv-x="1906" d="M122 602v945h294v-950q0 -183 96 -273t271 -90q173 0 269 91t96 272v950h294v-165q108 0 145.5 42.5t37.5 150.5v77h260v-92q0 -178 -108.5 -286.5t-334.5 -110.5v-561q0 -292 -166 -463.5t-493 -171.5t-494 171.5t-167 463.5zM629 -249q0 61 44 104t104 43q59 0 102 -43 t43 -104q0 -62 -43 -104.5t-102 -42.5q-60 0 -104 43t-44 104z" />
<glyph unicode="&#x1ef1;" horiz-adv-x="1631" d="M122 391v671h279v-644q0 -232 216 -232q95 0 179 45t141 136v695h279v-100q84 9 126.5 56.5t42.5 129.5v86h225v-92q0 -153 -103 -254t-291 -109v-779h-269v144q-75 -91 -179.5 -134t-218.5 -43q-215 0 -321 116t-106 308zM513 -249q0 61 44.5 104t103.5 43t103 -43 t44 -104q0 -62 -43.5 -104.5t-103.5 -42.5q-59 0 -103.5 43t-44.5 104z" />
<glyph unicode="&#x1ef2;" horiz-adv-x="1604" d="M102 1547h299l397 -688l409 688h297l-573 -958v-589h-268v589zM500 2026h294l153 -384h-257z" />
<glyph unicode="&#x1ef3;" horiz-adv-x="1326" d="M89 1062h280l328 -775l307 775h279l-464 -1157q-72 -175 -172.5 -259t-259.5 -84q-58 0 -121 8t-98 21v212q56 -21 138 -22q84 0 125.5 37.5t72.5 119.5l42 111zM380 1568h295l152 -384h-257z" />
<glyph unicode="&#x1ef4;" horiz-adv-x="1604" d="M102 1547h299l397 -688l409 688h297l-573 -958v-589h-268v589zM652 -249q0 61 44.5 104t103.5 43q60 0 103.5 -43t43.5 -104q0 -62 -43 -104.5t-104 -42.5q-59 0 -103.5 43t-44.5 104z" />
<glyph unicode="&#x1ef5;" horiz-adv-x="1326" d="M89 1062h280l328 -775l307 775h279l-464 -1157q-72 -175 -172.5 -259t-259.5 -84q-58 0 -121 8t-98 21v212q56 -21 138 -22q84 0 125.5 37.5t72.5 119.5l42 111zM869 -239q0 62 44.5 105t103.5 43q60 0 103 -43t43 -105q0 -61 -43 -103t-103 -42q-59 0 -103.5 43 t-44.5 102z" />
<glyph unicode="&#x1ef6;" horiz-adv-x="1604" d="M102 1547h299l397 -688l409 688h297l-573 -958v-589h-268v589zM586 1969v146q43 13 102 22t114 9q151 0 230.5 -60t79.5 -161q0 -83 -52.5 -138t-147.5 -71v-74h-245v163q100 0 151 24t51 85q0 44 -32 62.5t-105 18.5q-29 0 -77.5 -9t-68.5 -17z" />
<glyph unicode="&#x1ef7;" horiz-adv-x="1326" d="M89 1062h280l328 -775l307 775h279l-464 -1157q-72 -175 -172.5 -259t-259.5 -84q-58 0 -121 8t-98 21v212q56 -21 138 -22q84 0 125.5 37.5t72.5 119.5l42 111zM473 1511v146q42 13 102 22t115 9q150 0 230 -60t80 -161q0 -82 -53.5 -137.5t-148.5 -71.5v-74h-243v163 q99 0 150 24t51 85q0 44 -32 62.5t-105 18.5q-29 0 -77 -8.5t-69 -17.5z" />
<glyph unicode="&#x1ef8;" horiz-adv-x="1604" d="M102 1547h299l397 -688l409 688h297l-573 -958v-589h-268v589zM369 1642v227q72 96 222 96q48 0 94.5 -13.5t119.5 -43.5q61 -27 108 -41t96 -14q137 0 221 114v-228q-68 -93 -221 -93q-55 0 -106.5 14t-117.5 43q-66 27 -107 40t-87 13q-64 0 -118.5 -26.5t-103.5 -87.5 z" />
<glyph unicode="&#x1ef9;" horiz-adv-x="1326" d="M89 1062h280l328 -775l307 775h279l-464 -1157q-72 -175 -172.5 -259t-259.5 -84q-58 0 -121 8t-98 21v212q56 -21 138 -22q84 0 125.5 37.5t72.5 119.5l42 111zM268 1184v228q71 95 221 95q49 0 95.5 -13.5t118.5 -43.5q62 -27 109 -41t95 -14q137 0 221 114v-228 q-69 -93 -221 -93q-55 0 -106 14t-117 43q-66 27 -107 40t-88 13q-63 0 -118 -26.5t-103 -87.5z" />
<glyph unicode="&#x2000;" horiz-adv-x="1176" />
<glyph unicode="&#x2001;" horiz-adv-x="2353" />
<glyph unicode="&#x2002;" horiz-adv-x="1176" />
<glyph unicode="&#x2003;" horiz-adv-x="2353" />
<glyph unicode="&#x2004;" horiz-adv-x="784" />
<glyph unicode="&#x2005;" horiz-adv-x="588" />
<glyph unicode="&#x2006;" horiz-adv-x="392" />
<glyph unicode="&#x2007;" />
<glyph unicode="&#x2008;" horiz-adv-x="294" />
<glyph unicode="&#x2009;" horiz-adv-x="470" />
<glyph unicode="&#x200a;" horiz-adv-x="130" />
<glyph unicode="&#x2010;" horiz-adv-x="977" d="M89 528v224h800v-224h-800z" />
<glyph unicode="&#x2011;" horiz-adv-x="910" d="M89 551v223h734v-223h-734z" />
<glyph unicode="&#x2012;" horiz-adv-x="1521" d="M89 528v224h1344v-224h-1344z" />
<glyph unicode="&#x2013;" horiz-adv-x="1446" d="M89 551v223h1269v-223h-1269z" />
<glyph unicode="&#x2014;" horiz-adv-x="1760" d="M89 551v223h1583v-223h-1583z" />
<glyph unicode="&#x2015;" horiz-adv-x="2222" d="M89 528v224h2045v-224h-2045z" />
<glyph unicode="&#x2018;" horiz-adv-x="585" d="M89 1146l177 433h232l-144 -433h-265z" />
<glyph unicode="&#x2019;" horiz-adv-x="591" d="M89 1146l145 433h270l-177 -433h-238z" />
<glyph unicode="&#x201a;" horiz-adv-x="591" d="M89 -276l145 433h270l-177 -433h-238z" />
<glyph unicode="&#x201c;" horiz-adv-x="941" d="M89 1146l177 433h216l-146 -433h-247zM462 1146l177 433h215l-144 -433h-248z" />
<glyph unicode="&#x201d;" horiz-adv-x="941" d="M89 1146l145 433h248l-176 -433h-217zM462 1146l144 433h248l-177 -433h-215z" />
<glyph unicode="&#x201e;" horiz-adv-x="941" d="M89 -276l145 433h248l-176 -433h-217zM462 -276l144 433h248l-177 -433h-215z" />
<glyph unicode="&#x2020;" horiz-adv-x="1195" d="M89 929v232h369v386h281v-386h369v-232h-369v-1083h-281v1083h-369z" />
<glyph unicode="&#x2021;" horiz-adv-x="1193" d="M89 348v234h369v385h-369v234h369v346h279v-346h369v-234h-369v-385h369v-234h-369v-348h-279v348h-369z" />
<glyph unicode="&#x2022;" horiz-adv-x="587" d="M89 659q0 86 59.5 146t145.5 60t146 -60t60 -146q0 -87 -60 -146t-146 -59t-145.5 59t-59.5 146z" />
<glyph unicode="&#x2026;" horiz-adv-x="1288" d="M89 110q0 49 32.5 82.5t79.5 33.5q46 0 79.5 -33.5t33.5 -82.5q0 -46 -33.5 -78t-79.5 -32q-47 0 -79.5 32t-32.5 78zM534 110q0 49 31.5 82.5t78.5 33.5q48 0 81 -33.5t33 -82.5q0 -46 -33 -78t-81 -32q-47 0 -78.5 32t-31.5 78zM975 110q0 49 33.5 82.5t80.5 33.5 q46 0 79 -33.5t33 -82.5q0 -46 -33 -78t-79 -32q-47 0 -80.5 32t-33.5 78z" />
<glyph unicode="&#x202f;" horiz-adv-x="470" />
<glyph unicode="&#x2030;" horiz-adv-x="2852" d="M89 1172q0 110 54 204.5t146.5 148.5t204.5 54q110 0 204 -54t148.5 -148t54.5 -205q0 -110 -54.5 -203t-148.5 -147t-204 -54q-112 0 -204.5 54t-146.5 147t-54 203zM289 1167q0 -86 59 -144.5t146 -58.5q88 0 146.5 58.5t58.5 144.5q0 89 -58.5 148t-146.5 59 q-87 0 -146 -59t-59 -148zM416 0l856 1547h272l-856 -1547h-272zM1057 372q0 110 54 204.5t147 148.5t204 54q110 0 204 -54t148.5 -148.5t54.5 -204.5q0 -111 -54.5 -203.5t-148.5 -147t-204 -54.5q-111 0 -204 54.5t-147 147t-54 203.5zM1256 367q0 -86 59 -144.5 t145 -58.5q89 0 147 58.5t58 144.5q0 89 -58 147t-147 58q-86 0 -145 -58t-59 -147zM1953 372q0 110 54.5 204.5t147 148.5t203.5 54q110 0 204.5 -54t148.5 -148.5t54 -204.5q0 -111 -54 -203.5t-148 -147t-205 -54.5t-203.5 54.5t-147 147t-54.5 203.5zM2152 367 q0 -86 58.5 -144.5t144.5 -58.5q89 0 148 58.5t59 144.5q0 89 -59 147t-148 58q-86 0 -144.5 -58t-58.5 -147z" />
<glyph unicode="&#x2032;" horiz-adv-x="386" d="M89 1119v428h209v-428h-209z" />
<glyph unicode="&#x2033;" horiz-adv-x="771" d="M89 1119v428h209v-428h-209zM473 1119v428h211v-428h-211z" />
<glyph unicode="&#x2039;" horiz-adv-x="840" d="M89 681v71l523 455l140 -175l-374 -315l374 -314l-140 -175z" />
<glyph unicode="&#x203a;" horiz-adv-x="840" d="M89 403l373 314l-373 315l139 175l524 -455v-71l-524 -453z" />
<glyph unicode="&#x2044;" horiz-adv-x="517" d="M-310 -33l852 1612h285l-852 -1612h-285z" />
<glyph unicode="&#x205f;" horiz-adv-x="588" />
<glyph unicode="&#x2070;" horiz-adv-x="891" d="M89 1182q0 179 95 282.5t263 103.5q166 0 260.5 -103.5t94.5 -282.5q0 -180 -95 -284t-260 -104q-168 0 -263 104t-95 284zM274 1182q0 -108 46.5 -161.5t126.5 -53.5q77 0 122.5 52.5t45.5 162.5q0 108 -45.5 160.5t-122.5 52.5q-80 0 -126.5 -52.5t-46.5 -160.5z" />
<glyph unicode="&#x2074;" horiz-adv-x="738" d="M44 969v141l325 437h224v-428h101v-150h-101v-150h-209v150h-340zM239 1119h177v232z" />
<glyph unicode="&#x2075;" horiz-adv-x="766" d="M89 845v172q42 -27 100 -40t112 -13q89 0 131.5 30t42.5 72q0 53 -40.5 76t-126.5 23q-84 0 -154 -23l-55 32l30 373h500v-160h-319l-7 -91q64 13 124 13q122 0 187 -61.5t65 -179.5q0 -124 -95 -198t-252 -74q-66 0 -133.5 13.5t-109.5 35.5z" />
<glyph unicode="&#x2076;" horiz-adv-x="815" d="M89 1133q0 211 106 323t280 112q40 0 84.5 -4t64.5 -13v-142q-38 18 -130 18q-178 0 -211 -162q29 27 75.5 41.5t101.5 14.5q131 0 199.5 -69.5t68.5 -189.5q0 -118 -81 -192t-233 -74q-150 0 -237.5 89.5t-87.5 247.5zM287 1057q0 -55 36 -90.5t91 -35.5q59 0 92.5 34.5 t33.5 91.5q0 58 -33.5 92.5t-92.5 34.5q-55 0 -91 -36t-36 -91z" />
<glyph unicode="&#x2077;" horiz-adv-x="705" d="M66 1387v160h573v-116l-278 -612h-207l260 568h-348z" />
<glyph unicode="&#x2078;" horiz-adv-x="813" d="M89 1017q0 68 35 116.5t93 63.5q-49 24 -76 64.5t-27 96.5q0 99 79 154.5t214 55.5t213.5 -55t78.5 -155q0 -56 -26.5 -97t-75.5 -64q57 -15 93 -63t36 -117q0 -105 -83.5 -163t-235.5 -58t-235 58t-83 163zM287 1028q0 -46 33.5 -73.5t86.5 -27.5t86 27.5t33 73.5 q0 49 -32 78t-87 29t-87.5 -29t-32.5 -78zM306 1347q0 -40 27.5 -66.5t73.5 -26.5q47 0 74.5 26.5t27.5 66.5t-29 65t-73 25t-72.5 -25t-28.5 -65z" />
<glyph unicode="&#x2079;" horiz-adv-x="815" d="M89 1302q0 118 80 192t234 74q150 0 237.5 -89.5t87.5 -246.5q0 -210 -106.5 -323t-281.5 -113q-39 0 -83 4.5t-65 13.5v142q38 -17 131 -19q177 0 211 162q-30 -27 -76.5 -41t-101.5 -14q-130 0 -198.5 70t-68.5 188zM276 1307q0 -57 33 -91t94 -34q55 0 90 35t35 90 q0 57 -34 91.5t-91 34.5q-60 0 -93.5 -34t-33.5 -92z" />
<glyph unicode="&#x207d;" horiz-adv-x="517" d="M89 1182q0 114 31.5 213.5t92.5 172.5h216q-62 -80 -95 -179t-33 -207t33 -207t95 -179h-216q-61 71 -92.5 171.5t-31.5 214.5z" />
<glyph unicode="&#x207e;" horiz-adv-x="517" d="M89 796q61 80 94.5 178t33.5 208q0 108 -33.5 207t-94.5 179h217q59 -73 91 -172.5t32 -213.5q0 -113 -32 -214t-91 -172h-217z" />
<glyph unicode="&#x207f;" horiz-adv-x="990" d="M99 796v751h204v-93q53 63 128.5 94t157.5 31q158 0 236 -79.5t78 -216.5v-487h-211v451q0 80 -37.5 123.5t-123.5 43.5q-139 0 -221 -129v-489h-211z" />
<glyph unicode="&#x2080;" horiz-adv-x="891" d="M89 11q0 179 95 283.5t263 104.5q166 0 260.5 -104.5t94.5 -283.5t-95 -283t-260 -104q-168 0 -263 104t-95 283zM274 11q0 -108 46.5 -161t126.5 -53q77 0 122.5 53t45.5 161t-45.5 161.5t-122.5 53.5q-80 0 -126.5 -53t-46.5 -162z" />
<glyph unicode="&#x2081;" horiz-adv-x="521" d="M89 36v190l200 148h188v-728h-207v520z" />
<glyph unicode="&#x2082;" horiz-adv-x="756" d="M89 -226l145 122q127 104 172 151.5t45 96.5q0 77 -99 77q-53 0 -121.5 -21t-110.5 -50v179q42 27 112.5 46t132.5 19q146 0 220 -68.5t74 -171.5q0 -52 -19 -92t-52 -72t-106 -94l-110 -93h295v-159h-578v130z" />
<glyph unicode="&#x2083;" horiz-adv-x="766" d="M89 -177q46 -22 110.5 -34.5t116.5 -12.5q68 0 107 18t39 65q0 42 -33 60.5t-110 18.5h-108v151h105q127 0 127 73q0 38 -35.5 58.5t-101.5 20.5q-100 0 -202 -57v156q103 55 263 56q137 0 214.5 -56.5t77.5 -155.5q0 -118 -110 -171q130 -36 130 -170q0 -101 -83 -160 t-235 -59q-173 0 -272 42v157z" />
<glyph unicode="&#x2084;" horiz-adv-x="738" d="M44 -62l325 436h224v-427h101v-150h-101v-151h-209v151h-340v141zM239 -53h177v232z" />
<glyph unicode="&#x2085;" horiz-adv-x="768" d="M89 -152q42 -27 100 -40t112 -13q89 0 130.5 29.5t41.5 71.5q0 53 -38.5 74t-126.5 21q-84 0 -154 -24l-55 33l30 374h500v-159h-319l-7 -91q64 13 124 13q122 0 188 -62t66 -179q0 -122 -96 -197t-253 -75q-66 0 -133.5 13t-109.5 36v175z" />
<glyph unicode="&#x2086;" horiz-adv-x="815" d="M89 -40q0 211 106 323.5t280 112.5q40 0 84.5 -4.5t64.5 -13.5v-141q-38 17 -130 18q-178 0 -211 -162q29 27 75.5 41t101.5 14q131 0 199.5 -69.5t68.5 -188.5q0 -118 -81 -192t-233 -74q-150 0 -237.5 89.5t-87.5 246.5zM287 -114q0 -58 36 -92.5t91 -34.5 q59 0 92.5 34t33.5 93q0 57 -33.5 91t-92.5 34q-55 0 -91 -35t-36 -90z" />
<glyph unicode="&#x2087;" horiz-adv-x="705" d="M66 215v159h573v-115l-278 -613h-207l260 569h-348z" />
<glyph unicode="&#x2088;" horiz-adv-x="813" d="M89 -154q0 68 35 115.5t93 63.5q-49 25 -76 65.5t-27 95.5q0 99 79 154.5t214 55.5t213.5 -55.5t78.5 -154.5q0 -55 -26.5 -96t-75.5 -65q57 -15 93 -63t36 -116q0 -106 -83.5 -164t-235.5 -58t-235 57.5t-83 164.5zM287 -144q0 -46 33.5 -73.5t86.5 -27.5t86 27.5 t33 73.5q0 49 -32 77.5t-87 28.5t-87.5 -28.5t-32.5 -77.5zM306 175q0 -40 27.5 -66.5t73.5 -26.5q47 0 74.5 26.5t27.5 66.5t-29 65.5t-73 25.5t-72.5 -25.5t-28.5 -65.5z" />
<glyph unicode="&#x2089;" horiz-adv-x="815" d="M89 131q0 117 80 191t234 74q150 0 237.5 -89.5t87.5 -247.5q0 -210 -106.5 -322.5t-281.5 -112.5q-39 0 -83 4.5t-65 12.5v142q38 -17 131 -17q177 0 211 161q-30 -27 -76.5 -41.5t-101.5 -14.5q-130 0 -198.5 70t-68.5 190zM276 135q0 -57 33 -91.5t94 -34.5 q55 0 90 35.5t35 90.5q0 57 -34 91.5t-91 34.5q-60 0 -93.5 -34.5t-33.5 -91.5z" />
<glyph unicode="&#x208d;" horiz-adv-x="517" d="M89 -13q0 115 31.5 214.5t92.5 172.5h216q-62 -80 -95 -179.5t-33 -207.5t33 -207t95 -179h-216q-61 72 -92.5 172.5t-31.5 213.5z" />
<glyph unicode="&#x208e;" horiz-adv-x="517" d="M89 374h217q59 -74 91 -173t32 -214q0 -112 -32 -213t-91 -173h-217q61 80 94.5 178.5t33.5 207.5q0 108 -33.5 207.5t-94.5 179.5z" />
<glyph unicode="&#x20a1;" horiz-adv-x="1556" d="M89 772q0 226 90.5 399.5t254 277.5t378.5 123l60 162h238l-59 -162q38 -4 108 -17l67 179h238l-95 -259q47 -25 81 -48v-268q-65 57 -160 99l-381 -1037h31q164 0 292.5 41t236.5 132v-268q-203 -158 -553 -159q-36 0 -97 4l-51 -137h-240l67 183q-33 11 -99 42 l-82 -225h-239l133 360q-106 106 -162.5 252.5t-56.5 325.5zM372 772q0 -146 50 -261l283 774q-156 -55 -244.5 -186.5t-88.5 -326.5zM591 316q44 -31 95 -50l384 1051q-25 2 -59 4t-51 2z" />
<glyph unicode="&#x20a4;" horiz-adv-x="1087" d="M89 0v232h175v140h-165v232h165v141h-165v232h165v180q0 135 60 230t165.5 143.5t234.5 48.5q105 0 185 -30v-226q-59 27 -130 26q-108 0 -171.5 -55t-63.5 -157v-160h361v-232h-361v-141h361v-232h-361v-140h456v-232h-911z" />
<glyph unicode="&#x20a6;" horiz-adv-x="1581" d="M89 427v215h152v265h-152v224h152v416h266l552 -1049v1049h281v-416h153v-224h-153v-265h153v-215h-153v-427h-265l-553 1051v-1051h-281v427h-152z" />
<glyph unicode="&#x20a7;" horiz-adv-x="2906" d="M133 0v1547h502q259 0 401.5 -121t142.5 -364h132v318h280v-318h232v-213h-232v-475q0 -102 37 -145t137 -43q35 0 84 16.5t82 40.5q102 -33 193.5 -45t207.5 -12q106 0 154.5 19t48.5 69q0 40 -25.5 64.5t-80.5 45.5t-175 54q-194 56 -278.5 127.5t-84.5 208.5 q0 159 126.5 240t340.5 81q110 0 219.5 -21t172.5 -59v-228q-66 40 -161.5 64.5t-195.5 24.5q-108 0 -163.5 -21t-55.5 -81q0 -40 29.5 -63t79 -40t176.5 -50q137 -38 215 -81.5t111 -105.5t33 -155q0 -142 -120.5 -227t-348.5 -85q-104 0 -219 15.5t-199 48.5 q-44 -29 -116 -46.5t-147 -17.5q-175 0 -266 97.5t-91 273.5v511h-169q-104 -264 -507 -263h-221v-586h-281zM414 796h179q141 0 222.5 60t81.5 206q0 162 -92.5 217t-260.5 55h-130v-538z" />
<glyph unicode="&#x20ab;" horiz-adv-x="1492" d="M89 528q0 166 71.5 294.5t199 200.5t288.5 72q261 0 411 -137v281h-402v209h402v186h279v-186h110v-209h-110v-1239h-270v124q-91 -84 -188 -120.5t-232 -36.5q-161 0 -288.5 69.5t-199 197t-71.5 294.5zM274 -192h1062v-211h-1062v211zM372 528q0 -152 97 -247t248 -95 q119 0 212 64t130 172v215q-35 108 -129 173.5t-213 65.5q-150 0 -247.5 -97.5t-97.5 -250.5z" />
<glyph unicode="&#x20ac;" horiz-adv-x="1490" d="M66 460v213h137q-4 31 -4 99q0 66 4 100h-137v212h181q78 233 267 364t446 131q144 0 251.5 -32t195.5 -99v-266q-90 75 -191 108t-232 33q-317 0 -440 -239h343v-212h-400q-4 -34 -5 -100q0 -38 5 -99h400v-213h-343q60 -118 170.5 -178.5t269.5 -60.5q141 0 241 32 t200 119v-268q-85 -76 -195.5 -106.5t-269.5 -30.5q-257 0 -446 130.5t-267 362.5h-181z" />
<glyph unicode="&#x20b1;" horiz-adv-x="1428" d="M44 838v166h89v75h-89v168h89v300h619q190 0 328 -79t197 -221h108v-168h-74q2 -13 3 -37q0 -27 -3 -38h74v-166h-106q-58 -146 -195 -220t-334 -74h-336v-544h-281v838h-89zM414 768h303q162 0 241 70h-544v-70zM414 1004h626l2 38q0 25 -2 37h-626v-75zM414 1247h546 q-84 76 -243 76h-303v-76z" />
<glyph unicode="&#x20b2;" horiz-adv-x="1576" d="M89 772q0 215 81.5 383t231 274t348.5 137v207h238v-196q272 -13 460 -146v-268q-170 146 -460 158v-474h500v-721q-183 -143 -500 -157v-197h-238v209q-199 31 -348.5 135.5t-231 272.5t-81.5 383zM372 772q0 -201 101.5 -342t276.5 -189v1053q-173 -51 -275.5 -188 t-102.5 -334zM988 221q133 11 219 55v348h-219v-403z" />
<glyph unicode="&#x20b5;" horiz-adv-x="1556" d="M89 772q0 222 87.5 393t245.5 276.5t365 128.5v203h239v-198q243 -22 424 -148v-268q-168 141 -424 160v-1095q133 10 240.5 51t202.5 119v-268q-169 -132 -443 -155v-199h-239v203q-208 25 -365.5 129t-245 275.5t-87.5 392.5zM372 772q0 -213 111.5 -353t303.5 -182 v1070q-192 -42 -303.5 -182.5t-111.5 -352.5z" />
<glyph unicode="&#x20b9;" horiz-adv-x="1098" d="M89 586v210h245q196 0 230 131h-475v232h475q-27 80 -75 117.5t-141 37.5h-259v233h922v-233h-279q34 -21 57 -67t30 -88h192v-232h-192q-25 -146 -136 -235.5t-314 -98.5l346 -593h-288z" />
<glyph unicode="&#x20ba;" horiz-adv-x="1374" d="M89 644v212l185 60v112l-185 -59v213l185 59v306h281v-209l369 124v-212l-369 -125v-112l369 124v-213l-369 -124v-566q237 9 344.5 109t107.5 299v79h280v-82q0 -196 -94 -340.5t-266.5 -221.5t-402.5 -77h-250v703z" />
<glyph unicode="&#x20bd;" horiz-adv-x="1428" d="M89 197v221h122v120h-122v232h122v777h612q255 0 408.5 -135t153.5 -370q0 -243 -153 -373.5t-411 -130.5h-330v-120h233v-221h-233v-197h-280v197h-122zM491 770h296q142 0 229.5 62.5t87.5 209.5q0 272 -317 272h-296v-544z" />
<glyph unicode="&#x210a;" horiz-adv-x="1469" d="M89 534q0 168 71.5 295t199 196.5t288.5 69.5q135 0 232 -36.5t188 -121.5v125h270v-998q0 -275 -158 -424t-486 -149q-105 0 -211.5 20t-176.5 54v220q172 -76 388 -74q195 0 280 81.5t85 243.5v68q-75 -68 -178.5 -102.5t-223.5 -34.5q-162 0 -292.5 71.5t-203 200 t-72.5 295.5zM372 534q0 -153 97 -250.5t248 -97.5q119 0 213 65t129 173v215q-37 108 -130 172.5t-212 64.5q-150 0 -247.5 -95t-97.5 -247z" />
<glyph unicode="&#x2113;" horiz-adv-x="1009" d="M44 570v253q47 11 95.5 26.5t75.5 30.5v378q0 182 102.5 291.5t275.5 109.5q194 0 284 -111t90 -301q0 -181 -126 -317t-347 -220v-345q0 -86 24 -121.5t84 -35.5q57 0 83.5 39.5t26.5 119.5h250q0 -181 -87.5 -290.5t-288.5 -109.5q-111 0 -194.5 50.5t-130 138 t-46.5 194.5v276q-51 -21 -171 -56zM485 956q112 44 169.5 122.5t57.5 171.5q0 162 -115 162q-53 0 -82.5 -41.5t-29.5 -107.5v-307z" />
<glyph unicode="&#x2117;" horiz-adv-x="1806" d="M89 772q0 237 108.5 420.5t295 285t412.5 101.5t411.5 -101.5t293.5 -285t108 -420.5q0 -236 -108 -418.5t-293.5 -284.5t-411.5 -102t-412.5 102t-295 284.5t-108.5 418.5zM338 772q0 -177 74.5 -306.5t202.5 -197t290 -67.5q161 0 289.5 67.5t202.5 197t74 306.5 q0 175 -73 304t-202.5 197.5t-290.5 68.5q-164 0 -292 -68.5t-201.5 -197.5t-73.5 -304zM615 296v945h387q159 0 255 -77.5t96 -221.5q0 -133 -95 -210.5t-256 -77.5h-164v-358h-223zM838 825h156q84 0 121 28.5t37 88.5q0 71 -36.5 99.5t-121.5 28.5h-156v-245z" />
<glyph unicode="&#x2120;" horiz-adv-x="1669" d="M89 1363q0 104 81.5 155.5t220.5 51.5q71 0 143 -14.5t114 -38.5v-145q-44 24 -106 39.5t-126 15.5q-68 0 -106 -13.5t-38 -50.5q0 -36 36.5 -52.5t151.5 -47.5q131 -36 181.5 -87t50.5 -138q0 -93 -78 -148.5t-227 -55.5q-75 0 -160.5 17.5t-131.5 49.5v152 q57 -33 135 -54.5t146 -21.5t100.5 13.5t32.5 44.5q0 35 -37 55t-147 52q-131 37 -183.5 82.5t-52.5 138.5zM787 851v696h173l224 -432l223 432h174v-696h-172v377l-195 -377h-62l-194 377v-377h-171z" />
<glyph unicode="&#x2122;" horiz-adv-x="1661" d="M89 1380v167h643v-167h-225v-529h-193v529h-225zM779 851v696h172l223 -432l224 432h174v-696h-172v377l-195 -377h-61l-195 377v-377h-170z" />
<glyph unicode="&#x2126;" horiz-adv-x="1809" d="M89 0v232h272q-120 95 -195 242t-75 315q0 233 100.5 412t285 278.5t428.5 99.5q243 0 427.5 -99.5t285 -278.5t100.5 -412q0 -168 -75 -315t-195 -242h272v-232h-654v211q369 203 369 578q0 159 -68.5 281t-189 187.5t-272.5 65.5t-273 -65.5t-189.5 -187t-68.5 -281.5 q0 -375 369 -578v-211h-654z" />
<glyph unicode="&#x212e;" horiz-adv-x="1806" d="M89 772q0 255 111.5 437t297.5 276t407 94q215 0 401.5 -98.5t299 -273.5t112.5 -393v-42h-1294v-553q66 -84 212.5 -142t300.5 -58q222 0 370.5 72.5t258.5 242.5h68q-128 -205 -290 -286t-407 -81q-232 0 -426.5 107t-308 292t-113.5 406zM424 827h961v534 q-76 75 -199.5 120t-280.5 45q-306 0 -481 -161v-538z" />
</font>
</defs>
</svg>
